<?xml version="1.0" encoding="UTF-8" standalone="no"?>
<svg
   version="1.1"
   viewBox="0 0 928.31384 225.30519"
   id="svg18069"
   sodipodi:docname="doubly-linked-list.svg"
   width="928.31384"
   height="225.30519"
   inkscape:version="1.1.2 (0a00cf5339, 2022-02-04)"
   xmlns:inkscape="http://www.inkscape.org/namespaces/inkscape"
   xmlns:sodipodi="http://sodipodi.sourceforge.net/DTD/sodipodi-0.dtd"
   xmlns="http://www.w3.org/2000/svg"
   xmlns:svg="http://www.w3.org/2000/svg">
  <defs
     id="defs18073" />
  <sodipodi:namedview
     id="namedview18071"
     pagecolor="#ffffff"
     bordercolor="#666666"
     borderopacity="1.0"
     inkscape:pageshadow="2"
     inkscape:pageopacity="0.0"
     inkscape:pagecheckerboard="0"
     showgrid="false"
     fit-margin-top="0"
     fit-margin-left="0"
     fit-margin-right="0"
     fit-margin-bottom="0"
     inkscape:zoom="0.58826531"
     inkscape:cx="223.53859"
     inkscape:cy="144.49263"
     inkscape:window-width="1362"
     inkscape:window-height="729"
     inkscape:window-x="1920"
     inkscape:window-y="18"
     inkscape:window-maximized="1"
     inkscape:current-layer="svg18069" />
  <g
     stroke-width="2"
     fill="none"
     stroke-linecap="butt"
     id="g17861"
     transform="translate(-30,-52.837864)">
    <path
       stroke="#808080"
       vector-effect="non-scaling-stroke"
       d="m 53.75,67.27 q -2,-4.95 -4.42,-9.7 Q 49.29,57.49 48.66,56 47.38,52.98 43.71,54.18 a 0.67,0.66 -9.1 0 0 -0.46,0.63 q 0,7.2 0,13.78 0,0.14 -0.19,1.29 -0.25,1.57 2.44,1.02 A 0.64,0.63 -6.2 0 0 46,70.28 V 57.99 q 0,-0.49 0.24,-0.05 3.14,5.69 6.17,11.45 1.3,2.48 4.22,1.31 a 0.99,0.98 -11.1 0 0 0.62,-0.91 q 0,-6.78 0,-13.29 0,-0.09 0.08,-0.99 0.17,-2 -2.61,-1.39 a 0.66,0.64 -6.1 0 0 -0.52,0.63 l -0.01,12.59 a 0.16,0.12 85.7 0 1 -0.1,0.15 l -0.1,0.01 a 0.33,0.17 71.1 0 1 -0.24,-0.23"
       id="path17543" />
    <path
       stroke="#808080"
       vector-effect="non-scaling-stroke"
       d="m 66.86,67.94 q -1.93,-0.23 -2.11,-2.17 -0.41,-4.54 -0.27,-9.07 0.01,-0.09 0.09,-0.87 0.23,-2.25 -2.78,-1.7 a 0.68,0.67 87.8 0 0 -0.55,0.6 q -0.42,4.58 -0.09,8.7 0.01,0.07 0.05,2.14 0.07,3.02 2.61,4.37 4.63,2.45 9.01,-0.38 1.65,-1.07 1.96,-3 0.72,-4.52 0.51,-9.26 0,-0.13 0.08,-1.59 0.14,-2.35 -3.12,-1.59 a 0.65,0.64 83.9 0 0 -0.5,0.63 q 0,3.03 0,5.93 0,4.37 -0.05,4.62 -0.64,3.16 -4.84,2.64"
       id="path17545" />
    <path
       stroke="#808080"
       vector-effect="non-scaling-stroke"
       d="M 82.09,66.26 82.22,54.87 A 0.7,0.66 6.8 0 0 81.66,54.2 q -3.16,-0.69 -2.98,1.37 0.07,0.78 0.07,0.87 0,6.66 0,13.57 a 0.95,0.89 89.7 0 0 0.9,0.95 l 7.67,-0.1 a 0.74,0.7 -81.2 0 0 0.66,-0.51 q 0.96,-3.14 -3.75,-2.2 -2.16,0.44 -2.14,-1.89"
       id="path17547" />
    <path
       stroke="#808080"
       vector-effect="non-scaling-stroke"
       d="M 93.31,67.43 93.25,54.75 a 0.71,0.64 -83.5 0 0 -0.47,-0.66 q -1.26,-0.35 -2.5,0.05 a 0.7,0.68 81.2 0 0 -0.48,0.68 l 0.11,15.25 a 0.67,0.63 6.5 0 0 0.51,0.61 q 2.12,0.48 4.31,0.41 0.1,0 2.54,0.03 2.8,0.05 1.63,-2.62 a 0.81,0.76 -10.9 0 0 -0.71,-0.45 l -4.37,-0.1 a 0.52,0.52 0.6 0 1 -0.51,-0.52"
       id="path17549" />
    <path
       stroke="#9fb7cd"
       vector-effect="non-scaling-stroke"
       d="M 70.98,112.13 Q 51.04,111.92 45.25,112 q -9.25,0.12 -12.83,7.67 -1,2.1 -1.24,4.82 -0.18,2.15 -0.18,5.01 0,21.13 0,42.25 0,9.79 7.18,13.6 2.62,1.39 7.42,1.49 25.45,0.51 50.9,-0.13"
       id="path17551" />
    <path
       stroke="#97b2c9"
       vector-effect="non-scaling-stroke"
       d="m 96.5,186.71 38.5,0.33"
       id="path17553" />
    <path
       stroke="#ff8080"
       vector-effect="non-scaling-stroke"
       d="m 135,187.04 -4.13,8.43 q -0.78,1.58 0.88,1.16 1.74,-0.45 2.78,0.14 a 0.94,0.77 -77.5 0 1 0.4,0.79 q -0.49,27.34 -0.94,54.69 -0.02,1.43 0.75,1.18 a 0.84,0.65 83.5 0 0 0.45,-0.74 l 0.86,-55.39 a 0.68,0.66 83.2 0 1 0.49,-0.64 q 1.23,-0.35 2.77,-0.11 1.04,0.16 0.59,-0.82 l -3.94,-8.48"
       id="path17555" />
    <path
       stroke="#97b2c9"
       vector-effect="non-scaling-stroke"
       d="m 135.96,187.25 q 0.09,-0.5 1.04,-0.5 37.64,-0.02 75.28,0.2 14.42,0.08 17.37,-0.78 11.14,-3.25 8.85,-18.63"
       id="path17557" />
    <path
       stroke="#ff8080"
       vector-effect="non-scaling-stroke"
       d="m 238.5,167.54 0.17,-0.09 q 0.25,-0.13 0.34,-0.13 l 66.32,1.49 a 1.35,1.34 -83.8 0 1 1.28,1.6 q -0.26,1.39 0.01,2.32 a 0.47,0.43 -22.1 0 0 0.64,0.24 l 7.49,-3.76"
       id="path17559" />
    <path
       stroke="#9db6cb"
       vector-effect="non-scaling-stroke"
       d="m 314.75,169.21 q -0.48,18.45 16.91,17.94 4.59,-0.14 4.69,-0.14 23.33,0.11 46.65,-0.14 10.41,-0.11 19.99,-0.02 52.32,0.45 104.65,-0.06 5.76,-0.05 8.46,-1.48 5.18,-2.73 6.36,-9.31"
       id="path17561" />
    <path
       stroke="#81a1be"
       vector-effect="non-scaling-stroke"
       d="m 522.46,176 q 0.67,-5.22 0.04,-10.46"
       id="path17563" />
    <path
       stroke="#ff8080"
       vector-effect="non-scaling-stroke"
       d="m 522.5,165.54 q 31.13,0.44 62.25,1.19 0.12,0 1.49,-0.07 2.93,-0.17 2.16,3.6 -0.24,1.15 0.82,0.65 l 8.74,-4.16"
       id="path17565" />
    <path
       stroke="#9fb7cd"
       vector-effect="non-scaling-stroke"
       d="m 597.96,166.75 q -0.1,7.98 0.29,9.5 1.75,6.82 7.21,9.36 2.99,1.4 10.78,1.38 88.01,-0.24 176.01,0.01 9.26,0.03 13.04,-8.91"
       id="path17567" />
    <path
       stroke="#81a1be"
       vector-effect="non-scaling-stroke"
       d="m 805.29,178.09 q 0.79,-12.92 0.46,-25.8"
       id="path17569" />
    <path
       stroke="#ff8080"
       vector-effect="non-scaling-stroke"
       d="m 805.75,152.29 q 35.19,0.72 70.37,1.5 1.58,0.03 2.02,0.45 0.75,0.72 0.2,2.53 -0.55,1.84 1.16,1 l 8.16,-3.98 q 0.73,-0.36 0,-0.74 l -8.23,-4.32 a 0.5,0.46 -73.7 0 0 -0.68,0.41 l -0.36,3.13 a 0.63,0.53 3.5 0 1 -0.64,0.47 l -72,-1.78"
       id="path17571" />
    <path
       stroke="#808da7"
       vector-effect="non-scaling-stroke"
       d="m 805.75,150.96 q -0.38,-13.29 0,-23.71 0.16,-4.41 -1.54,-8"
       id="path17573" />
    <path
       stroke="#9db6cb"
       vector-effect="non-scaling-stroke"
       d="m 804.21,119.25 q -4.01,-7.24 -12.71,-7.25 -26.08,-0.03 -38.75,0.21"
       id="path17575" />
    <path
       stroke="#97b2c9"
       vector-effect="non-scaling-stroke"
       d="m 752.75,112.21 q -64.29,-0.1 -128.59,-0.2 -14.03,-0.02 -16.75,0.78 -10.38,3.04 -9.41,17.17"
       id="path17577" />
    <path
       stroke="#ff8080"
       vector-effect="non-scaling-stroke"
       d="M 598,129.96 532.5,130 a 1.19,1.19 5.7 0 1 -1.17,-1.43 q 0.76,-3.7 -1.08,-2.32 -1.03,0.77 -7.25,3.46"
       id="path17579" />
    <path
       stroke="#9db6cb"
       vector-effect="non-scaling-stroke"
       d="m 523,129.71 q 0.88,-13.9 -9.28,-16.92 -2.64,-0.78 -16.52,-0.81 -47.85,-0.1 -95.7,0.23"
       id="path17581" />
    <path
       stroke="#9db6cb"
       vector-effect="non-scaling-stroke"
       d="m 401.5,112.21 q -33.99,-0.08 -67.97,-0.19 -6.97,-0.03 -10.36,1.37 -10.09,4.17 -8.02,17.62"
       id="path17583" />
    <path
       stroke="#ff8080"
       vector-effect="non-scaling-stroke"
       d="m 315.15,131.01 -63.84,-0.07 a 0.7,0.64 -7.1 0 1 -0.66,-0.47 q -0.32,-1.16 -0.05,-2.82 0.2,-1.21 -0.9,-0.66 l -8.32,4.16 q -0.78,0.39 0,0.79 3.55,1.79 7.02,3.49 1.51,0.73 1.58,0.73 0.84,0 0.32,-2.71 a 1.17,1.16 84.5 0 1 1.14,-1.39 L 315,132.04"
       id="path17585" />
    <path
       stroke="#81a1be"
       vector-effect="non-scaling-stroke"
       d="m 315,132.04 0.29,34.21"
       id="path17587" />
    <path
       stroke="#9db6cb"
       vector-effect="non-scaling-stroke"
       d="m 315.29,166.25 q 0.1,0.85 -0.33,1.5"
       id="path17589" />
    <path
       stroke="#ff8080"
       vector-effect="non-scaling-stroke"
       d="m 314.96,167.75 -7.9,-4.26 a 0.33,0.32 14.7 0 0 -0.49,0.27 l -0.06,3.3 a 0.72,0.69 -89.2 0 1 -0.7,0.71 q -32.43,-0.68 -64.06,-1.27 -2.45,-0.05 -3.25,-0.54"
       id="path17591" />
    <path
       stroke="#808da7"
       vector-effect="non-scaling-stroke"
       d="m 238.5,165.96 0.21,-27.21"
       id="path17593" />
    <path
       stroke="#9db6cb"
       vector-effect="non-scaling-stroke"
       d="m 238.71,138.75 q 0.13,-1.66 0.29,-10.25 0.32,-17.01 -16.5,-16.5 -10.49,0.32 -66.5,-0.01 -25.25,-0.15 -50.5,0.22"
       id="path17595" />
    <path
       stroke="#81a1be"
       vector-effect="non-scaling-stroke"
       d="M 105.5,112.21 72.29,112.5"
       id="path17597" />
    <path
       stroke="#ff8080"
       vector-effect="non-scaling-stroke"
       d="m 72.29,112.5 q -0.49,-11.69 -0.3,-23.4 0,-0.1 -0.12,-1.69 -0.18,-2.59 2.9,-1.91 2.02,0.45 1.08,-1.46 L 72.07,76.4 q -0.53,-1.08 -1.04,-0.01 l -3.99,8.35 a 0.46,0.43 -68.2 0 0 0.24,0.62 q 1.41,0.46 2.36,0.16 a 1.05,1.05 -8.6 0 1 1.36,1 l -0.02,25.61"
       id="path17599" />
    <path
       stroke="#81223f"
       vector-effect="non-scaling-stroke"
       d="m 72.29,112.5 v 1"
       id="path17601" />
    <path
       stroke="#ef767c"
       vector-effect="non-scaling-stroke"
       d="m 72.29,113.5 q -0.39,5.92 -0.54,11.86 0,0.16 -0.07,0.26 -0.17,0.29 -0.35,0.02 -0.08,-0.11 -0.09,-0.3 -0.36,-5.79 -0.28,-11.59"
       id="path17603" />
    <path
       stroke="#9f384d"
       vector-effect="non-scaling-stroke"
       d="m 70.96,113.75 0.02,-1.62"
       id="path17605" />
    <path
       stroke="#8eadc9"
       vector-effect="non-scaling-stroke"
       d="m 70.96,113.75 q -8.13,0 -16.25,0.12 -11.77,0.18 -13.85,0.8 -6.26,1.88 -7.56,8.73 -0.3,1.59 -0.3,10.72 0,14.46 0,28.92 0,10.81 0.17,11.9 1.27,7.89 8.53,9.67 1.6,0.4 15.15,0.34 19.83,-0.08 39.65,0.34"
       id="path17607" />
    <path
       stroke="#376a97"
       vector-effect="non-scaling-stroke"
       d="m 96.5,185.29 v 1.42"
       id="path17609" />
    <path
       stroke="#7197ba"
       vector-effect="non-scaling-stroke"
       d="M 105.5,113.71 72.29,113.5"
       id="path17611" />
    <path
       stroke="#6f83a3"
       vector-effect="non-scaling-stroke"
       d="m 237.46,139 0.04,27.21"
       id="path17613" />
    <path
       stroke="#ef767c"
       vector-effect="non-scaling-stroke"
       d="m 237.5,166.21 q -5.67,-0.1 -11.34,-0.2 -0.47,-0.01 -0.83,0.06 -1.67,0.31 -0.22,1.01 0.36,0.17 0.81,0.16 5.8,-0.19 11.58,0.3"
       id="path17615" />
    <path
       stroke="#87a8c5"
       vector-effect="non-scaling-stroke"
       d="m 237.5,167.54 q -0.46,2.56 -0.53,5.14 -0.09,3.35 -0.76,5.03 -2.46,6.1 -8.55,7.19 -0.33,0.06 -10.34,0.15 -38.91,0.37 -77.83,0.05 -8.48,-0.08 -19.98,0.1 -11.5,0.17 -23.01,0.09"
       id="path17617" />
    <path
       stroke="#97334a"
       vector-effect="non-scaling-stroke"
       d="m 135.96,187.25 q -0.43,-0.37 -0.96,-0.21"
       id="path17619" />
    <path
       stroke="#1e4473"
       vector-effect="non-scaling-stroke"
       d="m 238.71,138.75 q -0.72,-0.18 -1.25,0.25"
       id="path17621" />
    <path
       stroke="#8dacc7"
       vector-effect="non-scaling-stroke"
       d="m 237.46,139 q -0.61,-4.35 -0.39,-8.75 0.26,-5.34 -0.57,-8.25 -1.21,-4.27 -4.94,-6.37 -2.42,-1.36 -7.39,-1.44 -43.42,-0.62 -65.23,-0.38 -33.5,0.38 -53.44,-0.1"
       id="path17623" />
    <path
       stroke="#1f588a"
       vector-effect="non-scaling-stroke"
       d="m 105.5,113.71 q 0.58,-0.76 0,-1.5"
       id="path17625" />
    <path
       stroke="#9d374c"
       vector-effect="non-scaling-stroke"
       d="m 314.96,167.75 q 0.22,0.82 -0.21,1.46"
       id="path17627" />
    <path
       stroke="#97334a"
       vector-effect="non-scaling-stroke"
       d="m 238.5,167.54 h -1"
       id="path17629" />
    <path
       stroke="#800e28"
       vector-effect="non-scaling-stroke"
       d="m 238.5,165.96 q -0.44,0.42 -1,0.25"
       id="path17631" />
    <path
       stroke="#1f588a"
       vector-effect="non-scaling-stroke"
       d="m 521.21,174.5 q -0.05,2.09 1.25,1.5"
       id="path17633" />
    <path
       stroke="#1f588a"
       vector-effect="non-scaling-stroke"
       d="m 316.71,165.5 -1.42,0.75"
       id="path17635" />
    <path
       stroke="#6f7e97"
       vector-effect="non-scaling-stroke"
       d="m 521.29,134.5 q 0.55,14.98 -0.04,29.96"
       id="path17637" />
    <path
       stroke="#ef767c"
       vector-effect="non-scaling-stroke"
       d="M 521.25,164.46 508.49,164 a 1,0.88 16.7 0 0 -0.82,0.38 q -0.58,0.84 1.08,0.8 6.39,-0.15 12.75,0.36"
       id="path17639" />
    <path
       stroke="#7197ba"
       vector-effect="non-scaling-stroke"
       d="m 521.5,165.54 -0.29,8.96"
       id="path17641" />
    <path
       stroke="#8dacc7"
       vector-effect="non-scaling-stroke"
       d="m 521.21,174.5 q -1.94,10.71 -13.21,10.5 -20.84,-0.39 -111.75,0.19 -9.91,0.06 -20,-0.01 -35.79,-0.26 -46.25,-0.18 -10.21,0.07 -12.5,-8.56 -0.42,-1.57 -0.45,-5.44 -0.03,-2.76 -0.34,-5.5"
       id="path17643" />
    <path
       stroke="#7197ba"
       vector-effect="non-scaling-stroke"
       d="m 316.71,165.5 0.04,-33.46"
       id="path17645" />
    <path
       stroke="#ef767c"
       vector-effect="non-scaling-stroke"
       d="m 316.75,132.04 8.94,-0.1 a 0.7,0.57 4.4 0 0 0.67,-0.46 q 0.17,-0.91 -1.61,-0.48 -1.78,0.43 -7.96,-0.25"
       id="path17647" />
    <path
       stroke="#9f384d"
       vector-effect="non-scaling-stroke"
       d="m 598.29,166.25 -0.33,0.5"
       id="path17649" />
    <path
       stroke="#81223f"
       vector-effect="non-scaling-stroke"
       d="m 522.5,165.54 h -1"
       id="path17651" />
    <path
       stroke="#81223f"
       vector-effect="non-scaling-stroke"
       d="M 316.75,132.04 H 315"
       id="path17653" />
    <path
       stroke="#3b6d97"
       vector-effect="non-scaling-stroke"
       d="m 401.5,112.21 5.82,0.18 a 1.09,1.08 72.4 0 1 0.82,0.43 q 0.87,1.14 -0.89,0.97"
       id="path17655" />
    <path
       stroke="#8dacc7"
       vector-effect="non-scaling-stroke"
       d="M 407.25,113.79 Q 341.44,113.73 328,114 q -7.62,0.16 -10.5,8 -0.74,2 -0.71,8.75"
       id="path17657" />
    <path
       stroke="#9d374c"
       vector-effect="non-scaling-stroke"
       d="m 316.79,130.75 q -0.92,0.43 -1.64,0.26"
       id="path17659" />
    <path
       stroke="#80081b"
       vector-effect="non-scaling-stroke"
       d="m 522.5,164.21 q -0.6,0.3 -1.25,0.25"
       id="path17661" />
    <path
       stroke="#9d374c"
       vector-effect="non-scaling-stroke"
       d="m 523,129.71 q -1.63,0.82 -0.25,1.58"
       id="path17663" />
    <path
       stroke="#9db6cb"
       vector-effect="non-scaling-stroke"
       d="m 522.75,131.29 -0.04,3.21"
       id="path17665" />
    <path
       stroke="#1e3f67"
       vector-effect="non-scaling-stroke"
       d="m 522.71,134.5 h -1.42"
       id="path17667" />
    <path
       stroke="#8dacc7"
       vector-effect="non-scaling-stroke"
       d="m 521.29,134.5 q -0.16,-3.83 -0.34,-7.66 -0.25,-4.92 -1.71,-7.36 -3.42,-5.71 -11.49,-5.48 -13.96,0.4 -55.57,-0.25 a 0.44,0.4 -20.8 0 1 -0.3,-0.12 l -0.13,-0.13 a 0.52,0.47 -33.6 0 0 -0.56,-0.08 q -1.17,0.56 -3.69,0.58 -20.13,0.16 -40.25,-0.21"
       id="path17669" />
    <path
       stroke="#808da7"
       vector-effect="non-scaling-stroke"
       d="m 598.25,131.04 q 0.59,17.48 -0.04,34.96"
       id="path17671" />
    <path
       stroke="#ff8080"
       vector-effect="non-scaling-stroke"
       d="m 598.21,166 q -4.69,-1.71 -8.86,-4.42 a 0.32,0.31 19.9 0 0 -0.49,0.22 l -0.4,3.37 a 0.68,0.65 -85.2 0 1 -0.67,0.59 l -65.29,-1.55"
       id="path17673" />
    <path
       stroke="#80889b"
       vector-effect="non-scaling-stroke"
       d="m 522.5,164.21 0.21,-29.71"
       id="path17675" />
    <path
       stroke="#1f4575"
       vector-effect="non-scaling-stroke"
       d="m 599.71,166.5 q -0.8,0.14 -1.42,-0.25"
       id="path17677" />
    <path
       stroke="#800e28"
       vector-effect="non-scaling-stroke"
       d="M 598.29,166.25 598.21,166"
       id="path17679" />
    <path
       stroke="#800e28"
       vector-effect="non-scaling-stroke"
       d="m 599.89,131.02 -1.64,0.02"
       id="path17681" />
    <path
       stroke="#ff8080"
       vector-effect="non-scaling-stroke"
       d="M 598.25,131.04 532.64,131 a 1.22,1.21 -4.6 0 0 -1.2,1.41 q 0.24,1.44 -0.08,2.55 a 0.44,0.42 21.6 0 1 -0.61,0.24 l -8,-3.91"
       id="path17683" />
    <path
       stroke="#80b4dd"
       vector-effect="non-scaling-stroke"
       d="m 669.74,113.72 q 0.79,34.3 0.51,68.46 0,0.34 0.12,0.61 0.7,1.56 0.66,-0.86 -0.56,-34.09 0.03,-68.11"
       id="path17685" />
    <path
       stroke="#6f83a3"
       vector-effect="non-scaling-stroke"
       d="m 802.75,119.54 q 1.38,2.96 1.5,4.96 0.68,10.98 0,26.46"
       id="path17687" />
    <path
       stroke="#ef767c"
       vector-effect="non-scaling-stroke"
       d="m 804.25,150.96 q -3,0.07 -5.99,0.22 -1.06,0.05 -0.84,0.47 a 1.05,0.58 -4.9 0 0 0.81,0.36 l 6.02,0.28"
       id="path17689" />
    <path
       stroke="#7197ba"
       vector-effect="non-scaling-stroke"
       d="m 804.25,152.29 -0.36,24.68"
       id="path17691" />
    <path
       stroke="#8eadc9"
       vector-effect="non-scaling-stroke"
       d="m 803.89,176.97 q -2.74,6.24 -8.4,7.67 -1.35,0.34 -10.52,0.38 -85.31,0.36 -170.61,0 -5.74,-0.03 -8.46,-1.44 -5.99,-3.11 -5.9,-11.08 0.04,-3.86 -0.29,-6"
       id="path17693" />
    <path
       stroke="#6f83a3"
       vector-effect="non-scaling-stroke"
       d="m 599.71,166.5 q -0.59,-17.74 0.18,-35.48"
       id="path17695" />
    <path
       stroke="#ef767c"
       vector-effect="non-scaling-stroke"
       d="m 599.89,131.02 6.62,-0.02 a 1.07,0.87 14.4 0 0 0.82,-0.38 q 0.66,-0.93 -1.33,-0.62 -1.62,0.25 -6,-0.15"
       id="path17697" />
    <path
       stroke="#21598c"
       vector-effect="non-scaling-stroke"
       d="m 805.29,178.09 -1.4,-1.12"
       id="path17699" />
    <path
       stroke="#356995"
       vector-effect="non-scaling-stroke"
       d="m 752.75,112.21 7.5,0.04 a 0.89,0.69 -8.1 0 1 0.76,0.43 q 0.3,0.72 -0.51,1.11"
       id="path17701" />
    <path
       stroke="#87a8c5"
       vector-effect="non-scaling-stroke"
       d="m 760.5,113.79 -89.44,0.03"
       id="path17703" />
    <path
       stroke="#2871ab"
       vector-effect="non-scaling-stroke"
       d="m 671.06,113.82 -1.32,-0.1"
       id="path17705" />
    <path
       stroke="#87a8c5"
       vector-effect="non-scaling-stroke"
       d="m 669.74,113.72 q -28.86,0.23 -56.49,0.28 -14.92,0.03 -13.25,15.85"
       id="path17707" />
    <path
       stroke="#97334a"
       vector-effect="non-scaling-stroke"
       d="m 600,129.85 q -1.18,0.53 -2,0.11"
       id="path17709" />
    <path
       stroke="#1e4473"
       vector-effect="non-scaling-stroke"
       d="m 804.21,119.25 q -0.77,-0.03 -1.46,0.29"
       id="path17711" />
    <path
       stroke="#8dacc7"
       vector-effect="non-scaling-stroke"
       d="m 802.75,119.54 q -3.82,-5.66 -11,-5.54 -13,0.22 -31.25,-0.21"
       id="path17713" />
    <path
       stroke="#800e28"
       vector-effect="non-scaling-stroke"
       d="m 805.75,150.96 h -1.5"
       id="path17715" />
    <path
       stroke="#81223f"
       vector-effect="non-scaling-stroke"
       d="m 805.75,152.29 h -1.5"
       id="path17717" />
    <path
       stroke="#808080"
       vector-effect="non-scaling-stroke"
       d="m 911.53,153.89 q -1.59,-4.54 -4.27,-9.4 -0.02,-0.04 -0.76,-1.68 -1.25,-2.8 -4.83,-1.62 a 0.72,0.7 81 0 0 -0.48,0.68 l -0.12,15.33 a 0.75,0.67 -81.3 0 0 0.45,0.69 q 1.06,0.37 2.05,-0.13 a 0.87,0.78 77.8 0 0 0.43,-0.75 v -12.26 q 0,-0.5 0.23,-0.07 2.55,4.85 4.99,9.75 0.05,0.11 0.5,1.16 1.2,2.85 4.48,2.34 a 1.24,1.22 -4.4 0 0 1.05,-1.21 q 0,-6.6 0,-13.22 0,-0.07 0.08,-1 0.17,-1.89 -2.35,-1.4 a 0.9,0.9 -5.9 0 0 -0.72,0.88 l -0.01,11.79 q 0,2.16 -0.72,0.12"
       id="path17719" />
    <path
       stroke="#808080"
       vector-effect="non-scaling-stroke"
       d="m 919.28,144.44 q -0.05,4.5 0.02,8.48 0.05,2.75 2.5,4.01 3.61,1.86 7.08,0.62 2.06,-0.74 3.14,-2.33 1.15,-1.7 1.18,-3.97 0.04,-2.97 0.05,-5.93 0,-0.08 0.16,-2.13 0.25,-3.19 -3.19,-2.1 a 0.7,0.66 81 0 0 -0.46,0.67 q 0.13,4.71 -0.14,9.42 -0.13,2.21 -1.26,3.22 -1.77,1.57 -4.06,0.26 -1.8,-1.02 -1.8,-3.09 v -9.67 a 0.73,0.72 5.9 0 0 -0.58,-0.71 q -3.49,-0.73 -2.89,1.37 0.27,0.91 0.25,1.88"
       id="path17721" />
    <path
       stroke="#808080"
       vector-effect="non-scaling-stroke"
       d="m 940.31,154.43 -0.06,-12.68 a 0.71,0.64 -83.5 0 0 -0.47,-0.66 q -1.26,-0.35 -2.5,0.05 a 0.69,0.68 81.1 0 0 -0.48,0.67 l 0.11,15.5 a 0.59,0.56 2.3 0 0 0.53,0.55 q 2.79,0.24 5.59,0.16 0.14,0 1.43,0.08 2.21,0.13 1.78,-2.42 A 0.85,0.82 -4.9 0 0 945.41,155 l -4.59,-0.04 a 0.53,0.52 -89.4 0 1 -0.51,-0.53"
       id="path17723" />
    <path
       stroke="#808080"
       vector-effect="non-scaling-stroke"
       d="m 951.31,154.43 -0.06,-12.68 a 0.71,0.64 -83.5 0 0 -0.47,-0.66 q -1.26,-0.35 -2.5,0.05 a 0.69,0.68 81.1 0 0 -0.48,0.67 l 0.11,15.5 a 0.59,0.56 2.3 0 0 0.53,0.55 q 2.79,0.24 5.59,0.16 0.14,0 1.43,0.08 2.21,0.13 1.78,-2.42 A 0.85,0.82 -4.9 0 0 956.41,155 l -4.59,-0.04 a 0.53,0.52 -89.4 0 1 -0.51,-0.53"
       id="path17725" />
    <path
       stroke="#808080"
       vector-effect="non-scaling-stroke"
       d="m 111.2,266.97 -5.27,-0.1 a 0.57,0.56 90 0 1 -0.55,-0.56 l -0.1,-5.47 a 0.64,0.6 -84.5 0 0 -0.48,-0.62 q -2.3,-0.48 -2.75,0.48 -0.05,0.11 -0.05,2.12 0,6.5 0,13.39 a 0.64,0.63 6.2 0 0 0.5,0.62 q 3.62,0.82 2.75,-1.58 -0.33,-0.9 0.12,-4.56 a 0.64,0.58 -86.5 0 1 0.57,-0.56 l 5.25,-0.1 a 0.53,0.5 89.5 0 1 0.51,0.53 l 0.05,5.59 a 0.64,0.63 -83.8 0 0 0.49,0.62 q 2.44,0.55 2.93,-0.42 0.08,-0.15 0.08,-2.23 0,-5.83 0,-11.67 0,-0.09 0.07,-0.88 0.17,-2.06 -3.04,-1.36 a 0.69,0.68 83.7 0 0 -0.53,0.67 l -0.04,5.56 a 0.54,0.5 -88.9 0 1 -0.51,0.53"
       id="path17727" />
    <path
       stroke="#808080"
       vector-effect="non-scaling-stroke"
       d="m 122.4,273.47 q -1.9,-5.57 3.83,-4.37 2.37,0.5 1.56,-2.68 A 0.56,0.56 82.6 0 0 127.25,266 h -4.16 a 0.77,0.77 83.9 0 1 -0.75,-0.61 q -0.65,-2.95 1.91,-2.39 1.39,0.3 4,-0.16 a 0.95,0.82 3.5 0 0 0.71,-0.54 q 0.38,-1.01 -0.2,-1.86 a 1.05,0.88 -14.4 0 0 -0.82,-0.39 l -8.3,-0.05 a 0.66,0.64 90 0 0 -0.64,0.66 v 15.32 a 0.97,0.91 89.7 0 0 0.92,0.97 l 8.33,-0.15 a 0.73,0.73 -81.6 0 0 0.68,-0.51 q 0.27,-0.92 0,-1.82 a 0.74,0.64 -7.3 0 0 -0.69,-0.46 l -5.18,-0.06 a 0.7,0.69 80.7 0 1 -0.66,-0.48"
       id="path17729" />
    <path
       stroke="#808080"
       vector-effect="non-scaling-stroke"
       d="m 135.31,273.05 5.6,-0.05 a 0.85,0.84 88.9 0 1 0.84,0.82 q 0.2,4.35 3.97,2.93 a 0.53,0.52 69.6 0 0 0.3,-0.67 l -5.53,-15.43 a 0.83,0.66 77.8 0 0 -0.67,-0.55 l -3.26,-0.04 a 0.81,0.69 -78.8 0 0 -0.68,0.54 l -5.4,15.49 a 0.58,0.53 -69.6 0 0 0.28,0.7 q 1.21,0.51 2.47,0.08 a 1.05,0.91 -88.1 0 0 0.61,-0.66 l 0.82,-2.67 a 0.71,0.67 -80.5 0 1 0.65,-0.49"
       id="path17731" />
    <path
       stroke="#808080"
       vector-effect="non-scaling-stroke"
       d="m 156.18,260.44 q -3.69,-1.04 -7.63,-0.23 a 0.64,0.62 84.9 0 0 -0.5,0.61 L 148,276.01 a 0.88,0.86 5.2 0 0 0.72,0.85 q 4.27,0.78 8.36,-0.58 2.48,-0.82 3.57,-2.57 1.15,-1.85 1.35,-4.46 0.26,-3.41 -1.27,-5.77 -1.39,-2.14 -4.55,-3.04"
       id="path17733" />
    <path
       stroke="#8ebde4"
       vector-effect="non-scaling-stroke"
       d="m 451.91,114.51 a 0.44,0.44 0 0 0 -0.44,-0.44 h -0.02 a 0.44,0.44 0 0 0 -0.44,0.44 v 67.4 a 0.44,0.44 0 0 0 0.44,0.44 h 0.02 a 0.44,0.44 0 0 0 0.44,-0.44 v -67.4"
       id="path17735" />
    <path
       stroke="#80b4dd"
       vector-effect="non-scaling-stroke"
       d="m 386.75,115.63 a 0.25,0.25 0 0 0 -0.25,-0.25 v 0 a 0.25,0.25 0 0 0 -0.25,0.25 v 69 a 0.25,0.25 0 0 0 0.25,0.25 v 0 a 0.25,0.25 0 0 0 0.25,-0.25 v -69"
       id="path17737" />
    <path
       stroke="#6f767c"
       vector-effect="non-scaling-stroke"
       d="m 340.65,152.11 q 6.62,0.32 5.66,-6.67 -0.31,-2.26 -2.5,-2.92 -3.26,-0.98 -6.51,-0.32 a 0.67,0.63 -5.8 0 0 -0.53,0.61 l -0.23,13.16 a 1.14,1.06 7.7 0 0 0.88,1.07 q 2.74,0.62 1.85,-3.29 a 1.35,1.35 -4.9 0 1 1.38,-1.64"
       id="path17739" />
    <path
       stroke="#6f767c"
       vector-effect="non-scaling-stroke"
       d="m 406.34,154.5 q 1.4,-2.03 1.41,-4.51 0.02,-7.55 -6.76,-7.88 Q 398.75,142 396.7,142 a 0.93,0.9 -0.3 0 0 -0.93,0.91 l 0.14,13.4 a 0.62,0.6 4 0 0 0.52,0.58 q 1.77,0.26 3.56,0.3 4.41,0.12 6.35,-2.69"
       id="path17741" />
    <path
       stroke="#6f767c"
       vector-effect="non-scaling-stroke"
       d="m 461.01,146.08 4.69,10.03 a 1.55,1.41 88 0 0 0.68,0.7 q 1.52,0.75 2.71,-0.27 a 1.24,1.02 73.5 0 0 0.36,-0.85 l 0.05,-12.82 a 0.95,0.94 6.1 0 0 -0.75,-0.92 q -2.02,-0.45 -1.84,1.46 0.09,1.07 0.1,1.19 0.03,4.64 -0.06,8.85 -0.03,1.13 -0.46,0.08 -2.05,-4.9 -4.02,-9.07 -0.03,-0.07 -0.33,-0.97 -0.56,-1.69 -3.48,-1.37 a 1.29,1.29 -3 0 0 -1.16,1.28 l 0.06,12.78 a 0.8,0.69 -81.1 0 0 0.45,0.72 q 0.87,0.34 1.73,0.01 a 0.81,0.72 80.5 0 0 0.46,-0.73 l 0.05,-9.95 q 0.01,-1.75 0.76,-0.15"
       id="path17743" />
    <path
       stroke="#6f767c"
       vector-effect="non-scaling-stroke"
       d="m 425.82,148.11 q 2.82,0.19 1.66,-1.64 a 1.01,0.78 -12.2 0 0 -0.8,-0.38 q -1.92,0.01 -1.54,-2.1 a 0.7,0.61 -73.4 0 0 -0.33,-0.72 q -2.82,-1.34 -2.5,1.92 0.08,0.77 -0.5,0.88 a 1.14,0.49 -4.3 0 0 -0.77,0.4 q -0.67,1.21 0.81,1.81 a 0.7,0.68 11.8 0 1 0.44,0.65 q -0.06,1.57 0.21,4.82 0.29,3.54 3.74,3.16 1.78,-0.2 1.37,-1.63 a 0.63,0.51 -11.1 0 0 -0.67,-0.35 q -0.57,0.07 -1.07,-0.13 a 0.83,0.77 -80.5 0 1 -0.49,-0.74 l -0.1,-5.5 a 0.5,0.45 1.8 0 1 0.54,-0.45"
       id="path17745" />
    <path
       stroke="#6f767c"
       vector-effect="non-scaling-stroke"
       d="m 498.54,154.18 q -0.09,-2.46 -0.09,-5.43 0,-1.15 1.32,-0.74 a 0.97,0.97 -79.3 0 0 1.24,-0.85 q 0.13,-1.67 -1.5,-1.23 a 0.83,0.83 -5.3 0 1 -1.04,-0.86 q 0.21,-2.65 -2.11,-1.86 -1.33,0.46 -0.72,2.21 a 0.42,0.41 -20.9 0 1 -0.24,0.53 q -2.92,1.14 -0.19,2.19 a 0.63,0.61 14.9 0 1 0.4,0.66 q -0.21,1.57 -0.08,3.14 0.22,2.54 0.41,3.11 0.67,2.04 3.72,1.94 a 1.23,1.22 8.8 0 0 1.11,-0.81 q 0.67,-1.86 -1.1,-1.24 a 0.85,0.84 78.8 0 1 -1.13,-0.76"
       id="path17747" />
    <path
       stroke="#6f767c"
       vector-effect="non-scaling-stroke"
       d="m 351.27,147.03 q -2.17,-2.84 -2.22,1.22 -0.04,2.77 -0.05,5.54 0,0.15 -0.14,1.92 -0.19,2.23 1.67,1.51 1.82,-0.72 1.47,-2.65 -0.71,-3.81 0.75,-5.87 a 0.98,0.82 17 0 1 0.8,-0.34 q 2.33,0.15 1.58,-1.84 a 0.76,0.76 80.4 0 0 -0.7,-0.5 q -1.5,-0.04 -2.54,1.04 a 0.41,0.4 -41.3 0 1 -0.62,-0.03"
       id="path17749" />
    <path
       stroke="#6f767c"
       vector-effect="non-scaling-stroke"
       d="m 360.06,152.05 5.46,-0.05 a 0.81,0.79 3.3 0 0 0.79,-0.69 q 0.37,-2.93 -1.51,-4.35 -1.54,-1.16 -3.94,-0.79 -3.98,0.63 -4.25,4.58 -0.2,2.84 1.34,4.69 1.9,2.26 5.46,1.32 0.07,-0.02 1.33,-0.25 1.27,-0.23 1.26,-1.5 a 0.77,0.77 78.7 0 0 -1.06,-0.71 q -4.65,1.93 -5.31,-1.74 a 0.44,0.43 -5 0 1 0.43,-0.51"
       id="path17751" />
    <path
       stroke="#6f767c"
       vector-effect="non-scaling-stroke"
       d="m 372.68,153.05 q -0.84,-2.56 -1.59,-5.57 -0.48,-1.96 -2.89,-1.41 a 0.58,0.57 -15.6 0 0 -0.42,0.74 l 3.12,9.4 a 1.09,0.98 88.4 0 0 0.63,0.66 q 1.56,0.51 3.02,-0.14 a 1.19,1.07 88.8 0 0 0.61,-0.71 l 2.89,-9.23 a 0.58,0.55 -70.6 0 0 -0.31,-0.69 q -2.1,-0.83 -2.71,1.41 -0.67,2.42 -1.72,5.54 -0.31,0.94 -0.63,0"
       id="path17753" />
    <path
       stroke="#6f767c"
       vector-effect="non-scaling-stroke"
       d="m 415.71,148.34 q 0.44,0.5 0.5,1.1 a 0.51,0.45 -2.1 0 1 -0.51,0.49 q -2.55,-0.01 -3.7,0.57 -2.37,1.19 -2.18,3.28 0.17,1.8 1.84,2.74 1.9,1.06 4.14,-0.03 a 0.87,0.8 47.4 0 1 0.84,0.07 q 0.87,0.59 1.83,0.31 a 0.76,0.66 84.5 0 0 0.49,-0.69 q 0.09,-2.84 0.18,-5.68 0.13,-4.17 -3.89,-4.5 -3.88,-0.32 -4.44,1.06 -1.05,2.61 2.81,0.83 a 1.79,1.78 57 0 1 2.09,0.45"
       id="path17755" />
    <path
       stroke="#6f767c"
       vector-effect="non-scaling-stroke"
       d="m 435.44,149.88 q -3.22,-0.26 -5.36,1.99 a 1.41,1.41 -22.1 0 0 -0.37,0.87 q -0.3,5.06 5.93,3.84 a 1.65,1.62 -38.1 0 1 0.98,0.11 q 2.5,1.14 2.31,-1.45 -0.18,-2.49 -0.07,-4.99 0.14,-3.37 -3.03,-4.15 -3.51,-0.86 -5.53,1.74 a 0.44,0.4 -59.1 0 0 0.13,0.66 q 0.85,0.34 2.07,-0.25 2.76,-1.32 3.35,1.2 a 0.38,0.35 -3.7 0 1 -0.41,0.43"
       id="path17757" />
    <path
       stroke="#6f767c"
       vector-effect="non-scaling-stroke"
       d="m 475.81,152.05 5.42,-0.05 a 1.03,1 0 0 0 1.02,-0.99 q 0.04,-2.72 -1.74,-4.06 -1.51,-1.15 -3.85,-0.89 -4.25,0.47 -4.35,5.25 -0.13,6.76 6.94,5.44 2.15,-0.4 2.59,-1.94 a 0.41,0.4 7.4 0 0 -0.4,-0.51 q -0.79,0.01 -1.53,0.27 -1.44,0.51 -1.91,0.51 -2.48,-0.02 -2.67,-2.52 a 0.48,0.47 -2.2 0 1 0.48,-0.51"
       id="path17759" />
    <path
       stroke="#6f767c"
       vector-effect="non-scaling-stroke"
       d="m 487.77,154.23 q 0.99,-1.67 1.55,0.18 1.02,3.35 3.66,2.46 a 0.46,0.43 67.1 0 0 0.23,-0.63 l -2.25,-4.54 a 1.06,1.03 -45.7 0 1 0,-0.91 q 0.65,-1.39 1.43,-2.71 0.46,-0.76 0.53,-1.24 0.21,-1.39 -1.49,-0.88 a 2.59,2.58 0.4 0 0 -1.75,1.72 q -0.78,2.51 -1.63,1.16 -0.14,-0.23 -0.46,-1.24 -0.73,-2.38 -3.31,-1.47 a 0.45,0.43 67.2 0 0 -0.24,0.62 l 2.18,4.24 a 1.05,0.85 -48.2 0 1 -0.04,0.87 l -2.24,4.43 a 0.48,0.47 23.6 0 0 0.27,0.66 q 1.86,0.74 2.54,-0.7 0.71,-1.5 1.02,-2.02"
       id="path17761" />
    <path
       stroke="#8ebde4"
       vector-effect="non-scaling-stroke"
       d="m 103.82,114.45 a 0.27,0.27 0 0 0 -0.27,-0.27 h -0.24 a 0.27,0.27 0 0 0 -0.27,0.27 v 68.64 a 0.27,0.27 0 0 0 0.27,0.27 h 0.24 a 0.27,0.27 0 0 0 0.27,-0.27 v -68.64"
       id="path17763" />
    <path
       stroke="#80b4dd"
       vector-effect="non-scaling-stroke"
       d="m 166.75,114.88 a 0.26,0.26 0 0 0 -0.26,-0.26 h -0.02 a 0.26,0.26 0 0 0 -0.26,0.26 v 69.08 a 0.26,0.26 0 0 0 0.26,0.26 h 0.02 a 0.26,0.26 0 0 0 0.26,-0.26 v -69.08"
       id="path17765" />
    <path
       stroke="#6f767c"
       vector-effect="non-scaling-stroke"
       d="m 53.18,143.02 q -0.32,5.94 -0.25,11.98 0.04,2.96 2.43,1.8 a 0.94,0.74 -15.1 0 0 0.54,-0.72 l 0.07,-2.94 A 1.16,1.03 -89.4 0 1 57,152 q 2.59,-0.01 4.15,-1.26 1.49,-1.2 1.78,-3.52 0.41,-3.23 -2.53,-4.63 -1.13,-0.54 -3.04,-0.58 -1.56,-0.04 -3.12,-0.01 a 1.09,1.08 -88.9 0 0 -1.06,1.02"
       id="path17767" />
    <path
       stroke="#6f767c"
       vector-effect="non-scaling-stroke"
       d="m 121.68,143.35 q -3.08,-1.93 -8.21,-1.16 a 1.38,1.38 -4 0 0 -1.17,1.34 q -0.09,4.67 -0.06,9.96 0,0.08 -0.1,1.52 -0.15,2.2 1.99,2.1 1.58,-0.07 1.75,-0.06 9.38,0.26 8.37,-9.56 -0.28,-2.7 -2.57,-4.14"
       id="path17769" />
    <path
       stroke="#6f767c"
       vector-effect="non-scaling-stroke"
       d="m 182.75,152.92 -4.47,-10.03 a 1.37,1.23 86.7 0 0 -0.67,-0.67 q -1.59,-0.66 -3.12,0.1 a 0.87,0.77 79 0 0 -0.44,0.74 q -0.09,5.68 -0.05,11.36 0,0.09 -0.09,1.15 -0.15,1.92 2.15,1.42 a 0.88,0.87 -6.2 0 0 0.69,-0.85 l -0.06,-10.34 q -0.01,-1.49 0.63,-0.13 l 5,10.57 a 1.22,1.17 -3.1 0 0 0.72,0.62 q 3.25,1.05 3.06,-2.05 -0.1,-1.57 -0.1,-1.63 0,-4.09 0,-8.18 0,-0.13 0.11,-1.49 0.17,-2.28 -2.09,-1.4 a 0.77,0.75 79.3 0 0 -0.47,0.71 l -0.05,9.95 q -0.01,1.82 -0.75,0.15"
       id="path17771" />
    <path
       stroke="#6f767c"
       vector-effect="non-scaling-stroke"
       d="m 141.8,154.19 -0.05,-5.21 a 0.72,0.7 -9.1 0 1 0.5,-0.67 q 2.45,-0.76 1.8,-1.92 a 0.89,0.6 -12.7 0 0 -0.78,-0.3 q -0.64,0.06 -1.14,-0.26 a 1,0.73 -76.4 0 1 -0.34,-0.82 q 0.13,-2.84 -2.51,-1.89 a 0.94,0.61 89.2 0 0 -0.44,0.7 l -0.24,1.64 a 0.96,0.59 -11.4 0 1 -0.64,0.6 q -1.38,0.46 -0.46,1.69 a 3.12,0.52 51.4 0 1 1.25,2.25 q -0.1,1.07 0.03,2.11 0.02,0.22 0.18,1.92 0.31,3.36 3.97,2.97 a 1.21,1.12 14.4 0 0 0.82,-0.44 q 1.64,-2.15 -1.43,-1.92 a 0.48,0.45 -2.3 0 1 -0.52,-0.45"
       id="path17773" />
    <path
       stroke="#6f767c"
       vector-effect="non-scaling-stroke"
       d="m 209.79,146.5 q -2.62,-1.51 -3.54,1.25 -1.13,3.38 -2,0.25 -0.8,-2.87 -3.47,-1.88 a 0.47,0.46 66.1 0 0 -0.24,0.65 l 1.89,3.7 q 0.84,1.63 -0.3,3.04 -3.29,4.1 0.19,3.42 a 1.11,1.1 -80.9 0 0 0.75,-0.55 l 1.45,-2.68 q 0.29,-0.52 0.56,-0.07 l 1.56,2.6 a 1.39,0.5 66.2 0 0 0.63,0.66 q 1.19,0.44 2.3,-0.13 a 0.52,0.49 61.9 0 0 0.19,-0.69 l -2.27,-4.12 a 1.09,0.83 48.6 0 1 -0.07,-0.92 l 2.12,-4.03"
       id="path17775" />
    <path
       stroke="#6f767c"
       vector-effect="non-scaling-stroke"
       d="m 209.54,147 2,1.01 a 1,0.69 -81.7 0 1 0.4,0.81 q 0.04,2.18 0.19,4.36 0.14,2.01 0.95,2.9 1.25,1.36 3.4,0.82 0.61,-0.15 0.86,-0.56 0.33,-0.54 0.13,-1.14 a 0.65,0.52 -13.5 0 0 -0.71,-0.33 q -2.32,0.45 -1.97,-2.4 0.21,-1.72 0.21,-3.56 a 0.92,0.91 -0.6 0 1 0.9,-0.91 q 2.14,-0.02 1.52,-1.49 a 0.78,0.65 -11.2 0 0 -0.73,-0.4 q -2.2,0.12 -1.8,-2.12 a 0.74,0.63 -72.1 0 0 -0.31,-0.74 q -2.41,-1.29 -2.55,1.5 -0.1,2.05 -2.24,1.75"
       id="path17777" />
    <path
       stroke="#000000"
       vector-effect="non-scaling-stroke"
       d="m 209.54,147 q 0.05,-0.28 0.25,-0.5"
       id="path17779" />
    <path
       stroke="#6f767c"
       vector-effect="non-scaling-stroke"
       d="m 67.93,146.62 q -0.82,-0.84 -1.91,-0.5 a 0.75,0.67 82.1 0 0 -0.47,0.7 v 9.37 a 0.74,0.7 -81.2 0 0 0.48,0.69 q 0.81,0.26 1.67,0.15 a 0.63,0.58 88 0 0 0.51,-0.6 q 0.15,-3.24 0.04,-3.93 -0.62,-3.91 2.82,-4.61 a 0.8,0.67 -1.5 0 0 0.62,-0.55 q 0.37,-1.8 -1.75,-1.15 -0.66,0.2 -1.26,0.54 a 0.62,0.61 52.6 0 1 -0.75,-0.11"
       id="path17781" />
    <path
       stroke="#6f767c"
       vector-effect="non-scaling-stroke"
       d="m 77.81,154.94 q -1.55,-0.55 -1.78,-2 A 0.82,0.81 -4.5 0 1 76.84,152 h 4.74 a 1.32,1.31 86.5 0 0 1.3,-1.48 q -0.31,-2.58 -1.87,-3.74 -1.4,-1.04 -3.69,-0.59 -3.91,0.77 -4.24,4.53 -0.27,3.11 1.79,5.03 2.63,2.47 6.91,0.26 0.97,-0.5 0.69,-1.32 a 0.58,0.49 -17.5 0 0 -0.7,-0.29 q -2.9,0.91 -3.96,0.54"
       id="path17783" />
    <path
       stroke="#6f767c"
       vector-effect="non-scaling-stroke"
       d="m 89.25,153.21 -2.09,-6.49 a 1.08,0.94 88.7 0 0 -0.61,-0.67 q -1.01,-0.36 -1.89,0.16 a 0.67,0.62 66.6 0 0 -0.27,0.77 l 3,9.24 a 1.14,1.12 2.5 0 0 0.63,0.68 q 2.68,1.11 3.67,-1.21 0.66,-1.56 2.91,-8.72 a 0.67,0.59 -66.9 0 0 -0.25,-0.75 q -1.09,-0.63 -2.14,0.04 a 1.44,1.15 86.7 0 0 -0.55,0.78 l -1.72,6.16 q -0.33,1.15 -0.69,0.01"
       id="path17785" />
    <path
       stroke="#6f767c"
       vector-effect="non-scaling-stroke"
       d="m 132.85,156.59 q 1.02,0.58 2.12,0.27 a 0.75,0.66 84.4 0 0 0.49,-0.68 q 0.09,-2.47 0.14,-4.93 0.14,-6.74 -6.59,-5.14 -1.98,0.47 -2,2.06 -0.03,1.25 1.04,0.6 2.67,-1.63 4.05,-0.29 1.38,1.36 -0.56,1.47 -5.13,0.3 -5.03,3.77 0.05,1.94 1.64,2.85 1.73,0.98 3.83,-0.02 a 0.94,0.92 46.9 0 1 0.87,0.04"
       id="path17787" />
    <path
       stroke="#6f767c"
       vector-effect="non-scaling-stroke"
       d="m 151.94,149.94 q -1.58,0.04 -3.11,0.44 -2.49,0.65 -2.71,2.7 -0.2,1.76 1.13,3.02 1.74,1.65 4.49,0.41 a 1.09,1.09 43.6 0 1 0.87,-0.02 q 2.86,1.22 2.74,-0.99 -0.07,-1.43 -0.07,-1.52 0.09,-2.76 -0.22,-5.49 a 1.61,1.48 -71.6 0 0 -0.39,-0.87 q -2.14,-2.28 -5.15,-1.46 -1.65,0.45 -1.69,0.46 -0.98,0.4 -1.08,1.59 a 0.54,0.54 81.8 0 0 0.73,0.55 q 1.47,-0.57 3.03,-0.69 1.82,-0.13 1.93,1.37 a 0.51,0.46 -2.7 0 1 -0.5,0.5"
       id="path17789" />
    <path
       stroke="#6f767c"
       vector-effect="non-scaling-stroke"
       d="m 192.31,152.05 5.45,-0.05 a 0.94,0.91 -0.6 0 0 0.93,-0.92 q -0.05,-4.11 -3.26,-4.91 -2.5,-0.62 -4.63,0.88 -2.39,1.69 -2.05,4.95 0.65,6.28 7.01,4.71 0.07,-0.02 1.14,-0.19 1.31,-0.22 1.34,-1.48 a 0.77,0.76 79.7 0 0 -1.05,-0.73 q -4.67,1.9 -5.31,-1.75 a 0.44,0.43 -5 0 1 0.43,-0.51"
       id="path17791" />
    <path
       stroke="#80b4dd"
       vector-effect="non-scaling-stroke"
       d="m 733.8,115.18 a 0.26,0.26 0 0 0 -0.26,-0.26 h -0.12 a 0.26,0.26 0 0 0 -0.26,0.26 v 68.88 a 0.26,0.26 0 0 0 0.26,0.26 h 0.12 a 0.26,0.26 0 0 0 0.26,-0.26 v -68.88"
       id="path17793" />
    <path
       stroke="#6f767c"
       vector-effect="non-scaling-stroke"
       d="m 620.14,143.6 -0.09,12.6 a 0.74,0.72 -79.3 0 0 0.47,0.7 q 1.08,0.41 2.07,-0.13 a 0.94,0.76 78.9 0 0 0.4,-0.76 l 0.05,-3.21 a 0.78,0.72 81.3 0 1 0.47,-0.7 q 0.41,-0.16 0.85,-0.16 1.04,-0.02 1.28,-0.08 4.36,-1.08 4.3,-4.82 -0.04,-3.21 -2.72,-4.39 -2.32,-1.02 -5.87,-0.41 a 1.46,1.38 -5 0 0 -1.21,1.36"
       id="path17795" />
    <path
       stroke="#6f767c"
       vector-effect="non-scaling-stroke"
       d="m 691.07,151.69 q 0.75,-2.74 -0.28,-5.43 -1.01,-2.64 -3.53,-3.57 -2.89,-1.08 -6.94,-0.47 a 1.23,1.22 -4.3 0 0 -1.06,1.22 l 0.04,11.82 a 1.58,1.55 4.3 0 0 1.35,1.54 q 3.85,0.57 6.54,-0.52 2.95,-1.2 3.88,-4.59"
       id="path17797" />
    <path
       stroke="#6f767c"
       vector-effect="non-scaling-stroke"
       d="m 750.24,154.01 q -2.16,-4.85 -4.27,-9.73 -0.69,-1.59 -1.56,-2.07 -1.33,-0.75 -2.92,0.1 a 0.86,0.82 76.9 0 0 -0.44,0.75 v 13.12 a 0.79,0.7 -81.1 0 0 0.46,0.72 q 0.87,0.34 1.73,0.01 a 0.79,0.72 80.3 0 0 0.46,-0.72 l -0.01,-10.64 q -0.01,-1.21 0.48,-0.11 2.08,4.65 4.38,9.44 0.69,1.43 1.36,1.87 1.17,0.78 2.61,-0.05 a 0.92,0.82 77.8 0 0 0.43,-0.76 q 0.09,-5.97 0.05,-11.94 -0.02,-2.61 -2.04,-1.93 a 0.69,0.69 80.3 0 0 -0.47,0.67 l 0.19,11.33 a 0.17,0.11 83.8 0 1 -0.09,0.17 l -0.1,0.01 a 0.35,0.17 70 0 1 -0.25,-0.24"
       id="path17799" />
    <path
       stroke="#6f767c"
       vector-effect="non-scaling-stroke"
       d="m 708.8,154.19 q -0.1,-2.72 -0.1,-5.44 0,-1.15 1.32,-0.74 a 0.97,0.97 -79.3 0 0 1.24,-0.85 q 0.13,-1.67 -1.63,-1.19 a 0.73,0.73 -1.8 0 1 -0.9,-0.84 q 0.48,-2.61 -2.26,-2.07 a 0.93,0.93 -14.8 0 0 -0.71,1.22 q 0.58,1.68 -0.95,1.98 a 0.87,0.48 -6.4 0 0 -0.71,0.5 q -0.07,0.63 1.08,1.28 a 1.32,1.31 21 0 1 0.64,1.43 q -0.26,1.23 -0.07,2.71 0.25,1.92 0.44,2.66 0.73,2.8 4.07,2.04 a 1.05,0.99 4.2 0 0 0.71,-0.58 q 0.84,-1.94 -1.66,-1.68 a 0.46,0.44 -3.6 0 1 -0.51,-0.43"
       id="path17801" />
    <path
       stroke="#6f767c"
       vector-effect="non-scaling-stroke"
       d="m 776.79,146.5 q -3.34,-1.2 -4.19,2.27 a 0.49,0.41 -71.8 0 1 -0.59,0.37 q -0.51,-0.23 -0.65,-0.96 -0.52,-2.62 -3.14,-2.18 a 0.78,0.76 71 0 0 -0.53,1.12 l 2,3.84 a 1.27,1.22 -42.2 0 1 -0.09,1.28 q -1.08,1.58 -1.8,2.62 -1.92,2.78 1.37,2.13 a 2.16,2.16 -89.8 0 0 1.69,-1.68 q 0.74,-3.54 1.72,-0.55 1.01,3.08 3.88,2.11 a 0.46,0.46 -22.9 0 0 0.26,-0.64 l -2.23,-4.29 a 1.13,0.76 51.7 0 1 -0.07,-0.91 l 2.12,-4.03"
       id="path17803" />
    <path
       stroke="#6f767c"
       vector-effect="non-scaling-stroke"
       d="m 776.54,147 1.98,1.05 a 0.89,0.79 -77 0 1 0.41,0.75 q 0,2.61 0.25,5.21 0.28,3.03 3.57,2.99 1.95,-0.03 1.77,-1.7 a 0.63,0.45 0.1 0 0 -0.58,-0.42 l -1.39,-0.07 a 0.61,0.53 -89 0 1 -0.51,-0.61 v -5.63 a 0.56,0.54 -1.7 0 1 0.53,-0.54 l 1.12,-0.06 a 0.86,0.76 7.4 0 0 0.71,-0.48 q 0.66,-1.71 -1.62,-1.47 A 0.71,0.7 -3 0 1 782,145.33 q -0.01,-3.41 -2.51,-2.03 a 0.82,0.72 74.2 0 0 -0.36,0.76 q 0.23,2.49 -2.34,2.44"
       id="path17805" />
    <path
       stroke="#000000"
       vector-effect="non-scaling-stroke"
       d="m 776.54,147 q 0.05,-0.28 0.25,-0.5"
       id="path17807" />
    <path
       stroke="#6f767c"
       vector-effect="non-scaling-stroke"
       d="m 634.85,146.75 q -0.63,-1.09 -1.83,-0.65 a 0.79,0.71 81.5 0 0 -0.47,0.71 q -0.08,3.41 -0.06,6.82 0,0.11 -0.12,1.73 -0.18,2.46 2.41,1.57 a 0.7,0.67 79.9 0 0 0.45,-0.68 q -0.2,-4.6 0.27,-6.5 0.46,-1.88 2.45,-1.65 a 0.72,0.61 13.5 0 0 0.71,-0.36 q 0.6,-1.42 -0.75,-1.68 -0.59,-0.12 -1.28,0.21 -0.6,0.28 -1.16,0.64 a 0.45,0.43 58.2 0 1 -0.62,-0.16"
       id="path17809" />
    <path
       stroke="#6f767c"
       vector-effect="non-scaling-stroke"
       d="m 640.96,148.49 q -3.52,8.65 5.76,8.3 0.9,-0.03 1.52,-0.27 1.08,-0.41 1.23,-1.06 0.36,-1.5 -1.1,-1 -4.43,1.5 -5.21,-1.66 a 0.48,0.43 81.5 0 1 0.39,-0.6 l 4.31,-0.13 q 2.44,-0.07 1.99,-2.19 -0.84,-4.01 -5.33,-3.86 -2.58,0.08 -3.56,2.47"
       id="path17811" />
    <path
       stroke="#6f767c"
       vector-effect="non-scaling-stroke"
       d="m 656.21,153.11 q -0.83,-2.63 -1.6,-5.64 -0.5,-1.95 -2.8,-1.43 a 0.68,0.67 -15.9 0 0 -0.5,0.87 l 3.23,9.44 a 0.94,0.91 -3.2 0 0 0.68,0.59 q 3.11,0.68 3.72,-1.67 0.33,-1.27 0.37,-1.37 1.28,-3.51 2.25,-7.11 a 0.6,0.56 -71.5 0 0 -0.32,-0.69 q -2.1,-0.83 -2.72,1.41 -0.66,2.42 -1.73,5.6 -0.3,0.91 -0.58,0"
       id="path17813" />
    <path
       stroke="#6f767c"
       vector-effect="non-scaling-stroke"
       d="m 699.2,149.88 q -2.94,-0.25 -5.02,1.59 a 1.33,1.29 73.5 0 0 -0.44,0.84 q -0.8,6.07 5.11,4.16 a 1.33,1.16 45.6 0 1 0.9,0.07 q 1.01,0.45 2.08,0.35 a 0.65,0.59 -89.7 0 0 0.53,-0.58 q 0.21,-2.56 0.17,-5.12 -0.05,-3.07 -1.51,-4.28 -1.95,-1.61 -5.33,-0.47 -1.85,0.62 -1.54,2.02 a 0.49,0.44 -16.7 0 0 0.63,0.3 q 1.78,-0.68 2.72,-0.76 2.04,-0.18 2.19,1.44 a 0.45,0.41 0.8 0 1 -0.49,0.44"
       id="path17815" />
    <path
       stroke="#6f767c"
       vector-effect="non-scaling-stroke"
       d="m 720.02,156.67 q 0.76,0.67 1.73,0.25 a 0.87,0.72 82 0 0 0.46,-0.74 q 0.1,-2.84 0.2,-5.67 0.14,-4.13 -3.49,-4.47 -1.76,-0.17 -3.45,0.39 -1.99,0.65 -1.59,2.05 a 0.46,0.41 -20.8 0 0 0.62,0.24 q 1.92,-0.87 3.95,-0.51 a 1.06,1 -7.9 0 1 0.74,0.53 q 0.78,1.52 -1.16,1.37 -1.06,-0.08 -1.56,0.01 -3.76,0.74 -3.22,3.84 0.35,1.98 2.1,2.71 1.81,0.75 3.88,-0.14 a 0.78,0.73 52.9 0 1 0.79,0.14"
       id="path17817" />
    <path
       stroke="#6f767c"
       vector-effect="non-scaling-stroke"
       d="m 759.31,152.05 5.45,-0.05 a 0.94,0.91 -0.6 0 0 0.93,-0.92 q -0.06,-4.48 -3.87,-5.03 -1.91,-0.27 -3.48,0.71 -1.72,1.08 -2.3,2.99 -0.73,2.42 0.67,4.82 2.37,4.03 7.77,1.58 0.53,-0.24 0.7,-0.65 0.25,-0.59 -0.04,-1.06 a 0.66,0.52 -27.2 0 0 -0.78,-0.15 q -1.24,0.57 -2.61,0.65 -2.86,0.16 -2.95,-2.38 a 0.51,0.5 -0.6 0 1 0.51,-0.51"
       id="path17819" />
    <path
       stroke="#6f767c"
       vector-effect="non-scaling-stroke"
       d="m 58.16,144.01 a 1.35,1.35 -67.4 0 0 -2.06,0.85 q -0.43,2.02 0.09,4.34 a 0.84,0.8 89.1 0 0 0.61,0.62 q 2.24,0.5 2.78,-1.39 0.41,-1.42 0.2,-2.38 -0.24,-1.14 -1.62,-2.04"
       id="path17821" />
    <path
       stroke="#6f767c"
       vector-effect="non-scaling-stroke"
       d="m 119.06,144.44 q -0.97,-0.74 -3.26,-0.45 a 0.59,0.57 -4.5 0 0 -0.51,0.58 l 0.11,9.74 a 0.65,0.62 4.5 0 0 0.54,0.6 q 4.39,0.69 5.37,-3.85 0.92,-4.24 -2.25,-6.62"
       id="path17823" />
    <path
       stroke="#6f767c"
       vector-effect="non-scaling-stroke"
       d="m 339.43,144.94 0.21,4.38 a 0.6,0.57 1.2 0 0 0.55,0.55 q 3.28,0.25 3.2,-2.9 -0.04,-1.43 -0.79,-2.25 -1.03,-1.14 -2.7,-0.49 a 0.74,0.73 -11.8 0 0 -0.47,0.71"
       id="path17825" />
    <path
       stroke="#6f767c"
       vector-effect="non-scaling-stroke"
       d="m 404.06,153.06 q 1.63,-2.75 0.54,-6.13 -0.91,-2.79 -4.69,-2.97 a 1.08,1.04 1.1 0 0 -1.13,1.05 l 0.12,9.3 a 0.66,0.64 5.7 0 0 0.52,0.62 q 3.12,0.7 4.64,-1.87"
       id="path17827" />
    <path
       stroke="#6f767c"
       vector-effect="non-scaling-stroke"
       d="m 623.11,144.92 -0.03,4.07 a 0.82,0.75 0.7 0 0 0.81,0.76 q 3.53,0.03 3.01,-3.27 -0.5,-3.14 -3.24,-2.22 a 0.8,0.65 -10.8 0 0 -0.55,0.66"
       id="path17829" />
    <path
       stroke="#6f767c"
       vector-effect="non-scaling-stroke"
       d="m 687.56,153.06 q 1.81,-2.99 0.38,-6.5 -1.32,-3.2 -5.14,-2.59 a 0.6,0.59 -5 0 0 -0.51,0.6 l 0.11,9.74 a 0.65,0.65 5.7 0 0 0.51,0.62 q 3.1,0.69 4.65,-1.87"
       id="path17831" />
    <path
       stroke="#6f767c"
       vector-effect="non-scaling-stroke"
       d="m 78.17,148.02 q -1,-0.03 -1.79,0.73 -1.02,0.98 0.39,1.16 4.58,0.57 2.98,-1.11 -0.71,-0.75 -1.58,-0.78"
       id="path17833" />
    <path
       stroke="#6f767c"
       vector-effect="non-scaling-stroke"
       d="m 132.7235,152.5972 a 1.96,1.43 -24.5 0 0 -2.3765,-0.4884 1.96,1.43 -24.5 0 0 -1.1905,2.114 1.96,1.43 -24.5 0 0 2.3765,0.4884 1.96,1.43 -24.5 0 0 1.1905,-2.114"
       id="path17835" />
    <path
       stroke="#6f767c"
       vector-effect="non-scaling-stroke"
       d="m 150.44,154.85 q 1.88,-0.07 1.99,-2.03 a 0.71,0.68 -77.9 0 0 -0.44,-0.71 q -1.54,-0.61 -2.68,0.45 -1.06,0.99 -0.23,1.81 0.52,0.51 1.36,0.48"
       id="path17837" />
    <path
       stroke="#6f767c"
       vector-effect="non-scaling-stroke"
       d="m 193.92,148.01 q -0.96,0.01 -1.79,0.87 -0.86,0.89 0.36,1.03 4.63,0.55 3.02,-1.12 -0.76,-0.78 -1.59,-0.78"
       id="path17839" />
    <path
       stroke="#6f767c"
       vector-effect="non-scaling-stroke"
       d="m 359.68,149.2 a 0.47,0.47 19.5 0 0 0.34,0.71 q 4.99,0.6 3.17,-1.21 -0.81,-0.8 -1.74,-0.7 -1.1,0.12 -1.77,1.2"
       id="path17841" />
    <path
       stroke="#6f767c"
       vector-effect="non-scaling-stroke"
       d="m 416.192,152.5624 a 1.96,1.44 -25.3 0 0 -2.3874,-0.4643 1.96,1.44 -25.3 0 0 -1.1566,2.1395 1.96,1.44 -25.3 0 0 2.3874,0.4643 1.96,1.44 -25.3 0 0 1.1566,-2.1395"
       id="path17843" />
    <path
       stroke="#6f767c"
       vector-effect="non-scaling-stroke"
       d="m 432.5,153.69 q 0.28,2.27 2.23,1.02 0.85,-0.54 1.16,-1.27 0.64,-1.49 -1.94,-1.43 a 1.5,1.5 85.8 0 0 -1.45,1.68"
       id="path17845" />
    <path
       stroke="#6f767c"
       vector-effect="non-scaling-stroke"
       d="m 475.39,149.25 q -0.52,0.75 0.4,0.75 h 2.46 q 2.47,0 0.81,-1.31 -2.11,-1.67 -3.67,0.56"
       id="path17847" />
    <path
       stroke="#6f767c"
       vector-effect="non-scaling-stroke"
       d="m 643.14,149.25 q -0.52,0.75 0.4,0.75 H 646 q 2.47,0 0.81,-1.31 -2.11,-1.67 -3.67,0.56"
       id="path17849" />
    <path
       stroke="#6f767c"
       vector-effect="non-scaling-stroke"
       d="m 699.6737,152.5496 a 1.94,1.45 -26 0 0 -2.3793,-0.4529 1.94,1.45 -26 0 0 -1.1081,2.1537 1.94,1.45 -26 0 0 2.3793,0.4529 1.94,1.45 -26 0 0 1.1081,-2.1537"
       id="path17851" />
    <path
       stroke="#6f767c"
       vector-effect="non-scaling-stroke"
       d="m 719.4788,152.6216 a 1.96,1.45 -23.4 0 0 -2.3747,-0.5523 1.96,1.45 -23.4 0 0 -1.2229,2.1091 1.96,1.45 -23.4 0 0 2.3747,0.5523 1.96,1.45 -23.4 0 0 1.2229,-2.1091"
       id="path17853" />
    <path
       stroke="#6f767c"
       vector-effect="non-scaling-stroke"
       d="m 758.88,149.27 q -0.51,0.73 0.38,0.73 1.49,0 2.48,0.07 1.79,0.14 1.14,-0.94 -0.26,-0.45 -0.76,-0.74 -1.85,-1.1 -3.24,0.88"
       id="path17855" />
    <path
       stroke="#808080"
       vector-effect="non-scaling-stroke"
       d="m 137.59,264.23 q -0.48,1.43 -0.97,3.09 -0.04,0.12 -0.48,1.18 -0.89,2.11 3.75,1.16 a 0.5,0.46 75.1 0 0 0.34,-0.64 l -1.55,-4.72 q -0.55,-1.68 -1.09,-0.07"
       id="path17857" />
    <path
       stroke="#808080"
       vector-effect="non-scaling-stroke"
       d="m 151.5,273.77 q 3.88,0.96 5.78,-1.24 1.56,-1.79 1.32,-4.88 -0.42,-5.28 -6.67,-4.53 a 0.58,0.56 87.1 0 0 -0.49,0.56 l -0.12,9.84 a 0.26,0.25 -82.8 0 0 0.18,0.25"
       id="path17859" />
  </g>
  <path
     fill="#000000"
     d="m 23.99,14.662136 0.1,-0.01 a 0.16,0.12 85.7 0 0 0.1,-0.15 L 24.2,1.9121355 a 0.64,0.66 83.9 0 1 0.52,-0.63 q 2.78,-0.60999998 2.61,1.39 -0.08,0.9 -0.08,0.99 0,6.5100005 0,13.2900005 a 0.98,0.99 78.9 0 1 -0.62,0.91 q -2.92,1.17 -4.22,-1.31 -3.03,-5.76 -6.17,-11.4500005 -0.24,-0.44 -0.24,0.05 V 17.442136 a 0.63,0.64 83.8 0 1 -0.5,0.62 q -2.69,0.55 -2.44,-1.02 0.19,-1.15 0.19,-1.29 0,-6.5800005 0,-13.7800005 a 0.66,0.67 80.9 0 1 0.46,-0.63 q 3.67,-1.19999998 4.95,1.82 0.63,1.49 0.67,1.57 2.42,4.75 4.42,9.7000005 a 0.33,0.17 71.1 0 0 0.24,0.23 z"
     id="path17865" />
  <path
     fill="#000000"
     d="m 36.86,15.102136 q 4.2,0.52 4.84,-2.64 0.05,-0.25 0.05,-4.6200005 0,-2.9 0,-5.93 a 0.65,0.64 83.9 0 1 0.5,-0.63 q 3.26,-0.75999998 3.12,1.59 -0.08,1.46 -0.08,1.59 0.21,4.74 -0.51,9.2600005 -0.31,1.93 -1.96,3 -4.38,2.83 -9.01,0.38 -2.54,-1.35 -2.61,-4.37 -0.04,-2.07 -0.05,-2.14 -0.33,-4.1200005 0.09,-8.7000005 a 0.68,0.67 87.8 0 1 0.55,-0.6 q 3.01,-0.54999998 2.78,1.7 -0.08,0.78 -0.09,0.87 -0.14,4.53 0.27,9.0700005 0.18,1.94 2.11,2.17 z"
     id="path17867" />
  <path
     fill="#000000"
     d="m 52.09,13.422136 q -0.02,2.33 2.14,1.89 4.71,-0.94 3.75,2.2 a 0.7,0.74 8.8 0 1 -0.66,0.51 l -7.67,0.1 a 0.95,0.89 89.7 0 1 -0.9,-0.95 q 0,-6.91 0,-13.5700005 0,-0.09 -0.07,-0.87 -0.18,-2.05999998 2.98,-1.37 a 0.7,0.66 6.8 0 1 0.56,0.67 z"
     id="path17869" />
  <path
     fill="#000000"
     d="m 63.82,15.112136 4.37,0.1 a 0.76,0.81 79.1 0 1 0.71,0.45 q 1.17,2.67 -1.63,2.62 -2.44,-0.03 -2.54,-0.03 -2.19,0.07 -4.31,-0.41 a 0.67,0.63 6.5 0 1 -0.51,-0.61 L 59.8,1.9821355 a 0.7,0.68 81.2 0 1 0.48,-0.68 q 1.24,-0.39999998 2.5,-0.05 a 0.64,0.71 6.5 0 1 0.47,0.66 l 0.06,12.6800005 a 0.52,0.52 0 0 0 0.51,0.52 z"
     id="path17871" />
  <path
     fill="#ff0000"
     d="m 42.29,59.662136 v 1 q -0.39,5.92 -0.54,11.86 0,0.16 -0.07,0.26 -0.17,0.29 -0.35,0.02 -0.08,-0.11 -0.09,-0.3 -0.36,-5.79 -0.28,-11.59 l 0.02,-1.62 0.02,-25.61 a 1.05,1.05 0 0 0 -1.36,-1 q -0.95,0.3 -2.36,-0.16 a 0.43,0.46 21.8 0 1 -0.24,-0.62 l 3.99,-8.35 q 0.51,-1.07 1.04,0.01 l 3.78,7.64 q 0.94,1.91 -1.08,1.46 -3.08,-0.68 -2.9,1.91 0.12,1.59 0.12,1.69 -0.19,11.71 0.3,23.4 z"
     id="path17873" />
  <path
     fill="#3e6f9a"
     d="m 40.98,59.292136 -0.02,1.62 q -8.13,0 -16.25,0.12 -11.77,0.18 -13.85,0.8 -6.26,1.88 -7.56,8.73 -0.3,1.59 -0.3,10.72 0,14.46 0,28.920004 0,10.81 0.17,11.9 1.27,7.89 8.53,9.67 1.6,0.4 15.15,0.34 19.83,-0.08 39.65,0.34 v 1.42 q -25.45,0.64 -50.9,0.13 -4.8,-0.1 -7.42,-1.49 -7.18,-3.81 -7.18,-13.6 0,-21.120004 0,-42.250004 0,-2.86 0.18,-5.01 0.24,-2.72 1.24,-4.82 3.58,-7.55 12.83,-7.67 5.79,-0.08 25.73,0.13 z"
     id="path17875" />
  <path
     fill="#3b6d97"
     d="m 208.71,85.912136 q -0.72,-0.18 -1.25,0.25 -0.61,-4.35 -0.39,-8.75 0.26,-5.34 -0.57,-8.25 -1.21,-4.27 -4.94,-6.37 -2.42,-1.36 -7.39,-1.44 -43.42,-0.62 -65.23,-0.38 -33.5,0.38 -53.44,-0.1 0.58,-0.76 0,-1.5 25.25,-0.37 50.5,-0.22 56.01,0.33 66.5,0.01 16.82,-0.51 16.5,16.5 -0.16,8.59 -0.29,10.25 z"
     id="path17877" />
  <path
     fill="#3b6d97"
     d="m 371.5,59.372136 5.82,0.18 a 1.09,1.08 72.4 0 1 0.82,0.43 q 0.87,1.14 -0.89,0.97 -65.81,-0.06 -79.25,0.21 -7.62,0.16 -10.5,8 -0.74,2 -0.71,8.75 -0.92,0.43 -1.64,0.26 -2.07,-13.45 8.02,-17.62 3.39,-1.4 10.36,-1.37 33.98,0.11 67.97,0.19 z"
     id="path17879" />
  <path
     fill="#3b6d97"
     d="m 493,76.872136 q -1.63,0.82 -0.25,1.58 l -0.04,3.21 h -1.42 q -0.16,-3.83 -0.34,-7.66 -0.25,-4.92 -1.71,-7.36 -3.42,-5.71 -11.49,-5.48 -13.96,0.4 -55.57,-0.25 a 0.4,0.44 69.2 0 1 -0.3,-0.12 l -0.13,-0.13 a 0.47,0.52 56.4 0 0 -0.56,-0.08 q -1.17,0.56 -3.69,0.58 -20.13,0.16 -40.25,-0.21 1.76,0.17 0.89,-0.97 a 1.09,1.08 72.4 0 0 -0.82,-0.43 l -5.82,-0.18 q 47.85,-0.33 95.7,-0.23 13.88,0.03 16.52,0.81 10.16,3.02 9.28,16.92 z"
     id="path17881" />
  <path
     fill="#2f6593"
     d="m 722.75,59.372136 7.5,0.04 a 0.69,0.89 81.9 0 1 0.76,0.43 q 0.3,0.72 -0.51,1.11 l -89.44,0.03 -1.32,-0.1 q -28.86,0.23 -56.49,0.28 -14.92,0.03 -13.25,15.85 -1.18,0.53 -2,0.11 -0.97,-14.13 9.41,-17.17 2.72,-0.8 16.75,-0.78 64.3,0.1 128.59,0.2 z"
     id="path17883" />
  <path
     fill="#3b6d97"
     d="m 774.21,66.412136 q -0.77,-0.03 -1.46,0.29 -3.82,-5.66 -11,-5.54 -13,0.22 -31.25,-0.21 0.81,-0.39 0.51,-1.11 a 0.69,0.89 81.9 0 0 -0.76,-0.43 l -7.5,-0.04 q 12.67,-0.24 38.75,-0.21 8.7,0.01 12.71,7.25 z"
     id="path17885" />
  <path
     fill="#03437d"
     d="m 75.5,59.372136 q 0.58,0.74 0,1.5 l -33.21,-0.21 v -1 z"
     id="path17887" />
  <path
     fill="#deebf7"
     d="m 491.29,81.662136 q 0.55,14.98 -0.04,29.960004 l -12.76,-0.46 a 1,0.88 16.7 0 0 -0.82,0.38 q -0.58,0.84 1.08,0.8 6.39,-0.15 12.75,0.36 l -0.29,8.96 q -1.94,10.71 -13.21,10.5 -20.84,-0.39 -111.75,0.19 -9.91,0.06 -20,-0.01 -35.79,-0.26 -46.25,-0.18 -10.21,0.07 -12.5,-8.56 -0.42,-1.57 -0.45,-5.44 -0.03,-2.76 -0.34,-5.5 l 0.04,-33.460004 8.94,-0.1 a 0.7,0.57 4.4 0 0 0.67,-0.46 q 0.17,-0.91 -1.61,-0.48 -1.78,0.43 -7.96,-0.25 -0.03,-6.75 0.71,-8.75 2.88,-7.84 10.5,-8 13.44,-0.27 79.25,-0.21 20.12,0.37 40.25,0.21 2.52,-0.02 3.69,-0.58 a 0.47,0.52 56.4 0 1 0.56,0.08 l 0.13,0.13 a 0.4,0.44 69.2 0 0 0.3,0.12 q 41.61,0.65 55.57,0.25 8.07,-0.23 11.49,5.48 1.46,2.44 1.71,7.36 0.18,3.83 0.34,7.66 z m -69.38,-19.99 a 0.44,0.44 0 0 0 -0.44,-0.44 h -0.02 a 0.44,0.44 0 0 0 -0.44,0.44 v 67.400004 a 0.44,0.44 0 0 0 0.44,0.44 h 0.02 a 0.44,0.44 0 0 0 0.44,-0.44 z m -65.16,70.120004 a 0.25,0.25 0 0 1 -0.25,0.25 v 0 a 0.25,0.25 0 0 1 -0.25,-0.25 V 62.792136 a 0.25,0.25 0 0 1 0.25,-0.25 v 0 a 0.25,0.25 0 0 1 0.25,0.25 z m -46.1,-32.520004 q 6.62,0.32 5.66,-6.67 -0.31,-2.26 -2.5,-2.92 -3.26,-0.98 -6.51,-0.32 a 0.63,0.67 84.2 0 0 -0.53,0.61 l -0.23,13.160004 a 1.14,1.06 7.7 0 0 0.88,1.07 q 2.74,0.62 1.85,-3.29 a 1.35,1.35 0 0 1 1.38,-1.640004 z m 65.69,2.390004 q 1.4,-2.030004 1.41,-4.510004 0.02,-7.55 -6.76,-7.88 -2.24,-0.11 -4.29,-0.11 a 0.9,0.93 89.7 0 0 -0.93,0.91 l 0.14,13.400004 a 0.62,0.6 4 0 0 0.52,0.58 q 1.77,0.26 3.56,0.3 4.41,0.12 6.35,-2.69 z m 54.67,-8.420004 4.69,10.030004 a 1.55,1.41 88 0 0 0.68,0.7 q 1.52,0.75 2.71,-0.27 a 1.24,1.02 73.5 0 0 0.36,-0.85 l 0.05,-12.820004 a 0.95,0.94 6.1 0 0 -0.75,-0.92 q -2.02,-0.45 -1.84,1.46 0.09,1.07 0.1,1.19 0.03,4.64 -0.06,8.850004 -0.03,1.13 -0.46,0.08 -2.05,-4.900004 -4.02,-9.070004 -0.03,-0.07 -0.33,-0.97 -0.56,-1.69 -3.48,-1.37 a 1.29,1.29 0 0 0 -1.16,1.28 l 0.06,12.780004 a 0.69,0.8 8.9 0 0 0.45,0.72 q 0.87,0.34 1.73,0.01 a 0.81,0.72 80.5 0 0 0.46,-0.73 l 0.05,-9.950004 q 0.01,-1.75 0.76,-0.15 z m -35.19,2.03 q 2.82,0.19 1.66,-1.64 a 0.78,1.01 77.8 0 0 -0.8,-0.38 q -1.92,0.01 -1.54,-2.1 a 0.61,0.7 16.6 0 0 -0.33,-0.72 q -2.82,-1.34 -2.5,1.92 0.08,0.77 -0.5,0.88 a 0.49,1.14 85.7 0 0 -0.77,0.4 q -0.67,1.21 0.81,1.81 a 0.7,0.68 11.8 0 1 0.44,0.65 q -0.06,1.57 0.21,4.820004 0.29,3.54 3.74,3.16 1.78,-0.2 1.37,-1.63 a 0.51,0.63 78.9 0 0 -0.67,-0.35 q -0.57,0.07 -1.07,-0.13 a 0.77,0.83 9.5 0 1 -0.49,-0.74 l -0.1,-5.500004 a 0.5,0.45 1.8 0 1 0.54,-0.45 z m 72.72,6.070004 q -0.09,-2.460004 -0.09,-5.430004 0,-1.15 1.32,-0.74 a 0.97,0.97 0 0 0 1.24,-0.85 q 0.13,-1.67 -1.5,-1.23 a 0.83,0.83 0 0 1 -1.04,-0.86 q 0.21,-2.65 -2.11,-1.86 -1.33,0.46 -0.72,2.21 a 0.41,0.42 69.1 0 1 -0.24,0.53 q -2.92,1.14 -0.19,2.19 a 0.63,0.61 14.9 0 1 0.4,0.66 q -0.21,1.57 -0.08,3.14 0.22,2.540004 0.41,3.110004 0.67,2.04 3.72,1.94 a 1.23,1.22 8.8 0 0 1.11,-0.81 q 0.67,-1.86 -1.1,-1.24 a 0.85,0.84 78.8 0 1 -1.13,-0.76 z M 321.27,94.192136 q -2.17,-2.84 -2.22,1.22 -0.04,2.77 -0.05,5.540004 0,0.15 -0.14,1.92 -0.19,2.23 1.67,1.51 1.82,-0.72 1.47,-2.65 -0.71,-3.810004 0.75,-5.870004 a 0.98,0.82 17 0 1 0.8,-0.34 q 2.33,0.15 1.58,-1.84 a 0.76,0.76 0 0 0 -0.7,-0.5 q -1.5,-0.04 -2.54,1.04 a 0.4,0.41 48.7 0 1 -0.62,-0.03 z m 8.79,5.02 5.46,-0.05 a 0.81,0.79 3.3 0 0 0.79,-0.69 q 0.37,-2.93 -1.51,-4.35 -1.54,-1.16 -3.94,-0.79 -3.98,0.63 -4.25,4.58 -0.2,2.840004 1.34,4.690004 1.9,2.26 5.46,1.32 0.07,-0.02 1.33,-0.25 1.27,-0.23 1.26,-1.5 a 0.77,0.77 0 0 0 -1.06,-0.71 q -4.65,1.93 -5.31,-1.740004 a 0.43,0.44 85 0 1 0.43,-0.51 z m 12.62,1.000004 q -0.84,-2.560004 -1.59,-5.570004 -0.48,-1.96 -2.89,-1.41 a 0.57,0.58 74.4 0 0 -0.42,0.74 l 3.12,9.400004 a 1.09,0.98 88.4 0 0 0.63,0.66 q 1.56,0.51 3.02,-0.14 a 1.19,1.07 88.8 0 0 0.61,-0.71 l 2.89,-9.230004 a 0.55,0.58 19.4 0 0 -0.31,-0.69 q -2.1,-0.83 -2.71,1.41 -0.67,2.42 -1.72,5.540004 -0.31,0.94 -0.63,0 z m 43.03,-4.710004 q 0.44,0.5 0.5,1.1 a 0.45,0.51 87.9 0 1 -0.51,0.49 q -2.55,-0.01 -3.7,0.57 -2.37,1.19 -2.18,3.280004 0.17,1.8 1.84,2.74 1.9,1.06 4.14,-0.03 a 0.87,0.8 47.4 0 1 0.84,0.07 q 0.87,0.59 1.83,0.31 a 0.76,0.66 84.5 0 0 0.49,-0.69 q 0.09,-2.84 0.18,-5.680004 0.13,-4.17 -3.89,-4.5 -3.88,-0.32 -4.44,1.06 -1.05,2.61 2.81,0.83 a 1.79,1.78 57 0 1 2.09,0.45 z m 19.73,1.54 q -3.22,-0.26 -5.36,1.99 a 1.41,1.41 0 0 0 -0.37,0.87 q -0.3,5.060004 5.93,3.840004 a 1.62,1.65 51.9 0 1 0.98,0.11 q 2.5,1.14 2.31,-1.45 -0.18,-2.490004 -0.07,-4.990004 0.14,-3.37 -3.03,-4.15 -3.51,-0.86 -5.53,1.74 a 0.4,0.44 30.9 0 0 0.13,0.66 q 0.85,0.34 2.07,-0.25 2.76,-1.32 3.35,1.2 a 0.35,0.38 86.3 0 1 -0.41,0.43 z m 40.37,2.17 5.42,-0.05 a 1.03,1 0 0 0 1.02,-0.99 q 0.04,-2.72 -1.74,-4.06 -1.51,-1.15 -3.85,-0.89 -4.25,0.47 -4.35,5.25 -0.13,6.760004 6.94,5.440004 2.15,-0.4 2.59,-1.94 a 0.41,0.4 7.4 0 0 -0.4,-0.51 q -0.79,0.01 -1.53,0.27 -1.44,0.51 -1.91,0.51 -2.48,-0.02 -2.67,-2.520004 a 0.47,0.48 87.8 0 1 0.48,-0.51 z m 11.96,2.180004 q 0.99,-1.670004 1.55,0.18 1.02,3.35 3.66,2.46 a 0.46,0.43 67.1 0 0 0.23,-0.63 l -2.25,-4.540004 a 1.03,1.06 44.3 0 1 0,-0.91 q 0.65,-1.39 1.43,-2.71 0.46,-0.76 0.53,-1.24 0.21,-1.39 -1.49,-0.88 a 2.59,2.58 0.4 0 0 -1.75,1.72 q -0.78,2.51 -1.63,1.16 -0.14,-0.23 -0.46,-1.24 -0.73,-2.38 -3.31,-1.47 a 0.45,0.43 67.2 0 0 -0.24,0.62 l 2.18,4.24 a 0.85,1.05 41.8 0 1 -0.04,0.87 l -2.24,4.430004 a 0.48,0.47 23.6 0 0 0.27,0.66 q 1.86,0.74 2.54,-0.7 0.71,-1.5 1.02,-2.02 z"
     id="path17889" />
  <path
     fill="#deebf7"
     d="m 42.29,60.662136 33.21,0.21 q 19.94,0.48 53.44,0.1 21.81,-0.24 65.23,0.38 4.97,0.08 7.39,1.44 3.73,2.1 4.94,6.37 0.83,2.91 0.57,8.25 -0.22,4.4 0.39,8.75 l 0.04,27.210004 q -5.67,-0.1 -11.34,-0.2 -0.47,-0.01 -0.83,0.06 -1.67,0.31 -0.22,1.01 0.36,0.17 0.81,0.16 5.8,-0.19 11.58,0.3 -0.46,2.56 -0.53,5.14 -0.09,3.35 -0.76,5.03 -2.46,6.1 -8.55,7.19 -0.33,0.06 -10.34,0.15 -38.91,0.37 -77.83,0.05 -8.48,-0.08 -19.98,0.1 -11.5,0.17 -23.01,0.09 -19.82,-0.42 -39.65,-0.34 -13.55,0.06 -15.15,-0.34 -7.26,-1.78 -8.53,-9.67 -0.17,-1.09 -0.17,-11.9 0,-14.460004 0,-28.920004 0,-9.13 0.3,-10.72 1.3,-6.85 7.56,-8.73 2.08,-0.62 13.85,-0.8 8.12,-0.12 16.25,-0.12 -0.08,5.8 0.28,11.59 0.01,0.19 0.09,0.3 0.18,0.27 0.35,-0.02 0.07,-0.1 0.07,-0.26 0.15,-5.94 0.54,-11.86 z m 31.53,0.95 a 0.27,0.27 0 0 0 -0.27,-0.27 h -0.24 a 0.27,0.27 0 0 0 -0.27,0.27 v 68.640004 a 0.27,0.27 0 0 0 0.27,0.27 h 0.24 a 0.27,0.27 0 0 0 0.27,-0.27 z m 62.93,0.43 a 0.26,0.26 0 0 0 -0.26,-0.26 h -0.02 a 0.26,0.26 0 0 0 -0.26,0.26 v 69.080004 a 0.26,0.26 0 0 0 0.26,0.26 h 0.02 a 0.26,0.26 0 0 0 0.26,-0.26 z m -113.57,28.14 q -0.32,5.94 -0.25,11.980004 0.04,2.96 2.43,1.8 a 0.74,0.94 74.9 0 0 0.54,-0.72 l 0.07,-2.94 A 1.03,1.16 0.6 0 1 27,99.162136 q 2.59,-0.01 4.15,-1.26 1.49,-1.2 1.78,-3.52 0.41,-3.23 -2.53,-4.63 -1.13,-0.54 -3.04,-0.58 -1.56,-0.04 -3.12,-0.01 a 1.08,1.09 1.1 0 0 -1.06,1.02 z m 68.5,0.33 q -3.08,-1.93 -8.21,-1.16 a 1.38,1.38 0 0 0 -1.17,1.34 q -0.09,4.67 -0.06,9.960004 0,0.08 -0.1,1.52 -0.15,2.2 1.99,2.1 1.58,-0.07 1.75,-0.06 9.38,0.26 8.37,-9.560004 -0.28,-2.7 -2.57,-4.14 z m 61.07,9.570004 -4.47,-10.030004 a 1.37,1.23 86.7 0 0 -0.67,-0.67 q -1.59,-0.66 -3.12,0.1 a 0.87,0.77 79 0 0 -0.44,0.74 q -0.09,5.68 -0.05,11.360004 0,0.09 -0.09,1.15 -0.15,1.92 2.15,1.42 a 0.87,0.88 83.8 0 0 0.69,-0.85 l -0.06,-10.340004 q -0.01,-1.49 0.63,-0.13 l 5,10.570004 a 1.17,1.22 86.9 0 0 0.72,0.62 q 3.25,1.05 3.06,-2.05 -0.1,-1.57 -0.1,-1.63 0,-4.090004 0,-8.180004 0,-0.13 0.11,-1.49 0.17,-2.28 -2.09,-1.4 a 0.77,0.75 79.3 0 0 -0.47,0.71 l -0.05,9.95 q -0.01,1.820004 -0.75,0.150004 z m -40.95,1.27 -0.05,-5.210004 a 0.7,0.72 80.9 0 1 0.5,-0.67 q 2.45,-0.76 1.8,-1.92 a 0.6,0.89 77.3 0 0 -0.78,-0.3 q -0.64,0.06 -1.14,-0.26 a 0.73,1 13.6 0 1 -0.34,-0.82 q 0.13,-2.84 -2.51,-1.89 a 0.94,0.61 89.2 0 0 -0.44,0.7 l -0.24,1.64 a 0.59,0.96 78.6 0 1 -0.64,0.6 q -1.38,0.46 -0.46,1.69 a 3.12,0.52 51.4 0 1 1.25,2.25 q -0.1,1.07 0.03,2.11 0.02,0.22 0.18,1.920004 0.31,3.36 3.97,2.97 a 1.21,1.12 14.4 0 0 0.82,-0.44 q 1.64,-2.15 -1.43,-1.92 a 0.45,0.48 87.7 0 1 -0.52,-0.45 z m 67.99,-7.690004 q -2.62,-1.51 -3.54,1.25 -1.13,3.38 -2,0.25 -0.8,-2.87 -3.47,-1.88 a 0.47,0.46 66.1 0 0 -0.24,0.65 l 1.89,3.7 q 0.84,1.63 -0.3,3.040004 -3.29,4.1 0.19,3.42 a 1.1,1.11 9.1 0 0 0.75,-0.55 l 1.45,-2.68 q 0.29,-0.52 0.56,-0.07 l 1.56,2.6 a 1.39,0.5 66.2 0 0 0.63,0.66 q 1.19,0.44 2.3,-0.13 a 0.52,0.49 61.9 0 0 0.19,-0.69 l -2.27,-4.120004 a 1.09,0.83 48.6 0 1 -0.07,-0.92 l 2.12,-4.03 2,1.01 a 0.69,1 8.3 0 1 0.4,0.81 q 0.04,2.18 0.19,4.360004 0.14,2.01 0.95,2.9 1.25,1.36 3.4,0.82 0.61,-0.15 0.86,-0.56 0.33,-0.54 0.13,-1.14 a 0.52,0.65 76.5 0 0 -0.71,-0.33 q -2.32,0.45 -1.97,-2.400004 0.21,-1.72 0.21,-3.56 a 0.91,0.92 89.4 0 1 0.9,-0.91 q 2.14,-0.02 1.52,-1.49 a 0.65,0.78 78.8 0 0 -0.73,-0.4 q -2.2,0.12 -1.8,-2.12 a 0.63,0.74 17.9 0 0 -0.31,-0.74 q -2.41,-1.29 -2.55,1.5 -0.1,2.05 -2.24,1.75 z m -141.86,0.12 q -0.82,-0.84 -1.91,-0.5 a 0.75,0.67 82.1 0 0 -0.47,0.7 v 9.370004 a 0.7,0.74 8.8 0 0 0.48,0.69 q 0.81,0.26 1.67,0.15 a 0.63,0.58 88 0 0 0.51,-0.6 q 0.15,-3.24 0.04,-3.930004 -0.62,-3.91 2.82,-4.61 a 0.67,0.8 88.5 0 0 0.62,-0.55 q 0.37,-1.8 -1.75,-1.15 -0.66,0.2 -1.26,0.54 a 0.62,0.61 52.6 0 1 -0.75,-0.11 z m 9.88,8.320004 q -1.55,-0.55 -1.78,-2 a 0.81,0.82 85.5 0 1 0.81,-0.940004 h 4.74 a 1.32,1.31 86.5 0 0 1.3,-1.48 q -0.31,-2.58 -1.87,-3.74 -1.4,-1.04 -3.69,-0.59 -3.91,0.77 -4.24,4.53 -0.27,3.110004 1.79,5.030004 2.63,2.47 6.91,0.26 0.97,-0.5 0.69,-1.32 a 0.49,0.58 72.5 0 0 -0.7,-0.29 q -2.9,0.91 -3.96,0.54 z m 11.44,-1.73 -2.09,-6.490004 a 1.08,0.94 88.7 0 0 -0.61,-0.67 q -1.01,-0.36 -1.89,0.16 a 0.67,0.62 66.6 0 0 -0.27,0.77 l 3,9.240004 a 1.14,1.12 2.5 0 0 0.63,0.68 q 2.68,1.11 3.67,-1.21 0.66,-1.56 2.91,-8.720004 a 0.59,0.67 23.1 0 0 -0.25,-0.75 q -1.09,-0.63 -2.14,0.04 a 1.44,1.15 86.7 0 0 -0.55,0.78 l -1.72,6.160004 q -0.33,1.15 -0.69,0.01 z m 43.6,3.38 q 1.02,0.58 2.12,0.27 a 0.75,0.66 84.4 0 0 0.49,-0.68 q 0.09,-2.47 0.14,-4.930004 0.14,-6.74 -6.59,-5.14 -1.98,0.47 -2,2.06 -0.03,1.25 1.04,0.6 2.67,-1.63 4.05,-0.29 1.38,1.36 -0.56,1.47 -5.13,0.3 -5.03,3.770004 0.05,1.94 1.64,2.85 1.73,0.98 3.83,-0.02 a 0.94,0.92 46.9 0 1 0.87,0.04 z m 19.09,-6.650004 q -1.58,0.04 -3.11,0.44 -2.49,0.65 -2.71,2.700004 -0.2,1.76 1.13,3.02 1.74,1.65 4.49,0.41 a 1.09,1.09 0 0 1 0.87,-0.02 q 2.86,1.22 2.74,-0.99 -0.07,-1.43 -0.07,-1.52 0.09,-2.760004 -0.22,-5.490004 a 1.48,1.61 18.4 0 0 -0.39,-0.87 q -2.14,-2.28 -5.15,-1.46 -1.65,0.45 -1.69,0.46 -0.98,0.4 -1.08,1.59 a 0.54,0.54 0 0 0 0.73,0.55 q 1.47,-0.57 3.03,-0.69 1.82,-0.13 1.93,1.37 a 0.46,0.51 87.3 0 1 -0.5,0.5 z m 40.37,2.11 5.45,-0.05 a 0.91,0.94 89.4 0 0 0.93,-0.92 q -0.05,-4.11 -3.26,-4.91 -2.5,-0.62 -4.63,0.88 -2.39,1.69 -2.05,4.95 0.65,6.280004 7.01,4.710004 0.07,-0.02 1.14,-0.19 1.31,-0.22 1.34,-1.48 a 0.77,0.76 79.7 0 0 -1.05,-0.73 q -4.67,1.9 -5.31,-1.750004 a 0.43,0.44 85 0 1 0.43,-0.51 z"
     id="path17891" />
  <path
     fill="#deebf7"
     d="m 639.74,60.882136 q 0.79,34.3 0.51,68.460004 0,0.34 0.12,0.61 0.7,1.56 0.66,-0.86 -0.56,-34.090004 0.03,-68.110004 l 89.44,-0.03 q 18.25,0.43 31.25,0.21 7.18,-0.12 11,5.54 1.38,2.96 1.5,4.96 0.68,10.98 0,26.46 -3,0.07 -5.99,0.22 -1.06,0.05 -0.84,0.47 a 0.58,1.05 85.1 0 0 0.81,0.36 l 6.02,0.28 -0.36,24.680004 q -2.74,6.24 -8.4,7.67 -1.35,0.34 -10.52,0.38 -85.31,0.36 -170.61,0 -5.74,-0.03 -8.46,-1.44 -5.99,-3.11 -5.9,-11.08 0.04,-3.86 -0.29,-6 -0.59,-17.740004 0.18,-35.480004 l 6.62,-0.02 a 1.07,0.87 14.4 0 0 0.82,-0.38 q 0.66,-0.93 -1.33,-0.62 -1.62,0.25 -6,-0.15 -1.67,-15.82 13.25,-15.85 27.63,-0.05 56.49,-0.28 z m 64.06,1.46 a 0.26,0.26 0 0 0 -0.26,-0.26 h -0.12 a 0.26,0.26 0 0 0 -0.26,0.26 v 68.880004 a 0.26,0.26 0 0 0 0.26,0.26 h 0.12 a 0.26,0.26 0 0 0 0.26,-0.26 z m -113.66,28.42 -0.09,12.600004 a 0.72,0.74 10.7 0 0 0.47,0.7 q 1.08,0.41 2.07,-0.13 a 0.94,0.76 78.9 0 0 0.4,-0.76 l 0.05,-3.210004 a 0.78,0.72 81.3 0 1 0.47,-0.7 q 0.41,-0.16 0.85,-0.16 1.04,-0.02 1.28,-0.08 4.36,-1.08 4.3,-4.82 -0.04,-3.21 -2.72,-4.39 -2.32,-1.02 -5.87,-0.41 a 1.38,1.46 85 0 0 -1.21,1.36 z m 70.93,8.09 q 0.75,-2.74 -0.28,-5.43 -1.01,-2.64 -3.53,-3.57 -2.89,-1.08 -6.94,-0.47 a 1.22,1.23 85.7 0 0 -1.06,1.22 l 0.04,11.820004 a 1.58,1.55 4.3 0 0 1.35,1.54 q 3.85,0.57 6.54,-0.52 2.95,-1.2 3.88,-4.590004 z m 59.17,2.320004 q -2.16,-4.850004 -4.27,-9.730004 -0.69,-1.59 -1.56,-2.07 -1.33,-0.75 -2.92,0.1 a 0.86,0.82 76.9 0 0 -0.44,0.75 v 13.120004 a 0.7,0.79 8.9 0 0 0.46,0.72 q 0.87,0.34 1.73,0.01 a 0.79,0.72 80.3 0 0 0.46,-0.72 l -0.01,-10.640004 q -0.01,-1.21 0.48,-0.11 2.08,4.65 4.38,9.440004 0.69,1.43 1.36,1.87 1.17,0.78 2.61,-0.05 a 0.92,0.82 77.8 0 0 0.43,-0.76 q 0.09,-5.970004 0.05,-11.940004 -0.02,-2.61 -2.04,-1.93 a 0.69,0.69 0 0 0 -0.47,0.67 l 0.19,11.330004 a 0.17,0.11 83.8 0 1 -0.09,0.17 l -0.1,0.01 a 0.35,0.17 70 0 1 -0.25,-0.24 z m -41.44,0.18 q -0.1,-2.720004 -0.1,-5.440004 0,-1.15 1.32,-0.74 a 0.97,0.97 0 0 0 1.24,-0.85 q 0.13,-1.67 -1.63,-1.19 a 0.73,0.73 0 0 1 -0.9,-0.84 q 0.48,-2.61 -2.26,-2.07 a 0.93,0.93 0 0 0 -0.71,1.22 q 0.58,1.68 -0.95,1.98 a 0.48,0.87 83.6 0 0 -0.71,0.5 q -0.07,0.63 1.08,1.28 a 1.32,1.31 21 0 1 0.64,1.43 q -0.26,1.23 -0.07,2.71 0.25,1.920004 0.44,2.660004 0.73,2.8 4.07,2.04 a 1.05,0.99 4.2 0 0 0.71,-0.58 q 0.84,-1.94 -1.66,-1.68 a 0.44,0.46 86.4 0 1 -0.51,-0.43 z m 67.99,-7.690004 q -3.34,-1.2 -4.19,2.27 a 0.41,0.49 18.2 0 1 -0.59,0.37 q -0.51,-0.23 -0.65,-0.96 -0.52,-2.62 -3.14,-2.18 a 0.78,0.76 71 0 0 -0.53,1.12 l 2,3.84 a 1.22,1.27 47.8 0 1 -0.09,1.28 q -1.08,1.580004 -1.8,2.620004 -1.92,2.78 1.37,2.13 a 2.16,2.16 0 0 0 1.69,-1.68 q 0.74,-3.540004 1.72,-0.55 1.01,3.08 3.88,2.11 a 0.46,0.46 0 0 0 0.26,-0.64 l -2.23,-4.290004 a 1.13,0.76 51.7 0 1 -0.07,-0.91 l 2.12,-4.03 1.98,1.05 a 0.79,0.89 13 0 1 0.41,0.75 q 0,2.61 0.25,5.210004 0.28,3.03 3.57,2.99 1.95,-0.03 1.77,-1.7 a 0.63,0.45 0.1 0 0 -0.58,-0.42 l -1.39,-0.07 a 0.53,0.61 1 0 1 -0.51,-0.61 v -5.630004 a 0.54,0.56 88.3 0 1 0.53,-0.54 l 1.12,-0.06 a 0.86,0.76 7.4 0 0 0.71,-0.48 q 0.66,-1.71 -1.62,-1.47 a 0.7,0.71 87 0 1 -0.78,-0.69 q -0.01,-3.41 -2.51,-2.03 a 0.82,0.72 74.2 0 0 -0.36,0.76 q 0.23,2.49 -2.34,2.44 z m -141.94,0.25 q -0.63,-1.09 -1.83,-0.65 a 0.79,0.71 81.5 0 0 -0.47,0.71 q -0.08,3.41 -0.06,6.820004 0,0.11 -0.12,1.73 -0.18,2.46 2.41,1.57 a 0.7,0.67 79.9 0 0 0.45,-0.68 q -0.2,-4.600004 0.27,-6.500004 0.46,-1.88 2.45,-1.65 a 0.72,0.61 13.5 0 0 0.71,-0.36 q 0.6,-1.42 -0.75,-1.68 -0.59,-0.12 -1.28,0.21 -0.6,0.28 -1.16,0.64 a 0.45,0.43 58.2 0 1 -0.62,-0.16 z m 6.11,1.74 q -3.52,8.650004 5.76,8.300004 0.9,-0.03 1.52,-0.27 1.08,-0.41 1.23,-1.06 0.36,-1.5 -1.1,-1 -4.43,1.5 -5.21,-1.660004 a 0.48,0.43 81.5 0 1 0.39,-0.6 l 4.31,-0.13 q 2.44,-0.07 1.99,-2.19 -0.84,-4.01 -5.33,-3.86 -2.58,0.08 -3.56,2.47 z m 15.25,4.620004 q -0.83,-2.630004 -1.6,-5.640004 -0.5,-1.95 -2.8,-1.43 a 0.67,0.68 74.1 0 0 -0.5,0.87 l 3.23,9.440004 a 0.91,0.94 86.8 0 0 0.68,0.59 q 3.11,0.68 3.72,-1.67 0.33,-1.27 0.37,-1.37 1.28,-3.510004 2.25,-7.110004 a 0.56,0.6 18.5 0 0 -0.32,-0.69 q -2.1,-0.83 -2.72,1.41 -0.66,2.42 -1.73,5.600004 -0.3,0.91 -0.58,0 z m 42.99,-3.230004 q -2.94,-0.25 -5.02,1.59 a 1.33,1.29 73.5 0 0 -0.44,0.84 q -0.8,6.070004 5.11,4.160004 a 1.33,1.16 45.6 0 1 0.9,0.07 q 1.01,0.45 2.08,0.35 a 0.59,0.65 0.3 0 0 0.53,-0.58 q 0.21,-2.56 0.17,-5.120004 -0.05,-3.07 -1.51,-4.28 -1.95,-1.61 -5.33,-0.47 -1.85,0.62 -1.54,2.02 a 0.44,0.49 73.3 0 0 0.63,0.3 q 1.78,-0.68 2.72,-0.76 2.04,-0.18 2.19,1.44 a 0.45,0.41 0.8 0 1 -0.49,0.44 z m 20.82,6.790004 q 0.76,0.67 1.73,0.25 a 0.87,0.72 82 0 0 0.46,-0.74 q 0.1,-2.84 0.2,-5.670004 0.14,-4.13 -3.49,-4.47 -1.76,-0.17 -3.45,0.39 -1.99,0.65 -1.59,2.05 a 0.41,0.46 69.2 0 0 0.62,0.24 q 1.92,-0.87 3.95,-0.51 a 1,1.06 82.1 0 1 0.74,0.53 q 0.78,1.52 -1.16,1.37 -1.06,-0.08 -1.56,0.01 -3.76,0.74 -3.22,3.840004 0.35,1.98 2.1,2.71 1.81,0.75 3.88,-0.14 a 0.78,0.73 52.9 0 1 0.79,0.14 z m 39.29,-4.620004 5.45,-0.05 a 0.91,0.94 89.4 0 0 0.93,-0.92 q -0.06,-4.48 -3.87,-5.03 -1.91,-0.27 -3.48,0.71 -1.72,1.08 -2.3,2.99 -0.73,2.42 0.67,4.820004 2.37,4.03 7.77,1.58 0.53,-0.24 0.7,-0.65 0.25,-0.59 -0.04,-1.06 a 0.52,0.66 62.8 0 0 -0.78,-0.15 q -1.24,0.57 -2.61,0.65 -2.86,0.16 -2.95,-2.380004 a 0.5,0.51 89.4 0 1 0.51,-0.51 z"
     id="path17893" />
  <path
     fill="#217cc2"
     d="m 639.74,60.882136 1.32,0.1 q -0.59,34.02 -0.03,68.110004 0.04,2.42 -0.66,0.86 -0.12,-0.27 -0.12,-0.61 0.28,-34.160004 -0.51,-68.460004 z"
     id="path17895" />
  <path
     fill="#3d8ed0"
     d="m 73.82,130.25214 a 0.27,0.27 0 0 1 -0.27,0.27 h -0.24 a 0.27,0.27 0 0 1 -0.27,-0.27 V 61.612136 a 0.27,0.27 0 0 1 0.27,-0.27 h 0.24 a 0.27,0.27 0 0 1 0.27,0.27 z"
     id="path17897" />
  <path
     fill="#3d8ed0"
     d="m 421.91,129.07214 a 0.44,0.44 0 0 1 -0.44,0.44 h -0.02 a 0.44,0.44 0 0 1 -0.44,-0.44 V 61.672136 a 0.44,0.44 0 0 1 0.44,-0.44 h 0.02 a 0.44,0.44 0 0 1 0.44,0.44 z"
     id="path17899" />
  <path
     fill="#217cc2"
     d="m 136.75,131.12214 a 0.26,0.26 0 0 1 -0.26,0.26 h -0.02 a 0.26,0.26 0 0 1 -0.26,-0.26 V 62.042136 a 0.26,0.26 0 0 1 0.26,-0.26 h 0.02 a 0.26,0.26 0 0 1 0.26,0.26 z"
     id="path17901" />
  <path
     fill="#217cc2"
     d="m 703.8,131.22214 a 0.26,0.26 0 0 1 -0.26,0.26 h -0.12 a 0.26,0.26 0 0 1 -0.26,-0.26 V 62.342136 a 0.26,0.26 0 0 1 0.26,-0.26 h 0.12 a 0.26,0.26 0 0 1 0.26,0.26 z"
     id="path17903" />
  <path
     fill="#217cc2"
     d="m 356.75,131.79214 a 0.25,0.25 0 0 1 -0.25,0.25 v 0 a 0.25,0.25 0 0 1 -0.25,-0.25 V 62.792136 a 0.25,0.25 0 0 1 0.25,-0.25 v 0 a 0.25,0.25 0 0 1 0.25,0.25 z"
     id="path17905" />
  <path
     fill="#001b4f"
     d="m 774.21,66.412136 q 1.7,3.59 1.54,8 -0.38,10.42 0,23.71 h -1.5 q 0.68,-15.48 0,-26.46 -0.12,-2 -1.5,-4.96 0.69,-0.32 1.46,-0.29 z"
     id="path17907" />
  <path
     fill="#ff0000"
     d="m 568,77.122136 q 0.82,0.42 2,-0.11 4.38,0.4 6,0.15 1.99,-0.31 1.33,0.62 a 1.07,0.87 14.4 0 1 -0.82,0.38 l -6.62,0.02 -1.64,0.02 -65.61,-0.04 a 1.21,1.22 85.4 0 0 -1.2,1.41 q 0.24,1.44 -0.08,2.55 a 0.44,0.42 21.6 0 1 -0.61,0.24 l -8,-3.91 q -1.38,-0.76 0.25,-1.58 6.22,-2.69 7.25,-3.46 1.84,-1.38 1.08,2.32 a 1.19,1.19 0 0 0 1.17,1.43 z"
     id="path17909" />
  <path
     fill="#ff0000"
     d="m 285.15,78.172136 q 0.72,0.17 1.64,-0.26 6.18,0.68 7.96,0.25 1.78,-0.43 1.61,0.48 a 0.7,0.57 4.4 0 1 -0.67,0.46 l -8.94,0.1 H 285 l -63.56,0.02 a 1.17,1.16 84.5 0 0 -1.14,1.39 q 0.52,2.71 -0.32,2.71 -0.07,0 -1.58,-0.73 -3.47,-1.7 -7.02,-3.49 -0.78,-0.4 0,-0.79 l 8.32,-4.16 q 1.1,-0.55 0.9,0.66 -0.27,1.66 0.05,2.82 a 0.64,0.7 82.9 0 0 0.66,0.47 z"
     id="path17911" />
  <path
     fill="#001b4f"
     d="m 568.25,78.202136 1.64,-0.02 q -0.77,17.74 -0.18,35.480004 -0.8,0.14 -1.42,-0.25 l -0.08,-0.25 q 0.63,-17.480004 0.04,-34.960004 z"
     id="path17915" />
  <path
     fill="#03437d"
     d="m 285,79.202136 h 1.75 l -0.04,33.460004 -1.42,0.75 z"
     id="path17917" />
  <path
     fill="#001036"
     d="m 491.29,81.662136 h 1.42 l -0.21,29.710004 q -0.6,0.3 -1.25,0.25 0.59,-14.980004 0.04,-29.960004 z"
     id="path17919" />
  <path
     fill="#001b4f"
     d="m 208.71,85.912136 -0.21,27.210004 q -0.44,0.42 -1,0.25 l -0.04,-27.210004 q 0.53,-0.43 1.25,-0.25 z"
     id="path17921" />
  <path
     fill="#000000"
     d="m 881.53,101.05214 q 0.72,2.04 0.72,-0.12 l 0.01,-11.790004 a 0.9,0.9 0 0 1 0.72,-0.88 q 2.52,-0.49 2.35,1.4 -0.08,0.93 -0.08,1 0,6.62 0,13.220004 a 1.22,1.24 85.6 0 1 -1.05,1.21 q -3.28,0.51 -4.48,-2.34 -0.45,-1.05 -0.5,-1.16 -2.44,-4.900004 -4.99,-9.750004 -0.23,-0.43 -0.23,0.07 v 12.260004 a 0.87,0.78 77.8 0 1 -0.43,0.75 q -0.99,0.5 -2.05,0.13 a 0.67,0.75 8.7 0 1 -0.45,-0.69 l 0.12,-15.330004 a 0.72,0.7 81 0 1 0.48,-0.68 q 3.58,-1.18 4.83,1.62 0.74,1.64 0.76,1.68 2.68,4.86 4.27,9.400004 z"
     id="path17923" />
  <path
     fill="#000000"
     d="m 889.28,91.602136 q 0.02,-0.97 -0.25,-1.88 -0.6,-2.1 2.89,-1.37 a 0.73,0.72 5.9 0 1 0.58,0.71 v 9.67 q 0,2.070004 1.8,3.090004 2.29,1.31 4.06,-0.26 1.13,-1.01 1.26,-3.220004 0.27,-4.71 0.14,-9.42 a 0.7,0.66 81 0 1 0.46,-0.67 q 3.44,-1.09 3.19,2.1 -0.16,2.05 -0.16,2.13 -0.01,2.96 -0.05,5.93 -0.03,2.270004 -1.18,3.970004 -1.08,1.59 -3.14,2.33 -3.47,1.24 -7.08,-0.62 -2.45,-1.26 -2.5,-4.01 -0.07,-3.980004 -0.02,-8.480004 z"
     id="path17925" />
  <path
     fill="#000000"
     d="m 910.82,102.12214 4.59,0.04 a 0.82,0.85 85.1 0 1 0.83,0.68 q 0.43,2.55 -1.78,2.42 -1.29,-0.08 -1.43,-0.08 -2.8,0.08 -5.59,-0.16 a 0.59,0.56 2.3 0 1 -0.53,-0.55 L 906.8,88.972136 a 0.69,0.68 81.1 0 1 0.48,-0.67 q 1.24,-0.4 2.5,-0.05 a 0.64,0.71 6.5 0 1 0.47,0.66 l 0.06,12.680004 a 0.52,0.53 0.6 0 0 0.51,0.53 z"
     id="path17927" />
  <path
     fill="#000000"
     d="m 921.82,102.12214 4.59,0.04 a 0.82,0.85 85.1 0 1 0.83,0.68 q 0.43,2.55 -1.78,2.42 -1.29,-0.08 -1.43,-0.08 -2.8,0.08 -5.59,-0.16 a 0.59,0.56 2.3 0 1 -0.53,-0.55 L 917.8,88.972136 a 0.69,0.68 81.1 0 1 0.48,-0.67 q 1.24,-0.4 2.5,-0.05 a 0.64,0.71 6.5 0 1 0.47,0.66 l 0.06,12.680004 a 0.52,0.53 0.6 0 0 0.51,0.53 z"
     id="path17929" />
  <path
     fill="#000000"
     d="m 23.18,90.182136 a 1.08,1.09 1.1 0 1 1.06,-1.02 q 1.56,-0.03 3.12,0.01 1.91,0.04 3.04,0.58 2.94,1.4 2.53,4.63 -0.29,2.32 -1.78,3.52 -1.56,1.25 -4.15,1.26 a 1.03,1.16 0.6 0 0 -1.03,1.140004 l -0.07,2.94 a 0.74,0.94 74.9 0 1 -0.54,0.72 q -2.39,1.16 -2.43,-1.8 -0.07,-6.040004 0.25,-11.980004 z m 4.98,0.99 a 1.35,1.35 0 0 0 -2.06,0.85 q -0.43,2.02 0.09,4.34 a 0.84,0.8 89.1 0 0 0.61,0.62 q 2.24,0.5 2.78,-1.39 0.41,-1.42 0.2,-2.38 -0.24,-1.14 -1.62,-2.04 z"
     id="path17931" />
  <path
     fill="#000000"
     d="m 91.68,90.512136 q 2.29,1.44 2.57,4.14 1.01,9.820004 -8.37,9.560004 -0.17,-0.01 -1.75,0.06 -2.14,0.1 -1.99,-2.1 0.1,-1.44 0.1,-1.52 -0.03,-5.290004 0.06,-9.960004 a 1.38,1.38 0 0 1 1.17,-1.34 q 5.13,-0.77 8.21,1.16 z m -2.62,1.09 q -0.97,-0.74 -3.26,-0.45 a 0.57,0.59 85.5 0 0 -0.51,0.58 l 0.11,9.740004 a 0.65,0.62 4.5 0 0 0.54,0.6 q 4.39,0.69 5.37,-3.850004 0.92,-4.24 -2.25,-6.62 z"
     id="path17933" />
  <path
     fill="#000000"
     d="m 152.75,100.08214 q 0.74,1.67 0.75,-0.150004 l 0.05,-9.95 a 0.77,0.75 79.3 0 1 0.47,-0.71 q 2.26,-0.88 2.09,1.4 -0.11,1.36 -0.11,1.49 0,4.09 0,8.180004 0,0.06 0.1,1.63 0.19,3.1 -3.06,2.05 a 1.17,1.22 86.9 0 1 -0.72,-0.62 l -5,-10.570004 q -0.64,-1.36 -0.63,0.13 l 0.06,10.340004 a 0.87,0.88 83.8 0 1 -0.69,0.85 q -2.3,0.5 -2.15,-1.42 0.09,-1.06 0.09,-1.15 -0.04,-5.680004 0.05,-11.360004 a 0.87,0.77 79 0 1 0.44,-0.74 q 1.53,-0.76 3.12,-0.1 a 1.37,1.23 86.7 0 1 0.67,0.67 z"
     id="path17935" />
  <path
     fill="#000000"
     d="m 310.65,99.272136 a 1.35,1.35 0 0 0 -1.38,1.640004 q 0.89,3.91 -1.85,3.29 a 1.14,1.06 7.7 0 1 -0.88,-1.07 l 0.23,-13.160004 a 0.63,0.67 84.2 0 1 0.53,-0.61 q 3.25,-0.66 6.51,0.32 2.19,0.66 2.5,2.92 0.96,6.99 -5.66,6.67 z m -1.22,-7.17 0.21,4.38 a 0.6,0.57 1.2 0 0 0.55,0.55 q 3.28,0.25 3.2,-2.9 -0.04,-1.43 -0.79,-2.25 -1.03,-1.14 -2.7,-0.49 a 0.73,0.74 78.2 0 0 -0.47,0.71 z"
     id="path17937" />
  <path
     fill="#000000"
     d="m 376.34,101.66214 q -1.94,2.81 -6.35,2.69 -1.79,-0.04 -3.56,-0.3 a 0.62,0.6 4 0 1 -0.52,-0.58 l -0.14,-13.400004 a 0.9,0.93 89.7 0 1 0.93,-0.91 q 2.05,0 4.29,0.11 6.78,0.33 6.76,7.88 -0.01,2.48 -1.41,4.510004 z m -2.28,-1.44 q 1.63,-2.750004 0.54,-6.130004 -0.91,-2.79 -4.69,-2.97 a 1.08,1.04 1.1 0 0 -1.13,1.05 l 0.12,9.300004 a 0.66,0.64 5.7 0 0 0.52,0.62 q 3.12,0.7 4.64,-1.87 z"
     id="path17939" />
  <path
     fill="#000000"
     d="m 431.01,93.242136 q -0.75,-1.6 -0.76,0.15 l -0.05,9.950004 a 0.81,0.72 80.5 0 1 -0.46,0.73 q -0.86,0.33 -1.73,-0.01 a 0.69,0.8 8.9 0 1 -0.45,-0.72 L 427.5,90.562136 a 1.29,1.29 0 0 1 1.16,-1.28 q 2.92,-0.32 3.48,1.37 0.3,0.9 0.33,0.97 1.97,4.17 4.02,9.070004 0.43,1.05 0.46,-0.08 0.09,-4.210004 0.06,-8.850004 -0.01,-0.12 -0.1,-1.19 -0.18,-1.91 1.84,-1.46 a 0.95,0.94 6.1 0 1 0.75,0.92 l -0.05,12.820004 a 1.24,1.02 73.5 0 1 -0.36,0.85 q -1.19,1.02 -2.71,0.27 a 1.55,1.41 88 0 1 -0.68,-0.7 z"
     id="path17941" />
  <path
     fill="#000000"
     d="m 590.14,90.762136 a 1.38,1.46 85 0 1 1.21,-1.36 q 3.55,-0.61 5.87,0.41 2.68,1.18 2.72,4.39 0.06,3.74 -4.3,4.82 -0.24,0.06 -1.28,0.08 -0.44,0 -0.85,0.16 a 0.78,0.72 81.3 0 0 -0.47,0.7 l -0.05,3.210004 a 0.94,0.76 78.9 0 1 -0.4,0.76 q -0.99,0.54 -2.07,0.13 a 0.72,0.74 10.7 0 1 -0.47,-0.7 z m 2.97,1.32 -0.03,4.07 a 0.82,0.75 0.7 0 0 0.81,0.76 q 3.53,0.03 3.01,-3.27 -0.5,-3.14 -3.24,-2.22 a 0.65,0.8 79.2 0 0 -0.55,0.66 z"
     id="path17943" />
  <path
     fill="#000000"
     d="m 657.19,103.44214 q -2.69,1.09 -6.54,0.52 a 1.58,1.55 4.3 0 1 -1.35,-1.54 l -0.04,-11.820004 a 1.22,1.23 85.7 0 1 1.06,-1.22 q 4.05,-0.61 6.94,0.47 2.52,0.93 3.53,3.57 1.03,2.69 0.28,5.43 -0.93,3.390004 -3.88,4.590004 z m 0.37,-3.22 q 1.81,-2.990004 0.38,-6.500004 -1.32,-3.2 -5.14,-2.59 a 0.59,0.6 85 0 0 -0.51,0.6 l 0.11,9.740004 a 0.65,0.65 0 0 0 0.51,0.62 q 3.1,0.69 4.65,-1.87 z"
     id="path17945" />
  <path
     fill="#000000"
     d="m 720.49,101.41214 0.1,-0.01 a 0.17,0.11 83.8 0 0 0.09,-0.17 l -0.19,-11.330004 a 0.69,0.69 0 0 1 0.47,-0.67 q 2.02,-0.68 2.04,1.93 0.04,5.97 -0.05,11.940004 a 0.92,0.82 77.8 0 1 -0.43,0.76 q -1.44,0.83 -2.61,0.05 -0.67,-0.44 -1.36,-1.87 -2.3,-4.790004 -4.38,-9.440004 -0.49,-1.1 -0.48,0.11 l 0.01,10.640004 a 0.79,0.72 80.3 0 1 -0.46,0.72 q -0.86,0.33 -1.73,-0.01 a 0.7,0.79 8.9 0 1 -0.46,-0.72 V 90.222136 a 0.86,0.82 76.9 0 1 0.44,-0.75 q 1.59,-0.85 2.92,-0.1 0.87,0.48 1.56,2.07 2.11,4.88 4.27,9.730004 a 0.35,0.17 70 0 0 0.25,0.24 z"
     id="path17947" />
  <path
     fill="#000000"
     d="m 112.32,101.80214 q 3.07,-0.23 1.43,1.92 a 1.21,1.12 14.4 0 1 -0.82,0.44 q -3.66,0.39 -3.97,-2.97 -0.16,-1.700004 -0.18,-1.920004 -0.13,-1.04 -0.03,-2.11 a 3.12,0.52 51.4 0 0 -1.25,-2.25 q -0.92,-1.23 0.46,-1.69 a 0.59,0.96 78.6 0 0 0.64,-0.6 l 0.24,-1.64 a 0.94,0.61 89.2 0 1 0.44,-0.7 q 2.64,-0.95 2.51,1.89 a 0.73,1 13.6 0 0 0.34,0.82 q 0.5,0.32 1.14,0.26 a 0.6,0.89 77.3 0 1 0.78,0.3 q 0.65,1.16 -1.8,1.92 a 0.7,0.72 80.9 0 0 -0.5,0.67 l 0.05,5.210004 a 0.45,0.48 87.7 0 0 0.52,0.45 z"
     id="path17949" />
  <path
     fill="#000000"
     d="m 179.54,94.162136 q 0.05,-0.28 0.25,-0.5 2.14,0.3 2.24,-1.75 0.14,-2.79 2.55,-1.5 a 0.63,0.74 17.9 0 1 0.31,0.74 q -0.4,2.24 1.8,2.12 a 0.65,0.78 78.8 0 1 0.73,0.4 q 0.62,1.47 -1.52,1.49 a 0.91,0.92 89.4 0 0 -0.9,0.91 q 0,1.84 -0.21,3.56 -0.35,2.850004 1.97,2.400004 a 0.52,0.65 76.5 0 1 0.71,0.33 q 0.2,0.6 -0.13,1.14 -0.25,0.41 -0.86,0.56 -2.15,0.54 -3.4,-0.82 -0.81,-0.89 -0.95,-2.9 -0.15,-2.180004 -0.19,-4.360004 a 0.69,1 8.3 0 0 -0.4,-0.81 z"
     id="path17951" />
  <path
     fill="#000000"
     d="m 395.28,95.722136 0.1,5.500004 a 0.77,0.83 9.5 0 0 0.49,0.74 q 0.5,0.2 1.07,0.13 a 0.51,0.63 78.9 0 1 0.67,0.35 q 0.41,1.43 -1.37,1.63 -3.45,0.38 -3.74,-3.16 -0.27,-3.250004 -0.21,-4.820004 a 0.7,0.68 11.8 0 0 -0.44,-0.65 q -1.48,-0.6 -0.81,-1.81 a 0.49,1.14 85.7 0 1 0.77,-0.4 q 0.58,-0.11 0.5,-0.88 -0.32,-3.26 2.5,-1.92 a 0.61,0.7 16.6 0 1 0.33,0.72 q -0.38,2.11 1.54,2.1 a 0.78,1.01 77.8 0 1 0.8,0.38 q 1.16,1.83 -1.66,1.64 a 0.5,0.45 1.8 0 0 -0.54,0.45 z"
     id="path17953" />
  <path
     fill="#000000"
     d="m 468.54,101.34214 a 0.85,0.84 78.8 0 0 1.13,0.76 q 1.77,-0.62 1.1,1.24 a 1.23,1.22 8.8 0 1 -1.11,0.81 q -3.05,0.1 -3.72,-1.94 -0.19,-0.57 -0.41,-3.110004 -0.13,-1.57 0.08,-3.14 a 0.63,0.61 14.9 0 0 -0.4,-0.66 q -2.73,-1.05 0.19,-2.19 a 0.41,0.42 69.1 0 0 0.24,-0.53 q -0.61,-1.75 0.72,-2.21 2.32,-0.79 2.11,1.86 a 0.83,0.83 0 0 0 1.04,0.86 q 1.63,-0.44 1.5,1.23 a 0.97,0.97 0 0 1 -1.24,0.85 q -1.32,-0.41 -1.32,0.74 0,2.97 0.09,5.430004 z"
     id="path17955" />
  <path
     fill="#000000"
     d="m 679.31,101.78214 q 2.5,-0.26 1.66,1.68 a 1.05,0.99 4.2 0 1 -0.71,0.58 q -3.34,0.76 -4.07,-2.04 -0.19,-0.74 -0.44,-2.660004 -0.19,-1.48 0.07,-2.71 a 1.32,1.31 21 0 0 -0.64,-1.43 q -1.15,-0.65 -1.08,-1.28 a 0.48,0.87 83.6 0 1 0.71,-0.5 q 1.53,-0.3 0.95,-1.98 a 0.93,0.93 0 0 1 0.71,-1.22 q 2.74,-0.54 2.26,2.07 a 0.73,0.73 0 0 0 0.9,0.84 q 1.76,-0.48 1.63,1.19 a 0.97,0.97 0 0 1 -1.24,0.85 q -1.32,-0.41 -1.32,0.74 0,2.72 0.1,5.440004 a 0.44,0.46 86.4 0 0 0.51,0.43 z"
     id="path17957" />
  <path
     fill="#000000"
     d="m 746.54,94.162136 q 0.05,-0.28 0.25,-0.5 2.57,0.05 2.34,-2.44 a 0.82,0.72 74.2 0 1 0.36,-0.76 q 2.5,-1.38 2.51,2.03 a 0.7,0.71 87 0 0 0.78,0.69 q 2.28,-0.24 1.62,1.47 a 0.86,0.76 7.4 0 1 -0.71,0.48 l -1.12,0.06 a 0.54,0.56 88.3 0 0 -0.53,0.54 v 5.630004 a 0.53,0.61 1 0 0 0.51,0.61 l 1.39,0.07 a 0.63,0.45 0.1 0 1 0.58,0.42 q 0.18,1.67 -1.77,1.7 -3.29,0.04 -3.57,-2.99 -0.25,-2.600004 -0.25,-5.210004 a 0.79,0.89 13 0 0 -0.41,-0.75 z"
     id="path17959" />
  <path
     fill="#deebf7"
     d="m 28.16,91.172136 q 1.38,0.9 1.62,2.04 0.21,0.96 -0.2,2.38 -0.54,1.89 -2.78,1.39 a 0.84,0.8 89.1 0 1 -0.61,-0.62 q -0.52,-2.32 -0.09,-4.34 a 1.35,1.35 0 0 1 2.06,-0.85 z"
     id="path17961" />
  <path
     fill="#deebf7"
     d="m 89.06,91.602136 q 3.17,2.38 2.25,6.62 -0.98,4.540004 -5.37,3.850004 a 0.65,0.62 4.5 0 1 -0.54,-0.6 l -0.11,-9.740004 a 0.57,0.59 85.5 0 1 0.51,-0.58 q 2.29,-0.29 3.26,0.45 z"
     id="path17963" />
  <path
     fill="#deebf7"
     d="m 309.9,91.392136 q 1.67,-0.65 2.7,0.49 0.75,0.82 0.79,2.25 0.08,3.15 -3.2,2.9 a 0.6,0.57 1.2 0 1 -0.55,-0.55 l -0.21,-4.38 a 0.73,0.74 78.2 0 1 0.47,-0.71 z"
     id="path17965" />
  <path
     fill="#deebf7"
     d="m 374.06,100.22214 q -1.52,2.57 -4.64,1.87 a 0.66,0.64 5.7 0 1 -0.52,-0.62 l -0.12,-9.300004 a 1.08,1.04 1.1 0 1 1.13,-1.05 q 3.78,0.18 4.69,2.97 1.09,3.38 -0.54,6.130004 z"
     id="path17967" />
  <path
     fill="#deebf7"
     d="m 593.66,91.422136 q 2.74,-0.92 3.24,2.22 0.52,3.3 -3.01,3.27 a 0.82,0.75 0.7 0 1 -0.81,-0.76 l 0.03,-4.07 a 0.65,0.8 79.2 0 1 0.55,-0.66 z"
     id="path17969" />
  <path
     fill="#deebf7"
     d="m 657.56,100.22214 q -1.55,2.56 -4.65,1.87 a 0.65,0.65 0 0 1 -0.51,-0.62 l -0.11,-9.740004 a 0.59,0.6 85 0 1 0.51,-0.6 q 3.82,-0.61 5.14,2.59 1.43,3.51 -0.38,6.500004 z"
     id="path17971" />
  <path
     fill="#000000"
     d="m 38.68,93.892136 q 0.6,-0.34 1.26,-0.54 2.12,-0.65 1.75,1.15 a 0.67,0.8 88.5 0 1 -0.62,0.55 q -3.44,0.7 -2.82,4.61 0.11,0.690004 -0.04,3.930004 a 0.63,0.58 88 0 1 -0.51,0.6 q -0.86,0.11 -1.67,-0.15 a 0.7,0.74 8.8 0 1 -0.48,-0.69 v -9.370004 a 0.75,0.67 82.1 0 1 0.47,-0.7 q 1.09,-0.34 1.91,0.5 a 0.62,0.61 52.6 0 0 0.75,0.11 z"
     id="path17973" />
  <path
     fill="#000000"
     d="m 47.81,102.10214 q 1.06,0.37 3.96,-0.54 a 0.49,0.58 72.5 0 1 0.7,0.29 q 0.28,0.82 -0.69,1.32 -4.28,2.21 -6.91,-0.26 -2.06,-1.92 -1.79,-5.030004 0.33,-3.76 4.24,-4.53 2.29,-0.45 3.69,0.59 1.56,1.16 1.87,3.74 a 1.32,1.31 86.5 0 1 -1.3,1.48 h -4.74 a 0.81,0.82 85.5 0 0 -0.81,0.940004 q 0.23,1.45 1.78,2 z m 0.36,-6.920004 q -1,-0.03 -1.79,0.73 -1.02,0.98 0.39,1.16 4.58,0.57 2.98,-1.11 -0.71,-0.75 -1.58,-0.78 z"
     id="path17975" />
  <path
     fill="#000000"
     d="m 59.25,100.37214 q 0.36,1.14 0.69,-0.01 l 1.72,-6.160004 a 1.44,1.15 86.7 0 1 0.55,-0.78 q 1.05,-0.67 2.14,-0.04 a 0.59,0.67 23.1 0 1 0.25,0.75 q -2.25,7.160004 -2.91,8.720004 -0.99,2.32 -3.67,1.21 a 1.14,1.12 2.5 0 1 -0.63,-0.68 l -3,-9.240004 a 0.67,0.62 66.6 0 1 0.27,-0.77 q 0.88,-0.52 1.89,-0.16 a 1.08,0.94 88.7 0 1 0.61,0.67 z"
     id="path17977" />
  <path
     fill="#000000"
     d="m 101.98,103.71214 q -2.1,1 -3.83,0.02 -1.59,-0.91 -1.64,-2.85 -0.1,-3.470004 5.03,-3.770004 1.94,-0.11 0.56,-1.47 -1.38,-1.34 -4.05,0.29 -1.07,0.65 -1.04,-0.6 0.02,-1.59 2,-2.06 6.73,-1.6 6.59,5.14 -0.05,2.460004 -0.14,4.930004 a 0.75,0.66 84.4 0 1 -0.49,0.68 q -1.1,0.31 -2.12,-0.27 a 0.94,0.92 46.9 0 0 -0.87,-0.04 z m 0.7435,-3.952804 a 1.43,1.96 65.5 0 0 -2.3765,-0.4884 1.43,1.96 65.5 0 0 -1.1905,2.114004 1.43,1.96 65.5 0 0 2.3765,0.4884 1.43,1.96 65.5 0 0 1.1905,-2.114004 z"
     id="path17979" />
  <path
     fill="#000000"
     d="m 122.44,96.602136 q -0.11,-1.5 -1.93,-1.37 -1.56,0.12 -3.03,0.69 a 0.54,0.54 0 0 1 -0.73,-0.55 q 0.1,-1.19 1.08,-1.59 0.04,-0.01 1.69,-0.46 3.01,-0.82 5.15,1.46 a 1.48,1.61 18.4 0 1 0.39,0.87 q 0.31,2.73 0.22,5.490004 0,0.09 0.07,1.52 0.12,2.21 -2.74,0.99 a 1.09,1.09 0 0 0 -0.87,0.02 q -2.75,1.24 -4.49,-0.41 -1.33,-1.26 -1.13,-3.02 0.22,-2.050004 2.71,-2.700004 1.53,-0.4 3.11,-0.44 a 0.46,0.51 87.3 0 0 0.5,-0.5 z m -2,5.410004 q 1.88,-0.07 1.99,-2.030004 a 0.68,0.71 12.1 0 0 -0.44,-0.71 q -1.54,-0.61 -2.68,0.45 -1.06,0.990004 -0.23,1.810004 0.52,0.51 1.36,0.48 z"
     id="path17981" />
  <path
     fill="#000000"
     d="m 161.88,99.722136 q 0.64,3.650004 5.31,1.750004 a 0.77,0.76 79.7 0 1 1.05,0.73 q -0.03,1.26 -1.34,1.48 -1.07,0.17 -1.14,0.19 -6.36,1.57 -7.01,-4.710004 -0.34,-3.26 2.05,-4.95 2.13,-1.5 4.63,-0.88 3.21,0.8 3.26,4.91 a 0.91,0.94 89.4 0 1 -0.93,0.92 l -5.45,0.05 a 0.43,0.44 85 0 0 -0.43,0.51 z m 2.04,-4.55 q -0.96,0.01 -1.79,0.87 -0.86,0.89 0.36,1.03 4.63,0.55 3.02,-1.12 -0.76,-0.78 -1.59,-0.78 z"
     id="path17983" />
  <path
     fill="#000000"
     d="m 179.79,93.662136 q -0.2,0.22 -0.25,0.5 l -2.12,4.03 a 1.09,0.83 48.6 0 0 0.07,0.92 l 2.27,4.120004 a 0.52,0.49 61.9 0 1 -0.19,0.69 q -1.11,0.57 -2.3,0.13 a 1.39,0.5 66.2 0 1 -0.63,-0.66 l -1.56,-2.6 q -0.27,-0.45 -0.56,0.07 l -1.45,2.68 a 1.1,1.11 9.1 0 1 -0.75,0.55 q -3.48,0.68 -0.19,-3.42 1.14,-1.410004 0.3,-3.040004 l -1.89,-3.7 a 0.47,0.46 66.1 0 1 0.24,-0.65 q 2.67,-0.99 3.47,1.88 0.87,3.13 2,-0.25 0.92,-2.76 3.54,-1.25 z"
     id="path17985" />
  <path
     fill="#000000"
     d="m 321.89,94.222136 q 1.04,-1.08 2.54,-1.04 a 0.76,0.76 0 0 1 0.7,0.5 q 0.75,1.99 -1.58,1.84 a 0.98,0.82 17 0 0 -0.8,0.34 q -1.46,2.06 -0.75,5.870004 0.35,1.93 -1.47,2.65 -1.86,0.72 -1.67,-1.51 0.14,-1.77 0.14,-1.92 0.01,-2.770004 0.05,-5.540004 0.05,-4.06 2.22,-1.22 a 0.4,0.41 48.7 0 0 0.62,0.03 z"
     id="path17987" />
  <path
     fill="#000000"
     d="m 329.63,99.722136 q 0.66,3.670004 5.31,1.740004 a 0.77,0.77 0 0 1 1.06,0.71 q 0.01,1.27 -1.26,1.5 -1.26,0.23 -1.33,0.25 -3.56,0.94 -5.46,-1.32 -1.54,-1.85 -1.34,-4.690004 0.27,-3.95 4.25,-4.58 2.4,-0.37 3.94,0.79 1.88,1.42 1.51,4.35 a 0.81,0.79 3.3 0 1 -0.79,0.69 l -5.46,0.05 a 0.43,0.44 85 0 0 -0.43,0.51 z m 0.05,-3.36 a 0.47,0.47 0 0 0 0.34,0.71 q 4.99,0.6 3.17,-1.21 -0.81,-0.8 -1.74,-0.7 -1.1,0.12 -1.77,1.2 z"
     id="path17989" />
  <path
     fill="#000000"
     d="m 342.68,100.21214 q 0.32,0.94 0.63,0 1.05,-3.120004 1.72,-5.540004 0.61,-2.24 2.71,-1.41 a 0.55,0.58 19.4 0 1 0.31,0.69 l -2.89,9.230004 a 1.19,1.07 88.8 0 1 -0.61,0.71 q -1.46,0.65 -3.02,0.14 a 1.09,0.98 88.4 0 1 -0.63,-0.66 l -3.12,-9.400004 a 0.57,0.58 74.4 0 1 0.42,-0.74 q 2.41,-0.55 2.89,1.41 0.75,3.01 1.59,5.570004 z"
     id="path17991" />
  <path
     fill="#000000"
     d="m 385.71,95.502136 a 1.79,1.78 57 0 0 -2.09,-0.45 q -3.86,1.78 -2.81,-0.83 0.56,-1.38 4.44,-1.06 4.02,0.33 3.89,4.5 -0.09,2.840004 -0.18,5.680004 a 0.76,0.66 84.5 0 1 -0.49,0.69 q -0.96,0.28 -1.83,-0.31 a 0.87,0.8 47.4 0 0 -0.84,-0.07 q -2.24,1.09 -4.14,0.03 -1.67,-0.94 -1.84,-2.74 -0.19,-2.090004 2.18,-3.280004 1.15,-0.58 3.7,-0.57 a 0.45,0.51 87.9 0 0 0.51,-0.49 q -0.06,-0.6 -0.5,-1.1 z m 0.482,4.2224 a 1.44,1.96 64.7 0 0 -2.3874,-0.4643 1.44,1.96 64.7 0 0 -1.1566,2.139504 1.44,1.96 64.7 0 0 2.3874,0.4643 1.44,1.96 64.7 0 0 1.1566,-2.139504 z"
     id="path17993" />
  <path
     fill="#000000"
     d="m 405.85,96.612136 q -0.59,-2.52 -3.35,-1.2 -1.22,0.59 -2.07,0.25 a 0.4,0.44 30.9 0 1 -0.13,-0.66 q 2.02,-2.6 5.53,-1.74 3.17,0.78 3.03,4.15 -0.11,2.5 0.07,4.990004 0.19,2.59 -2.31,1.45 a 1.62,1.65 51.9 0 0 -0.98,-0.11 q -6.23,1.22 -5.93,-3.840004 a 1.41,1.41 0 0 1 0.37,-0.87 q 2.14,-2.25 5.36,-1.99 a 0.35,0.38 86.3 0 0 0.41,-0.43 z m -3.35,4.240004 q 0.28,2.27 2.23,1.02 0.85,-0.54 1.16,-1.27 0.64,-1.490004 -1.94,-1.430004 a 1.5,1.5 0 0 0 -1.45,1.680004 z"
     id="path17995" />
  <path
     fill="#000000"
     d="m 445.33,99.722136 q 0.19,2.500004 2.67,2.520004 0.47,0 1.91,-0.51 0.74,-0.26 1.53,-0.27 a 0.41,0.4 7.4 0 1 0.4,0.51 q -0.44,1.54 -2.59,1.94 -7.07,1.32 -6.94,-5.440004 0.1,-4.78 4.35,-5.25 2.34,-0.26 3.85,0.89 1.78,1.34 1.74,4.06 a 1.03,1 0 0 1 -1.02,0.99 l -5.42,0.05 a 0.47,0.48 87.8 0 0 -0.48,0.51 z m 0.06,-3.31 q -0.52,0.75 0.4,0.75 h 2.46 q 2.47,0 0.81,-1.31 -2.11,-1.67 -3.67,0.56 z"
     id="path17997" />
  <path
     fill="#000000"
     d="m 457.77,101.39214 q -0.31,0.52 -1.02,2.02 -0.68,1.44 -2.54,0.7 a 0.48,0.47 23.6 0 1 -0.27,-0.66 l 2.24,-4.430004 a 0.85,1.05 41.8 0 0 0.04,-0.87 l -2.18,-4.24 a 0.45,0.43 67.2 0 1 0.24,-0.62 q 2.58,-0.91 3.31,1.47 0.32,1.01 0.46,1.24 0.85,1.35 1.63,-1.16 a 2.59,2.58 0.4 0 1 1.75,-1.72 q 1.7,-0.51 1.49,0.88 -0.07,0.48 -0.53,1.24 -0.78,1.32 -1.43,2.71 a 1.03,1.06 44.3 0 0 0,0.91 l 2.25,4.540004 a 0.46,0.43 67.1 0 1 -0.23,0.63 q -2.64,0.89 -3.66,-2.46 -0.56,-1.850004 -1.55,-0.18 z"
     id="path17999" />
  <path
     fill="#000000"
     d="m 605.47,94.072136 q 0.56,-0.36 1.16,-0.64 0.69,-0.33 1.28,-0.21 1.35,0.26 0.75,1.68 a 0.72,0.61 13.5 0 1 -0.71,0.36 q -1.99,-0.23 -2.45,1.65 -0.47,1.9 -0.27,6.500004 a 0.7,0.67 79.9 0 1 -0.45,0.68 q -2.59,0.89 -2.41,-1.57 0.12,-1.62 0.12,-1.73 -0.02,-3.410004 0.06,-6.820004 a 0.79,0.71 81.5 0 1 0.47,-0.71 q 1.2,-0.44 1.83,0.65 a 0.45,0.43 58.2 0 0 0.62,0.16 z"
     id="path18001" />
  <path
     fill="#000000"
     d="m 610.96,95.652136 q 0.98,-2.39 3.56,-2.47 4.49,-0.15 5.33,3.86 0.45,2.12 -1.99,2.19 l -4.31,0.13 a 0.48,0.43 81.5 0 0 -0.39,0.6 q 0.78,3.160004 5.21,1.660004 1.46,-0.5 1.1,1 -0.15,0.65 -1.23,1.06 -0.62,0.24 -1.52,0.27 -9.28,0.35 -5.76,-8.300004 z m 2.18,0.76 q -0.52,0.75 0.4,0.75 H 616 q 2.47,0 0.81,-1.31 -2.11,-1.67 -3.67,0.56 z"
     id="path18003" />
  <path
     fill="#000000"
     d="m 626.21,100.27214 q 0.28,0.91 0.58,0 1.07,-3.180004 1.73,-5.600004 0.62,-2.24 2.72,-1.41 a 0.56,0.6 18.5 0 1 0.32,0.69 q -0.97,3.6 -2.25,7.110004 -0.04,0.1 -0.37,1.37 -0.61,2.35 -3.72,1.67 a 0.91,0.94 86.8 0 1 -0.68,-0.59 l -3.23,-9.440004 a 0.67,0.68 74.1 0 1 0.5,-0.87 q 2.3,-0.52 2.8,1.43 0.77,3.01 1.6,5.640004 z"
     id="path18005" />
  <path
     fill="#000000"
     d="m 669.69,96.602136 q -0.15,-1.62 -2.19,-1.44 -0.94,0.08 -2.72,0.76 a 0.44,0.49 73.3 0 1 -0.63,-0.3 q -0.31,-1.4 1.54,-2.02 3.38,-1.14 5.33,0.47 1.46,1.21 1.51,4.28 0.04,2.560004 -0.17,5.120004 a 0.59,0.65 0.3 0 1 -0.53,0.58 q -1.07,0.1 -2.08,-0.35 a 1.33,1.16 45.6 0 0 -0.9,-0.07 q -5.91,1.91 -5.11,-4.160004 a 1.33,1.29 73.5 0 1 0.44,-0.84 q 2.08,-1.84 5.02,-1.59 a 0.45,0.41 0.8 0 0 0.49,-0.44 z m -0.0163,3.1096 a 1.45,1.94 64 0 0 -2.3793,-0.4529 1.45,1.94 64 0 0 -1.1081,2.153704 1.45,1.94 64 0 0 2.3793,0.4529 1.45,1.94 64 0 0 1.1081,-2.153704 z"
     id="path18007" />
  <path
     fill="#000000"
     d="m 689.23,103.69214 q -2.07,0.89 -3.88,0.14 -1.75,-0.73 -2.1,-2.71 -0.54,-3.100004 3.22,-3.840004 0.5,-0.09 1.56,-0.01 1.94,0.15 1.16,-1.37 a 1,1.06 82.1 0 0 -0.74,-0.53 q -2.03,-0.36 -3.95,0.51 a 0.41,0.46 69.2 0 1 -0.62,-0.24 q -0.4,-1.4 1.59,-2.05 1.69,-0.56 3.45,-0.39 3.63,0.34 3.49,4.47 -0.1,2.830004 -0.2,5.670004 a 0.87,0.72 82 0 1 -0.46,0.74 q -0.97,0.42 -1.73,-0.25 a 0.78,0.73 52.9 0 0 -0.79,-0.14 z m 0.2488,-3.908404 a 1.45,1.96 66.6 0 0 -2.3747,-0.5523 1.45,1.96 66.6 0 0 -1.2229,2.109104 1.45,1.96 66.6 0 0 2.3747,0.5523 1.45,1.96 66.6 0 0 1.2229,-2.109104 z"
     id="path18009" />
  <path
     fill="#000000"
     d="m 728.8,99.722136 q 0.09,2.540004 2.95,2.380004 1.37,-0.08 2.61,-0.65 a 0.52,0.66 62.8 0 1 0.78,0.15 q 0.29,0.47 0.04,1.06 -0.17,0.41 -0.7,0.65 -5.4,2.45 -7.77,-1.58 -1.4,-2.400004 -0.67,-4.820004 0.58,-1.91 2.3,-2.99 1.57,-0.98 3.48,-0.71 3.81,0.55 3.87,5.03 a 0.91,0.94 89.4 0 1 -0.93,0.92 l -5.45,0.05 a 0.5,0.51 89.4 0 0 -0.51,0.51 z m 0.08,-3.29 q -0.51,0.73 0.38,0.73 1.49,0 2.48,0.07 1.79,0.14 1.14,-0.94 -0.26,-0.45 -0.76,-0.74 -1.85,-1.1 -3.24,0.88 z"
     id="path18011" />
  <path
     fill="#000000"
     d="m 746.79,93.662136 q -0.2,0.22 -0.25,0.5 l -2.12,4.03 a 1.13,0.76 51.7 0 0 0.07,0.91 l 2.23,4.290004 a 0.46,0.46 0 0 1 -0.26,0.64 q -2.87,0.97 -3.88,-2.11 -0.98,-2.990004 -1.72,0.55 a 2.16,2.16 0 0 1 -1.69,1.68 q -3.29,0.65 -1.37,-2.13 0.72,-1.04 1.8,-2.620004 a 1.22,1.27 47.8 0 0 0.09,-1.28 l -2,-3.84 a 0.78,0.76 71 0 1 0.53,-1.12 q 2.62,-0.44 3.14,2.18 0.14,0.73 0.65,0.96 a 0.41,0.49 18.2 0 0 0.59,-0.37 q 0.85,-3.47 4.19,-2.27 z"
     id="path18013" />
  <path
     fill="#deebf7"
     d="m 49.75,95.962136 q 1.6,1.68 -2.98,1.11 -1.41,-0.18 -0.39,-1.16 0.79,-0.76 1.79,-0.73 0.87,0.03 1.58,0.78 z"
     id="path18015" />
  <path
     fill="#deebf7"
     d="m 165.51,95.952136 q 1.61,1.67 -3.02,1.12 -1.22,-0.14 -0.36,-1.03 0.83,-0.86 1.79,-0.87 0.83,0 1.59,0.78 z"
     id="path18017" />
  <path
     fill="#deebf7"
     d="m 329.68,96.362136 q 0.67,-1.08 1.77,-1.2 0.93,-0.1 1.74,0.7 1.82,1.81 -3.17,1.21 a 0.47,0.47 0 0 1 -0.34,-0.71 z"
     id="path18019" />
  <path
     fill="#deebf7"
     d="m 445.39,96.412136 q 1.56,-2.23 3.67,-0.56 1.66,1.31 -0.81,1.31 h -2.46 q -0.92,0 -0.4,-0.75 z"
     id="path18021" />
  <path
     fill="#deebf7"
     d="m 613.14,96.412136 q 1.56,-2.23 3.67,-0.56 1.66,1.31 -0.81,1.31 h -2.46 q -0.92,0 -0.4,-0.75 z"
     id="path18023" />
  <path
     fill="#deebf7"
     d="m 728.88,96.432136 q 1.39,-1.98 3.24,-0.88 0.5,0.29 0.76,0.74 0.65,1.08 -1.14,0.94 -0.99,-0.07 -2.48,-0.07 -0.89,0 -0.38,-0.73 z"
     id="path18025" />
  <path
     fill="#ff0000"
     d="m 775.75,99.452136 h -1.5 l -6.02,-0.28 a 0.58,1.05 85.1 0 1 -0.81,-0.36 q -0.22,-0.42 0.84,-0.47 2.99,-0.15 5.99,-0.22 h 1.5 l 72,1.78 a 0.63,0.53 3.5 0 0 0.64,-0.47 l 0.36,-3.13 a 0.46,0.5 16.3 0 1 0.68,-0.41 l 8.23,4.320004 q 0.73,0.38 0,0.74 l -8.16,3.98 q -1.71,0.84 -1.16,-1 0.55,-1.81 -0.2,-2.53 -0.44,-0.42 -2.02,-0.45 -35.18,-0.78 -70.37,-1.500004 z"
     id="path18027" />
  <path
     fill="#deebf7"
     d="m 102.7235,99.759336 a 1.43,1.96 65.5 0 1 -1.1905,2.114004 1.43,1.96 65.5 0 1 -2.3765,-0.4884 1.43,1.96 65.5 0 1 1.1905,-2.114004 1.43,1.96 65.5 0 1 2.3765,0.4884 z"
     id="path18029" />
  <path
     fill="#deebf7"
     d="m 119.08,101.53214 q -0.83,-0.82 0.23,-1.810004 1.14,-1.06 2.68,-0.45 a 0.68,0.71 12.1 0 1 0.44,0.71 q -0.11,1.960004 -1.99,2.030004 -0.84,0.03 -1.36,-0.48 z"
     id="path18031" />
  <path
     fill="#deebf7"
     d="m 386.192,99.724536 a 1.44,1.96 64.7 0 1 -1.1566,2.139504 1.44,1.96 64.7 0 1 -2.3874,-0.4643 1.44,1.96 64.7 0 1 1.1566,-2.139504 1.44,1.96 64.7 0 1 2.3874,0.4643 z"
     id="path18033" />
  <path
     fill="#deebf7"
     d="m 402.5,100.85214 a 1.5,1.5 0 0 1 1.45,-1.680004 q 2.58,-0.06 1.94,1.430004 -0.31,0.73 -1.16,1.27 -1.95,1.25 -2.23,-1.02 z"
     id="path18035" />
  <path
     fill="#deebf7"
     d="m 669.6737,99.711736 a 1.45,1.94 64 0 1 -1.1081,2.153704 1.45,1.94 64 0 1 -2.3793,-0.4529 1.45,1.94 64 0 1 1.1081,-2.153704 1.45,1.94 64 0 1 2.3793,0.4529 z"
     id="path18037" />
  <path
     fill="#deebf7"
     d="m 689.4788,99.783736 a 1.45,1.96 66.6 0 1 -1.2229,2.109104 1.45,1.96 66.6 0 1 -2.3747,-0.5523 1.45,1.96 66.6 0 1 1.2229,-2.109104 1.45,1.96 66.6 0 1 2.3747,0.5523 z"
     id="path18039" />
  <path
     fill="#03437d"
     d="m 774.25,99.452136 h 1.5 q 0.33,12.880004 -0.46,25.800004 l -1.4,-1.12 z"
     id="path18041" />
  <path
     fill="#ff0000"
     d="m 568.21,113.16214 0.08,0.25 -0.33,0.5 -8.74,4.16 q -1.06,0.5 -0.82,-0.65 0.77,-3.77 -2.16,-3.6 -1.37,0.07 -1.49,0.07 -31.12,-0.75 -62.25,-1.19 h -1 q -6.36,-0.51 -12.75,-0.36 -1.66,0.04 -1.08,-0.8 a 1,0.88 16.7 0 1 0.82,-0.38 l 12.76,0.46 q 0.65,0.05 1.25,-0.25 l 65.29,1.55 a 0.65,0.68 4.8 0 0 0.67,-0.59 l 0.4,-3.37 a 0.32,0.31 19.9 0 1 0.49,-0.22 q 4.17,2.71 8.86,4.42 z"
     id="path18043" />
  <path
     fill="#ff0000"
     d="m 284.96,114.91214 q 0.22,0.82 -0.21,1.46 l -7.49,3.76 a 0.43,0.47 67.9 0 1 -0.64,-0.24 q -0.27,-0.93 -0.01,-2.32 a 1.34,1.35 6.2 0 0 -1.28,-1.6 l -66.32,-1.49 q -0.09,0 -0.34,0.13 l -0.17,0.09 h -1 q -5.78,-0.49 -11.58,-0.3 -0.45,0.01 -0.81,-0.16 -1.45,-0.7 0.22,-1.01 0.36,-0.07 0.83,-0.06 5.67,0.1 11.34,0.2 0.56,0.17 1,-0.25 0.8,0.49 3.25,0.54 31.63,0.59 64.06,1.27 a 0.69,0.72 0.8 0 0 0.7,-0.71 l 0.06,-3.3 a 0.33,0.32 14.7 0 1 0.49,-0.27 z"
     id="path18045" />
  <path
     fill="#3b6d97"
     d="m 286.71,112.66214 q 0.31,2.74 0.34,5.5 0.03,3.87 0.45,5.44 2.29,8.63 12.5,8.56 10.46,-0.08 46.25,0.18 10.09,0.07 20,0.01 90.91,-0.58 111.75,-0.19 11.27,0.21 13.21,-10.5 -0.05,2.09 1.25,1.5 -1.18,6.58 -6.36,9.31 -2.7,1.43 -8.46,1.48 -52.33,0.51 -104.65,0.06 -9.58,-0.09 -19.99,0.02 -23.32,0.25 -46.65,0.14 -0.1,0 -4.69,0.14 -17.39,0.51 -16.91,-17.94 0.43,-0.64 0.21,-1.46 0.43,-0.65 0.33,-1.5 z"
     id="path18047" />
  <path
     fill="#03437d"
     d="m 491.5,112.70214 h 1 q 0.63,5.24 -0.04,10.46 -1.3,0.59 -1.25,-1.5 z"
     id="path18049" />
  <path
     fill="#3e6f9a"
     d="m 568.29,113.41214 q 0.62,0.39 1.42,0.25 0.33,2.14 0.29,6 -0.09,7.97 5.9,11.08 2.72,1.41 8.46,1.44 85.3,0.36 170.61,0 9.17,-0.04 10.52,-0.38 5.66,-1.43 8.4,-7.67 l 1.4,1.12 q -3.78,8.94 -13.04,8.91 -88,-0.25 -176.01,-0.01 -7.79,0.02 -10.78,-1.38 -5.46,-2.54 -7.21,-9.36 -0.39,-1.52 -0.29,-9.5 z"
     id="path18051" />
  <path
     fill="#2f6593"
     d="m 207.5,114.70214 h 1 q 2.29,15.38 -8.85,18.63 -2.95,0.86 -17.37,0.78 -37.64,-0.22 -75.28,-0.2 -0.95,0 -1.04,0.5 -0.43,-0.37 -0.96,-0.21 l -38.5,-0.33 v -1.42 q 11.51,0.08 23.01,-0.09 11.5,-0.18 19.98,-0.1 38.92,0.32 77.83,-0.05 10.01,-0.09 10.34,-0.15 6.09,-1.09 8.55,-7.19 0.67,-1.68 0.76,-5.03 0.07,-2.58 0.53,-5.14 z"
     id="path18053" />
  <path
     fill="#ff0000"
     d="m 105,134.20214 q 0.53,-0.16 0.96,0.21 l 3.94,8.48 q 0.45,0.98 -0.59,0.82 -1.54,-0.24 -2.77,0.11 a 0.68,0.66 83.2 0 0 -0.49,0.64 l -0.86,55.39 a 0.84,0.65 83.5 0 1 -0.45,0.74 q -0.77,0.25 -0.75,-1.18 0.45,-27.35 0.94,-54.69 a 0.77,0.94 12.5 0 0 -0.4,-0.79 q -1.04,-0.59 -2.78,-0.14 -1.66,0.42 -0.88,-1.16 z"
     id="path18055" />
  <path
     fill="#000000"
     d="m 81.71,213.60214 0.04,-5.56 a 0.69,0.68 83.7 0 1 0.53,-0.67 q 3.21,-0.7 3.04,1.36 -0.07,0.79 -0.07,0.88 0,5.84 0,11.67 0,2.08 -0.08,2.23 -0.49,0.97 -2.93,0.42 a 0.63,0.64 6.2 0 1 -0.49,-0.62 l -0.05,-5.59 a 0.53,0.5 89.5 0 0 -0.51,-0.53 l -5.25,0.1 a 0.58,0.64 3.5 0 0 -0.57,0.56 q -0.45,3.66 -0.12,4.56 0.87,2.4 -2.75,1.58 a 0.64,0.63 6.2 0 1 -0.5,-0.62 q 0,-6.89 0,-13.39 0,-2.01 0.05,-2.12 0.45,-0.96 2.75,-0.48 a 0.6,0.64 5.5 0 1 0.48,0.62 l 0.1,5.47 a 0.56,0.57 0 0 0 0.55,0.56 l 5.27,0.1 a 0.5,0.54 1.1 0 0 0.51,-0.53 z"
     id="path18057" />
  <path
     fill="#000000"
     d="m 93.06,221.11214 5.18,0.06 a 0.64,0.74 82.7 0 1 0.69,0.46 q 0.27,0.9 0,1.82 a 0.73,0.73 0 0 1 -0.68,0.51 l -8.33,0.15 a 0.97,0.91 89.7 0 1 -0.92,-0.97 v -15.32 a 0.64,0.66 0 0 1 0.64,-0.66 l 8.3,0.05 a 0.88,1.05 75.6 0 1 0.82,0.39 q 0.58,0.85 0.2,1.86 a 0.95,0.82 3.5 0 1 -0.71,0.54 q -2.61,0.46 -4,0.16 -2.56,-0.56 -1.91,2.39 a 0.77,0.77 0 0 0 0.75,0.61 h 4.16 a 0.56,0.56 0 0 1 0.54,0.42 q 0.81,3.18 -1.56,2.68 -5.73,-1.2 -3.83,4.37 a 0.7,0.69 80.7 0 0 0.66,0.48 z"
     id="path18059" />
  <path
     fill="#000000"
     d="m 104.66,220.70214 -0.82,2.67 a 0.91,1.05 1.9 0 1 -0.61,0.66 q -1.26,0.43 -2.47,-0.08 a 0.53,0.58 20.4 0 1 -0.28,-0.7 l 5.4,-15.49 a 0.69,0.81 11.2 0 1 0.68,-0.54 l 3.26,0.04 a 0.83,0.66 77.8 0 1 0.67,0.55 l 5.53,15.43 a 0.53,0.52 69.6 0 1 -0.3,0.67 q -3.77,1.42 -3.97,-2.93 a 0.85,0.84 88.9 0 0 -0.84,-0.82 l -5.6,0.05 a 0.67,0.71 9.5 0 0 -0.65,0.49 z m 2.93,-9.31 q -0.48,1.43 -0.97,3.09 -0.04,0.12 -0.48,1.18 -0.89,2.11 3.75,1.16 a 0.5,0.46 75.1 0 0 0.34,-0.64 l -1.55,-4.72 q -0.55,-1.68 -1.09,-0.07 z"
     id="path18061" />
  <path
     fill="#000000"
     d="m 130.73,210.64214 q 1.53,2.36 1.27,5.77 -0.2,2.61 -1.35,4.46 -1.09,1.75 -3.57,2.57 -4.09,1.36 -8.36,0.58 a 0.88,0.86 5.2 0 1 -0.72,-0.85 l 0.05,-15.19 a 0.64,0.62 84.9 0 1 0.5,-0.61 q 3.94,-0.81 7.63,0.23 3.16,0.9 4.55,3.04 z m -9.23,10.29 q 3.88,0.96 5.78,-1.24 1.56,-1.79 1.32,-4.88 -0.42,-5.28 -6.67,-4.53 a 0.58,0.56 87.1 0 0 -0.49,0.56 l -0.12,9.84 a 0.25,0.26 7.2 0 0 0.18,0.25 z"
     id="path18063" />
</svg>
