<?xml version="1.0" encoding="UTF-8" standalone="no"?>
<svg
   version="1.1"
   viewBox="0 0 311.14359 133.82637"
   id="svg1224"
   sodipodi:docname="linked-list-node.svg"
   width="311.14359"
   height="133.82637"
   inkscape:version="1.1.2 (0a00cf5339, 2022-02-04)"
   xmlns:inkscape="http://www.inkscape.org/namespaces/inkscape"
   xmlns:sodipodi="http://sodipodi.sourceforge.net/DTD/sodipodi-0.dtd"
   xmlns="http://www.w3.org/2000/svg"
   xmlns:svg="http://www.w3.org/2000/svg">
  <defs
     id="defs1228" />
  <sodipodi:namedview
     id="namedview1226"
     pagecolor="#ffffff"
     bordercolor="#666666"
     borderopacity="1.0"
     inkscape:pageshadow="2"
     inkscape:pageopacity="0.0"
     inkscape:pagecheckerboard="0"
     showgrid="false"
     width="83px"
     fit-margin-top="0"
     fit-margin-left="0"
     fit-margin-right="0"
     fit-margin-bottom="0"
     inkscape:zoom="1.1510127"
     inkscape:cx="199.38963"
     inkscape:cy="42.571207"
     inkscape:window-width="1362"
     inkscape:window-height="729"
     inkscape:window-x="1920"
     inkscape:window-y="18"
     inkscape:window-maximized="1"
     inkscape:current-layer="svg1224" />
  <g
     stroke-width="2"
     fill="none"
     stroke-linecap="butt"
     id="g1148"
     transform="translate(-205.91062,-32)"
     inkscape:export-filename="/home/diogoaos/g1148.png"
     inkscape:export-xdpi="185.07564"
     inkscape:export-ydpi="185.07564">
    <path
       stroke="#556f85"
       vector-effect="non-scaling-stroke"
       d="m 361.85,164.11 q 0.8,1.09 1.34,-0.13"
       id="path1050" />
    <path
       stroke="#8dacc8"
       vector-effect="non-scaling-stroke"
       d="m 363.19,163.98 q 64.85,0.24 129.45,-0.2 5.69,-0.04 9.01,-1.35 8.38,-3.3 11.77,-11.65 1.32,-3.26 1.39,-8.76 0.51,-43.16 -0.01,-86.32 -0.06,-5.02 -1.34,-8.2 -3.6,-8.88 -12.15,-11.98 Q 497.09,34 486.51,34.01 429.25,34.12 372,33.97 367.52,33.96 363.04,34"
       id="path1052" />
    <path
       stroke="#556f85"
       vector-effect="non-scaling-stroke"
       d="m 363.04,34 q -0.68,-0.12 -1.21,0.08"
       id="path1054" />
    <path
       stroke="#8dacc8"
       vector-effect="non-scaling-stroke"
       d="m 361.83,34.08 q -63.15,-0.14 -126.21,-0.09 -9.32,0.01 -13.55,1.48 -9.26,3.21 -12.5,12.31 -1.57,4.39 -1.6,15.14 -0.11,39.13 0.24,78.26 0.05,5.54 1.33,8.95 5.21,13.83 21.71,13.82 65.18,-0.03 130.6,0.16"
       id="path1056" />
    <path
       stroke="#a6aeb4"
       vector-effect="non-scaling-stroke"
       d="m 361.83,34.08 0.02,130.03"
       id="path1058" />
    <path
       stroke="#a6aeb4"
       vector-effect="non-scaling-stroke"
       d="m 363.04,34 q -0.14,4.59 0,9.17 0.19,6.33 0.17,9.16 -0.49,55.85 -0.02,111.65"
       id="path1060" />
    <path
       stroke="#6f767c"
       vector-effect="non-scaling-stroke"
       d="m 263.45,53.92 q -0.32,6.32 -0.21,12.4 0,0.11 -0.07,1.34 -0.15,2.5 2.83,2.34 5.37,-0.29 6.42,-0.62 3.15,-0.98 4.26,-3.6 0.87,-2.07 0.87,-5.1 0,-3.48 -2.5,-5.63 -1.87,-1.61 -5.14,-1.94 -2.59,-0.26 -5.62,-0.04 a 0.91,0.9 -0.7 0 0 -0.84,0.85"
       id="path1062" />
    <path
       stroke="#6f767c"
       vector-effect="non-scaling-stroke"
       d="m 297.22,66.2 -0.12,-5.59 a 0.76,0.69 4 0 1 0.86,-0.68 q 2.57,0.34 1.82,-2.51 a 0.6,0.6 -13 0 0 -0.71,-0.44 q -2.63,0.58 -2.06,-2 a 0.8,0.79 -77.8 0 0 -0.6,-0.94 q -3.15,-0.73 -2.75,1.98 a 0.84,0.66 73.2 0 1 -0.31,0.79 q -0.36,0.21 -0.78,0.25 a 0.88,0.67 2.4 0 0 -0.69,0.48 q -0.77,2.32 1.57,2.71 a 0.53,0.52 7.1 0 1 0.44,0.56 q -0.25,2.71 -0.07,5.44 0.28,4.1 4.43,3.8 1.98,-0.15 1.65,-2.87 a 0.51,0.51 -14.5 0 0 -0.7,-0.41 q -0.69,0.28 -1.41,0.09 a 0.75,0.68 7.3 0 1 -0.57,-0.66"
       id="path1064" />
    <path
       stroke="#6f767c"
       vector-effect="non-scaling-stroke"
       d="m 287.34,69.37 q 1.03,0.98 2.39,0.51 a 0.76,0.7 81.8 0 0 0.47,-0.69 q 0.09,-3.84 0.03,-7.69 -0.05,-3.4 -2.98,-4.25 -3.26,-0.95 -6.51,0.82 a 1.37,1.07 -10.3 0 0 -0.62,0.7 q -0.25,0.75 -0.01,1.47 a 0.66,0.59 74 0 0 0.7,0.44 L 283.75,60 a 2.62,1.3 -14.5 0 1 2.69,0.56 q 0.68,1.77 -1.15,1.58 -1.22,-0.12 -1.6,-0.08 -3.88,0.44 -4.1,3.61 -0.18,2.53 1.95,3.76 2.27,1.32 5.03,-0.18 a 0.69,0.64 52 0 1 0.77,0.12"
       id="path1066" />
    <path
       stroke="#6f767c"
       vector-effect="non-scaling-stroke"
       d="m 309.98,69.48 q 0.8,0.91 2,0.43 a 0.78,0.75 -11.8 0 0 0.49,-0.72 l -0.23,-9.14 a 1.58,1.2 30.5 0 0 -0.36,-0.88 q -2.53,-3.04 -6.37,-2.07 -1.74,0.44 -2.14,0.63 -1.2,0.6 -1.12,2.23 a 0.9,0.9 -12.4 0 0 1.24,0.79 q 1.88,-0.76 3.86,-0.72 0.7,0.02 1.12,0.29 0.68,0.45 0.47,1.21 a 0.68,0.56 8.9 0 1 -0.69,0.41 q -2.75,-0.23 -4.83,1.19 -1.64,1.12 -1.78,2.94 -0.19,2.35 2.11,3.43 2.47,1.16 5.48,-0.22 a 0.68,0.61 56.9 0 1 0.75,0.2"
       id="path1068" />
    <path
       stroke="#8a8f90"
       vector-effect="non-scaling-stroke"
       d="m 332.71,128 0.04,-36.52 a 0.42,0.42 0.2 0 0 -0.42,-0.42 L 236,91.29"
       id="path1070" />
    <path
       stroke="#969a9e"
       vector-effect="non-scaling-stroke"
       d="m 236,91.29 q -1.22,-0.35 -2.35,-0.02 a 0.72,0.66 82.8 0 0 -0.47,0.66 L 233,137.51 a 0.5,0.49 -0.6 0 0 0.51,0.49 q 16.87,-0.44 33.74,-0.2 10.59,0.15 20,0.03 21.33,-0.27 44.38,0.23 a 1.3,1.25 0 0 0 1.33,-1.28 L 332.71,128"
       id="path1072" />
    <path
       stroke="#423e37"
       vector-effect="non-scaling-stroke"
       d="m 236,91.29 q 0.21,0.73 0,1.42"
       id="path1074" />
    <path
       stroke="#54728d"
       vector-effect="non-scaling-stroke"
       d="m 236,92.71 -0.95,0.05 a 0.56,0.51 88.4 0 0 -0.48,0.56 l 0.24,42.39 a 0.49,0.48 89.4 0 0 0.48,0.48 l 95.21,-0.13 a 0.83,0.75 -88.8 0 0 0.75,-0.8 l 0.29,-7.26"
       id="path1076" />
    <path
       stroke="#423e37"
       vector-effect="non-scaling-stroke"
       d="m 331.54,128 h 1.17"
       id="path1078" />
    <path
       stroke="#49677f"
       vector-effect="non-scaling-stroke"
       d="m 331.54,128 -0.11,-34.94 a 0.49,0.49 -0.6 0 0 -0.5,-0.49 q -43.09,0.44 -86.18,0.06 -4.37,-0.04 -8.75,0.08"
       id="path1080" />
    <path
       stroke="#6f767c"
       vector-effect="non-scaling-stroke"
       d="m 422.92,65.87 q -2.29,-5.29 -4.82,-10.46 -0.86,-1.75 -1.84,-2.26 -1.5,-0.77 -3.27,0.17 a 0.93,0.85 80 0 0 -0.47,0.74 q -0.6,7.5 -0.12,15 a 0.89,0.81 -81.2 0 0 0.48,0.72 q 2.83,1.27 2.68,-1.63 -0.06,-1.26 -0.06,-1.3 -0.01,-4.8 0,-9.61 0,-0.49 0.24,-0.04 2.93,5.51 5.51,11.2 0.94,2.09 4.35,1.37 a 1.13,1.13 84 0 0 0.9,-1.11 q 0,-6.23 0,-12.32 0,-0.1 0.14,-1.68 0.21,-2.32 -2.3,-1.74 a 1.4,1.4 83.9 0 0 -1.08,1.34 q -0.11,5.86 0.29,11.24 0.01,0.15 0.11,0.37 0.21,0.43 -0.25,0.39 a 0.67,0.55 77.9 0 1 -0.49,-0.39"
       id="path1082" />
    <path
       stroke="#6f767c"
       vector-effect="non-scaling-stroke"
       d="m 455.48,56.89 q -3.83,1.77 0.06,3.43 a 0.63,0.63 15.6 0 1 0.38,0.67 q -0.39,2.62 -0.11,5.23 0.23,2.17 1.33,3.06 1.45,1.17 3.8,0.5 a 1.42,1.42 85.6 0 0 1.01,-1.18 q 0.33,-2.47 -1.48,-1.68 A 1.05,1.05 78.1 0 1 459,65.96 V 60.79 A 0.81,0.81 6.3 0 1 459.99,60 q 2.57,0.56 1.91,-2.45 a 0.74,0.73 -11.8 0 0 -0.87,-0.56 q -2.59,0.57 -2.03,-2.01 a 0.8,0.8 -78 0 0 -0.62,-0.96 q -3.42,-0.65 -2.6,2.19 a 0.58,0.56 69.8 0 1 -0.3,0.68"
       id="path1084" />
    <path
       stroke="#6f767c"
       vector-effect="non-scaling-stroke"
       d="m 429.26,61.41 q -0.78,2.36 0.05,4.53 2.3,5.97 8.8,3.55 0.16,-0.06 0.91,-0.26 1.48,-0.38 0.98,-2.24 a 1.04,1.04 69.3 0 0 -1.46,-0.66 q -2.78,1.35 -5.42,-0.02 a 0.93,0.74 17.5 0 1 -0.5,-0.74 q 0.03,-0.98 1.63,-0.57 1.21,0.31 5.31,-0.13 a 0.8,0.76 5 0 0 0.66,-0.53 q 1.29,-4.17 -1.97,-6.34 -3.52,-2.34 -6.5,-0.09 -1.76,1.32 -2.49,3.5"
       id="path1086" />
    <path
       stroke="#6f767c"
       vector-effect="non-scaling-stroke"
       d="m 447.1,60.48 q -0.82,-1.76 -1.1,-2.23 -1.24,-2.05 -3.49,-1.14 a 0.5,0.47 -24.1 0 0 -0.27,0.66 l 2.5,5.05 a 1.01,0.92 46.3 0 1 0.02,0.87 l -2.8,5.6 a 0.44,0.43 -69 0 0 0.27,0.62 q 1.15,0.31 2.29,0 a 1.16,1.09 -83.3 0 0 0.71,-0.6 l 1.6,-3.28 q 0.36,-0.74 0.86,0.05 l 2.06,3.29 a 1.35,0.99 -4.9 0 0 0.82,0.5 q 3.43,0.65 2.18,-1.37 -1.45,-2.31 -2.55,-4.79 a 1.11,0.95 49.5 0 1 0,-0.91 l 2.54,-4.79 A 0.7,0.67 -71.6 0 0 452.26,57 q -2.83,-0.4 -3.5,2.3 -0.26,1.01 -1,1.44 a 0.51,0.44 62.4 0 1 -0.66,-0.26"
       id="path1088" />
    <path
       stroke="#6f767c"
       vector-effect="non-scaling-stroke"
       d="m 391.29,94.5 v 40.75"
       id="path1090" />
    <path
       stroke="#9a9fa4"
       vector-effect="non-scaling-stroke"
       d="m 391.29,135.25 -0.09,1.81 a 0.54,0.53 4 0 0 0.49,0.55 q 4.46,0.4 11.31,0.39 49.57,-0.06 66,-0.21"
       id="path1092" />
    <path
       stroke="#9a9fa4"
       vector-effect="non-scaling-stroke"
       d="m 469,137.79 23.32,0.15 A 0.69,0.67 -89.6 0 0 493,137.25 V 91.67 A 0.67,0.67 -0.2 0 0 492.33,91 l -8.58,0.04"
       id="path1094" />
    <path
       stroke="#8a8f90"
       vector-effect="non-scaling-stroke"
       d="m 483.75,91.04 q -38.87,0.43 -65.25,0.21 -15.82,-0.13 -23.57,-0.02 -0.04,0.01 -1.86,-0.12 -2.85,-0.2 -1.78,3.39"
       id="path1096" />
    <path
       stroke="#46433d"
       vector-effect="non-scaling-stroke"
       d="m 483.75,91.04 q 1.26,0.47 0.5,1.67"
       id="path1098" />
    <path
       stroke="#49677f"
       vector-effect="non-scaling-stroke"
       d="m 484.25,92.71 -92.04,0.04"
       id="path1100" />
    <path
       stroke="#1b1a14"
       vector-effect="non-scaling-stroke"
       d="m 392.21,92.75 q -0.86,0.62 -0.92,1.75"
       id="path1102" />
    <path
       stroke="#555351"
       vector-effect="non-scaling-stroke"
       d="m 469,137.79 7.44,-0.09 a 0.55,0.47 -2.5 0 0 0.55,-0.51 q -0.04,-0.63 -0.74,-0.9"
       id="path1104" />
    <path
       stroke="#587793"
       vector-effect="non-scaling-stroke"
       d="m 476.25,136.29 14.15,-0.33 a 0.61,0.61 -0.5 0 0 0.6,-0.61 l -0.02,-41.73 a 0.79,0.69 1.3 0 0 -0.76,-0.69 l -5.97,-0.22"
       id="path1106" />
    <path
       stroke="#2b2a29"
       vector-effect="non-scaling-stroke"
       d="m 392.46,135.25 h -1.17"
       id="path1108" />
    <path
       stroke="#587793"
       vector-effect="non-scaling-stroke"
       d="m 476.25,136.29 -83.26,-0.04 a 0.55,0.49 86.8 0 1 -0.49,-0.5 l -0.04,-0.5"
       id="path1110" />
    <path
       stroke="#2e4e6b"
       vector-effect="non-scaling-stroke"
       d="m 392.46,135.25 -0.25,-42.5"
       id="path1112" />
    <path
       stroke="#6f767c"
       vector-effect="non-scaling-stroke"
       d="m 273.66,63.35 q 2.09,-7.28 -6.1,-7.29 a 0.51,0.5 0 0 0 -0.51,0.5 l -0.04,9.42 a 0.99,0.98 1.2 0 0 0.95,0.98 q 2.33,0.09 3.76,-0.7 1.31,-0.73 1.94,-2.91"
       id="path1114" />
    <path
       stroke="#6f767c"
       vector-effect="non-scaling-stroke"
       d="m 282.85,65.68 q -0.15,1.6 1.9,1.36 2.23,-0.27 1.88,-2.06 a 0.74,0.71 -1.5 0 0 -0.62,-0.57 q -1.48,-0.21 -2.66,0.49 a 1.08,1.01 -14.3 0 0 -0.5,0.78"
       id="path1116" />
    <path
       stroke="#6f767c"
       vector-effect="non-scaling-stroke"
       d="m 305.17,65.79 q -0.06,1.95 2.15,1.24 0.99,-0.32 1.44,-1.06 0.95,-1.55 -2.33,-1.44 a 1.3,1.29 -89.8 0 0 -1.26,1.26"
       id="path1118" />
    <path
       stroke="#6f767c"
       vector-effect="non-scaling-stroke"
       d="m 432.64,61.53 a 0.57,0.56 18.6 0 0 0.43,0.85 q 5.29,0.55 3.72,-1.46 -0.85,-1.08 -2.06,-0.91 -1.31,0.17 -2.09,1.52"
       id="path1120" />
    <path
       stroke="#2e4e6b"
       vector-effect="non-scaling-stroke"
       d="m 275.42,119.84 q 4.05,-4.08 5.08,-6.59 1.78,-4.36 -2.06,-5.94 -2.9,-1.18 -5.33,1.09 a 1.13,1.05 -24.4 0 0 -0.36,0.86 q 0.06,0.99 0.71,0.58 0.59,-0.37 0.77,-0.43 4.96,-1.78 4.4,2.38 -0.22,1.64 -1.63,3.43 -2.13,2.7 -4.34,5.23 -1.3,1.48 0.64,1.49 l 7.4,0.01 a 0.82,0.76 12.2 0 0 0.74,-0.44 q 0.53,-1.11 -0.94,-1.15 -2.46,-0.06 -4.93,-0.15 -0.5,-0.02 -0.15,-0.37"
       id="path1122" />
    <path
       stroke="#2e4e6b"
       vector-effect="non-scaling-stroke"
       d="m 286.53,111.94 -0.02,-2.68 a 0.52,0.5 -0.5 0 1 0.52,-0.51 h 4.46 a 0.88,0.68 8.6 0 0 0.77,-0.43 q 0.12,-0.28 0.1,-0.58 a 0.73,0.59 4.9 0 0 -0.6,-0.58 q -3.11,-0.49 -6.2,0.06 a 0.73,0.59 -4.9 0 0 -0.6,0.58 l -0.15,5.27 a 1.15,0.95 -1 0 0 1.21,0.97 q 5.53,-0.29 5.13,3.36 -0.23,2.12 -2.02,2.78 -1.67,0.61 -3.94,-0.12 -1.24,-0.4 -1.02,0.66 a 1.04,0.89 8 0 0 0.59,0.67 q 3.54,1.49 6.17,-0.24 2.48,-1.63 2.21,-4.78 -0.38,-4.37 -6.08,-3.97 a 0.5,0.47 -2.3 0 1 -0.53,-0.46"
       id="path1124" />
    <path
       stroke="#2e4e6b"
       vector-effect="non-scaling-stroke"
       d="m 433.25,107.4 q -0.71,2.01 1.46,1.43 a 0.79,0.77 -3 0 0 0.58,-0.63 q 0.27,-1.77 -1.36,-1.41 a 0.98,0.96 -86.4 0 0 -0.68,0.61"
       id="path1126" />
    <path
       stroke="#2e4e6b"
       vector-effect="non-scaling-stroke"
       d="m 411.04,117.27 a 1.14,1.14 86.8 0 1 0.99,-1.11 q 5.33,-0.71 5.86,-4.15 0.44,-2.88 -2.33,-4.38 -2.54,-1.37 -5.77,-0.46 a 0.69,0.66 83.3 0 0 -0.49,0.65 q -0.09,5.97 -0.05,11.94 0,0.08 -0.05,0.98 -0.08,1.69 1.29,1.16 a 0.8,0.73 80.7 0 0 0.46,-0.71 l 0.09,-3.92"
       id="path1128" />
    <path
       stroke="#2e4e6b"
       vector-effect="non-scaling-stroke"
       d="m 453.31,110.44 -0.16,-1.76 a 0.73,0.71 4.5 0 0 -0.56,-0.64 q -1.39,-0.31 -1.02,1.44 0.34,1.55 -0.77,1.62 a 1.26,0.74 8.8 0 0 -0.83,0.33 q -1.06,1.25 0.97,1.17 a 0.5,0.49 -2.3 0 1 0.52,0.47 q 0.13,3.48 0.04,4.93 -0.29,4.8 3.95,3.81 a 1.19,0.85 0.3 0 0 0.77,-0.54 q 0.18,-0.37 -0.02,-0.64 a 0.93,0.54 -19.5 0 0 -0.87,-0.16 q -1.72,0.42 -1.86,-1.49 -0.22,-2.98 -0.22,-5.79 a 0.73,0.73 -84.5 0 1 0.87,-0.72 q 2.38,0.48 2,-0.93 a 0.75,0.67 -5.6 0 0 -0.68,-0.5 l -1.63,-0.08 a 0.58,0.52 88 0 1 -0.5,-0.52"
       id="path1130" />
    <path
       stroke="#2e4e6b"
       vector-effect="non-scaling-stroke"
       d="m 424.6572,122.0594 a 5.6,5.09 96.9 0 0 5.7259,-4.9479 5.6,5.09 96.9 0 0 -4.3803,-6.1709 5.6,5.09 96.9 0 0 -5.7259,4.9479 5.6,5.09 96.9 0 0 4.3803,6.1709"
       id="path1132" />
    <path
       stroke="#2e4e6b"
       vector-effect="non-scaling-stroke"
       d="m 435,111.29 a 0.3,0.3 0 0 0 -0.3,-0.3 h -1.14 a 0.3,0.3 0 0 0 -0.3,0.3 v 10.4 a 0.3,0.3 0 0 0 0.3,0.3 h 1.14 a 0.3,0.3 0 0 0 0.3,-0.3 v -10.4"
       id="path1134" />
    <path
       stroke="#2e4e6b"
       vector-effect="non-scaling-stroke"
       d="m 440.45,111.71 q -0.33,-0.95 -1.19,-0.62 a 0.82,0.68 82.6 0 0 -0.46,0.73 q -0.09,3.95 -0.05,7.9 0,0.05 -0.08,1.05 -0.1,1.41 1.27,1.26 a 0.62,0.58 88.5 0 0 0.52,-0.59 q 0.08,-2.6 -0.02,-5.19 -0.13,-3.47 2.63,-3.69 2.43,-0.2 2.43,2.23 0,3.21 -0.17,5.45 -0.17,2.36 1.65,1.66 a 0.81,0.77 81.7 0 0 0.49,-0.7 q 0.42,-6.26 -0.28,-7.64 -2.16,-4.2 -6.21,-1.65 a 0.37,0.35 64.7 0 1 -0.53,-0.2"
       id="path1136" />
    <path
       stroke="#2e4e6b"
       vector-effect="non-scaling-stroke"
       d="m 460.55,117.05 5.91,-0.04 a 0.8,0.77 2.9 0 0 0.78,-0.68 q 0.32,-2.58 -1.14,-4.03 -1.34,-1.33 -3.51,-1.28 -2.49,0.07 -3.78,2.29 -1.2,2.08 -0.7,4.54 0.48,2.34 2.41,3.47 2.71,1.59 5.87,-0.25 a 0.95,0.87 -14.9 0 0 0.48,-0.75 q 0.05,-1.24 -1.21,-0.46 -0.63,0.39 -1.03,0.49 -3.99,1.07 -4.52,-2.79 a 0.45,0.44 86.1 0 1 0.44,-0.51"
       id="path1138" />
    <path
       stroke="#2e4e6b"
       vector-effect="non-scaling-stroke"
       d="m 472.19,111.69 q -0.33,-0.93 -1.18,-0.61 a 0.84,0.7 82.1 0 0 -0.46,0.74 q -0.09,4.46 -0.05,8.91 0,0.65 0.22,0.97 0.4,0.6 1.1,0.3 a 0.83,0.68 79 0 0 0.41,-0.75 q -0.11,-2.82 0.15,-5.63 0.13,-1.39 0.78,-2.04 0.9,-0.91 2.29,-0.73 a 0.68,0.58 12.4 0 0 0.69,-0.37 q 0.59,-1.53 -1.14,-1.51 -0.32,0 -0.91,0.32 l -1.31,0.71 a 0.48,0.38 66.5 0 1 -0.59,-0.31"
       id="path1140" />
    <path
       stroke="#2e4e6b"
       vector-effect="non-scaling-stroke"
       d="m 415.62,112.51 q 1.17,-4.36 -3.87,-3.97 a 0.81,0.81 -2.3 0 0 -0.75,0.81 v 4.27 a 0.83,0.82 -88.5 0 0 0.78,0.83 q 3.28,0.17 3.84,-1.94"
       id="path1142" />
    <path
       stroke="#2e4e6b"
       vector-effect="non-scaling-stroke"
       d="m 425.1776,120.5875 a 4.08,3.21 92 0 0 3.3504,-3.9655 4.08,3.21 92 0 0 -3.0656,-4.1895 4.08,3.21 92 0 0 -3.3504,3.9655 4.08,3.21 92 0 0 3.0656,4.1895"
       id="path1144" />
    <path
       stroke="#2e4e6b"
       vector-effect="non-scaling-stroke"
       d="m 460.43,113.95 q -1.71,1.7 0.56,1.59 l 4.01,-0.21 a 0.44,0.4 79.1 0 0 0.35,-0.57 q -1.41,-4.33 -4.92,-0.81"
       id="path1146" />
  </g>
  <path
     fill="#3c6d99"
     d="m 8.2893878,128.05 q -8.22000004,-7.31999 -8.26000004,-18.54999 -0.12,-41.15001 0.25,-82.30001 0.07,-8.15 1.52000004,-12.2 3.99,-11.18 16.2600002,-14.19 2.22,-0.54 5.62,-0.66 4.49,-0.15 5.66,-0.15 125.429992,0 250.869992,0 11.15,0 15.59,1.55 9.17,3.19 13.17,12.45 1.62,3.73 1.89,9.75 0.28,6.25 0.28,12.5 0.04,60.280005 -0.3,74.25001 -0.44,18.03 -18.06,22.69 -2.67,0.69999 -8.24,0.62999 -4.81,-0.07 -4.91,-0.07 -128.15,0.01 -256.289992,-0.01 -8.65,0 -15.0500002,-5.69001 z m 147.6499922,4.06 q 0.8,1.09 1.34,-0.13 64.85,0.24001 129.45,-0.19999 5.69,-0.04 9.01,-1.35 8.38,-3.3 11.77,-11.65 1.32,-3.26 1.39,-8.76 0.51,-43.16001 -0.01,-86.32001 -0.06,-5.02 -1.34,-8.2 -3.6,-8.88 -12.15,-11.98 -4.22,-1.52 -14.8,-1.51 -57.26,0.11 -114.51,-0.04 -4.48,-0.01 -8.96,0.03 -0.68,-0.12 -1.21,0.08 -63.15,-0.14 -126.209992,-0.09 -9.32,0.01 -13.55,1.48 -9.2600002,3.21 -12.5000002,12.31 -1.57,4.39 -1.6,15.14 -0.11,39.13 0.24,78.26001 0.05,5.54 1.33,8.95 5.21,13.83 21.7100002,13.81999 65.180002,-0.03 130.599992,0.16 z"
     id="path1150"
     inkscape:export-filename="/home/diogoaos/g1148.png"
     inkscape:export-xdpi="185.07564"
     inkscape:export-ydpi="185.07564" />
  <path
     fill="#deebf7"
     d="m 155.91938,2.08 0.02,130.03 Q 90.51939,131.92 25.339388,131.95 8.8393878,131.96 3.6293878,118.13 q -1.28,-3.41 -1.33,-8.95 -0.35,-39.13 -0.24,-78.26 0.03,-10.75 1.6,-15.14 3.24,-9.1 12.5000002,-12.31 4.23,-1.47 13.55,-1.48 Q 92.76938,1.94 155.91938,2.08 Z M 57.539388,21.92 q -0.32,6.32 -0.21,12.4 0,0.11 -0.07,1.34 -0.15,2.5 2.83,2.34 5.37,-0.29 6.42,-0.62 3.15,-0.98 4.26,-3.6 0.87,-2.07 0.87,-5.1 0,-3.48 -2.5,-5.63 -1.87,-1.61 -5.14,-1.94 -2.59,-0.26 -5.62,-0.04 a 0.9,0.91 89.3 0 0 -0.84,0.85 z m 33.770002,12.28 -0.12,-5.59 a 0.76,0.69 4 0 1 0.85999,-0.68 q 2.57,0.34 1.82,-2.51 a 0.6,0.6 0 0 0 -0.71,-0.44 q -2.62999,0.58 -2.05999,-2 a 0.79,0.8 12.2 0 0 -0.6,-0.94 q -3.15,-0.73 -2.75,1.98 a 0.84,0.66 73.2 0 1 -0.31,0.79 q -0.36,0.21 -0.78,0.25 a 0.88,0.67 2.4 0 0 -0.69,0.48 q -0.77,2.32 1.57,2.71 a 0.53,0.52 7.1 0 1 0.44,0.56 q -0.25,2.71 -0.07,5.44 0.28,4.1 4.42999,3.8 1.98,-0.15 1.65,-2.87 a 0.51,0.51 0 0 0 -0.7,-0.41 q -0.69,0.28 -1.41,0.09 A 0.75,0.68 7.3 0 1 91.30939,34.2 Z m -9.88,3.17 q 1.03,0.98 2.39,0.51 a 0.76,0.7 81.8 0 0 0.47,-0.69 q 0.09,-3.84 0.03,-7.69 -0.05,-3.4 -2.98,-4.25 -3.26,-0.95 -6.51,0.82 a 1.07,1.37 79.7 0 0 -0.62,0.7 q -0.250002,0.75 -0.01,1.47 a 0.66,0.59 74 0 0 0.7,0.44 l 2.94,-0.68 a 1.3,2.62 75.5 0 1 2.69,0.56 q 0.68,1.77 -1.15,1.58 -1.22,-0.12 -1.6,-0.08 -3.880002,0.44 -4.100002,3.61 -0.18,2.53 1.950002,3.76 2.27,1.32 5.03,-0.18 a 0.69,0.64 52 0 1 0.77,0.12 z m 22.63999,0.11 q 0.8,0.91 2,0.43 a 0.75,0.78 78.2 0 0 0.49,-0.72 l -0.23,-9.14 a 1.58,1.2 30.5 0 0 -0.36,-0.88 q -2.53,-3.04 -6.37,-2.07 -1.74,0.44 -2.14,0.63 -1.2,0.6 -1.12,2.23 a 0.9,0.9 0 0 0 1.24,0.79 q 1.88,-0.76 3.86,-0.72 0.7,0.02 1.12,0.29 0.68,0.45 0.47,1.21 a 0.68,0.56 8.9 0 1 -0.69,0.41 q -2.75,-0.23 -4.83,1.19 -1.64,1.12 -1.78,2.94 -0.19,2.35 2.11,3.43 2.47,1.16 5.48,-0.22 a 0.68,0.61 56.9 0 1 0.75,0.2 z m 22.73,58.520005 0.04,-36.520005 a 0.42,0.42 0 0 0 -0.42,-0.42 l -96.329992,0.23 q -1.22,-0.35 -2.35,-0.02 a 0.72,0.66 82.8 0 0 -0.47,0.66 l -0.18,45.58 a 0.49,0.5 89.4 0 0 0.51,0.49 q 16.87,-0.44 33.74,-0.2 10.59,0.15 20.000002,0.03 21.32999,-0.27 44.37999,0.23 a 1.3,1.25 0 0 0 1.33,-1.28 z"
     id="path1152"
     inkscape:export-filename="/home/diogoaos/g1148.png"
     inkscape:export-xdpi="185.07564"
     inkscape:export-ydpi="185.07564" />
  <path
     fill="#6d7170"
     d="m 157.12938,2 q -0.14,4.59 0,9.17 0.19,6.33 0.17,9.16 -0.49,55.850003 -0.02,111.65 -0.54,1.22 -1.34,0.13 l -0.02,-130.03 q 0.53,-0.2 1.21,-0.08 z"
     id="path1154"
     inkscape:export-filename="/home/diogoaos/g1148.png"
     inkscape:export-xdpi="185.07564"
     inkscape:export-ydpi="185.07564" />
  <path
     fill="#deebf7"
     d="m 157.27938,131.98 q -0.47,-55.799997 0.02,-111.65 0.02,-2.83 -0.17,-9.16 -0.14,-4.58 0,-9.17 4.48,-0.04 8.96,-0.03 57.25,0.15 114.51,0.04 10.58,-0.01 14.8,1.51 8.55,3.1 12.15,11.98 1.28,3.18 1.34,8.2 0.52,43.16 0.01,86.32 -0.07,5.5 -1.39,8.76 -3.39,8.35 -11.77,11.65 -3.32,1.31 -9.01,1.35 -64.6,0.44 -129.45,0.2 z m 59.73,-98.11 q -2.29,-5.29 -4.82,-10.46 -0.86,-1.75 -1.84,-2.26 -1.5,-0.77 -3.27,0.17 a 0.93,0.85 80 0 0 -0.47,0.74 q -0.6,7.5 -0.12,15 a 0.81,0.89 8.8 0 0 0.48,0.72 q 2.83,1.27 2.68,-1.63 -0.06,-1.26 -0.06,-1.3 -0.01,-4.8 0,-9.61 0,-0.49 0.24,-0.04 2.93,5.51 5.51,11.2 0.94,2.09 4.35,1.37 a 1.13,1.13 0 0 0 0.9,-1.11 q 0,-6.23 0,-12.32 0,-0.1 0.14,-1.68 0.21,-2.32 -2.3,-1.74 a 1.4,1.4 0 0 0 -1.08,1.34 q -0.11,5.86 0.29,11.24 0.01,0.15 0.11,0.37 0.21,0.43 -0.25,0.39 a 0.67,0.55 77.9 0 1 -0.49,-0.39 z m 32.56,-8.98 q -3.83,1.77 0.06,3.43 a 0.63,0.63 0 0 1 0.38,0.67 q -0.39,2.62 -0.11,5.23 0.23,2.17 1.33,3.06 1.45,1.17 3.8,0.5 a 1.42,1.42 0 0 0 1.01,-1.18 q 0.33,-2.47 -1.48,-1.68 a 1.05,1.05 0 0 1 -1.47,-0.96 v -5.17 a 0.81,0.81 0 0 1 0.99,-0.79 q 2.57,0.56 1.91,-2.45 a 0.73,0.74 78.2 0 0 -0.87,-0.56 q -2.59,0.57 -2.03,-2.01 a 0.8,0.8 0 0 0 -0.62,-0.96 q -3.42,-0.65 -2.6,2.19 a 0.58,0.56 69.8 0 1 -0.3,0.68 z m -26.22,4.52 q -0.78,2.36 0.05,4.53 2.3,5.97 8.8,3.55 0.16,-0.06 0.91,-0.26 1.48,-0.38 0.98,-2.24 a 1.04,1.04 0 0 0 -1.46,-0.66 q -2.78,1.35 -5.42,-0.02 a 0.93,0.74 17.5 0 1 -0.5,-0.74 q 0.03,-0.98 1.63,-0.57 1.21,0.31 5.31,-0.13 a 0.8,0.76 5 0 0 0.66,-0.53 q 1.29,-4.17 -1.97,-6.34 -3.52,-2.34 -6.5,-0.09 -1.76,1.32 -2.49,3.5 z m 17.84,-0.93 q -0.82,-1.76 -1.1,-2.23 -1.24,-2.05 -3.49,-1.14 a 0.47,0.5 65.9 0 0 -0.27,0.66 l 2.5,5.05 a 1.01,0.92 46.3 0 1 0.02,0.87 l -2.8,5.6 a 0.43,0.44 21 0 0 0.27,0.62 q 1.15,0.31 2.29,0 a 1.09,1.16 6.7 0 0 0.71,-0.6 l 1.6,-3.28 q 0.36,-0.74 0.86,0.05 l 2.06,3.29 a 0.99,1.35 85.1 0 0 0.82,0.5 q 3.43,0.65 2.18,-1.37 -1.45,-2.31 -2.55,-4.79 a 1.11,0.95 49.5 0 1 0,-0.91 l 2.54,-4.79 a 0.67,0.7 18.4 0 0 -0.48,-1.01 q -2.83,-0.4 -3.5,2.3 -0.26,1.01 -1,1.44 a 0.51,0.44 62.4 0 1 -0.66,-0.26 z m -55.81,34.02 v 40.75 l -0.09,1.81 a 0.54,0.53 4 0 0 0.49,0.55 q 4.46,0.4 11.31,0.39 49.57,-0.06 66,-0.21 l 23.32,0.15 a 0.67,0.69 0.4 0 0 0.68,-0.69 V 59.67 a 0.67,0.67 0 0 0 -0.67,-0.67 l -8.58,0.04 q -38.87,0.43 -65.25,0.21 -15.82,-0.13 -23.57,-0.02 -0.04,0.01 -1.86,-0.12 -2.85,-0.2 -1.78,3.39 z"
     id="path1156"
     inkscape:export-filename="/home/diogoaos/g1148.png"
     inkscape:export-xdpi="185.07564"
     inkscape:export-ydpi="185.07564" />
  <path
     fill="#000000"
     d="m 57.539388,21.92 a 0.9,0.91 89.3 0 1 0.84,-0.85 q 3.03,-0.22 5.62,0.04 3.27,0.33 5.14,1.94 2.5,2.15 2.5,5.63 0,3.03 -0.87,5.1 -1.11,2.62 -4.26,3.6 -1.05,0.33 -6.42,0.62 -2.98,0.16 -2.83,-2.34 0.07,-1.23 0.07,-1.34 -0.11,-6.08 0.21,-12.4 z m 10.21,9.43 q 2.09,-7.28 -6.1,-7.29 a 0.51,0.5 0 0 0 -0.51,0.5 l -0.04,9.42 a 0.99,0.98 1.2 0 0 0.95,0.98 q 2.33,0.09 3.76,-0.7 1.31,-0.73 1.94,-2.91 z"
     id="path1158"
     inkscape:export-filename="/home/diogoaos/g1148.png"
     inkscape:export-xdpi="185.07564"
     inkscape:export-ydpi="185.07564" />
  <path
     fill="#000000"
     d="m 217.49938,34.26 q 0.46,0.04 0.25,-0.39 -0.1,-0.22 -0.11,-0.37 -0.4,-5.38 -0.29,-11.24 a 1.4,1.4 0 0 1 1.08,-1.34 q 2.51,-0.58 2.3,1.74 -0.14,1.58 -0.14,1.68 0,6.09 0,12.32 a 1.13,1.13 0 0 1 -0.9,1.11 q -3.41,0.72 -4.35,-1.37 -2.58,-5.69 -5.51,-11.2 -0.24,-0.45 -0.24,0.04 -0.01,4.81 0,9.61 0,0.04 0.06,1.3 0.15,2.9 -2.68,1.63 a 0.81,0.89 8.8 0 1 -0.48,-0.72 q -0.48,-7.5 0.12,-15 a 0.93,0.85 80 0 1 0.47,-0.74 q 1.77,-0.94 3.27,-0.17 0.98,0.51 1.84,2.26 2.53,5.17 4.82,10.46 a 0.67,0.55 77.9 0 0 0.49,0.39 z"
     id="path1160"
     inkscape:export-filename="/home/diogoaos/g1148.png"
     inkscape:export-xdpi="185.07564"
     inkscape:export-ydpi="185.07564" />
  <path
     fill="#000000"
     d="m 91.87938,34.86 q 0.72,0.19 1.41,-0.09 a 0.51,0.51 0 0 1 0.7,0.41 q 0.33,2.72 -1.65,2.87 -4.14999,0.3 -4.42999,-3.8 -0.18,-2.73 0.07,-5.44 a 0.53,0.52 7.1 0 0 -0.44,-0.56 q -2.34,-0.39 -1.57,-2.71 a 0.88,0.67 2.4 0 1 0.69,-0.48 q 0.42,-0.04 0.78,-0.25 a 0.84,0.66 73.2 0 0 0.31,-0.79 q -0.4,-2.71 2.75,-1.98 a 0.79,0.8 12.2 0 1 0.6,0.94 q -0.57,2.58 2.05999,2 a 0.6,0.6 0 0 1 0.71,0.44 q 0.75,2.85 -1.82,2.51 a 0.76,0.69 4 0 0 -0.85999,0.68 l 0.12,5.59 a 0.75,0.68 7.3 0 0 0.56999,0.66 z"
     id="path1162"
     inkscape:export-filename="/home/diogoaos/g1148.png"
     inkscape:export-xdpi="185.07564"
     inkscape:export-ydpi="185.07564" />
  <path
     fill="#000000"
     d="m 249.86938,24.21 q -0.82,-2.84 2.6,-2.19 a 0.8,0.8 0 0 1 0.62,0.96 q -0.56,2.58 2.03,2.01 a 0.73,0.74 78.2 0 1 0.87,0.56 q 0.66,3.01 -1.91,2.45 a 0.81,0.81 0 0 0 -0.99,0.79 v 5.17 a 1.05,1.05 0 0 0 1.47,0.96 q 1.81,-0.79 1.48,1.68 a 1.42,1.42 0 0 1 -1.01,1.18 q -2.35,0.67 -3.8,-0.5 -1.1,-0.89 -1.33,-3.06 -0.28,-2.61 0.11,-5.23 a 0.63,0.63 0 0 0 -0.38,-0.67 q -3.89,-1.66 -0.06,-3.43 a 0.58,0.56 69.8 0 0 0.3,-0.68 z"
     id="path1164"
     inkscape:export-filename="/home/diogoaos/g1148.png"
     inkscape:export-xdpi="185.07564"
     inkscape:export-ydpi="185.07564" />
  <path
     fill="#deebf7"
     d="m 65.809388,34.26 q -1.43,0.79 -3.76,0.7 a 0.99,0.98 1.2 0 1 -0.95,-0.98 l 0.04,-9.42 a 0.51,0.5 0 0 1 0.51,-0.5 q 8.19,0.01 6.1,7.29 -0.63,2.18 -1.94,2.91 z"
     id="path1166"
     inkscape:export-filename="/home/diogoaos/g1148.png"
     inkscape:export-xdpi="185.07564"
     inkscape:export-ydpi="185.07564" />
  <path
     fill="#000000"
     d="m 80.65939,37.25 q -2.76,1.5 -5.03,0.18 -2.130002,-1.23 -1.950002,-3.76 0.22,-3.17 4.100002,-3.61 0.38,-0.04 1.6,0.08 1.83,0.19 1.15,-1.58 a 1.3,2.62 75.5 0 0 -2.69,-0.56 l -2.94,0.68 a 0.66,0.59 74 0 1 -0.7,-0.44 q -0.240002,-0.72 0.01,-1.47 a 1.07,1.37 79.7 0 1 0.62,-0.7 q 3.25,-1.77 6.51,-0.82 2.93,0.85 2.98,4.25 0.06,3.85 -0.03,7.69 a 0.76,0.7 81.8 0 1 -0.47,0.69 q -1.36,0.47 -2.39,-0.51 a 0.69,0.64 52 0 0 -0.77,-0.12 z m -3.72,-3.57 q -0.15,1.6 1.9,1.36 2.23,-0.27 1.88,-2.06 a 0.71,0.74 88.5 0 0 -0.62,-0.57 q -1.48,-0.21 -2.66,0.49 a 1.01,1.08 75.7 0 0 -0.5,0.78 z"
     id="path1168"
     inkscape:export-filename="/home/diogoaos/g1148.png"
     inkscape:export-xdpi="185.07564"
     inkscape:export-ydpi="185.07564" />
  <path
     fill="#000000"
     d="m 103.31938,37.28 q -3.01,1.38 -5.48,0.22 -2.3,-1.08 -2.11,-3.43 0.14,-1.82 1.78,-2.94 2.08,-1.42 4.83,-1.19 a 0.68,0.56 8.9 0 0 0.69,-0.41 q 0.21,-0.76 -0.47,-1.21 -0.42,-0.27 -1.12,-0.29 -1.98,-0.04 -3.86,0.72 a 0.9,0.9 0 0 1 -1.24,-0.79 q -0.08,-1.63 1.12,-2.23 0.4,-0.19 2.14,-0.63 3.84,-0.97 6.37,2.07 a 1.58,1.2 30.5 0 1 0.36,0.88 l 0.23,9.14 a 0.75,0.78 78.2 0 1 -0.49,0.72 q -1.2,0.48 -2,-0.43 a 0.68,0.61 56.9 0 0 -0.75,-0.2 z m -4.06,-3.49 q -0.06,1.95 2.15,1.24 0.99,-0.32 1.44,-1.06 0.95,-1.55 -2.33,-1.44 a 1.29,1.3 0.2 0 0 -1.26,1.26 z"
     id="path1170"
     inkscape:export-filename="/home/diogoaos/g1148.png"
     inkscape:export-xdpi="185.07564"
     inkscape:export-ydpi="185.07564" />
  <path
     fill="#000000"
     d="m 225.83938,25.91 q 2.98,-2.25 6.5,0.09 3.26,2.17 1.97,6.34 a 0.8,0.76 5 0 1 -0.66,0.53 q -4.1,0.44 -5.31,0.13 -1.6,-0.41 -1.63,0.57 a 0.93,0.74 17.5 0 0 0.5,0.74 q 2.64,1.37 5.42,0.02 a 1.04,1.04 0 0 1 1.46,0.66 q 0.5,1.86 -0.98,2.24 -0.75,0.2 -0.91,0.26 -6.5,2.42 -8.8,-3.55 -0.83,-2.17 -0.05,-4.53 0.73,-2.18 2.49,-3.5 z m 0.89,3.62 a 0.57,0.56 18.6 0 0 0.43,0.85 q 5.29,0.55 3.72,-1.46 -0.85,-1.08 -2.06,-0.91 -1.31,0.17 -2.09,1.52 z"
     id="path1172"
     inkscape:export-filename="/home/diogoaos/g1148.png"
     inkscape:export-xdpi="185.07564"
     inkscape:export-ydpi="185.07564" />
  <path
     fill="#000000"
     d="m 241.84938,28.74 q 0.74,-0.43 1,-1.44 0.67,-2.7 3.5,-2.3 a 0.67,0.7 18.4 0 1 0.48,1.01 l -2.54,4.79 a 1.11,0.95 49.5 0 0 0,0.91 q 1.1,2.48 2.55,4.79 1.25,2.02 -2.18,1.37 a 0.99,1.35 85.1 0 1 -0.82,-0.5 l -2.06,-3.29 q -0.5,-0.79 -0.86,-0.05 l -1.6,3.28 a 1.09,1.16 6.7 0 1 -0.71,0.6 q -1.14,0.31 -2.29,0 a 0.43,0.44 21 0 1 -0.27,-0.62 l 2.8,-5.6 a 1.01,0.92 46.3 0 0 -0.02,-0.87 l -2.5,-5.05 a 0.47,0.5 65.9 0 1 0.27,-0.66 q 2.25,-0.91 3.49,1.14 0.28,0.47 1.1,2.23 a 0.51,0.44 62.4 0 0 0.66,0.26 z"
     id="path1174"
     inkscape:export-filename="/home/diogoaos/g1148.png"
     inkscape:export-xdpi="185.07564"
     inkscape:export-ydpi="185.07564" />
  <path
     fill="#deebf7"
     d="m 226.72938,29.53 q 0.78,-1.35 2.09,-1.52 1.21,-0.17 2.06,0.91 1.57,2.01 -3.72,1.46 a 0.57,0.56 18.6 0 1 -0.43,-0.85 z"
     id="path1176"
     inkscape:export-filename="/home/diogoaos/g1148.png"
     inkscape:export-xdpi="185.07564"
     inkscape:export-ydpi="185.07564" />
  <path
     fill="#deebf7"
     d="m 77.43939,32.9 q 1.18,-0.7 2.66,-0.49 a 0.71,0.74 88.5 0 1 0.62,0.57 q 0.35,1.79 -1.88,2.06 -2.05,0.24 -1.9,-1.36 a 1.01,1.08 75.7 0 1 0.5,-0.78 z"
     id="path1178"
     inkscape:export-filename="/home/diogoaos/g1148.png"
     inkscape:export-xdpi="185.07564"
     inkscape:export-ydpi="185.07564" />
  <path
     fill="#deebf7"
     d="m 99.25938,33.79 a 1.29,1.3 0.2 0 1 1.26,-1.26 q 3.28,-0.11 2.33,1.44 -0.45,0.74 -1.44,1.06 -2.21,0.71 -2.15,-1.24 z"
     id="path1180"
     inkscape:export-filename="/home/diogoaos/g1148.png"
     inkscape:export-xdpi="185.07564"
     inkscape:export-ydpi="185.07564" />
  <path
     fill="#4d4945"
     d="m 30.089388,59.29 q 0.21,0.73 0,1.42 l -0.95,0.05 a 0.56,0.51 88.4 0 0 -0.48,0.56 l 0.24,42.39 a 0.49,0.48 89.4 0 0 0.48,0.48001 l 95.209992,-0.13 a 0.75,0.83 1.2 0 0 0.75,-0.8 l 0.29,-7.260005 h 1.17 l 0.25,8.780005 a 1.3,1.25 0 0 1 -1.33,1.28 q -23.05,-0.5 -44.37999,-0.23 -9.410002,0.12 -20.000002,-0.03 -16.87,-0.24 -33.74,0.2 a 0.49,0.5 89.4 0 1 -0.51,-0.49 l 0.18,-45.58001 a 0.72,0.66 82.8 0 1 0.47,-0.66 q 1.13,-0.33 2.35,0.02 z"
     id="path1182"
     inkscape:export-filename="/home/diogoaos/g1148.png"
     inkscape:export-xdpi="185.07564"
     inkscape:export-ydpi="185.07564" />
  <path
     fill="#363328"
     d="m 126.79938,96.000005 h -1.17 L 125.51938,61.06 a 0.49,0.49 0 0 0 -0.5,-0.49 q -43.08999,0.44 -86.179992,0.06 -4.37,-0.04 -8.75,0.08 0.21,-0.69 0,-1.42 l 96.329992,-0.23 a 0.42,0.42 0 0 1 0.42,0.42 z"
     id="path1184"
     inkscape:export-filename="/home/diogoaos/g1148.png"
     inkscape:export-xdpi="185.07564"
     inkscape:export-ydpi="185.07564" />
  <path
     fill="#363328"
     d="m 277.83938,59.04 q 1.26,0.47 0.5,1.67 l -92.04,0.04 q -0.86,0.62 -0.92,1.75 -1.07,-3.59 1.78,-3.39 1.82,0.13 1.86,0.12 7.75,-0.11 23.57,0.02 26.38,0.22 65.25,-0.21 z"
     id="path1186"
     inkscape:export-filename="/home/diogoaos/g1148.png"
     inkscape:export-xdpi="185.07564"
     inkscape:export-ydpi="185.07564" />
  <path
     fill="#555351"
     d="m 277.83938,59.04 8.58,-0.04 a 0.67,0.67 0 0 1 0.67,0.67 v 45.58 a 0.67,0.69 0.4 0 1 -0.68,0.69 l -23.32,-0.15 7.44,-0.09 a 0.47,0.55 87.5 0 0 0.55,-0.51 q -0.04,-0.63 -0.74,-0.9 l 14.15,-0.33 a 0.61,0.61 0 0 0 0.6,-0.61 l -0.02,-41.73 a 0.79,0.69 1.3 0 0 -0.76,-0.69 l -5.97,-0.22 q 0.76,-1.2 -0.5,-1.67 z"
     id="path1188"
     inkscape:export-filename="/home/diogoaos/g1148.png"
     inkscape:export-xdpi="185.07564"
     inkscape:export-ydpi="185.07564" />
  <path
     fill="#5b9bd5"
     d="m 125.62938,96.000005 -0.29,7.259995 a 0.75,0.83 1.2 0 1 -0.75,0.8 l -95.209992,0.13 a 0.49,0.48 89.4 0 1 -0.48,-0.48 l -0.24,-42.39 a 0.56,0.51 88.4 0 1 0.48,-0.56 l 0.95,-0.05 q 4.38,-0.12 8.75,-0.08 43.090002,0.38 86.179992,-0.06 a 0.49,0.49 0 0 1 0.5,0.49 z m -56.119992,-8.16 q 4.05,-4.080002 5.080002,-6.590002 1.78,-4.36 -2.060002,-5.94 -2.9,-1.18 -5.33,1.09 a 1.05,1.13 65.6 0 0 -0.36,0.86 q 0.06,0.99 0.71,0.58 0.59,-0.37 0.77,-0.43 4.96,-1.78 4.4,2.38 -0.22,1.64 -1.63,3.43 -2.13,2.7 -4.34,5.230002 -1.3,1.48 0.64,1.49 l 7.400002,0.01 a 0.82,0.76 12.2 0 0 0.74,-0.44 q 0.53,-1.11 -0.94,-1.15 -2.460002,-0.06 -4.930002,-0.15 -0.5,-0.02 -0.15,-0.37 z m 11.110002,-7.900002 -0.02,-2.68 a 0.5,0.52 89.5 0 1 0.52,-0.51 h 4.46 a 0.88,0.68 8.6 0 0 0.77,-0.43 q 0.12,-0.28 0.1,-0.58 a 0.73,0.59 4.9 0 0 -0.6,-0.58 q -3.11,-0.49 -6.2,0.06 a 0.59,0.73 85.1 0 0 -0.6,0.58 l -0.15,5.27 a 0.95,1.15 89 0 0 1.21,0.97 q 5.53,-0.29 5.13,3.36 -0.23,2.120002 -2.02,2.780002 -1.67,0.61 -3.94,-0.12 -1.24,-0.4 -1.02,0.66 a 1.04,0.89 8 0 0 0.59,0.67 q 3.54,1.49 6.17,-0.24 2.48,-1.63 2.21,-4.780002 -0.38,-4.37 -6.08,-3.97 a 0.47,0.5 87.7 0 1 -0.53,-0.46 z"
     id="path1190"
     inkscape:export-filename="/home/diogoaos/g1148.png"
     inkscape:export-xdpi="185.07564"
     inkscape:export-ydpi="185.07564" />
  <path
     fill="#5b9bd5"
     d="m 278.33938,60.71 5.97,0.22 a 0.79,0.69 1.3 0 1 0.76,0.69 l 0.02,41.73 a 0.61,0.61 0 0 1 -0.6,0.61 l -14.15,0.33 -83.26,-0.04 a 0.55,0.49 86.8 0 1 -0.49,-0.5 l -0.04,-0.5 -0.25,-42.5 z m -51,14.690003 q -0.71,2.01 1.46,1.43 a 0.77,0.79 87 0 0 0.58,-0.63 q 0.27,-1.77 -1.36,-1.41 a 0.96,0.98 3.6 0 0 -0.68,0.61 z m -22.21,9.87 a 1.14,1.14 0 0 1 0.99,-1.11 q 5.33,-0.71 5.86,-4.15 0.44,-2.88 -2.33,-4.38 -2.54,-1.37 -5.77,-0.46 a 0.69,0.66 83.3 0 0 -0.49,0.65 q -0.09,5.97 -0.05,11.940002 0,0.08 -0.05,0.98 -0.08,1.69 1.29,1.16 a 0.8,0.73 80.7 0 0 0.46,-0.71 z m 42.27,-6.83 -0.16,-1.76 a 0.73,0.71 4.5 0 0 -0.56,-0.64 q -1.39,-0.31 -1.02,1.44 0.34,1.55 -0.77,1.62 a 1.26,0.74 8.8 0 0 -0.83,0.33 q -1.06,1.25 0.97,1.17 a 0.49,0.5 87.7 0 1 0.52,0.47 q 0.13,3.48 0.04,4.93 -0.29,4.800002 3.95,3.810002 a 1.19,0.85 0.3 0 0 0.77,-0.54 q 0.18,-0.37 -0.02,-0.64 a 0.54,0.93 70.5 0 0 -0.87,-0.16 q -1.72,0.42 -1.86,-1.490002 -0.22,-2.98 -0.22,-5.79 a 0.73,0.73 0 0 1 0.87,-0.72 q 2.38,0.48 2,-0.93 a 0.67,0.75 84.4 0 0 -0.68,-0.5 l -1.63,-0.08 a 0.58,0.52 88 0 1 -0.5,-0.52 z m -28.6528,11.619402 a 5.09,5.6 6.9 0 0 5.7259,-4.947902 5.09,5.6 6.9 0 0 -4.3803,-6.1709 5.09,5.6 6.9 0 0 -5.7259,4.9479 5.09,5.6 6.9 0 0 4.3803,6.170902 z m 10.3428,-10.769402 a 0.3,0.3 0 0 0 -0.3,-0.3 h -1.14 a 0.3,0.3 0 0 0 -0.3,0.3 v 10.400002 a 0.3,0.3 0 0 0 0.3,0.3 h 1.14 a 0.3,0.3 0 0 0 0.3,-0.3 z m 5.45,0.42 q -0.33,-0.95 -1.19,-0.62 a 0.82,0.68 82.6 0 0 -0.46,0.73 q -0.09,3.95 -0.05,7.900002 0,0.05 -0.08,1.05 -0.1,1.41 1.27,1.26 a 0.62,0.58 88.5 0 0 0.52,-0.59 q 0.08,-2.600002 -0.02,-5.190002 -0.13,-3.47 2.63,-3.69 2.43,-0.2 2.43,2.23 0,3.21 -0.17,5.450002 -0.17,2.36 1.65,1.66 a 0.81,0.77 81.7 0 0 0.49,-0.7 q 0.42,-6.260002 -0.28,-7.640002 -2.16,-4.2 -6.21,-1.65 a 0.37,0.35 64.7 0 1 -0.53,-0.2 z m 20.1,5.34 5.91,-0.04 a 0.8,0.77 2.9 0 0 0.78,-0.68 q 0.32,-2.58 -1.14,-4.03 -1.34,-1.33 -3.51,-1.28 -2.49,0.07 -3.78,2.29 -1.2,2.08 -0.7,4.54 0.48,2.340002 2.41,3.470002 2.71,1.59 5.87,-0.25 a 0.87,0.95 75.1 0 0 0.48,-0.75 q 0.05,-1.240002 -1.21,-0.46 -0.63,0.39 -1.03,0.49 -3.99,1.07 -4.52,-2.790002 a 0.45,0.44 86.1 0 1 0.44,-0.51 z m 11.64,-5.36 q -0.33,-0.93 -1.18,-0.61 a 0.84,0.7 82.1 0 0 -0.46,0.74 q -0.09,4.46 -0.05,8.910002 0,0.65 0.22,0.97 0.4,0.6 1.1,0.3 a 0.83,0.68 79 0 0 0.41,-0.75 q -0.11,-2.820002 0.15,-5.630002 0.13,-1.39 0.78,-2.04 0.9,-0.91 2.29,-0.73 a 0.68,0.58 12.4 0 0 0.69,-0.37 q 0.59,-1.53 -1.14,-1.51 -0.32,0 -0.91,0.32 l -1.31,0.71 a 0.48,0.38 66.5 0 1 -0.59,-0.31 z"
     id="path1192"
     inkscape:export-filename="/home/diogoaos/g1148.png"
     inkscape:export-xdpi="185.07564"
     inkscape:export-ydpi="185.07564" />
  <path
     fill="#000000"
     d="m 186.29938,60.75 0.25,42.5 h -1.17 V 62.5 q 0.06,-1.13 0.92,-1.75 z"
     id="path1194"
     inkscape:export-filename="/home/diogoaos/g1148.png"
     inkscape:export-xdpi="185.07564"
     inkscape:export-ydpi="185.07564" />
  <path
     fill="#000000"
     d="m 228.01938,74.790003 q 1.63,-0.36 1.36,1.41 a 0.77,0.79 87 0 1 -0.58,0.63 q -2.17,0.58 -1.46,-1.43 a 0.96,0.98 3.6 0 1 0.68,-0.61 z"
     id="path1196"
     inkscape:export-filename="/home/diogoaos/g1148.png"
     inkscape:export-xdpi="185.07564"
     inkscape:export-ydpi="185.07564" />
  <path
     fill="#000000"
     d="m 69.659388,88.210005 q 2.47,0.09 4.930002,0.15 1.47,0.04 0.94,1.15 a 0.82,0.76 12.2 0 1 -0.74,0.44 l -7.400002,-0.01 q -1.94,-0.01 -0.64,-1.49 2.21,-2.530002 4.34,-5.230002 1.41,-1.79 1.63,-3.43 0.56,-4.16 -4.4,-2.38 -0.18,0.06 -0.77,0.43 -0.65,0.41 -0.71,-0.58 a 1.05,1.13 65.6 0 1 0.36,-0.86 q 2.43,-2.27 5.33,-1.09 3.840002,1.58 2.060002,5.94 -1.030002,2.51 -5.080002,6.590002 -0.35,0.35 0.15,0.37 z"
     id="path1198"
     inkscape:export-filename="/home/diogoaos/g1148.png"
     inkscape:export-xdpi="185.07564"
     inkscape:export-ydpi="185.07564" />
  <path
     fill="#000000"
     d="m 81.14939,80.400003 q 5.7,-0.4 6.08,3.97 0.27,3.150002 -2.21,4.780002 -2.63,1.73 -6.17,0.24 a 1.04,0.89 8 0 1 -0.59,-0.67 q -0.22,-1.06 1.02,-0.66 2.27,0.73 3.94,0.12 1.79,-0.66 2.02,-2.780002 0.4,-3.65 -5.13,-3.36 a 0.95,1.15 89 0 1 -1.21,-0.97 l 0.15,-5.27 a 0.59,0.73 85.1 0 1 0.6,-0.58 q 3.09,-0.55 6.2,-0.06 a 0.73,0.59 4.9 0 1 0.6,0.58 q 0.02,0.3 -0.1,0.58 a 0.88,0.68 8.6 0 1 -0.77,0.43 h -4.46 a 0.5,0.52 89.5 0 0 -0.52,0.51 l 0.02,2.68 a 0.47,0.5 87.7 0 0 0.53,0.46 z"
     id="path1200"
     inkscape:export-filename="/home/diogoaos/g1148.png"
     inkscape:export-xdpi="185.07564"
     inkscape:export-ydpi="185.07564" />
  <path
     fill="#000000"
     d="m 205.12938,85.270003 -0.09,3.920002 a 0.8,0.73 80.7 0 1 -0.46,0.71 q -1.37,0.53 -1.29,-1.16 0.05,-0.9 0.05,-0.98 -0.04,-5.970002 0.05,-11.940002 a 0.69,0.66 83.3 0 1 0.49,-0.65 q 3.23,-0.91 5.77,0.46 2.77,1.5 2.33,4.38 -0.53,3.44 -5.86,4.15 a 1.14,1.14 0 0 0 -0.99,1.11 z m 4.58,-4.76 q 1.17,-4.36 -3.87,-3.97 a 0.81,0.81 0 0 0 -0.75,0.81 v 4.27 a 0.82,0.83 1.5 0 0 0.78,0.83 q 3.28,0.17 3.84,-1.94 z"
     id="path1202"
     inkscape:export-filename="/home/diogoaos/g1148.png"
     inkscape:export-xdpi="185.07564"
     inkscape:export-ydpi="185.07564" />
  <path
     fill="#000000"
     d="m 247.89938,78.960003 1.63,0.08 a 0.67,0.75 84.4 0 1 0.68,0.5 q 0.38,1.41 -2,0.93 a 0.73,0.73 0 0 0 -0.87,0.72 q 0,2.81 0.22,5.79 0.14,1.910002 1.86,1.490002 a 0.54,0.93 70.5 0 1 0.87,0.16 q 0.2,0.27 0.02,0.64 a 1.19,0.85 0.3 0 1 -0.77,0.54 q -4.24,0.99 -3.95,-3.810002 0.09,-1.45 -0.04,-4.93 a 0.49,0.5 87.7 0 0 -0.52,-0.47 q -2.03,0.08 -0.97,-1.17 a 1.26,0.74 8.8 0 1 0.83,-0.33 q 1.11,-0.07 0.77,-1.62 -0.37,-1.75 1.02,-1.44 a 0.73,0.71 4.5 0 1 0.56,0.64 l 0.16,1.76 a 0.58,0.52 88 0 0 0.5,0.52 z"
     id="path1204"
     inkscape:export-filename="/home/diogoaos/g1148.png"
     inkscape:export-xdpi="185.07564"
     inkscape:export-ydpi="185.07564" />
  <path
     fill="#5b9bd5"
     d="m 209.70938,80.510003 q -0.56,2.11 -3.84,1.94 a 0.82,0.83 1.5 0 1 -0.78,-0.83 v -4.27 a 0.81,0.81 0 0 1 0.75,-0.81 q 5.04,-0.39 3.87,3.97 z"
     id="path1206"
     inkscape:export-filename="/home/diogoaos/g1148.png"
     inkscape:export-xdpi="185.07564"
     inkscape:export-ydpi="185.07564" />
  <path
     fill="#000000"
     d="m 218.74658,90.059405 a 5.09,5.6 6.9 0 1 -4.3803,-6.170902 5.09,5.6 6.9 0 1 5.7259,-4.9479 5.09,5.6 6.9 0 1 4.3803,6.1709 5.09,5.6 6.9 0 1 -5.7259,4.947902 z m 0.5204,-1.4719 a 3.21,4.08 2 0 0 3.3504,-3.965502 3.21,4.08 2 0 0 -3.0656,-4.1895 3.21,4.08 2 0 0 -3.3504,3.9655 3.21,4.08 2 0 0 3.0656,4.189502 z"
     id="path1208"
     inkscape:export-filename="/home/diogoaos/g1148.png"
     inkscape:export-xdpi="185.07564"
     inkscape:export-ydpi="185.07564" />
  <path
     fill="#000000"
     d="m 229.08938,89.690005 a 0.3,0.3 0 0 1 -0.3,0.3 h -1.14 a 0.3,0.3 0 0 1 -0.3,-0.3 V 79.290003 a 0.3,0.3 0 0 1 0.3,-0.3 h 1.14 a 0.3,0.3 0 0 1 0.3,0.3 z"
     id="path1210"
     inkscape:export-filename="/home/diogoaos/g1148.png"
     inkscape:export-xdpi="185.07564"
     inkscape:export-ydpi="185.07564" />
  <path
     fill="#000000"
     d="m 235.06938,79.910003 q 4.05,-2.55 6.21,1.65 0.7,1.38 0.28,7.640002 a 0.81,0.77 81.7 0 1 -0.49,0.7 q -1.82,0.7 -1.65,-1.66 0.17,-2.240002 0.17,-5.450002 0,-2.43 -2.43,-2.23 -2.76,0.22 -2.63,3.69 0.1,2.59 0.02,5.190002 a 0.62,0.58 88.5 0 1 -0.52,0.59 q -1.37,0.15 -1.27,-1.26 0.08,-1 0.08,-1.05 -0.04,-3.950002 0.05,-7.900002 a 0.82,0.68 82.6 0 1 0.46,-0.73 q 0.86,-0.33 1.19,0.62 a 0.37,0.35 64.7 0 0 0.53,0.2 z"
     id="path1212"
     inkscape:export-filename="/home/diogoaos/g1148.png"
     inkscape:export-xdpi="185.07564"
     inkscape:export-ydpi="185.07564" />
  <path
     fill="#000000"
     d="m 254.19938,85.560003 q 0.53,3.860002 4.52,2.790002 0.4,-0.1 1.03,-0.49 1.26,-0.780002 1.21,0.46 a 0.87,0.95 75.1 0 1 -0.48,0.75 q -3.16,1.84 -5.87,0.25 -1.93,-1.13 -2.41,-3.470002 -0.5,-2.46 0.7,-4.54 1.29,-2.22 3.78,-2.29 2.17,-0.05 3.51,1.28 1.46,1.45 1.14,4.03 a 0.8,0.77 2.9 0 1 -0.78,0.68 l -5.91,0.04 a 0.45,0.44 86.1 0 0 -0.44,0.51 z m 0.32,-3.61 q -1.71,1.7 0.56,1.59 l 4.01,-0.21 a 0.44,0.4 79.1 0 0 0.35,-0.57 q -1.41,-4.33 -4.92,-0.81 z"
     id="path1214"
     inkscape:export-filename="/home/diogoaos/g1148.png"
     inkscape:export-xdpi="185.07564"
     inkscape:export-ydpi="185.07564" />
  <path
     fill="#000000"
     d="m 266.86938,80.000003 1.31,-0.71 q 0.59,-0.32 0.91,-0.32 1.73,-0.02 1.14,1.51 a 0.68,0.58 12.4 0 1 -0.69,0.37 q -1.39,-0.18 -2.29,0.73 -0.65,0.65 -0.78,2.04 -0.26,2.81 -0.15,5.630002 a 0.83,0.68 79 0 1 -0.41,0.75 q -0.7,0.3 -1.1,-0.3 -0.22,-0.32 -0.22,-0.97 -0.04,-4.450002 0.05,-8.910002 a 0.84,0.7 82.1 0 1 0.46,-0.74 q 0.85,-0.32 1.18,0.61 a 0.48,0.38 66.5 0 0 0.59,0.31 z"
     id="path1216"
     inkscape:export-filename="/home/diogoaos/g1148.png"
     inkscape:export-xdpi="185.07564"
     inkscape:export-ydpi="185.07564" />
  <path
     fill="#5b9bd5"
     d="m 219.26698,88.587505 a 3.21,4.08 2 0 1 -3.0656,-4.189502 3.21,4.08 2 0 1 3.3504,-3.9655 3.21,4.08 2 0 1 3.0656,4.1895 3.21,4.08 2 0 1 -3.3504,3.965502 z"
     id="path1218"
     inkscape:export-filename="/home/diogoaos/g1148.png"
     inkscape:export-xdpi="185.07564"
     inkscape:export-ydpi="185.07564" />
  <path
     fill="#5b9bd5"
     d="m 254.51938,81.950003 q 3.51,-3.52 4.92,0.81 a 0.44,0.4 79.1 0 1 -0.35,0.57 l -4.01,0.21 q -2.27,0.11 -0.56,-1.59 z"
     id="path1220"
     inkscape:export-filename="/home/diogoaos/g1148.png"
     inkscape:export-xdpi="185.07564"
     inkscape:export-ydpi="185.07564" />
  <path
     fill="#555351"
     d="m 185.37938,103.25 h 1.17 l 0.04,0.5 a 0.55,0.49 86.8 0 0 0.49,0.5 l 83.26,0.04 q 0.7,0.27 0.74,0.90001 a 0.47,0.55 87.5 0 1 -0.55,0.51 l -7.44,0.09 q -16.43,0.15 -66,0.21 -6.85,0.01 -11.31,-0.39 a 0.54,0.53 4 0 1 -0.49,-0.55 z"
     id="path1222"
     inkscape:export-filename="/home/diogoaos/g1148.png"
     inkscape:export-xdpi="185.07564"
     inkscape:export-ydpi="185.07564" />
</svg>
