<?xml version="1.0" encoding="UTF-8" standalone="no"?>
<svg
   version="1.1"
   viewBox="0 0 804.30939 167.27332"
   id="svg15034"
   sodipodi:docname="linked-list.svg"
   width="804.30939"
   height="167.27332"
   inkscape:version="1.1.2 (0a00cf5339, 2022-02-04)"
   xmlns:inkscape="http://www.inkscape.org/namespaces/inkscape"
   xmlns:sodipodi="http://sodipodi.sourceforge.net/DTD/sodipodi-0.dtd"
   xmlns="http://www.w3.org/2000/svg"
   xmlns:svg="http://www.w3.org/2000/svg">
  <defs
     id="defs15038" />
  <sodipodi:namedview
     id="namedview15036"
     pagecolor="#ffffff"
     bordercolor="#666666"
     borderopacity="1.0"
     inkscape:pageshadow="2"
     inkscape:pageopacity="0.0"
     inkscape:pagecheckerboard="0"
     showgrid="false"
     fit-margin-top="0"
     fit-margin-left="0"
     fit-margin-right="0"
     fit-margin-bottom="0"
     inkscape:zoom="0.66340621"
     inkscape:cx="269.06591"
     inkscape:cy="45.221162"
     inkscape:window-width="1362"
     inkscape:window-height="729"
     inkscape:window-x="1920"
     inkscape:window-y="18"
     inkscape:window-maximized="1"
     inkscape:current-layer="svg15034" />
  <g
     stroke-width="2"
     fill="none"
     stroke-linecap="butt"
     id="g14898"
     transform="translate(-33.818651,-37.868903)">
    <path
       stroke="#ff8080"
       vector-effect="non-scaling-stroke"
       d="m 74.5,111.04 -3.71,7.71 a 0.45,0.4 -68.8 0 0 0.23,0.61 q 1.06,0.3 2.64,0.02 a 0.94,0.94 -4.6 0 1 1.1,0.93 q -0.22,29.32 -0.88,57.69 -0.04,1.99 0.98,1.32 a 1.09,0.85 77.2 0 0 0.39,-0.82 l 0.76,-57.96 a 0.95,0.95 4.5 0 1 1.09,-0.93 q 3.85,0.59 2.46,-1.67 -1.03,-1.68 -3.27,-6.94"
       id="path14696" />
    <path
       stroke="#9eb7cc"
       vector-effect="non-scaling-stroke"
       d="m 76.29,111 4.46,-0.29"
       id="path14698" />
    <path
       stroke="#84a4c0"
       vector-effect="non-scaling-stroke"
       d="m 80.75,110.71 34.75,0.18"
       id="path14700" />
    <path
       stroke="#9eb7cc"
       vector-effect="non-scaling-stroke"
       d="m 115.5,110.89 q 53.69,0.3 68,0.11 8.28,-0.11 11.75,-6.44 1.49,-2.74 1.62,-7.91 0.25,-9.79 0.05,-19.64"
       id="path14702" />
    <path
       stroke="#ff8080"
       vector-effect="non-scaling-stroke"
       d="m 196.92,77.01 q 35.36,-0.49 70.53,-0.76 0.06,0 1.1,-0.1 2.05,-0.21 1.31,2.94 -0.42,1.82 1.29,0.98 l 7.81,-3.82"
       id="path14704" />
    <path
       stroke="#9eb7cc"
       vector-effect="non-scaling-stroke"
       d="m 278.96,76.25 q 0.13,15.32 0.04,18.75 -0.34,12.39 8.73,15.2 2.58,0.8 15.13,0.8 62.19,-0.03 124.39,0 8.64,0 12.14,-6.73 1.35,-2.6 1.42,-7.29 0.14,-9.96 0.1,-19.96"
       id="path14706" />
    <path
       stroke="#ff8080"
       vector-effect="non-scaling-stroke"
       d="m 440.91,77.02 72.03,-0.71 a 0.51,0.51 89.4 0 1 0.51,0.5 l 0.1,3.13 a 0.33,0.32 76.7 0 0 0.46,0.29 L 522,76.46"
       id="path14708" />
    <path
       stroke="#9eb7cc"
       vector-effect="non-scaling-stroke"
       d="m 522,76.46 q 0.01,9.39 -0.12,18.79 -0.15,12.07 8.69,14.9 2.64,0.85 14.94,0.86 29.62,0.01 59.24,-0.05"
       id="path14710" />
    <path
       stroke="#9eb7cc"
       vector-effect="non-scaling-stroke"
       d="m 604.75,110.96 q 33,0.07 66,0.04 8.09,-0.01 11.52,-6.43 1.47,-2.75 1.6,-7.93 0.25,-9.8 0.13,-19.6"
       id="path14712" />
    <path
       stroke="#ff8080"
       vector-effect="non-scaling-stroke"
       d="m 684,77.04 74.94,-0.73 a 0.55,0.48 86.7 0 1 0.48,0.49 l 0.28,3.15 a 0.39,0.37 -16.8 0 0 0.56,0.28 l 8.35,-4.37 q 0.78,-0.4 -0.02,-0.78 l -8.57,-4.06 a 0.3,0.29 -79.4 0 0 -0.41,0.29 q 0.11,1.69 -0.43,3.22 a 0.74,0.71 8.4 0 1 -0.68,0.48 l -74.71,0.74"
       id="path14714" />
    <path
       stroke="#9eb7cc"
       vector-effect="non-scaling-stroke"
       d="m 683.79,75.75 q -0.15,-11.13 0.23,-22.25 0.31,-8.96 -6.62,-12.75 -2.46,-1.34 -6.05,-1.58 Q 668.68,38.99 665,39 626.17,39.12 618.75,39.08 580.88,38.86 543,38.99 q -0.12,0 -4.99,-0.11 -4.97,-0.11 -7.45,0.93 -8.49,3.55 -8.52,12.94 Q 522,63.65 522,74.54"
       id="path14716" />
    <path
       stroke="#ff8080"
       vector-effect="non-scaling-stroke"
       d="m 522,74.54 -7.98,-3.51 a 0.29,0.29 10.1 0 0 -0.41,0.28 q 0.11,1.69 -0.43,3.22 a 0.73,0.71 8.6 0 1 -0.67,0.48 l -71.76,0.7"
       id="path14718" />
    <path
       stroke="#9eb7cc"
       vector-effect="non-scaling-stroke"
       d="m 440.75,75.71 q 0.09,-11.54 0.02,-23.08 -0.02,-4.06 -1.29,-6.53 -2.69,-5.24 -8.09,-6.65 -1.78,-0.47 -12.33,-0.43 Q 330.91,39.34 294,39 q -9.97,-0.09 -13.62,7.46 -1.14,2.37 -1.34,6.28 -0.2,3.82 -0.04,6.51 0.53,8.89 0,15.54"
       id="path14720" />
    <path
       stroke="#ff8080"
       vector-effect="non-scaling-stroke"
       d="m 279,74.79 -7.88,-3.72 a 1.01,0.53 30.9 0 0 -0.88,-0.05 q -0.57,0.43 -0.28,1.49 0.33,1.17 -0.18,2.08 A 0.96,0.8 11.5 0 1 269,75.01 l -72.25,0.7"
       id="path14722" />
    <path
       stroke="#84a4c0"
       vector-effect="non-scaling-stroke"
       d="M 196.75,75.71 196.71,57.5"
       id="path14724" />
    <path
       stroke="#9eb7cc"
       vector-effect="non-scaling-stroke"
       d="M 196.71,57.5 Q 199.2,38.79 180.5,39 154.89,39.29 58.21,39.02 47.64,38.99 45.82,39.33 37.88,40.8 35.74,48.06 35.02,50.52 34.99,64.01 34.96,79.63 34.82,95.25 34.67,111.37 51,111 q 3.59,-0.08 23.5,0.04"
       id="path14726" />
    <path
       stroke="#235b8d"
       vector-effect="non-scaling-stroke"
       d="m 196.71,57.5 -1.79,0.58"
       id="path14728" />
    <path
       stroke="#8eadc8"
       vector-effect="non-scaling-stroke"
       d="m 194.92,58.08 q 2.31,-11.63 -6.22,-15.72 -2.82,-1.35 -8.13,-1.39 -32.18,-0.24 -64.36,-0.22"
       id="path14730" />
    <path
       stroke="#8eadc8"
       vector-effect="non-scaling-stroke"
       d="m 116.21,40.75 q -32.59,0.13 -65.17,0.24 -5.31,0.01 -7.88,1.21 -4.28,2 -5.6,6.39 -0.55,1.83 -0.59,10.88 -0.1,18.85 0.22,37.68 0.07,4.11 1.39,6.42 3.62,6.33 12.17,5.43 4.68,-0.49 30.25,0.29"
       id="path14732" />
    <path
       stroke="#235b8d"
       vector-effect="non-scaling-stroke"
       d="m 81,109.29 q -0.28,0.7 -0.25,1.42"
       id="path14734" />
    <path
       stroke="#9e384d"
       vector-effect="non-scaling-stroke"
       d="m 76.29,111 q -0.69,-1.68 -1.79,0.04"
       id="path14736" />
    <path
       stroke="#739abc"
       vector-effect="non-scaling-stroke"
       d="m 194.92,58.08 q 1.04,8.85 0.08,17.88"
       id="path14738" />
    <path
       stroke="#ef767c"
       vector-effect="non-scaling-stroke"
       d="m 195,75.96 -14,0.2 a 0.53,0.39 4.7 0 0 -0.47,0.29 q -0.05,0.19 0.08,0.33 0.14,0.16 0.46,0.16 7.09,0.08 14.18,0.1"
       id="path14740" />
    <path
       stroke="#8eadc8"
       vector-effect="non-scaling-stroke"
       d="M 195.25,77.04 Q 194.83,92.1 195,95.5 q 0.44,8.6 -5.73,12.12 -1.97,1.12 -4.89,1.28 -2.18,0.12 -5.13,0.1 -15.99,-0.1 -58.83,0.06 -0.09,0 -2.17,0.27 -1.15,0.15 -2.25,-0.33"
       id="path14742" />
    <path
       stroke="#86b8df"
       vector-effect="non-scaling-stroke"
       d="m 116,109 q 0.75,-0.08 0.75,-1.25 0,-33 0,-66 0,-0.8 -0.46,-0.75"
       id="path14744" />
    <path
       stroke="#deebf7"
       vector-effect="non-scaling-stroke"
       d="m 116.29,41 -0.08,-0.25"
       id="path14746" />
    <path
       stroke="#86b8df"
       vector-effect="non-scaling-stroke"
       d="M 116.29,41 116,109"
       id="path14748" />
    <path
       stroke="#8eadc8"
       vector-effect="non-scaling-stroke"
       d="m 116,109 q -0.35,0.23 -0.75,0.29"
       id="path14750" />
    <path
       stroke="#739abc"
       vector-effect="non-scaling-stroke"
       d="M 115.25,109.29 H 81"
       id="path14752" />
    <path
       stroke="#842541"
       vector-effect="non-scaling-stroke"
       d="m 196.75,75.71 q -0.83,0.4 -1.75,0.25"
       id="path14754" />
    <path
       stroke="#235b8d"
       vector-effect="non-scaling-stroke"
       d="m 115.5,110.89 q 0.23,-1.03 -0.25,-1.6"
       id="path14756" />
    <path
       stroke="#9e384d"
       vector-effect="non-scaling-stroke"
       d="m 196.92,77.01 -1.67,0.03"
       id="path14758" />
    <path
       stroke="#9e384d"
       vector-effect="non-scaling-stroke"
       d="m 440.75,75.71 q -0.83,0.4 -1.75,0.25"
       id="path14760" />
    <path
       stroke="#8eadc8"
       vector-effect="non-scaling-stroke"
       d="m 439,75.96 q 0.4,-7.77 0,-22.96 -0.2,-7.59 -5.48,-10.5 -2.71,-1.49 -9.31,-1.53 -32,-0.16 -64,-0.22"
       id="path14762" />
    <path
       stroke="#8eadc8"
       vector-effect="non-scaling-stroke"
       d="m 360.21,40.75 q -32.66,0.14 -65.32,0.24 -4.68,0.01 -6.69,0.71 -3.56,1.24 -5.49,4.39 -1.44,2.35 -1.56,7.14 -0.5,18.89 -0.23,37.79 0.12,8.16 0.26,8.95 0.95,5.26 5.58,7.65 2.68,1.38 8.21,1.38 21.02,0.02 42.03,0.22 11.5,0.11 23,-0.22"
       id="path14764" />
    <path
       stroke="#8eadc8"
       vector-effect="non-scaling-stroke"
       d="m 360,109 q 0.32,0.69 0.73,0.42 a 1.45,0.43 -39.8 0 1 0.84,-0.36 q 30.06,-0.1 60.12,-0.07 7.37,0.01 8.59,-0.22 5,-0.98 7.33,-5.41 1.38,-2.61 1.43,-7.98 0.08,-9.17 0.21,-18.34"
       id="path14766" />
    <path
       stroke="#9e384d"
       vector-effect="non-scaling-stroke"
       d="m 439.25,77.04 1.66,-0.02"
       id="path14768" />
    <path
       stroke="#9e384d"
       vector-effect="non-scaling-stroke"
       d="m 278.96,76.25 q 0.96,-0.73 0.04,-1.46"
       id="path14770" />
    <path
       stroke="#86b8df"
       vector-effect="non-scaling-stroke"
       d="M 360.29,41 360,109"
       id="path14772" />
    <path
       stroke="#ef767c"
       vector-effect="non-scaling-stroke"
       d="m 439,75.96 q -9.71,-0.39 -13.75,0.04 -1.48,0.16 -0.47,0.78 0.26,0.16 0.6,0.16 6.94,0.08 13.87,0.1"
       id="path14774" />
    <path
       stroke="#86b8df"
       vector-effect="non-scaling-stroke"
       d="m 360,109 q 1.06,-0.45 1,-2.5 -0.49,-17.58 -0.25,-63.5 0.01,-1.52 -0.46,-2"
       id="path14776" />
    <path
       stroke="#deebf7"
       vector-effect="non-scaling-stroke"
       d="m 360.29,41 -0.08,-0.25"
       id="path14778" />
    <path
       stroke="#9e384d"
       vector-effect="non-scaling-stroke"
       d="m 683.79,75.75 q -0.9,0.6 -1.79,0.04"
       id="path14780" />
    <path
       stroke="#8eadc8"
       vector-effect="non-scaling-stroke"
       d="m 682,75.79 q 0.26,-9.12 0.1,-18.24 -0.13,-6.81 -0.4,-8.08 -0.99,-4.57 -5.03,-6.89 -2.31,-1.32 -6.6,-1.38 Q 637.04,40.75 604,40.79"
       id="path14782" />
    <path
       stroke="#357ab0"
       vector-effect="non-scaling-stroke"
       d="m 604,40.79 q -0.38,-0.09 -0.75,0"
       id="path14784" />
    <path
       stroke="#8eadc8"
       vector-effect="non-scaling-stroke"
       d="M 603.25,40.79 Q 548.92,41.39 537,41 q -8.03,-0.26 -11.4,5.44 -1.34,2.26 -1.41,6.4 -0.32,19.96 -0.22,39.91 0.03,7.88 1.56,10.74 2.94,5.51 10.97,5.51 33.23,0 66.46,0"
       id="path14786" />
    <path
       stroke="#357ab0"
       vector-effect="non-scaling-stroke"
       d="m 602.96,109 q 0.23,0.58 0.79,0.46"
       id="path14788" />
    <path
       stroke="#3d6e99"
       vector-effect="non-scaling-stroke"
       d="m 603.75,109.46 1,1.5"
       id="path14790" />
    <path
       stroke="#9e384d"
       vector-effect="non-scaling-stroke"
       d="m 522,76.46 q 1.38,-0.92 0,-1.92"
       id="path14792" />
    <path
       stroke="#86b8df"
       vector-effect="non-scaling-stroke"
       d="m 604,40.79 v 68.25"
       id="path14794" />
    <path
       stroke="#357ab0"
       vector-effect="non-scaling-stroke"
       d="m 604,109.04 -0.25,0.42"
       id="path14796" />
    <path
       stroke="#86b8df"
       vector-effect="non-scaling-stroke"
       d="M 603.25,40.79 602.96,109"
       id="path14798" />
    <path
       stroke="#9e384d"
       vector-effect="non-scaling-stroke"
       d="m 684,77.04 h -1.75"
       id="path14800" />
    <path
       stroke="#ef767c"
       vector-effect="non-scaling-stroke"
       d="m 682,75.79 q -4.75,0.1 -9.49,0.2 -0.33,0.01 -1,-0.06 -1.2,-0.13 -0.94,0.57 a 0.81,0.66 -8 0 0 0.73,0.44 l 10.95,0.1"
       id="path14802" />
    <path
       stroke="#8eadc8"
       vector-effect="non-scaling-stroke"
       d="m 682.25,77.04 q -0.35,9.07 -0.29,18.15 0.03,4.84 -0.79,7.03 -1.45,3.84 -4.97,5.53 -2.58,1.25 -9.59,1.25 -31.31,-0.03 -62.61,0.04"
       id="path14804" />
    <path
       stroke="#808080"
       vector-effect="non-scaling-stroke"
       d="m 791.71,81.4 q -1.84,-5.12 -4.45,-9.9 -0.04,-0.07 -0.76,-1.69 -1.24,-2.8 -4.73,-1.65 a 1.13,1.13 -10.7 0 0 -0.78,1.14 q 0.38,6.72 0.27,13.28 0,0.09 -0.2,1.31 -0.26,1.48 2.21,1.01 A 0.9,0.9 -5.5 0 0 784,84.02 V 71.74 q 0,-0.49 0.23,-0.05 2.37,4.59 4.76,9.17 1.62,3.12 1.64,3.14 1.36,1.69 3.93,0.81 a 1.01,1.01 80.8 0 0 0.69,-0.96 V 68.73 a 0.64,0.63 6.2 0 0 -0.5,-0.62 q -2.71,-0.59 -2.58,1.35 0.07,1.03 0.07,1.09 -0.1,5.49 0.19,10.97 a 0.22,0.17 85.5 0 1 -0.15,0.22 l -0.16,0.02 a 0.52,0.33 74.2 0 1 -0.41,-0.36"
       id="path14806" />
    <path
       stroke="#808080"
       vector-effect="non-scaling-stroke"
       d="m 799.13,71.43 q -0.07,1.53 0.01,3.05 0.06,1.13 0.01,3.04 -0.23,8.66 9.06,7.03 4.21,-0.74 4.79,-4.55 0.45,-2.92 0.27,-9.13 0,-0.08 0.07,-1.23 0.15,-2.2 -3.13,-1.46 a 0.67,0.62 84.5 0 0 -0.48,0.63 l -0.19,10.94 a 1.43,1.29 -25.7 0 1 -0.36,0.88 q -1.62,1.82 -3.84,1.36 -1.72,-0.36 -2.33,-1.96 -0.51,-1.34 -0.51,-3.28 0,-4 0,-8.05 a 0.66,0.66 6.7 0 0 -0.51,-0.64 q -3.18,-0.77 -3,1.41 0.15,1.8 0.14,1.96"
       id="path14808" />
    <path
       stroke="#808080"
       vector-effect="non-scaling-stroke"
       d="m 820.09,80.25 0.13,-11.38 a 0.7,0.66 6.8 0 0 -0.56,-0.67 q -3.16,-0.69 -2.98,1.37 0.07,0.78 0.07,0.87 0,6.67 0,13.69 a 0.82,0.76 89.3 0 0 0.78,0.82 l 7.97,-0.14 a 0.68,0.65 -83.7 0 0 0.63,-0.53 q 0.64,-3 -3.83,-2.09 -2.23,0.46 -2.21,-1.94"
       id="path14810" />
    <path
       stroke="#808080"
       vector-effect="non-scaling-stroke"
       d="m 831.12,79.89 0.1,-11.02 a 0.7,0.66 6.8 0 0 -0.56,-0.67 q -3.16,-0.69 -2.98,1.37 0.07,0.78 0.07,0.87 0,6.67 0,13.65 a 0.91,0.89 89.7 0 0 0.9,0.91 l 7.29,-0.05 a 0.97,0.9 15.6 0 0 0.79,-0.41 q 1.67,-2.52 -3.67,-2.55 -1.96,-0.02 -1.94,-2.1"
       id="path14812" />
    <path
       stroke="#808080"
       vector-effect="non-scaling-stroke"
       d="m 54.19,193.97 -5.27,-0.1 a 0.62,0.55 87 0 1 -0.54,-0.55 q -0.45,-3.83 -0.13,-4.82 0.62,-1.91 -2.57,-1.29 A 0.84,0.82 -5.5 0 0 45,188.02 l 0.06,15.17 a 0.73,0.66 -81.8 0 0 0.46,0.68 q 1.23,0.41 2.46,0 a 0.72,0.6 81.8 0 0 0.41,-0.67 l -0.12,-5.38 a 0.74,0.74 89.6 0 1 0.75,-0.76 l 5.05,0.06 a 0.59,0.55 89.4 0 1 0.54,0.57 l 0.16,5.56 a 0.72,0.62 -83.6 0 0 0.45,0.66 q 1.26,0.35 2.5,-0.05 a 0.73,0.69 82.2 0 0 0.48,-0.67 q 0.09,-5.91 0.06,-11.83 0,-0.09 0.15,-2.2 0.23,-3.16 -3.19,-2.07 a 0.7,0.65 82.2 0 0 -0.46,0.66 l -0.06,5.68 a 0.54,0.5 -89.5 0 1 -0.51,0.54"
       id="path14814" />
    <path
       stroke="#808080"
       vector-effect="non-scaling-stroke"
       d="m 65.44,200.46 q -0.45,-1.88 -0.1,-3.79 a 0.65,0.62 -85.9 0 1 0.59,-0.54 l 4.33,-0.15 a 0.75,0.64 6.4 0 0 0.66,-0.45 q 1.14,-3.35 -2.68,-2.55 -4.01,0.83 -2.86,-2.46 a 0.78,0.73 8.3 0 1 0.69,-0.48 q 2.05,-0.07 4.1,-0.05 1.05,0.01 1.52,-0.46 0.7,-0.7 0.27,-1.82 a 0.79,0.77 79.8 0 0 -0.71,-0.51 l -8.31,-0.15 A 0.98,0.92 -89.4 0 0 62,188.03 v 15.12 a 0.85,0.85 0 0 0 0.85,0.85 q 3.17,0 6.65,0 0.11,0 0.99,0.08 2,0.17 1.41,-2.55 A 0.7,0.68 -5.8 0 0 71.23,201 l -5.17,-0.04 a 0.65,0.64 -5.7 0 1 -0.62,-0.5"
       id="path14816" />
    <path
       stroke="#808080"
       vector-effect="non-scaling-stroke"
       d="m 84.64,200.52 q 0.51,1.18 0.85,2.41 0.41,1.47 3.13,0.79 a 0.55,0.54 -16.3 0 0 0.39,-0.71 l -5.28,-15.05 a 1.39,1.32 79.6 0 0 -1.26,-0.92 l -2.92,-0.01 a 0.74,0.67 -79.7 0 0 -0.65,0.5 l -5.25,15.74 a 0.52,0.51 -72.6 0 0 0.33,0.65 q 3.05,0.99 3.28,-2.36 a 1.65,1.55 -87.6 0 1 1.56,-1.53 l 5.12,0.01 a 0.8,0.75 77.3 0 1 0.7,0.48"
       id="path14818" />
    <path
       stroke="#808080"
       vector-effect="non-scaling-stroke"
       d="m 101.81,188.44 q -4.17,-2.52 -10.26,-1.23 a 0.64,0.62 84.9 0 0 -0.5,0.61 L 91,202.93 a 1.04,1.02 2.1 0 0 0.96,1.02 q 3.33,0.25 6.76,-0.38 4.76,-0.88 5.91,-4.87 0.75,-2.6 0.35,-5.42 -0.47,-3.21 -3.17,-4.84"
       id="path14820" />
    <path
       stroke="#6f767c"
       vector-effect="non-scaling-stroke"
       d="m 142.25,79.76 -4.84,-11 a 1.26,1.21 -0.1 0 0 -0.68,-0.65 q -1.88,-0.74 -3.11,0.57 a 1.43,1.08 73.1 0 0 -0.32,0.88 q -0.09,5.44 -0.05,10.88 0,0.11 -0.08,1.1 -0.16,1.95 2.33,1.41 A 0.65,0.64 83.9 0 0 136,82.32 V 71.74 q 0,-1.47 0.63,-0.12 l 5.07,10.76 a 1.29,1.17 -0.7 0 0 0.7,0.62 q 1.52,0.54 2.3,-0.25 0.55,-0.56 0.55,-2.16 0,-5.92 0,-11.83 a 0.76,0.66 -82.2 0 0 -0.46,-0.7 q -0.79,-0.25 -1.57,0 a 0.76,0.66 83.3 0 0 -0.47,0.69 l -0.06,11.08 a 0.17,0.12 86.1 0 1 -0.1,0.16 l -0.1,0.01 a 0.34,0.16 69.5 0 1 -0.24,-0.24"
       id="path14822" />
    <path
       stroke="#6f767c"
       vector-effect="non-scaling-stroke"
       d="m 174.3,80.19 -0.05,-5.55 a 0.59,0.57 -3.4 0 1 0.52,-0.57 q 2.58,-0.26 1.94,-1.58 a 0.83,0.65 -13.1 0 0 -0.77,-0.36 q -2.28,0.19 -1.81,-2.15 a 0.64,0.58 -72.9 0 0 -0.33,-0.69 q -2.83,-1.23 -2.55,1.78 a 0.76,0.75 -17.3 0 1 -0.39,0.72 q -2.18,1.23 -0.12,2.31 a 0.83,0.8 14 0 1 0.45,0.72 q 0.05,3.74 0.31,5.43 0.48,3.09 3.75,2.72 1.84,-0.2 1.37,-1.7 a 0.62,0.53 -12.7 0 0 -0.66,-0.35 q -0.61,0.09 -1.17,-0.06 a 0.7,0.66 -83.1 0 1 -0.49,-0.67"
       id="path14824" />
    <path
       stroke="#6f767c"
       vector-effect="non-scaling-stroke"
       d="M 151.56,78.05 157.02,78 A 0.99,0.98 -2.4 0 0 158,76.95 q -0.4,-4.62 -4,-4.91 -2.75,-0.22 -4.71,2.08 -2.72,3.19 -0.05,6.82 1.31,1.77 3.27,2.02 2.13,0.27 4.08,-0.85 0.5,-0.29 0.78,-0.75 1.03,-1.68 -1.52,-0.69 -4.1,1.58 -4.72,-2.11 a 0.44,0.43 -5 0 1 0.43,-0.51"
       id="path14826" />
    <path
       stroke="#6f767c"
       vector-effect="non-scaling-stroke"
       d="m 164.05,75.02 -1.17,-2.25 a 1.25,0.96 79 0 0 -0.68,-0.6 q -4.13,-1.12 -1.28,2.43 1.66,2.07 -0.74,6.84 a 1.37,1.37 25.9 0 0 0.64,1.85 q 1.29,0.61 2.12,-1.85 1.26,-3.78 2.37,-0.25 0.84,2.66 3.42,1.69 a 0.47,0.44 66.6 0 0 0.23,-0.64 l -2.25,-4.54 a 1.03,0.89 49.1 0 1 0,-0.91 l 2.03,-3.68 a 0.77,0.72 -68.7 0 0 -0.44,-1.1 q -2.1,-0.47 -2.67,1.41 -0.3,0.96 -0.96,1.67 a 0.38,0.38 -37.9 0 1 -0.62,-0.07"
       id="path14828" />
    <path
       stroke="#6f767c"
       vector-effect="non-scaling-stroke"
       d="m 379.89,71.27 q 3.78,8.64 4.92,10.67 1.19,2.1 3.46,0.76 a 0.89,0.86 75.3 0 0 0.43,-0.76 V 68.82 a 0.77,0.74 -80.1 0 0 -0.48,-0.71 q -2.15,-0.8 -2.03,1.36 0.06,0.94 0.06,1.06 -0.04,4.59 0.07,9.26 0.03,1.48 -0.55,0.11 L 381.3,69.36 a 2.19,2.13 -9.1 0 0 -1.83,-1.29 q -2.97,-0.22 -2.79,1.75 0.07,0.77 0.07,0.87 0,5.78 0,11.57 a 0.75,0.67 -81.3 0 0 0.45,0.69 q 1.01,0.36 1.89,-0.16 a 1,0.78 78.9 0 0 0.4,-0.79 l 0.17,-10.69 q 0.01,-0.54 0.23,-0.04"
       id="path14830" />
    <path
       stroke="#6f767c"
       vector-effect="non-scaling-stroke"
       d="m 417.8,80.42 q -0.1,-2.7 -0.1,-5.67 0,-1.15 1.32,-0.74 a 0.97,0.97 -79.3 0 0 1.24,-0.85 q 0.13,-1.67 -1.79,-1.31 -1.12,0.2 -0.68,-1.22 a 1.19,1.18 19.1 0 0 -0.71,-1.45 q -2.74,-1.05 -2.34,1.98 a 0.91,0.9 -12.6 0 1 -0.63,0.98 q -2.32,0.72 -0.21,1.7 a 1.69,1.68 16.7 0 1 0.95,1.75 q -0.23,1.7 -0.02,3.73 0.22,2.03 1.16,2.94 1.39,1.34 3.61,0.5 a 1.02,1.01 -2.4 0 0 0.62,-0.67 q 0.56,-2 -1.48,-1.08 a 0.67,0.67 76.9 0 1 -0.94,-0.59"
       id="path14832" />
    <path
       stroke="#6f767c"
       vector-effect="non-scaling-stroke"
       d="M 395.06,78.05 400.52,78 a 0.93,0.91 0 0 0 0.92,-0.9 q 0.04,-3.63 -2.62,-4.68 -2.22,-0.88 -4.57,0.28 -2.55,1.25 -2.7,4.23 -0.13,2.64 1.34,4.35 2.01,2.35 6.17,1.28 2.1,-0.54 1.78,-2.02 a 0.48,0.44 -15.7 0 0 -0.62,-0.31 q -1.11,0.38 -2.25,0.59 -3.2,0.58 -3.4,-2.25 a 0.49,0.49 88.3 0 1 0.49,-0.52"
       id="path14834" />
    <path
       stroke="#6f767c"
       vector-effect="non-scaling-stroke"
       d="m 407.69,79.62 q 1.13,0.98 1.66,2.41 a 1.43,0.96 86 0 0 0.57,0.73 q 1.21,0.65 2.4,0.01 a 0.54,0.49 61.9 0 0 0.18,-0.71 l -2.19,-3.98 a 2.51,2.44 -40.2 0 1 0.27,-2.75 q 2.66,-3.34 0.23,-3.3 a 1.11,0.77 10.2 0 0 -0.85,0.39 l -1.6,2.54 a 0.53,0.37 -57.4 0 1 -0.61,0.25 q -0.6,-0.4 -0.77,-1.21 -0.57,-2.59 -3.37,-1.97 a 0.5,0.5 69.7 0 0 -0.33,0.72 l 2.22,4.08 a 0.95,0.91 45 0 1 0.02,0.87 l -2.27,4.3 q -1.35,2.57 1.5,1 1.92,-1.06 2.46,-3.19 a 0.32,0.29 -64 0 1 0.48,-0.19"
       id="path14836" />
    <path
       stroke="#6f767c"
       vector-effect="non-scaling-stroke"
       d="m 65.31,69.44 q -3.35,-2.02 -8.58,-1.25 a 1.14,1.14 85.9 0 0 -0.98,1.13 v 12.21 a 1.37,1.36 -87.5 0 0 1.24,1.36 q 11.54,1.02 10.68,-9.13 -0.26,-3.06 -2.36,-4.32"
       id="path14838" />
    <path
       stroke="#6f767c"
       vector-effect="non-scaling-stroke"
       d="m 85.81,74.08 q 3.21,0.07 1.54,-1.73 a 1.04,0.82 -20.9 0 0 -0.84,-0.26 q -1.93,0.24 -1.23,-1.66 A 1.05,1.04 -75.4 0 0 84.47,69.04 Q 81.84,68.6 82.29,70.8 A 0.84,0.83 65.4 0 1 82,71.6 q -2.36,1.9 -0.15,2.44 a 0.54,0.53 -82.8 0 1 0.41,0.54 q -0.08,3.18 0.38,5.9 0.47,2.73 3.74,2.49 a 1.36,1.35 8.5 0 0 1.17,-0.86 Q 88.18,80.43 86.49,81 A 0.9,0.86 -9.9 0 1 85.3,80.2 l -0.01,-5.64 a 0.51,0.48 0.6 0 1 0.52,-0.48"
       id="path14840" />
    <path
       stroke="#6f767c"
       vector-effect="non-scaling-stroke"
       d="m 75.98,74.72 q 0.19,0.35 0.22,0.73 a 0.51,0.44 -2.5 0 1 -0.52,0.48 Q 73.17,75.92 72,76.5 q -2.39,1.19 -2.19,3.28 0.18,1.8 1.85,2.75 1.88,1.07 4.14,-0.04 a 0.84,0.76 48.7 0 1 0.83,0.09 q 0.87,0.64 1.86,0.31 a 0.8,0.7 82.7 0 0 0.47,-0.7 q 0.09,-2.72 0.18,-5.44 0.16,-5.04 -6.11,-4.68 a 2.82,2.8 -73.2 0 0 -2.11,1.14 q -1.13,1.54 0.22,1.53 0.37,-0.01 1.05,-0.3 1.47,-0.63 3.02,-0.26 a 1.25,1.07 -5.5 0 1 0.77,0.54"
       id="path14842" />
    <path
       stroke="#6f767c"
       vector-effect="non-scaling-stroke"
       d="m 95.19,75.91 q -2.31,-0.06 -4.38,0.9 -3.01,1.41 -1.12,4.25 2.05,3.08 5.18,1.53 a 1.04,1.01 -47.7 0 1 0.79,-0.05 q 3.06,1.06 2.94,-1.11 -0.07,-1.26 -0.07,-1.38 0.12,-2.89 -0.27,-5.75 a 1.32,1.29 -74.4 0 0 -0.45,-0.82 q -3.32,-2.77 -7.2,-0.55 -0.49,0.28 -0.62,0.69 -0.18,0.58 0.15,1.03 a 0.68,0.55 -31 0 0 0.8,0.11 q 1.73,-0.89 3.31,-0.76 1.44,0.12 1.47,1.44 a 0.51,0.46 0.6 0 1 -0.53,0.47"
       id="path14844" />
    <path
       stroke="#6f767c"
       vector-effect="non-scaling-stroke"
       d="m 299.38,69.72 q -0.25,4.09 -0.15,9.04 0,0.05 -0.12,1.98 -0.15,2.51 2.29,2.41 2.08,-0.09 2.2,-0.09 7.46,0.17 7.43,-7.56 -0.03,-8.49 -10.17,-7.34 a 1.67,1.66 -1.6 0 0 -1.48,1.56"
       id="path14846" />
    <path
       stroke="#6f767c"
       vector-effect="non-scaling-stroke"
       d="m 328.8,80.19 q -0.1,-2.72 -0.1,-5.44 0,-1.15 1.32,-0.74 a 0.97,0.97 -79.3 0 0 1.24,-0.85 q 0.13,-1.67 -1.52,-1.22 a 0.82,0.81 85 0 1 -1.02,-0.86 q 0.23,-2.54 -1.98,-2.13 -1.54,0.29 -0.87,2.14 a 0.59,0.59 66.2 0 1 -0.28,0.73 q -2.71,1.44 -0.13,2.34 a 0.62,0.59 13.9 0 1 0.41,0.64 q -0.33,2.61 0.12,5.2 0.72,4.12 4.61,2.74 a 0.83,0.79 -6.8 0 0 0.55,-0.66 q 0.21,-1.77 -1.85,-1.48 a 0.44,0.43 -4.8 0 1 -0.5,-0.41"
       id="path14848" />
    <path
       stroke="#6f767c"
       vector-effect="non-scaling-stroke"
       d="m 319.64,75.03 q 0.36,1.13 -1.39,0.97 -4.42,-0.4 -4.77,2.97 -0.23,2.21 1.43,3.39 1.83,1.3 4.33,0.17 a 0.95,0.94 -41.4 0 1 0.87,0.05 q 2.76,1.67 2.4,-1.72 -0.15,-1.42 -0.01,-2.84 0.71,-7.35 -6.1,-5.7 -0.09,0.02 -0.94,0.17 -1.5,0.26 -1.47,1.73 a 0.68,0.68 -16 0 0 1.03,0.57 q 2.03,-1.21 3.96,-0.44 a 1.19,1.03 5 0 1 0.66,0.68"
       id="path14850" />
    <path
       stroke="#6f767c"
       vector-effect="non-scaling-stroke"
       d="m 338.97,74.64 q 0.28,0.43 0.2,0.89 a 0.66,0.52 6.2 0 1 -0.67,0.42 q -2.21,-0.18 -3.94,0.88 -1.82,1.1 -1.7,3.15 0.13,2.5 2.89,2.93 0.52,0.08 2.45,-0.28 1.34,-0.25 2.56,0.27 a 0.86,0.8 11.6 0 0 1.19,-0.73 l -0.2,-7.62 a 1.46,1.04 29.5 0 0 -0.4,-0.86 q -3.04,-3.17 -6.97,-0.79 -0.48,0.29 -0.73,0.71 -0.65,1.12 0.48,1.13 0.38,0 1.05,-0.32 1.49,-0.7 3.08,-0.25 0.48,0.14 0.71,0.47"
       id="path14852" />
    <path
       stroke="#6f767c"
       vector-effect="non-scaling-stroke"
       d="m 553.33,80.51 q 1.49,-2.16 1.44,-4.78 Q 554.61,68.35 548,68.09 545.75,68 543.7,68 a 0.93,0.9 -0.3 0 0 -0.93,0.91 l 0.14,13.4 a 0.62,0.6 4 0 0 0.52,0.58 q 1.77,0.26 3.56,0.3 4.41,0.12 6.34,-2.68"
       id="path14854" />
    <path
       stroke="#6f767c"
       vector-effect="non-scaling-stroke"
       d="m 572.31,71.44 -0.16,-1.76 a 0.77,0.7 6 0 0 -0.57,-0.64 q -2.74,-0.73 -2.24,2.04 0.18,0.97 -0.59,0.99 a 1.1,0.56 6.8 0 0 -0.82,0.3 q -0.72,1.03 0.79,1.73 a 1.03,1.02 -75.3 0 1 0.59,1.02 q -0.13,1.36 -0.05,2.47 0.16,2.11 0.19,2.44 0.33,3.39 4.03,2.88 0.68,-0.09 1.03,-0.48 0.57,-0.63 0.08,-1.31 a 0.82,0.63 -22.9 0 0 -0.81,-0.21 q -2.07,0.57 -1.77,-1.94 0.24,-1.97 0.24,-4.33 a 0.6,0.6 -1.5 0 1 0.57,-0.6 q 2.42,-0.13 1.97,-1.4 a 0.86,0.85 -6.6 0 0 -0.71,-0.56 l -1.27,-0.14 a 0.57,0.57 -90 0 1 -0.5,-0.5"
       id="path14856" />
    <path
       stroke="#6f767c"
       vector-effect="non-scaling-stroke"
       d="m 562.98,74.72 q 0.19,0.35 0.22,0.73 a 0.51,0.43 -1.9 0 1 -0.52,0.47 q -2.4,-0.05 -3.68,0.58 -2.39,1.19 -2.19,3.28 0.18,1.84 1.82,2.78 1.78,1.02 4.01,-0.1 a 0.82,0.81 -43.9 0 1 0.77,0.01 q 2.7,1.46 2.57,-1.43 -0.05,-1.14 0.07,-2.28 1.02,-9.3 -7.59,-5.94 a 1.51,1.36 3 0 0 -0.73,0.59 q -1,1.71 1.08,1.15 2.11,-0.56 3.38,-0.36 a 1.13,1.02 -8.9 0 1 0.79,0.52"
       id="path14858" />
    <path
       stroke="#6f767c"
       vector-effect="non-scaling-stroke"
       d="m 582.18,75.94 q -1.94,0.02 -3.12,0.37 -2.57,0.78 -2.71,2.9 -0.13,1.82 1.37,3.04 1.83,1.49 4.35,0.23 a 0.83,0.75 48.8 0 1 0.81,0.09 q 0.97,0.7 2.11,0.31 a 0.79,0.68 83.4 0 0 0.47,-0.7 q 0.11,-1.96 0.26,-3.91 0.65,-7.99 -6.97,-5.77 -1.95,0.57 -1.61,1.96 a 0.45,0.41 -20.3 0 0 0.62,0.25 q 2.29,-1.1 4.24,-0.46 0.81,0.26 0.76,1.2 a 0.59,0.51 0.4 0 1 -0.58,0.49"
       id="path14860" />
    <path
       stroke="#6f767c"
       vector-effect="non-scaling-stroke"
       d="m 628.99,78.92 -4.46,-10.03 a 1.5,1.28 87.3 0 0 -0.65,-0.69 q -1.75,-0.83 -3.19,0.28 a 1.08,0.99 72.8 0 0 -0.39,0.83 v 13.12 a 0.62,0.59 -86.3 0 0 0.51,0.61 q 0.95,0.14 1.76,-0.27 A 0.89,0.78 78.1 0 0 623,82.01 V 71.5 q 0,-1.28 0.56,-0.06 l 5.01,10.81 a 1.28,1.12 -0.9 0 0 0.72,0.61 q 3.25,1.05 3.06,-2.05 -0.1,-1.57 -0.1,-1.63 0,-4.09 0,-8.18 0,-0.13 0.11,-1.49 0.17,-2.28 -2.09,-1.4 a 0.77,0.75 79.3 0 0 -0.47,0.71 l -0.05,9.95 q -0.01,1.84 -0.76,0.15"
       id="path14862" />
    <path
       stroke="#6f767c"
       vector-effect="non-scaling-stroke"
       d="m 661.82,74.03 1.12,-0.06 a 0.86,0.76 7.4 0 0 0.71,-0.48 Q 664.3,71.85 662.28,72 a 0.99,0.99 -84.7 0 1 -1.03,-1.24 q 0.43,-1.66 -0.99,-1.84 -2.4,-0.31 -1.98,2.28 a 0.68,0.68 -17.6 0 1 -0.38,0.73 q -2.27,1.07 -0.35,1.97 a 1.26,1.26 -76.7 0 1 0.72,1.17 q -0.06,2.15 0.1,3.97 0.19,2.18 1,3.1 1.1,1.25 3.12,0.82 0.65,-0.14 0.98,-0.56 0.51,-0.64 0.11,-1.27 a 0.85,0.64 -18.8 0 0 -0.81,-0.26 q -1.71,0.33 -1.6,-1.49 0.07,-1.18 0.07,-1.27 -0.02,-1.77 0.05,-3.54 a 0.56,0.56 -0.6 0 1 0.53,-0.54"
       id="path14864" />
    <path
       stroke="#6f767c"
       vector-effect="non-scaling-stroke"
       d="m 636.2,73.92 q -2.73,4.78 0.62,7.72 1.47,1.29 3.29,1.38 1.97,0.1 3.68,-1.05 0.44,-0.29 0.64,-0.69 0.44,-0.91 -0.4,-1.03 -0.39,-0.05 -0.99,0.27 -2.1,1.11 -4.04,-0.02 -1.23,-0.72 -0.87,-1.97 a 0.72,0.66 7.5 0 1 0.68,-0.48 L 644.26,78 A 0.75,0.73 -1.5 0 0 645,77.24 q -0.28,-6.23 -6.48,-4.99 a 3.44,3.41 -80.6 0 0 -2.32,1.67"
       id="path14866" />
    <path
       stroke="#6f767c"
       vector-effect="non-scaling-stroke"
       d="m 650.96,74.7 q -0.75,-3.13 -3.72,-2.56 a 0.43,0.41 -17.6 0 0 -0.32,0.58 l 2,4.16 a 1.08,0.68 53.7 0 1 0.06,0.88 l -2.27,3.96 a 0.93,0.88 -65.8 0 0 0.46,1.33 q 1.2,0.4 1.99,-0.37 0.36,-0.35 0.81,-1.61 1.23,-3.44 2.48,0 0.45,1.26 0.95,1.66 1.05,0.84 2.43,0.05 a 0.55,0.49 61 0 0 0.16,-0.71 l -2.28,-4.35 a 0.97,0.94 -45.3 0 1 0.01,-0.91 l 2.03,-3.87 a 0.55,0.49 -62 0 0 -0.17,-0.71 q -1.02,-0.58 -1.9,-0.06 -0.41,0.23 -0.95,1.43 -0.39,0.88 -1.22,1.37 a 0.4,0.36 68.4 0 1 -0.55,-0.27"
       id="path14868" />
    <path
       stroke="#6f767c"
       vector-effect="non-scaling-stroke"
       d="m 62.56,70.44 q -1.24,-1.01 -3.28,-0.31 a 0.74,0.72 80.5 0 0 -0.48,0.69 l -0.04,9.48 a 0.68,0.67 1.3 0 0 0.65,0.67 q 4.17,0.15 5.21,-2.89 1.59,-4.68 -2.06,-7.64"
       id="path14870" />
    <path
       stroke="#6f767c"
       vector-effect="non-scaling-stroke"
       d="m 307.81,78.56 q 1.32,-2.78 0.32,-5.53 -0.61,-1.71 -1.96,-2.49 -1.49,-0.87 -3.36,-0.57 a 0.61,0.6 85.6 0 0 -0.51,0.6 v 9.86 a 0.62,0.61 -85 0 0 0.5,0.61 q 3.55,0.62 5.01,-2.48"
       id="path14872" />
    <path
       stroke="#6f767c"
       vector-effect="non-scaling-stroke"
       d="m 551.31,78.81 q 1.03,-1.85 0.66,-4.37 -0.35,-2.36 -1.69,-3.52 -1.51,-1.32 -3.85,-0.85 a 0.64,0.62 -5.6 0 0 -0.52,0.61 l -0.13,9.68 a 0.6,0.56 3.9 0 0 0.53,0.57 q 3.62,0.37 5,-2.12"
       id="path14874" />
    <path
       stroke="#6f767c"
       vector-effect="non-scaling-stroke"
       d="m 76.1998,78.5668 a 1.97,1.4 -24.7 0 0 -2.3748,-0.4487 1.97,1.4 -24.7 0 0 -1.2048,2.0951 1.97,1.4 -24.7 0 0 2.3748,0.4487 1.97,1.4 -24.7 0 0 1.2048,-2.0951"
       id="path14876" />
    <path
       stroke="#6f767c"
       vector-effect="non-scaling-stroke"
       d="m 95.7116,78.5852 a 1.95,1.45 -24.7 0 0 -2.3775,-0.5025 1.95,1.45 -24.7 0 0 -1.1657,2.1321 1.95,1.45 -24.7 0 0 2.3775,0.5025 1.95,1.45 -24.7 0 0 1.1657,-2.1321"
       id="path14878" />
    <path
       stroke="#6f767c"
       vector-effect="non-scaling-stroke"
       d="m 153.04,74.03 q -1.07,0.06 -1.91,1.12 -0.49,0.62 0.29,0.72 4.75,0.59 3.4,-0.98 -0.77,-0.91 -1.78,-0.86"
       id="path14880" />
    <path
       stroke="#6f767c"
       vector-effect="non-scaling-stroke"
       d="m 319.6737,78.5496 a 1.94,1.45 -26 0 0 -2.3793,-0.4529 1.94,1.45 -26 0 0 -1.1081,2.1537 1.94,1.45 -26 0 0 2.3793,0.4529 1.94,1.45 -26 0 0 1.1081,-2.1537"
       id="path14882" />
    <path
       stroke="#6f767c"
       vector-effect="non-scaling-stroke"
       d="m 339.2638,78.6513 a 1.99,1.42 -22.1 0 0 -2.378,-0.567 1.99,1.42 -22.1 0 0 -1.3096,2.0644 1.99,1.42 -22.1 0 0 2.378,0.567 1.99,1.42 -22.1 0 0 1.3096,-2.0644"
       id="path14884" />
    <path
       stroke="#6f767c"
       vector-effect="non-scaling-stroke"
       d="m 394.63,75.28 q -0.5,0.72 0.38,0.72 h 3.05 q 1.73,0 0.43,-1.14 -2.24,-1.97 -3.86,0.42"
       id="path14886" />
    <path
       stroke="#6f767c"
       vector-effect="non-scaling-stroke"
       d="m 563.2377,78.6229 a 1.99,1.43 -23.3 0 0 -2.3933,-0.5263 1.99,1.43 -23.3 0 0 -1.2621,2.1005 1.99,1.43 -23.3 0 0 2.3933,0.5263 1.99,1.43 -23.3 0 0 1.2621,-2.1005"
       id="path14888" />
    <path
       stroke="#6f767c"
       vector-effect="non-scaling-stroke"
       d="m 582.6421,78.4927 a 1.92,1.44 -28.2 0 0 -2.3726,-0.3618 1.92,1.44 -28.2 0 0 -1.0116,2.1764 1.92,1.44 -28.2 0 0 2.3726,0.3618 1.92,1.44 -28.2 0 0 1.0116,-2.1764"
       id="path14890" />
    <path
       stroke="#6f767c"
       vector-effect="non-scaling-stroke"
       d="m 638.38,75.64 q 0.46,0.72 1.64,0.49 0.49,-0.1 0.97,-0.03 0.98,0.16 1.12,-0.34 0.12,-0.45 -0.43,-1.02 -1.6,-1.65 -3.17,0.06 a 0.76,0.63 -41.5 0 0 -0.13,0.84"
       id="path14892" />
    <path
       stroke="#808080"
       vector-effect="non-scaling-stroke"
       d="m 80.69,190.68 -1.71,5.54 a 0.5,0.47 -73.7 0 0 0.32,0.62 q 1.84,0.49 3.67,-0.01 a 0.48,0.44 72.9 0 0 0.29,-0.61 l -1.88,-5.56 q -0.36,-1.06 -0.69,0.02"
       id="path14894" />
    <path
       stroke="#808080"
       vector-effect="non-scaling-stroke"
       d="m 99.29,190.73 q -2.16,-1.26 -4.51,-0.57 a 0.71,0.58 83.7 0 0 -0.43,0.66 v 9.37 a 0.62,0.55 -85.6 0 0 0.46,0.6 q 6.83,1.35 6.86,-5.79 0.01,-2.86 -2.38,-4.27"
       id="path14896" />
  </g>
  <path
     fill="#3d6e99"
     d="m 162.89135,19.631097 -1.79,0.58 q 2.31,-11.63 -6.22,-15.72 -2.82,-1.35 -8.13,-1.39 -32.18,-0.24 -64.360001,-0.22 -32.59,0.13 -65.17,0.24 -5.31,0.01 -7.8800005,1.21 -4.28,2 -5.6,6.39 -0.55,1.83 -0.59,10.88 -0.1,18.85 0.22,37.68 0.07,4.11 1.39,6.42 3.62,6.33 12.1700005,5.43 4.68,-0.49 30.25,0.29 -0.28,0.7 -0.25,1.42 l -4.46,0.29 q -0.69,-1.68 -1.79,0.04 -19.91,-0.12 -23.5,-0.04 -16.33000046,0.37 -16.1800005,-15.75 0.14,-15.62 0.17,-31.24 0.03,-13.49 0.75,-15.95 2.14,-7.26 10.0800005,-8.73 1.82,-0.34 12.39,-0.31 96.680001,0.27 122.290001,-0.02 18.7,-0.20999996 16.21,18.5 z"
     id="path14902" />
  <path
     fill="#3d6e99"
     d="m 406.93135,37.841097 q -0.83,0.4 -1.75,0.25 0.4,-7.77 0,-22.96 -0.2,-7.59 -5.48,-10.5 -2.71,-1.49 -9.31,-1.53 -32,-0.16 -64,-0.22 -32.66,0.14 -65.32,0.24 -4.68,0.01 -6.69,0.71 -3.56,1.24 -5.49,4.39 -1.44,2.35 -1.56,7.14 -0.5,18.89 -0.23,37.79 0.12,8.16 0.26,8.95 0.95,5.26 5.58,7.65 2.68,1.38 8.21,1.38 21.02,0.02 42.03,0.22 11.5,0.11 23,-0.22 0.32,0.69 0.73,0.42 a 0.43,1.45 50.2 0 1 0.84,-0.36 q 30.06,-0.1 60.12,-0.07 7.37,0.01 8.59,-0.22 5,-0.98 7.33,-5.41 1.38,-2.61 1.43,-7.98 0.08,-9.17 0.21,-18.34 l 1.66,-0.02 q 0.04,10 -0.1,19.96 -0.07,4.69 -1.42,7.29 -3.5,6.73 -12.14,6.73 -62.2,-0.03 -124.39,0 -12.55,0 -15.13,-0.8 -9.07,-2.81 -8.73,-15.2 0.09,-3.43 -0.04,-18.75 0.96,-0.73 0.04,-1.46 0.53,-6.65 0,-15.54 -0.16,-2.69 0.04,-6.51 0.2,-3.91 1.34,-6.28 3.65,-7.55 13.62,-7.46 36.91,0.34 125.06,0.02 10.55,-0.04 12.33,0.43 5.4,1.41 8.09,6.65 1.27,2.47 1.29,6.53 0.07,11.54 -0.02,23.08 z"
     id="path14904" />
  <path
     fill="#3d6e99"
     d="m 649.97135,37.881097 q -0.9,0.6 -1.79,0.04 0.26,-9.12 0.1,-18.24 -0.13,-6.81 -0.4,-8.08 -0.99,-4.57 -5.03,-6.89 -2.31,-1.32 -6.6,-1.38 -33.03,-0.45 -66.07,-0.41 -0.38,-0.09 -0.75,0 -54.33,0.6 -66.25,0.21 -8.03,-0.26 -11.4,5.44 -1.34,2.26 -1.41,6.4 -0.32,19.96 -0.22,39.91 0.03,7.88 1.56,10.74 2.94,5.51 10.97,5.51 33.23,0 66.46,0 0.23,0.58 0.79,0.46 l 1,1.5 q -29.62,0.06 -59.24,0.05 -12.3,-0.01 -14.94,-0.86 -8.84,-2.83 -8.69,-14.9 0.13,-9.4 0.12,-18.79 1.38,-0.92 0,-1.92 0,-10.89 0.04,-21.79 0.03,-9.39 8.52,-12.94 2.48,-1.03999996 7.45,-0.93 4.87,0.11 4.99,0.11 37.88,-0.12999996 75.75,0.09 7.42,0.04 46.25,-0.08 3.68,-0.01 6.35,0.17 3.59,0.24 6.05,1.58 6.93,3.79 6.62,12.75 -0.38,11.12 -0.23,22.25 z"
     id="path14906" />
  <path
     fill="#deebf7"
     d="m 161.10135,20.211097 q 1.04,8.85 0.08,17.88 l -14,0.2 a 0.53,0.39 4.7 0 0 -0.47,0.29 q -0.05,0.19 0.08,0.33 0.14,0.16 0.46,0.16 7.09,0.08 14.18,0.1 -0.42,15.06 -0.25,18.46 0.44,8.6 -5.73,12.12 -1.97,1.12 -4.89,1.28 -2.18,0.12 -5.13,0.1 -15.99,-0.1 -58.830001,0.06 -0.09,0 -2.17,0.27 -1.15,0.15 -2.25,-0.33 0.75,-0.08 0.75,-1.25 0,-33 0,-66 0,-0.8 -0.46,-0.75 l -0.08,-0.25 q 32.180001,-0.02 64.360001,0.22 5.31,0.04 8.13,1.39 8.53,4.09 6.22,15.72 z m -52.67,21.68 -4.84,-11 a 1.21,1.26 89.9 0 0 -0.68,-0.65 q -1.88,-0.74 -3.110001,0.57 a 1.43,1.08 73.1 0 0 -0.32,0.88 q -0.09,5.44 -0.05,10.88 0,0.11 -0.08,1.1 -0.16,1.95 2.330001,1.41 a 0.65,0.64 83.9 0 0 0.5,-0.63 v -10.58 q 0,-1.47 0.63,-0.12 l 5.07,10.76 a 1.17,1.29 89.3 0 0 0.7,0.62 q 1.52,0.54 2.3,-0.25 0.55,-0.56 0.55,-2.16 0,-5.92 0,-11.83 a 0.66,0.76 7.8 0 0 -0.46,-0.7 q -0.79,-0.25 -1.57,0 a 0.76,0.66 83.3 0 0 -0.47,0.69 l -0.06,11.08 a 0.17,0.12 86.1 0 1 -0.1,0.16 l -0.1,0.01 a 0.34,0.16 69.5 0 1 -0.24,-0.24 z m 32.05,0.43 -0.05,-5.55 a 0.57,0.59 86.6 0 1 0.52,-0.57 q 2.58,-0.26 1.94,-1.58 a 0.65,0.83 76.9 0 0 -0.77,-0.36 q -2.28,0.19 -1.81,-2.15 a 0.58,0.64 17.1 0 0 -0.33,-0.69 q -2.83,-1.23 -2.55,1.78 a 0.75,0.76 72.7 0 1 -0.39,0.72 q -2.18,1.23 -0.12,2.31 a 0.83,0.8 14 0 1 0.45,0.72 q 0.05,3.74 0.31,5.43 0.48,3.09 3.75,2.72 1.84,-0.2 1.37,-1.7 a 0.53,0.62 77.3 0 0 -0.66,-0.35 q -0.61,0.09 -1.17,-0.06 a 0.66,0.7 6.9 0 1 -0.49,-0.67 z m -22.74,-2.14 5.46,-0.05 a 0.98,0.99 87.6 0 0 0.98,-1.05 q -0.4,-4.62 -4,-4.91 -2.75,-0.22 -4.71,2.08 -2.72,3.19 -0.05,6.82 1.31,1.77 3.27,2.02 2.13,0.27 4.08,-0.85 0.5,-0.29 0.78,-0.75 1.03,-1.68 -1.52,-0.69 -4.1,1.58 -4.72,-2.11 a 0.43,0.44 85 0 1 0.43,-0.51 z m 12.49,-3.03 -1.17,-2.25 a 1.25,0.96 79 0 0 -0.68,-0.6 q -4.13,-1.12 -1.28,2.43 1.66,2.07 -0.74,6.84 a 1.37,1.37 0 0 0 0.64,1.85 q 1.29,0.61 2.12,-1.85 1.26,-3.78 2.37,-0.25 0.84,2.66 3.42,1.69 a 0.47,0.44 66.6 0 0 0.23,-0.64 l -2.25,-4.54 a 1.03,0.89 49.1 0 1 0,-0.91 l 2.03,-3.68 a 0.72,0.77 21.3 0 0 -0.44,-1.1 q -2.1,-0.47 -2.67,1.41 -0.3,0.96 -0.96,1.67 a 0.38,0.38 0 0 1 -0.62,-0.07 z"
     id="path14908" />
  <path
     fill="#deebf7"
     d="m 405.18135,38.091097 q -9.71,-0.39 -13.75,0.04 -1.48,0.16 -0.47,0.78 0.26,0.16 0.6,0.16 6.94,0.08 13.87,0.1 -0.13,9.17 -0.21,18.34 -0.05,5.37 -1.43,7.98 -2.33,4.43 -7.33,5.41 -1.22,0.23 -8.59,0.22 -30.06,-0.03 -60.12,0.07 a 0.43,1.45 50.2 0 0 -0.84,0.36 q -0.41,0.27 -0.73,-0.42 1.06,-0.45 1,-2.5 -0.49,-17.58 -0.25,-63.5 0.01,-1.52 -0.46,-2 l -0.08,-0.25 q 32,0.06 64,0.22 6.6,0.04 9.31,1.53 5.28,2.91 5.48,10.5 0.4,15.19 0,22.96 z m -59.11,-4.69 q 3.78,8.64 4.92,10.67 1.19,2.1 3.46,0.76 a 0.89,0.86 75.3 0 0 0.43,-0.76 v -13.12 a 0.74,0.77 9.9 0 0 -0.48,-0.71 q -2.15,-0.8 -2.03,1.36 0.06,0.94 0.06,1.06 -0.04,4.59 0.07,9.26 0.03,1.48 -0.55,0.11 l -4.47,-10.54 a 2.13,2.19 80.9 0 0 -1.83,-1.29 q -2.97,-0.22 -2.79,1.75 0.07,0.77 0.07,0.87 0,5.78 0,11.57 a 0.67,0.75 8.7 0 0 0.45,0.69 q 1.01,0.36 1.89,-0.16 a 1,0.78 78.9 0 0 0.4,-0.79 l 0.17,-10.69 q 0.01,-0.54 0.23,-0.04 z m 37.91,9.15 q -0.1,-2.7 -0.1,-5.67 0,-1.15 1.32,-0.74 a 0.97,0.97 0 0 0 1.24,-0.85 q 0.13,-1.67 -1.79,-1.31 -1.12,0.2 -0.68,-1.22 a 1.19,1.18 19.1 0 0 -0.71,-1.45 q -2.74,-1.05 -2.34,1.98 a 0.9,0.91 77.4 0 1 -0.63,0.98 q -2.32,0.72 -0.21,1.7 a 1.69,1.68 16.7 0 1 0.95,1.75 q -0.23,1.7 -0.02,3.73 0.22,2.03 1.16,2.94 1.39,1.34 3.61,0.5 a 1.01,1.02 87.6 0 0 0.62,-0.67 q 0.56,-2 -1.48,-1.08 a 0.67,0.67 0 0 1 -0.94,-0.59 z m -22.74,-2.37 5.46,-0.05 a 0.93,0.91 0 0 0 0.92,-0.9 q 0.04,-3.63 -2.62,-4.68 -2.22,-0.88 -4.57,0.28 -2.55,1.25 -2.7,4.23 -0.13,2.64 1.34,4.35 2.01,2.35 6.17,1.28 2.1,-0.54 1.78,-2.02 a 0.44,0.48 74.3 0 0 -0.62,-0.31 q -1.11,0.38 -2.25,0.59 -3.2,0.58 -3.4,-2.25 a 0.49,0.49 0 0 1 0.49,-0.52 z m 12.63,1.57 q 1.13,0.98 1.66,2.41 a 1.43,0.96 86 0 0 0.57,0.73 q 1.21,0.65 2.4,0.01 a 0.54,0.49 61.9 0 0 0.18,-0.71 l -2.19,-3.98 a 2.44,2.51 49.8 0 1 0.27,-2.75 q 2.66,-3.34 0.23,-3.3 a 1.11,0.77 10.2 0 0 -0.85,0.39 l -1.6,2.54 a 0.37,0.53 32.6 0 1 -0.61,0.25 q -0.6,-0.4 -0.77,-1.21 -0.57,-2.59 -3.37,-1.97 a 0.5,0.5 0 0 0 -0.33,0.72 l 2.22,4.08 a 0.95,0.91 45 0 1 0.02,0.87 l -2.27,4.3 q -1.35,2.57 1.5,1 1.92,-1.06 2.46,-3.19 a 0.29,0.32 26 0 1 0.48,-0.19 z"
     id="path14910" />
  <path
     fill="#deebf7"
     d="m 82.391349,2.881097 0.08,0.25 -0.29,68 q -0.35,0.23 -0.75,0.29 h -34.25 q -25.57,-0.78 -30.25,-0.29 -8.5500005,0.9 -12.1700005,-5.43 -1.32,-2.31 -1.39,-6.42 -0.32,-18.83 -0.22,-37.68 0.04,-9.05 0.59,-10.88 1.32,-4.39 5.6,-6.39 2.5700005,-1.2 7.8800005,-1.21 32.58,-0.11 65.17,-0.24 z m -50.9,28.69 q -3.35,-2.02 -8.58,-1.25 a 1.14,1.14 0 0 0 -0.98,1.13 v 12.21 a 1.36,1.37 2.5 0 0 1.24,1.36 q 11.54,1.02 10.68,-9.13 -0.26,-3.06 -2.36,-4.32 z m 20.5,4.64 q 3.21,0.07 1.54,-1.73 a 0.82,1.04 69.1 0 0 -0.84,-0.26 q -1.93,0.24 -1.23,-1.66 a 1.04,1.05 14.6 0 0 -0.81,-1.39 q -2.63,-0.44 -2.18,1.76 a 0.84,0.83 65.4 0 1 -0.29,0.8 q -2.36,1.9 -0.15,2.44 a 0.53,0.54 7.2 0 1 0.41,0.54 q -0.08,3.18 0.38,5.9 0.47,2.73 3.74,2.49 a 1.36,1.35 8.5 0 0 1.17,-0.86 q 0.63,-1.68 -1.06,-1.11 a 0.86,0.9 80.1 0 1 -1.19,-0.8 l -0.01,-5.64 a 0.51,0.48 0.6 0 1 0.52,-0.48 z m -9.83,0.64 q 0.19,0.35 0.22,0.73 a 0.44,0.51 87.5 0 1 -0.52,0.48 q -2.51,-0.01 -3.68,0.57 -2.39,1.19 -2.19,3.28 0.18,1.8 1.85,2.75 1.88,1.07 4.14,-0.04 a 0.84,0.76 48.7 0 1 0.83,0.09 q 0.87,0.64 1.86,0.31 a 0.8,0.7 82.7 0 0 0.47,-0.7 q 0.09,-2.72 0.18,-5.44 0.16,-5.04 -6.11,-4.68 a 2.8,2.82 16.8 0 0 -2.11,1.14 q -1.13,1.54 0.22,1.53 0.37,-0.01 1.05,-0.3 1.47,-0.63 3.02,-0.26 a 1.07,1.25 84.5 0 1 0.77,0.54 z m 19.21,1.19 q -2.31,-0.06 -4.38,0.9 -3.01,1.41 -1.12,4.25 2.05,3.08 5.18,1.53 a 1.01,1.04 42.3 0 1 0.79,-0.05 q 3.06,1.06 2.94,-1.11 -0.07,-1.26 -0.07,-1.38 0.12,-2.89 -0.27,-5.75 a 1.29,1.32 15.6 0 0 -0.45,-0.82 q -3.32,-2.77 -7.2,-0.55 -0.49,0.28 -0.62,0.69 -0.18,0.58 0.15,1.03 a 0.55,0.68 59 0 0 0.8,0.11 q 1.73,-0.89 3.31,-0.76 1.44,0.12 1.47,1.44 a 0.51,0.46 0.6 0 1 -0.53,0.47 z"
     id="path14912" />
  <path
     fill="#deebf7"
     d="m 326.39135,2.881097 0.08,0.25 -0.29,68 q -11.5,0.33 -23,0.22 -21.01,-0.2 -42.03,-0.22 -5.53,0 -8.21,-1.38 -4.63,-2.39 -5.58,-7.65 -0.14,-0.79 -0.26,-8.95 -0.27,-18.9 0.23,-37.79 0.12,-4.79 1.56,-7.14 1.93,-3.15 5.49,-4.39 2.01,-0.7 6.69,-0.71 32.66,-0.1 65.32,-0.24 z m -60.83,28.97 q -0.25,4.09 -0.15,9.04 0,0.05 -0.12,1.98 -0.15,2.51 2.29,2.41 2.08,-0.09 2.2,-0.09 7.46,0.17 7.43,-7.56 -0.03,-8.49 -10.17,-7.34 a 1.66,1.67 88.4 0 0 -1.48,1.56 z m 29.42,10.47 q -0.1,-2.72 -0.1,-5.44 0,-1.15 1.32,-0.74 a 0.97,0.97 0 0 0 1.24,-0.85 q 0.13,-1.67 -1.52,-1.22 a 0.82,0.81 85 0 1 -1.02,-0.86 q 0.23,-2.54 -1.98,-2.13 -1.54,0.29 -0.87,2.14 a 0.59,0.59 0 0 1 -0.28,0.73 q -2.71,1.44 -0.13,2.34 a 0.62,0.59 13.9 0 1 0.41,0.64 q -0.33,2.61 0.12,5.2 0.72,4.12 4.61,2.74 a 0.79,0.83 83.2 0 0 0.55,-0.66 q 0.21,-1.77 -1.85,-1.48 a 0.43,0.44 85.2 0 1 -0.5,-0.41 z m -9.16,-5.16 q 0.36,1.13 -1.39,0.97 -4.42,-0.4 -4.77,2.97 -0.23,2.21 1.43,3.39 1.83,1.3 4.33,0.17 a 0.94,0.95 48.6 0 1 0.87,0.05 q 2.76,1.67 2.4,-1.72 -0.15,-1.42 -0.01,-2.84 0.71,-7.35 -6.1,-5.7 -0.09,0.02 -0.94,0.17 -1.5,0.26 -1.47,1.73 a 0.68,0.68 0 0 0 1.03,0.57 q 2.03,-1.21 3.96,-0.44 a 1.19,1.03 5 0 1 0.66,0.68 z m 19.33,-0.39 q 0.28,0.43 0.2,0.89 a 0.66,0.52 6.2 0 1 -0.67,0.42 q -2.21,-0.18 -3.94,0.88 -1.82,1.1 -1.7,3.15 0.13,2.5 2.89,2.93 0.52,0.08 2.45,-0.28 1.34,-0.25 2.56,0.27 a 0.86,0.8 11.6 0 0 1.19,-0.73 l -0.2,-7.62 a 1.46,1.04 29.5 0 0 -0.4,-0.86 q -3.04,-3.17 -6.97,-0.79 -0.48,0.29 -0.73,0.71 -0.65,1.12 0.48,1.13 0.38,0 1.05,-0.32 1.49,-0.7 3.08,-0.25 0.48,0.14 0.71,0.47 z"
     id="path14914" />
  <path
     fill="#deebf7"
     d="m 569.43135,2.921097 -0.29,68.21 q -33.23,0 -66.46,0 -8.03,0 -10.97,-5.51 -1.53,-2.86 -1.56,-10.74 -0.1,-19.95 0.22,-39.91 0.07,-4.14 1.41,-6.4 3.37,-5.7 11.4,-5.44 11.92,0.39 66.25,-0.21 z m -49.92,39.72 q 1.49,-2.16 1.44,-4.78 -0.16,-7.38 -6.77,-7.64 -2.25,-0.09 -4.3,-0.09 a 0.9,0.93 89.7 0 0 -0.93,0.91 l 0.14,13.4 a 0.62,0.6 4 0 0 0.52,0.58 q 1.77,0.26 3.56,0.3 4.41,0.12 6.34,-2.68 z m 18.98,-9.07 -0.16,-1.76 a 0.77,0.7 6 0 0 -0.57,-0.64 q -2.74,-0.73 -2.24,2.04 0.18,0.97 -0.59,0.99 a 1.1,0.56 6.8 0 0 -0.82,0.3 q -0.72,1.03 0.79,1.73 a 1.02,1.03 14.7 0 1 0.59,1.02 q -0.13,1.36 -0.05,2.47 0.16,2.11 0.19,2.44 0.33,3.39 4.03,2.88 0.68,-0.09 1.03,-0.48 0.57,-0.63 0.08,-1.31 a 0.63,0.82 67.1 0 0 -0.81,-0.21 q -2.07,0.57 -1.77,-1.94 0.24,-1.97 0.24,-4.33 a 0.6,0.6 0 0 1 0.57,-0.6 q 2.42,-0.13 1.97,-1.4 a 0.85,0.86 83.4 0 0 -0.71,-0.56 l -1.27,-0.14 a 0.57,0.57 0 0 1 -0.5,-0.5 z m -9.33,3.28 q 0.19,0.35 0.22,0.73 a 0.43,0.51 88.1 0 1 -0.52,0.47 q -2.4,-0.05 -3.68,0.58 -2.39,1.19 -2.19,3.28 0.18,1.84 1.82,2.78 1.78,1.02 4.01,-0.1 a 0.81,0.82 46.1 0 1 0.77,0.01 q 2.7,1.46 2.57,-1.43 -0.05,-1.14 0.07,-2.28 1.02,-9.3 -7.59,-5.94 a 1.51,1.36 3 0 0 -0.73,0.59 q -1,1.71 1.08,1.15 2.11,-0.56 3.38,-0.36 a 1.02,1.13 81.1 0 1 0.79,0.52 z m 19.2,1.22 q -1.94,0.02 -3.12,0.37 -2.57,0.78 -2.71,2.9 -0.13,1.82 1.37,3.04 1.83,1.49 4.35,0.23 a 0.83,0.75 48.8 0 1 0.81,0.09 q 0.97,0.7 2.11,0.31 a 0.79,0.68 83.4 0 0 0.47,-0.7 q 0.11,-1.96 0.26,-3.91 0.65,-7.99 -6.97,-5.77 -1.95,0.57 -1.61,1.96 a 0.41,0.45 69.7 0 0 0.62,0.25 q 2.29,-1.1 4.24,-0.46 0.81,0.26 0.76,1.2 a 0.59,0.51 0.4 0 1 -0.58,0.49 z"
     id="path14916" />
  <path
     fill="#2d85c7"
     d="m 569.43135,2.921097 q 0.37,-0.09 0.75,0 v 68.25 l -0.25,0.42 q -0.56,0.12 -0.79,-0.46 z"
     id="path14918" />
  <path
     fill="#deebf7"
     d="m 570.18135,2.921097 q 33.04,-0.04 66.07,0.41 4.29,0.06 6.6,1.38 4.04,2.32 5.03,6.89 0.27,1.27 0.4,8.08 0.16,9.12 -0.1,18.24 -4.75,0.1 -9.49,0.2 -0.33,0.01 -1,-0.06 -1.2,-0.13 -0.94,0.57 a 0.66,0.81 82 0 0 0.73,0.44 l 10.95,0.1 q -0.35,9.07 -0.29,18.15 0.03,4.84 -0.79,7.03 -1.45,3.84 -4.97,5.53 -2.58,1.25 -9.59,1.25 -31.31,-0.03 -62.61,0.04 z m 24.99,38.13 -4.46,-10.03 a 1.5,1.28 87.3 0 0 -0.65,-0.69 q -1.75,-0.83 -3.19,0.28 a 1.08,0.99 72.8 0 0 -0.39,0.83 v 13.12 a 0.59,0.62 3.7 0 0 0.51,0.61 q 0.95,0.14 1.76,-0.27 a 0.89,0.78 78.1 0 0 0.43,-0.76 v -10.51 q 0,-1.28 0.56,-0.06 l 5.01,10.81 a 1.12,1.28 89.1 0 0 0.72,0.61 q 3.25,1.05 3.06,-2.05 -0.1,-1.57 -0.1,-1.63 0,-4.09 0,-8.18 0,-0.13 0.11,-1.49 0.17,-2.28 -2.09,-1.4 a 0.77,0.75 79.3 0 0 -0.47,0.71 l -0.05,9.95 q -0.01,1.84 -0.76,0.15 z m 32.83,-4.89 1.12,-0.06 a 0.86,0.76 7.4 0 0 0.71,-0.48 q 0.65,-1.64 -1.37,-1.49 a 0.99,0.99 0 0 1 -1.03,-1.24 q 0.43,-1.66 -0.99,-1.84 -2.4,-0.31 -1.98,2.28 a 0.68,0.68 0 0 1 -0.38,0.73 q -2.27,1.07 -0.35,1.97 a 1.26,1.26 0 0 1 0.72,1.17 q -0.06,2.15 0.1,3.97 0.19,2.18 1,3.1 1.1,1.25 3.12,0.82 0.65,-0.14 0.98,-0.56 0.51,-0.64 0.11,-1.27 a 0.64,0.85 71.2 0 0 -0.81,-0.26 q -1.71,0.33 -1.6,-1.49 0.07,-1.18 0.07,-1.27 -0.02,-1.77 0.05,-3.54 a 0.56,0.56 0 0 1 0.53,-0.54 z m -25.62,-0.11 q -2.73,4.78 0.62,7.72 1.47,1.29 3.29,1.38 1.97,0.1 3.68,-1.05 0.44,-0.29 0.64,-0.69 0.44,-0.91 -0.4,-1.03 -0.39,-0.05 -0.99,0.27 -2.1,1.11 -4.04,-0.02 -1.23,-0.72 -0.87,-1.97 a 0.72,0.66 7.5 0 1 0.68,-0.48 l 5.45,-0.05 a 0.73,0.75 88.5 0 0 0.74,-0.76 q -0.28,-6.23 -6.48,-4.99 a 3.41,3.44 9.4 0 0 -2.32,1.67 z m 14.76,0.78 q -0.75,-3.13 -3.72,-2.56 a 0.41,0.43 72.4 0 0 -0.32,0.58 l 2,4.16 a 1.08,0.68 53.7 0 1 0.06,0.88 l -2.27,3.96 a 0.88,0.93 24.2 0 0 0.46,1.33 q 1.2,0.4 1.99,-0.37 0.36,-0.35 0.81,-1.61 1.23,-3.44 2.48,0 0.45,1.26 0.95,1.66 1.05,0.84 2.43,0.05 a 0.55,0.49 61 0 0 0.16,-0.71 l -2.28,-4.35 a 0.94,0.97 44.7 0 1 0.01,-0.91 l 2.03,-3.87 a 0.49,0.55 28 0 0 -0.17,-0.71 q -1.02,-0.58 -1.9,-0.06 -0.41,0.23 -0.95,1.43 -0.39,0.88 -1.22,1.37 a 0.4,0.36 68.4 0 1 -0.55,-0.27 z"
     id="path14920" />
  <path
     fill="#2d85c7"
     d="m 82.471349,3.131097 q 0.46,-0.05 0.46,0.75 0,33 0,66 0,1.17 -0.75,1.25 z"
     id="path14922" />
  <path
     fill="#2d85c7"
     d="m 326.47135,3.131097 q 0.47,0.48 0.46,2 -0.24,45.92 0.25,63.5 0.06,2.05 -1,2.5 z"
     id="path14924" />
  <path
     fill="#084881"
     d="m 162.89135,19.631097 0.04,18.21 q -0.83,0.4 -1.75,0.25 0.96,-9.03 -0.08,-17.88 z"
     id="path14926" />
  <path
     fill="#000000"
     d="m 31.491349,31.571097 q 2.1,1.26 2.36,4.32 0.86,10.15 -10.68,9.13 a 1.36,1.37 2.5 0 1 -1.24,-1.36 v -12.21 a 1.14,1.14 0 0 1 0.98,-1.13 q 5.23,-0.77 8.58,1.25 z m -2.75,1 q -1.24,-1.01 -3.28,-0.31 a 0.74,0.72 80.5 0 0 -0.48,0.69 l -0.04,9.48 a 0.68,0.67 1.3 0 0 0.65,0.67 q 4.17,0.15 5.21,-2.89 1.59,-4.68 -2.06,-7.64 z"
     id="path14928" />
  <path
     fill="#000000"
     d="m 108.67135,42.131097 0.1,-0.01 a 0.17,0.12 86.1 0 0 0.1,-0.16 l 0.06,-11.08 a 0.76,0.66 83.3 0 1 0.47,-0.69 q 0.78,-0.25 1.57,0 a 0.66,0.76 7.8 0 1 0.46,0.7 q 0,5.91 0,11.83 0,1.6 -0.55,2.16 -0.78,0.79 -2.3,0.25 a 1.17,1.29 89.3 0 1 -0.7,-0.62 l -5.07,-10.76 q -0.63,-1.35 -0.63,0.12 v 10.58 a 0.65,0.64 83.9 0 1 -0.5,0.63 q -2.490001,0.54 -2.330001,-1.41 0.08,-0.99 0.08,-1.1 -0.04,-5.44 0.05,-10.88 a 1.43,1.08 73.1 0 1 0.32,-0.88 q 1.230001,-1.31 3.110001,-0.57 a 1.21,1.26 89.9 0 1 0.68,0.65 l 4.84,11 a 0.34,0.16 69.5 0 0 0.24,0.24 z"
     id="path14930" />
  <path
     fill="#000000"
     d="m 265.56135,31.851097 a 1.66,1.67 88.4 0 1 1.48,-1.56 q 10.14,-1.15 10.17,7.34 0.03,7.73 -7.43,7.56 -0.12,0 -2.2,0.09 -2.44,0.1 -2.29,-2.41 0.12,-1.93 0.12,-1.98 -0.1,-4.95 0.15,-9.04 z m 8.43,8.84 q 1.32,-2.78 0.32,-5.53 -0.61,-1.71 -1.96,-2.49 -1.49,-0.87 -3.36,-0.57 a 0.61,0.6 85.6 0 0 -0.51,0.6 v 9.86 a 0.61,0.62 5 0 0 0.5,0.61 q 3.55,0.62 5.01,-2.48 z"
     id="path14932" />
  <path
     fill="#000000"
     d="m 345.84135,33.441097 -0.17,10.69 a 1,0.78 78.9 0 1 -0.4,0.79 q -0.88,0.52 -1.89,0.16 a 0.67,0.75 8.7 0 1 -0.45,-0.69 q 0,-5.79 0,-11.57 0,-0.1 -0.07,-0.87 -0.18,-1.97 2.79,-1.75 a 2.13,2.19 80.9 0 1 1.83,1.29 l 4.47,10.54 q 0.58,1.37 0.55,-0.11 -0.11,-4.67 -0.07,-9.26 0,-0.12 -0.06,-1.06 -0.12,-2.16 2.03,-1.36 a 0.74,0.77 9.9 0 1 0.48,0.71 v 13.12 a 0.89,0.86 75.3 0 1 -0.43,0.76 q -2.27,1.34 -3.46,-0.76 -1.14,-2.03 -4.92,-10.67 -0.22,-0.5 -0.23,0.04 z"
     id="path14934" />
  <path
     fill="#000000"
     d="m 519.51135,42.641097 q -1.93,2.8 -6.34,2.68 -1.79,-0.04 -3.56,-0.3 a 0.62,0.6 4 0 1 -0.52,-0.58 l -0.14,-13.4 a 0.9,0.93 89.7 0 1 0.93,-0.91 q 2.05,0 4.3,0.09 6.61,0.26 6.77,7.64 0.05,2.62 -1.44,4.78 z m -2.02,-1.7 q 1.03,-1.85 0.66,-4.37 -0.35,-2.36 -1.69,-3.52 -1.51,-1.32 -3.85,-0.85 a 0.62,0.64 84.4 0 0 -0.52,0.61 l -0.13,9.68 a 0.6,0.56 3.9 0 0 0.53,0.57 q 3.62,0.37 5,-2.12 z"
     id="path14936" />
  <path
     fill="#000000"
     d="m 595.17135,41.051097 q 0.75,1.69 0.76,-0.15 l 0.05,-9.95 a 0.77,0.75 79.3 0 1 0.47,-0.71 q 2.26,-0.88 2.09,1.4 -0.11,1.36 -0.11,1.49 0,4.09 0,8.18 0,0.06 0.1,1.63 0.19,3.1 -3.06,2.05 a 1.12,1.28 89.1 0 1 -0.72,-0.61 l -5.01,-10.81 q -0.56,-1.22 -0.56,0.06 v 10.51 a 0.89,0.78 78.1 0 1 -0.43,0.76 q -0.81,0.41 -1.76,0.27 a 0.59,0.62 3.7 0 1 -0.51,-0.61 v -13.12 a 1.08,0.99 72.8 0 1 0.39,-0.83 q 1.44,-1.11 3.19,-0.28 a 1.5,1.28 87.3 0 1 0.65,0.69 z"
     id="path14938" />
  <path
     fill="#000000"
     d="m 758.30135,43.891097 0.16,-0.02 a 0.22,0.17 85.5 0 0 0.15,-0.22 q -0.29,-5.48 -0.19,-10.97 0,-0.06 -0.07,-1.09 -0.13,-1.94 2.58,-1.35 a 0.64,0.63 6.2 0 1 0.5,0.62 v 15.12 a 1.01,1.01 0 0 1 -0.69,0.96 q -2.57,0.88 -3.93,-0.81 -0.02,-0.02 -1.64,-3.14 -2.39,-4.58 -4.76,-9.17 -0.23,-0.44 -0.23,0.05 v 12.28 a 0.9,0.9 0 0 1 -0.73,0.88 q -2.47,0.47 -2.21,-1.01 0.2,-1.22 0.2,-1.31 0.11,-6.56 -0.27,-13.28 a 1.13,1.13 0 0 1 0.78,-1.14 q 3.49,-1.15 4.73,1.65 0.72,1.62 0.76,1.69 2.61,4.78 4.45,9.9 a 0.52,0.33 74.2 0 0 0.41,0.36 z"
     id="path14940" />
  <path
     fill="#000000"
     d="m 765.17135,31.601097 q -0.18,-2.18 3,-1.41 a 0.66,0.66 0 0 1 0.51,0.64 q 0,4.05 0,8.05 0,1.94 0.51,3.28 0.61,1.6 2.33,1.96 2.22,0.46 3.84,-1.36 a 1.29,1.43 64.3 0 0 0.36,-0.88 l 0.19,-10.94 a 0.67,0.62 84.5 0 1 0.48,-0.63 q 3.28,-0.74 3.13,1.46 -0.07,1.15 -0.07,1.23 0.18,6.21 -0.27,9.13 -0.58,3.81 -4.79,4.55 -9.29,1.63 -9.06,-7.03 0.05,-1.91 -0.01,-3.04 -0.08,-1.52 -0.01,-3.05 0.01,-0.16 -0.14,-1.96 z"
     id="path14942" />
  <path
     fill="#000000"
     d="m 786.27135,42.381097 q -0.02,2.4 2.21,1.94 4.47,-0.91 3.83,2.09 a 0.65,0.68 6.3 0 1 -0.63,0.53 l -7.97,0.14 a 0.82,0.76 89.3 0 1 -0.78,-0.82 q 0,-7.02 0,-13.69 0,-0.09 -0.07,-0.87 -0.18,-2.06 2.98,-1.37 a 0.7,0.66 6.8 0 1 0.56,0.67 z"
     id="path14944" />
  <path
     fill="#000000"
     d="m 797.30135,42.021097 q -0.02,2.08 1.94,2.1 5.34,0.03 3.67,2.55 a 0.97,0.9 15.6 0 1 -0.79,0.41 l -7.29,0.05 a 0.91,0.89 89.7 0 1 -0.9,-0.91 q 0,-6.98 0,-13.65 0,-0.09 -0.07,-0.87 -0.18,-2.06 2.98,-1.37 a 0.7,0.66 6.8 0 1 0.56,0.67 z"
     id="path14946" />
  <path
     fill="#000000"
     d="m 51.471349,36.691097 0.01,5.64 a 0.86,0.9 80.1 0 0 1.19,0.8 q 1.69,-0.57 1.06,1.11 a 1.36,1.35 8.5 0 1 -1.17,0.86 q -3.27,0.24 -3.74,-2.49 -0.46,-2.72 -0.38,-5.9 a 0.53,0.54 7.2 0 0 -0.41,-0.54 q -2.21,-0.54 0.15,-2.44 a 0.84,0.83 65.4 0 0 0.29,-0.8 q -0.45,-2.2 2.18,-1.76 a 1.04,1.05 14.6 0 1 0.81,1.39 q -0.7,1.9 1.23,1.66 a 0.82,1.04 69.1 0 1 0.84,0.26 q 1.67,1.8 -1.54,1.73 a 0.51,0.48 0.6 0 0 -0.52,0.48 z"
     id="path14948" />
  <path
     fill="#000000"
     d="m 140.97135,42.991097 q 0.56,0.15 1.17,0.06 a 0.53,0.62 77.3 0 1 0.66,0.35 q 0.47,1.5 -1.37,1.7 -3.27,0.37 -3.75,-2.72 -0.26,-1.69 -0.31,-5.43 a 0.83,0.8 14 0 0 -0.45,-0.72 q -2.06,-1.08 0.12,-2.31 a 0.75,0.76 72.7 0 0 0.39,-0.72 q -0.28,-3.01 2.55,-1.78 a 0.58,0.64 17.1 0 1 0.33,0.69 q -0.47,2.34 1.81,2.15 a 0.65,0.83 76.9 0 1 0.77,0.36 q 0.64,1.32 -1.94,1.58 a 0.57,0.59 86.6 0 0 -0.52,0.57 l 0.05,5.55 a 0.66,0.7 6.9 0 0 0.49,0.67 z"
     id="path14950" />
  <path
     fill="#000000"
     d="m 295.48135,42.731097 q 2.06,-0.29 1.85,1.48 a 0.79,0.83 83.2 0 1 -0.55,0.66 q -3.89,1.38 -4.61,-2.74 -0.45,-2.59 -0.12,-5.2 a 0.62,0.59 13.9 0 0 -0.41,-0.64 q -2.58,-0.9 0.13,-2.34 a 0.59,0.59 0 0 0 0.28,-0.73 q -0.67,-1.85 0.87,-2.14 2.21,-0.41 1.98,2.13 a 0.82,0.81 85 0 0 1.02,0.86 q 1.65,-0.45 1.52,1.22 a 0.97,0.97 0 0 1 -1.24,0.85 q -1.32,-0.41 -1.32,0.74 0,2.72 0.1,5.44 a 0.43,0.44 85.2 0 0 0.5,0.41 z"
     id="path14952" />
  <path
     fill="#000000"
     d="m 383.98135,42.551097 a 0.67,0.67 0 0 0 0.94,0.59 q 2.04,-0.92 1.48,1.08 a 1.01,1.02 87.6 0 1 -0.62,0.67 q -2.22,0.84 -3.61,-0.5 -0.94,-0.91 -1.16,-2.94 -0.21,-2.03 0.02,-3.73 a 1.69,1.68 16.7 0 0 -0.95,-1.75 q -2.11,-0.98 0.21,-1.7 a 0.9,0.91 77.4 0 0 0.63,-0.98 q -0.4,-3.03 2.34,-1.98 a 1.19,1.18 19.1 0 1 0.71,1.45 q -0.44,1.42 0.68,1.22 1.92,-0.36 1.79,1.31 a 0.97,0.97 0 0 1 -1.24,0.85 q -1.32,-0.41 -1.32,0.74 0,2.97 0.1,5.67 z"
     id="path14954" />
  <path
     fill="#000000"
     d="m 538.99135,34.071097 1.27,0.14 a 0.85,0.86 83.4 0 1 0.71,0.56 q 0.45,1.27 -1.97,1.4 a 0.6,0.6 0 0 0 -0.57,0.6 q 0,2.36 -0.24,4.33 -0.3,2.51 1.77,1.94 a 0.63,0.82 67.1 0 1 0.81,0.21 q 0.49,0.68 -0.08,1.31 -0.35,0.39 -1.03,0.48 -3.7,0.51 -4.03,-2.88 -0.03,-0.33 -0.19,-2.44 -0.08,-1.11 0.05,-2.47 a 1.02,1.03 14.7 0 0 -0.59,-1.02 q -1.51,-0.7 -0.79,-1.73 a 1.1,0.56 6.8 0 1 0.82,-0.3 q 0.77,-0.02 0.59,-0.99 -0.5,-2.77 2.24,-2.04 a 0.77,0.7 6 0 1 0.57,0.64 l 0.16,1.76 a 0.57,0.57 0 0 0 0.5,0.5 z"
     id="path14956" />
  <path
     fill="#000000"
     d="m 627.47135,36.701097 q -0.07,1.77 -0.05,3.54 0,0.09 -0.07,1.27 -0.11,1.82 1.6,1.49 a 0.64,0.85 71.2 0 1 0.81,0.26 q 0.4,0.63 -0.11,1.27 -0.33,0.42 -0.98,0.56 -2.02,0.43 -3.12,-0.82 -0.81,-0.92 -1,-3.1 -0.16,-1.82 -0.1,-3.97 a 1.26,1.26 0 0 0 -0.72,-1.17 q -1.92,-0.9 0.35,-1.97 a 0.68,0.68 0 0 0 0.38,-0.73 q -0.42,-2.59 1.98,-2.28 1.42,0.18 0.99,1.84 a 0.99,0.99 0 0 0 1.03,1.24 q 2.02,-0.15 1.37,1.49 a 0.86,0.76 7.4 0 1 -0.71,0.48 l -1.12,0.06 a 0.56,0.56 0 0 0 -0.53,0.54 z"
     id="path14958" />
  <path
     fill="#deebf7"
     d="m 28.741349,32.571097 q 3.65,2.96 2.06,7.64 -1.04,3.04 -5.21,2.89 a 0.68,0.67 1.3 0 1 -0.65,-0.67 l 0.04,-9.48 a 0.74,0.72 80.5 0 1 0.48,-0.69 q 2.04,-0.7 3.28,0.31 z"
     id="path14960" />
  <path
     fill="#deebf7"
     d="m 273.99135,40.691097 q -1.46,3.1 -5.01,2.48 a 0.61,0.62 5 0 1 -0.5,-0.61 v -9.86 a 0.61,0.6 85.6 0 1 0.51,-0.6 q 1.87,-0.3 3.36,0.57 1.35,0.78 1.96,2.49 1,2.75 -0.32,5.53 z"
     id="path14962" />
  <path
     fill="#deebf7"
     d="m 517.49135,40.941097 q -1.38,2.49 -5,2.12 a 0.6,0.56 3.9 0 1 -0.53,-0.57 l 0.13,-9.68 a 0.62,0.64 84.4 0 1 0.52,-0.61 q 2.34,-0.47 3.85,0.85 1.34,1.16 1.69,3.52 0.37,2.52 -0.66,4.37 z"
     id="path14964" />
  <path
     fill="#ff0101"
     d="m 245.18135,36.921097 q 0.92,0.73 -0.04,1.46 l -7.81,3.82 q -1.71,0.84 -1.29,-0.98 0.74,-3.15 -1.31,-2.94 -1.04,0.1 -1.1,0.1 -35.17,0.27 -70.53,0.76 l -1.67,0.03 q -7.09,-0.02 -14.18,-0.1 -0.32,0 -0.46,-0.16 -0.13,-0.14 -0.08,-0.33 a 0.53,0.39 4.7 0 1 0.47,-0.29 l 14,-0.2 q 0.92,0.15 1.75,-0.25 l 72.25,-0.7 a 0.96,0.8 11.5 0 0 0.78,-0.42 q 0.51,-0.91 0.18,-2.08 -0.29,-1.06 0.28,-1.49 a 1.01,0.53 30.9 0 1 0.88,0.05 z"
     id="path14966" />
  <path
     fill="#ff0101"
     d="m 488.18135,36.671097 q 1.38,1 0,1.92 l -7.99,3.77 a 0.33,0.32 76.7 0 1 -0.46,-0.29 l -0.1,-3.13 a 0.51,0.51 0 0 0 -0.51,-0.5 l -72.03,0.71 -1.66,0.02 q -6.93,-0.02 -13.87,-0.1 -0.34,0 -0.6,-0.16 -1.01,-0.62 0.47,-0.78 4.04,-0.43 13.75,-0.04 0.92,0.15 1.75,-0.25 l 71.76,-0.7 a 0.73,0.71 8.6 0 0 0.67,-0.48 q 0.54,-1.53 0.43,-3.22 a 0.29,0.29 0 0 1 0.41,-0.28 z"
     id="path14968" />
  <path
     fill="#ff0101"
     d="m 650.18135,39.171097 h -1.75 l -10.95,-0.1 a 0.66,0.81 82 0 1 -0.73,-0.44 q -0.26,-0.7 0.94,-0.57 0.67,0.07 1,0.06 4.74,-0.1 9.49,-0.2 0.89,0.56 1.79,-0.04 l 74.71,-0.74 a 0.74,0.71 8.4 0 0 0.68,-0.48 q 0.54,-1.53 0.43,-3.22 a 0.29,0.3 10.6 0 1 0.41,-0.29 l 8.57,4.06 q 0.8,0.38 0.02,0.78 l -8.35,4.37 a 0.37,0.39 73.2 0 1 -0.56,-0.28 l -0.28,-3.15 a 0.55,0.48 86.7 0 0 -0.48,-0.49 z"
     id="path14970" />
  <path
     fill="#000000"
     d="m 41.391349,36.311097 q -1.55,-0.37 -3.02,0.26 -0.68,0.29 -1.05,0.3 -1.35,0.01 -0.22,-1.53 a 2.8,2.82 16.8 0 1 2.11,-1.14 q 6.27,-0.36 6.11,4.68 -0.09,2.72 -0.18,5.44 a 0.8,0.7 82.7 0 1 -0.47,0.7 q -0.99,0.33 -1.86,-0.31 a 0.84,0.76 48.7 0 0 -0.83,-0.09 q -2.26,1.11 -4.14,0.04 -1.67,-0.95 -1.85,-2.75 -0.2,-2.09 2.19,-3.28 1.17,-0.58 3.68,-0.57 a 0.44,0.51 87.5 0 0 0.52,-0.48 q -0.03,-0.38 -0.22,-0.73 a 1.07,1.25 84.5 0 0 -0.77,-0.54 z m 0.9898,4.3868 a 1.4,1.97 65.3 0 0 -2.3748,-0.4487 1.4,1.97 65.3 0 0 -1.2048,2.0951 1.4,1.97 65.3 0 0 2.3748,0.4487 1.4,1.97 65.3 0 0 1.2048,-2.0951 z"
     id="path14972" />
  <path
     fill="#000000"
     d="m 61.901349,37.571097 q -0.03,-1.32 -1.47,-1.44 -1.58,-0.13 -3.31,0.76 a 0.55,0.68 59 0 1 -0.8,-0.11 q -0.33,-0.45 -0.15,-1.03 0.13,-0.41 0.62,-0.69 3.88,-2.22 7.2,0.55 a 1.29,1.32 15.6 0 1 0.45,0.82 q 0.39,2.86 0.27,5.75 0,0.12 0.07,1.38 0.12,2.17 -2.94,1.11 a 1.01,1.04 42.3 0 0 -0.79,0.05 q -3.13,1.55 -5.18,-1.53 -1.89,-2.84 1.12,-4.25 2.07,-0.96 4.38,-0.9 a 0.51,0.46 0.6 0 0 0.53,-0.47 z m -0.0084,3.1452 a 1.45,1.95 65.3 0 0 -2.3775,-0.5025 1.45,1.95 65.3 0 0 -1.1657,2.1321 1.45,1.95 65.3 0 0 2.3775,0.5025 1.45,1.95 65.3 0 0 1.1657,-2.1321 z"
     id="path14974" />
  <path
     fill="#000000"
     d="m 117.31135,40.691097 q 0.62,3.69 4.72,2.11 2.55,-0.99 1.52,0.69 -0.28,0.46 -0.78,0.75 -1.95,1.12 -4.08,0.85 -1.96,-0.25 -3.27,-2.02 -2.67,-3.63 0.05,-6.82 1.96,-2.3 4.71,-2.08 3.6,0.29 4,4.91 a 0.98,0.99 87.6 0 1 -0.98,1.05 l -5.46,0.05 a 0.43,0.44 85 0 0 -0.43,0.51 z m 1.91,-4.53 q -1.07,0.06 -1.91,1.12 -0.49,0.62 0.29,0.72 4.75,0.59 3.4,-0.98 -0.77,-0.91 -1.78,-0.86 z"
     id="path14976" />
  <path
     fill="#000000"
     d="m 130.85135,37.221097 q 0.66,-0.71 0.96,-1.67 0.57,-1.88 2.67,-1.41 a 0.72,0.77 21.3 0 1 0.44,1.1 l -2.03,3.68 a 1.03,0.89 49.1 0 0 0,0.91 l 2.25,4.54 a 0.47,0.44 66.6 0 1 -0.23,0.64 q -2.58,0.97 -3.42,-1.69 -1.11,-3.53 -2.37,0.25 -0.83,2.46 -2.12,1.85 a 1.37,1.37 0 0 1 -0.64,-1.85 q 2.4,-4.77 0.74,-6.84 -2.85,-3.55 1.28,-2.43 a 1.25,0.96 79 0 1 0.68,0.6 l 1.17,2.25 a 0.38,0.38 0 0 0 0.62,0.07 z"
     id="path14978" />
  <path
     fill="#000000"
     d="m 285.16135,36.481097 q -1.93,-0.77 -3.96,0.44 a 0.68,0.68 0 0 1 -1.03,-0.57 q -0.03,-1.47 1.47,-1.73 0.85,-0.15 0.94,-0.17 6.81,-1.65 6.1,5.7 -0.14,1.42 0.01,2.84 0.36,3.39 -2.4,1.72 a 0.94,0.95 48.6 0 0 -0.87,-0.05 q -2.5,1.13 -4.33,-0.17 -1.66,-1.18 -1.43,-3.39 0.35,-3.37 4.77,-2.97 1.75,0.16 1.39,-0.97 a 1.19,1.03 5 0 0 -0.66,-0.68 z m 0.6937,4.1996 a 1.45,1.94 64 0 0 -2.3793,-0.4529 1.45,1.94 64 0 0 -1.1081,2.1537 1.45,1.94 64 0 0 2.3793,0.4529 1.45,1.94 64 0 0 1.1081,-2.1537 z"
     id="path14980" />
  <path
     fill="#000000"
     d="m 304.44135,36.301097 q -1.59,-0.45 -3.08,0.25 -0.67,0.32 -1.05,0.32 -1.13,-0.01 -0.48,-1.13 0.25,-0.42 0.73,-0.71 3.93,-2.38 6.97,0.79 a 1.46,1.04 29.5 0 1 0.4,0.86 l 0.2,7.62 a 0.86,0.8 11.6 0 1 -1.19,0.73 q -1.22,-0.52 -2.56,-0.27 -1.93,0.36 -2.45,0.28 -2.76,-0.43 -2.89,-2.93 -0.12,-2.05 1.7,-3.15 1.73,-1.06 3.94,-0.88 a 0.66,0.52 6.2 0 0 0.67,-0.42 q 0.08,-0.46 -0.2,-0.89 -0.23,-0.33 -0.71,-0.47 z m 1.0038,4.4813 a 1.42,1.99 67.9 0 0 -2.378,-0.567 1.42,1.99 67.9 0 0 -1.3096,2.0644 1.42,1.99 67.9 0 0 2.378,0.567 1.42,1.99 67.9 0 0 1.3096,-2.0644 z"
     id="path14982" />
  <path
     fill="#000000"
     d="m 360.75135,40.701097 q 0.2,2.83 3.4,2.25 1.14,-0.21 2.25,-0.59 a 0.44,0.48 74.3 0 1 0.62,0.31 q 0.32,1.48 -1.78,2.02 -4.16,1.07 -6.17,-1.28 -1.47,-1.71 -1.34,-4.35 0.15,-2.98 2.7,-4.23 2.35,-1.16 4.57,-0.28 2.66,1.05 2.62,4.68 a 0.93,0.91 0 0 1 -0.92,0.9 l -5.46,0.05 a 0.49,0.49 0 0 0 -0.49,0.52 z m 0.06,-3.29 q -0.5,0.72 0.38,0.72 h 3.05 q 1.73,0 0.43,-1.14 -2.24,-1.97 -3.86,0.42 z"
     id="path14984" />
  <path
     fill="#000000"
     d="m 373.39135,41.941097 q -0.54,2.13 -2.46,3.19 -2.85,1.57 -1.5,-1 l 2.27,-4.3 a 0.95,0.91 45 0 0 -0.02,-0.87 l -2.22,-4.08 a 0.5,0.5 0 0 1 0.33,-0.72 q 2.8,-0.62 3.37,1.97 0.17,0.81 0.77,1.21 a 0.37,0.53 32.6 0 0 0.61,-0.25 l 1.6,-2.54 a 1.11,0.77 10.2 0 1 0.85,-0.39 q 2.43,-0.04 -0.23,3.3 a 2.44,2.51 49.8 0 0 -0.27,2.75 l 2.19,3.98 a 0.54,0.49 61.9 0 1 -0.18,0.71 q -1.19,0.64 -2.4,-0.01 a 1.43,0.96 86 0 1 -0.57,-0.73 q -0.53,-1.43 -1.66,-2.41 a 0.29,0.32 26 0 0 -0.48,0.19 z"
     id="path14986" />
  <path
     fill="#000000"
     d="m 528.37135,36.331097 q -1.27,-0.2 -3.38,0.36 -2.08,0.56 -1.08,-1.15 a 1.51,1.36 3 0 1 0.73,-0.59 q 8.61,-3.36 7.59,5.94 -0.12,1.14 -0.07,2.28 0.13,2.89 -2.57,1.43 a 0.81,0.82 46.1 0 0 -0.77,-0.01 q -2.23,1.12 -4.01,0.1 -1.64,-0.94 -1.82,-2.78 -0.2,-2.09 2.19,-3.28 1.28,-0.63 3.68,-0.58 a 0.43,0.51 88.1 0 0 0.52,-0.47 q -0.03,-0.38 -0.22,-0.73 a 1.02,1.13 81.1 0 0 -0.79,-0.52 z m 1.0477,4.4229 a 1.43,1.99 66.7 0 0 -2.3933,-0.5263 1.43,1.99 66.7 0 0 -1.2621,2.1005 1.43,1.99 66.7 0 0 2.3933,0.5263 1.43,1.99 66.7 0 0 1.2621,-2.1005 z"
     id="path14988" />
  <path
     fill="#000000"
     d="m 548.94135,37.581097 q 0.05,-0.94 -0.76,-1.2 -1.95,-0.64 -4.24,0.46 a 0.41,0.45 69.7 0 1 -0.62,-0.25 q -0.34,-1.39 1.61,-1.96 7.62,-2.22 6.97,5.77 -0.15,1.95 -0.26,3.91 a 0.79,0.68 83.4 0 1 -0.47,0.7 q -1.14,0.39 -2.11,-0.31 a 0.83,0.75 48.8 0 0 -0.81,-0.09 q -2.52,1.26 -4.35,-0.23 -1.5,-1.22 -1.37,-3.04 0.14,-2.12 2.71,-2.9 1.18,-0.35 3.12,-0.37 a 0.59,0.51 0.4 0 0 0.58,-0.49 z m -0.1179,3.0427 a 1.44,1.92 61.8 0 0 -2.3726,-0.3618 1.44,1.92 61.8 0 0 -1.0116,2.1764 1.44,1.92 61.8 0 0 2.3726,0.3618 1.44,1.92 61.8 0 0 1.0116,-2.1764 z"
     id="path14990" />
  <path
     fill="#000000"
     d="m 602.38135,36.051097 a 3.41,3.44 9.4 0 1 2.32,-1.67 q 6.2,-1.24 6.48,4.99 a 0.73,0.75 88.5 0 1 -0.74,0.76 l -5.45,0.05 a 0.72,0.66 7.5 0 0 -0.68,0.48 q -0.36,1.25 0.87,1.97 1.94,1.13 4.04,0.02 0.6,-0.32 0.99,-0.27 0.84,0.12 0.4,1.03 -0.2,0.4 -0.64,0.69 -1.71,1.15 -3.68,1.05 -1.82,-0.09 -3.29,-1.38 -3.35,-2.94 -0.62,-7.72 z m 2.18,1.72 q 0.46,0.72 1.64,0.49 0.49,-0.1 0.97,-0.03 0.98,0.16 1.12,-0.34 0.12,-0.45 -0.43,-1.02 -1.6,-1.65 -3.17,0.06 a 0.63,0.76 48.5 0 0 -0.13,0.84 z"
     id="path14992" />
  <path
     fill="#000000"
     d="m 617.69135,37.101097 q 0.83,-0.49 1.22,-1.37 0.54,-1.2 0.95,-1.43 0.88,-0.52 1.9,0.06 a 0.49,0.55 28 0 1 0.17,0.71 l -2.03,3.87 a 0.94,0.97 44.7 0 0 -0.01,0.91 l 2.28,4.35 a 0.55,0.49 61 0 1 -0.16,0.71 q -1.38,0.79 -2.43,-0.05 -0.5,-0.4 -0.95,-1.66 -1.25,-3.44 -2.48,0 -0.45,1.26 -0.81,1.61 -0.79,0.77 -1.99,0.37 a 0.88,0.93 24.2 0 1 -0.46,-1.33 l 2.27,-3.96 a 1.08,0.68 53.7 0 0 -0.06,-0.88 l -2,-4.16 a 0.41,0.43 72.4 0 1 0.32,-0.58 q 2.97,-0.57 3.72,2.56 a 0.4,0.36 68.4 0 0 0.55,0.27 z"
     id="path14994" />
  <path
     fill="#deebf7"
     d="m 121.00135,37.021097 q 1.35,1.57 -3.4,0.98 -0.78,-0.1 -0.29,-0.72 0.84,-1.06 1.91,-1.12 1.01,-0.05 1.78,0.86 z"
     id="path14996" />
  <path
     fill="#deebf7"
     d="m 360.81135,37.411097 q 1.62,-2.39 3.86,-0.42 1.3,1.14 -0.43,1.14 h -3.05 q -0.88,0 -0.38,-0.72 z"
     id="path14998" />
  <path
     fill="#deebf7"
     d="m 604.69135,36.931097 q 1.57,-1.71 3.17,-0.06 0.55,0.57 0.43,1.02 -0.14,0.5 -1.12,0.34 -0.48,-0.07 -0.97,0.03 -1.18,0.23 -1.64,-0.49 a 0.63,0.76 48.5 0 1 0.13,-0.84 z"
     id="path15000" />
  <path
     fill="#3d6e99"
     d="m 161.43135,39.171097 1.67,-0.03 q 0.2,9.85 -0.05,19.64 -0.13,5.17 -1.62,7.91 -3.47,6.33 -11.75,6.44 -14.31,0.19 -68.000001,-0.11 0.23,-1.03 -0.25,-1.6 0.4,-0.06 0.75,-0.29 1.1,0.48 2.25,0.33 2.08,-0.27 2.17,-0.27 42.840001,-0.16 58.830001,-0.06 2.95,0.02 5.13,-0.1 2.92,-0.16 4.89,-1.28 6.17,-3.52 5.73,-12.12 -0.17,-3.4 0.25,-18.46 z"
     id="path15002" />
  <path
     fill="#3d6e99"
     d="m 648.43135,39.171097 h 1.75 q 0.12,9.8 -0.13,19.6 -0.13,5.18 -1.6,7.93 -3.43,6.42 -11.52,6.43 -33,0.03 -66,-0.04 l -1,-1.5 0.25,-0.42 q 31.3,-0.07 62.61,-0.04 7.01,0 9.59,-1.25 3.52,-1.69 4.97,-5.53 0.82,-2.19 0.79,-7.03 -0.06,-9.08 0.29,-18.15 z"
     id="path15004" />
  <path
     fill="#deebf7"
     d="m 42.381149,40.697897 a 1.4,1.97 65.3 0 1 -1.2048,2.0951 1.4,1.97 65.3 0 1 -2.3748,-0.4487 1.4,1.97 65.3 0 1 1.2048,-2.0951 1.4,1.97 65.3 0 1 2.3748,0.4487 z"
     id="path15006" />
  <path
     fill="#deebf7"
     d="m 61.892949,40.716297 a 1.45,1.95 65.3 0 1 -1.1657,2.1321 1.45,1.95 65.3 0 1 -2.3775,-0.5025 1.45,1.95 65.3 0 1 1.1657,-2.1321 1.45,1.95 65.3 0 1 2.3775,0.5025 z"
     id="path15008" />
  <path
     fill="#deebf7"
     d="m 285.85505,40.680697 a 1.45,1.94 64 0 1 -1.1081,2.1537 1.45,1.94 64 0 1 -2.3793,-0.4529 1.45,1.94 64 0 1 1.1081,-2.1537 1.45,1.94 64 0 1 2.3793,0.4529 z"
     id="path15010" />
  <path
     fill="#deebf7"
     d="m 305.44515,40.782397 a 1.42,1.99 67.9 0 1 -1.3096,2.0644 1.42,1.99 67.9 0 1 -2.378,-0.567 1.42,1.99 67.9 0 1 1.3096,-2.0644 1.42,1.99 67.9 0 1 2.378,0.567 z"
     id="path15012" />
  <path
     fill="#deebf7"
     d="m 529.41905,40.753997 a 1.43,1.99 66.7 0 1 -1.2621,2.1005 1.43,1.99 66.7 0 1 -2.3933,-0.5263 1.43,1.99 66.7 0 1 1.2621,-2.1005 1.43,1.99 66.7 0 1 2.3933,0.5263 z"
     id="path15014" />
  <path
     fill="#deebf7"
     d="m 548.82345,40.623797 a 1.44,1.92 61.8 0 1 -1.0116,2.1764 1.44,1.92 61.8 0 1 -2.3726,-0.3618 1.44,1.92 61.8 0 1 1.0116,-2.1764 1.44,1.92 61.8 0 1 2.3726,0.3618 z"
     id="path15016" />
  <path
     fill="#084881"
     d="m 47.181349,71.421097 h 34.25 q 0.48,0.57 0.25,1.6 l -34.75,-0.18 q -0.03,-0.72 0.25,-1.42 z"
     id="path15018" />
  <path
     fill="#ff0101"
     d="m 42.471349,73.131097 q 2.24,5.26 3.27,6.94 1.39,2.26 -2.46,1.67 a 0.95,0.95 0 0 0 -1.09,0.93 l -0.76,57.960003 a 1.09,0.85 77.2 0 1 -0.39,0.82 q -1.02,0.67 -0.98,-1.32 0.66,-28.37 0.88,-57.690003 a 0.94,0.94 0 0 0 -1.1,-0.93 q -1.58,0.28 -2.64,-0.02 a 0.4,0.45 21.2 0 1 -0.23,-0.61 l 3.71,-7.71 q 1.1,-1.72 1.79,-0.04 z"
     id="path15020" />
  <path
     fill="#000000"
     d="m 20.881349,155.5611 0.06,-5.68 a 0.7,0.65 82.2 0 1 0.46,-0.66 q 3.42,-1.09 3.19,2.07 -0.15,2.11 -0.15,2.2 0.03,5.92 -0.06,11.83 a 0.73,0.69 82.2 0 1 -0.48,0.67 q -1.24,0.4 -2.5,0.05 a 0.62,0.72 6.4 0 1 -0.45,-0.66 l -0.16,-5.56 a 0.59,0.55 89.4 0 0 -0.54,-0.57 l -5.05,-0.06 a 0.74,0.74 0 0 0 -0.75,0.76 l 0.12,5.38 a 0.72,0.6 81.8 0 1 -0.41,0.67 q -1.23,0.41 -2.46,0 a 0.66,0.73 8.2 0 1 -0.46,-0.68 l -0.06,-15.17 a 0.82,0.84 84.5 0 1 0.68,-0.81 q 3.19,-0.62 2.57,1.29 -0.32,0.99 0.13,4.82 a 0.62,0.55 87 0 0 0.54,0.55 l 5.27,0.1 a 0.5,0.54 0.5 0 0 0.51,-0.54 z"
     id="path15022" />
  <path
     fill="#000000"
     d="m 32.241349,163.0911 5.17,0.04 a 0.68,0.7 84.2 0 1 0.67,0.53 q 0.59,2.72 -1.41,2.55 -0.88,-0.08 -0.99,-0.08 -3.48,0 -6.65,0 a 0.85,0.85 0 0 1 -0.85,-0.85 v -15.12 a 0.92,0.98 0.6 0 1 0.94,-0.98 l 8.31,0.15 a 0.79,0.77 79.8 0 1 0.71,0.51 q 0.43,1.12 -0.27,1.82 -0.47,0.47 -1.52,0.46 -2.05,-0.02 -4.1,0.05 a 0.78,0.73 8.3 0 0 -0.69,0.48 q -1.15,3.29 2.86,2.46 3.82,-0.8 2.68,2.55 a 0.75,0.64 6.4 0 1 -0.66,0.45 l -4.33,0.15 a 0.62,0.65 4.1 0 0 -0.59,0.54 q -0.35,1.91 0.1,3.79 a 0.64,0.65 84.3 0 0 0.62,0.5 z"
     id="path15024" />
  <path
     fill="#000000"
     d="m 50.121349,162.1711 -5.12,-0.01 a 1.55,1.65 2.4 0 0 -1.56,1.53 q -0.23,3.35 -3.28,2.36 a 0.51,0.52 17.4 0 1 -0.33,-0.65 l 5.25,-15.74 a 0.67,0.74 10.3 0 1 0.65,-0.5 l 2.92,0.01 a 1.39,1.32 79.6 0 1 1.26,0.92 l 5.28,15.05 a 0.54,0.55 73.7 0 1 -0.39,0.71 q -2.72,0.68 -3.13,-0.79 -0.34,-1.23 -0.85,-2.41 a 0.8,0.75 77.3 0 0 -0.7,-0.48 z m -3.25,-9.36 -1.71,5.54 a 0.47,0.5 16.3 0 0 0.32,0.62 q 1.84,0.49 3.67,-0.01 a 0.48,0.44 72.9 0 0 0.29,-0.61 l -1.88,-5.56 q -0.36,-1.06 -0.69,0.02 z"
     id="path15026" />
  <path
     fill="#000000"
     d="m 67.991349,150.5711 q 2.7,1.63 3.17,4.84 0.4,2.82 -0.35,5.42 -1.15,3.99 -5.91,4.87 -3.43,0.63 -6.76,0.38 a 1.04,1.02 2.1 0 1 -0.96,-1.02 l 0.05,-15.11 a 0.64,0.62 84.9 0 1 0.5,-0.61 q 6.09,-1.29 10.26,1.23 z m -2.52,2.29 q -2.16,-1.26 -4.51,-0.57 a 0.71,0.58 83.7 0 0 -0.43,0.66 v 9.37 a 0.55,0.62 4.4 0 0 0.46,0.6 q 6.83,1.35 6.86,-5.79 0.01,-2.86 -2.38,-4.27 z"
     id="path15028" />
</svg>
