<?xml version="1.0" encoding="UTF-8" standalone="no"?>
<svg
   version="1.1"
   viewBox="0 0 319.48123 240.06789"
   id="svg7665"
   sodipodi:docname="queue-enqueue.svg"
   inkscape:version="1.1.2 (0a00cf5339, 2022-02-04)"
   width="319.48123"
   height="240.06789"
   xmlns:inkscape="http://www.inkscape.org/namespaces/inkscape"
   xmlns:sodipodi="http://sodipodi.sourceforge.net/DTD/sodipodi-0.dtd"
   xmlns="http://www.w3.org/2000/svg"
   xmlns:svg="http://www.w3.org/2000/svg">
  <defs
     id="defs7669" />
  <sodipodi:namedview
     id="namedview7667"
     pagecolor="#ffffff"
     bordercolor="#666666"
     borderopacity="1.0"
     inkscape:pageshadow="2"
     inkscape:pageopacity="0.0"
     inkscape:pagecheckerboard="0"
     showgrid="false"
     inkscape:zoom="1.3772568"
     inkscape:cx="168.81384"
     inkscape:cy="145.94229"
     inkscape:window-width="1362"
     inkscape:window-height="729"
     inkscape:window-x="1920"
     inkscape:window-y="18"
     inkscape:window-maximized="1"
     inkscape:current-layer="svg7665"
     fit-margin-top="0"
     fit-margin-left="0"
     fit-margin-right="0"
     fit-margin-bottom="0" />
  <g
     stroke-width="2"
     fill="none"
     stroke-linecap="butt"
     id="g7499"
     transform="translate(-97.01,-16.932106)">
    <path
       stroke="#808080"
       vector-effect="non-scaling-stroke"
       d="m 108.31,19.26 q 0.71,-0.13 1.15,-0.61 a 0.36,0.34 28.8 0 0 -0.18,-0.56 q -2.14,-0.62 -2.83,1.2 -0.15,0.4 -0.06,1.45 0.12,1.28 -1.01,1.31 -1.25,0.04 -0.21,0.73 1.25,0.83 0.58,5.22 a 2.41,2.4 27.1 0 0 0.67,2.05 q 0.24,0.23 0.67,-0.01 a 0.95,0.76 79 0 0 0.41,-0.79 v -5.69 a 0.15,0.14 82.1 0 1 0.1,-0.14 q 1.34,-0.4 1.67,-0.78 0.34,-0.38 -0.46,-0.49 -2.04,-0.3 -1.2,-2.38 a 1.02,0.76 0.6 0 1 0.7,-0.51"
       id="path7337" />
    <path
       stroke="#808080"
       vector-effect="non-scaling-stroke"
       d="m 136.21,22.05 q -1.77,0.49 -0.01,1.11 a 0.75,0.69 9.8 0 1 0.5,0.65 q 0.04,1.59 0.08,3.18 0.04,1.58 0.53,2.28 0.89,1.26 2.67,0.61 a 0.54,0.44 -23.9 0 0 0.34,-0.67 q -0.23,-0.43 -0.94,-0.24 a 0.91,0.9 82.8 0 1 -1.13,-0.88 v -4.21 a 0.86,0.86 -1 0 1 0.83,-0.86 q 1.65,-0.07 1.27,-0.66 a 1.03,0.59 -10.9 0 0 -0.85,-0.29 q -1.36,0.1 -1.36,-1.26 a 0.69,0.57 -83.7 0 0 -0.43,-0.66 q -1.26,-0.29 -1.1,1.29 a 0.58,0.55 79.9 0 1 -0.4,0.61"
       id="path7339" />
    <path
       stroke="#808080"
       vector-effect="non-scaling-stroke"
       d="m 112.01,22.42 a 0.5,0.49 -88.9 0 0 -0.51,0.5 q 0,2.7 -0.25,5.81 -0.14,1.79 0.77,1.35 a 1.68,1.67 -17.9 0 0 0.91,-1.77 q -0.81,-4.83 2.51,-5.54 a 0.45,0.34 -20.3 0 0 0.36,-0.56 q -0.26,-0.38 -1.01,-0.1 -0.97,0.35 -2.78,0.31"
       id="path7341" />
    <path
       stroke="#808080"
       vector-effect="non-scaling-stroke"
       d="m 125.18,26.02 a 4.11,4.11 0 0 0 -4.11,-4.11 4.11,4.11 0 0 0 -4.11,4.11 4.11,4.11 0 0 0 4.11,4.11 4.11,4.11 0 0 0 4.11,-4.11"
       id="path7343" />
    <path
       stroke="#808080"
       vector-effect="non-scaling-stroke"
       d="m 131.93,23.51 q 1.02,2.07 0.5,4.47 -0.4,1.81 0.64,1.88 a 0.59,0.51 -85.7 0 0 0.55,-0.54 q 0.1,-1.11 0.13,-3.57 0.05,-4.82 -4.03,-3.42 -0.21,0.07 -0.95,0.04 l -0.84,-0.04 a 0.61,0.46 -89.7 0 0 -0.48,0.62 l 0.1,6.24 a 0.89,0.7 -81.8 0 0 0.44,0.76 q 0.63,0.27 0.67,-0.7 0.08,-2.12 0.09,-4.25 a 1.6,1.18 71 0 1 0.29,-0.92 q 0.82,-1.04 2.15,-1.05 a 0.87,0.8 75.7 0 1 0.74,0.48"
       id="path7345" />
    <path
       stroke="#808080"
       vector-effect="non-scaling-stroke"
       d="m 302.81,25.05 a 1.71,1.69 -11.6 0 1 0.96,-1.44 q 3.33,-1.64 0.82,-1.34 -1.03,0.12 -2.67,-0.1 a 0.45,0.44 2.8 0 0 -0.5,0.45 l 0.09,6.37 a 1.3,0.81 -77.8 0 0 0.32,0.89 q 0.59,0.53 0.69,-0.65 0.18,-2.07 0.29,-4.18"
       id="path7347" />
    <path
       stroke="#808080"
       vector-effect="non-scaling-stroke"
       d="m 306.93,25.95 q -0.07,1.78 1.12,2.99 1.03,1.05 2.54,1.16 1.72,0.13 2.84,-1.02 1.44,-1.47 -0.41,-0.59 -3.82,1.83 -4.62,-1.68 a 0.53,0.53 77.2 0 1 0.39,-0.63 q 1.57,-0.37 3.2,-0.1 2.07,0.36 2.2,-1.27 a 1.43,1.09 34.3 0 0 -0.3,-0.9 q -3,-3.85 -5.79,-0.69 -1.11,1.25 -1.17,2.73"
       id="path7349" />
    <path
       stroke="#808080"
       vector-effect="non-scaling-stroke"
       d="m 320.69,24.87 q -2.63,-0.28 -4.31,1.56 a 1.38,1.34 -24.2 0 0 -0.35,0.88 q -0.04,2.41 2.1,2.68 0.41,0.05 2.2,-0.3 0.96,-0.18 2.26,-0.2 a 0.36,0.35 -7.7 0 0 0.34,-0.44 q -0.32,-1.37 -0.29,-2.8 0.11,-6.17 -5.29,-3.67 -0.37,0.17 -0.61,0.46 -1.16,1.36 1.29,0.27 2.77,-1.24 3.11,1.12 a 0.41,0.38 -1.4 0 1 -0.45,0.44"
       id="path7351" />
    <path
       stroke="#808080"
       vector-effect="non-scaling-stroke"
       d="m 325.44,28.94 q -0.07,1.24 0.8,0.96 a 0.8,0.66 83.1 0 0 0.46,-0.72 l 0.12,-4.33 a 1.1,1.08 -14.5 0 1 0.56,-0.93 q 2.25,-1.27 2.09,-1.7 -0.1,-0.28 -1.45,0.05 -0.93,0.23 -1.96,-0.08 a 0.52,0.52 -83.6 0 0 -0.66,0.53 q 0.19,3.4 0.04,6.22"
       id="path7353" />
    <path
       stroke="#a0b8ce"
       vector-effect="non-scaling-stroke"
       d="m 119.7,59.46 -3.29,0.04 q -0.77,0.01 -0.23,0.55 l 7.89,7.89 a 0.61,0.59 45 0 0 0.85,0.01 l 7.92,-8.02 q 0.36,-0.37 -0.15,-0.38 l -3.38,-0.1 a 0.51,0.51 0.6 0 1 -0.5,-0.51 l -0.05,-21.2 A 0.75,0.74 89.6 0 0 128.02,37 h -6.9 a 0.88,0.87 90 0 0 -0.87,0.88 l -0.06,21.07 a 0.51,0.49 -90 0 1 -0.49,0.51"
       id="path7355" />
    <path
       stroke="#a0b8ce"
       vector-effect="non-scaling-stroke"
       d="m 308.7,59.46 -3.29,0.04 q -0.77,0.01 -0.23,0.55 l 7.89,7.89 a 0.61,0.59 45 0 0 0.85,0.01 l 7.92,-8.02 q 0.38,-0.39 -0.15,-0.39 l -3.06,-0.05 a 0.89,0.85 0.3 0 1 -0.88,-0.85 V 37.87 a 0.83,0.78 89.7 0 0 -0.79,-0.83 l -7.03,0.1 a 0.55,0.51 89.5 0 0 -0.5,0.55 l -0.24,21.24 a 0.54,0.49 -89.4 0 1 -0.49,0.53"
       id="path7357" />
    <path
       stroke="#808080"
       vector-effect="non-scaling-stroke"
       d="M 315,75.58 A 0.58,0.58 0 0 0 314.42,75 H 122.58 A 0.58,0.58 0 0 0 122,75.58 v 39.82 a 0.58,0.58 0 0 0 0.58,0.58 H 314.42 A 0.58,0.58 0 0 0 315,115.4 V 75.58"
       id="path7359" />
    <path
       stroke="#a0b8ce"
       vector-effect="non-scaling-stroke"
       d="m 207.95,195.95 -6.28,0.04 q -1.04,0 -0.31,0.72 l 14.34,14.14 a 0.53,0.52 -45 0 0 0.73,-0.01 l 14.16,-14.06 Q 231.38,196 230.26,196 h -5.88 a 0.88,0.88 0 0 1 -0.88,-0.88 V 137.85 A 0.85,0.85 0 0 0 222.65,137 h -13.28 a 0.88,0.87 90 0 0 -0.87,0.88 l -0.06,57.55 a 0.52,0.49 -90 0 1 -0.49,0.52"
       id="path7361" />
    <path
       stroke="#808080"
       vector-effect="non-scaling-stroke"
       d="m 119.53,159.44 v -2.88 a 0.54,0.52 -1.1 0 1 0.52,-0.52 q 1.85,-0.09 3.7,-0.08 1.97,0 1.4,-1.45 a 0.79,0.73 -9.7 0 0 -0.72,-0.47 l -7.11,0.01 a 0.52,0.49 -0.5 0 0 -0.52,0.5 l 0.11,13.76 a 0.56,0.53 90 0 0 0.52,0.55 l 7.01,0.11 a 0.73,0.68 7.4 0 0 0.69,-0.5 q 0.49,-1.76 -3.65,-1.19 a 1.72,1.5 -4.6 0 1 -1.95,-1.44 l -0.02,-3.28 a 0.56,0.51 -0.6 0 1 0.55,-0.51 l 3.38,-0.1 a 1.02,0.88 13.6 0 0 0.8,-0.41 q 0.88,-1.29 -1,-1.39 -1.58,-0.09 -3.17,-0.18 a 0.57,0.53 1.7 0 1 -0.54,-0.53"
       id="path7363" />
    <path
       stroke="#808080"
       vector-effect="non-scaling-stroke"
       d="m 149.04,168.66 q 1.87,1.77 4.4,2.2 a 0.62,0.62 15.2 0 0 0.69,-0.39 q 1.01,-2.82 -2.07,-2.72 -1.27,0.04 -0.63,-1.05 1.69,-2.87 1.4,-6.21 -0.52,-5.92 -5.35,-6.44 -3.42,-0.36 -5.8,1.41 -2.69,1.99 -2.43,6.29 0.54,9.02 8.96,6.7 a 0.88,0.86 58.7 0 1 0.83,0.21"
       id="path7365" />
    <path
       stroke="#808080"
       vector-effect="non-scaling-stroke"
       d="m 129.85,158.74 q -0.64,-1.08 -1.83,-0.64 a 0.79,0.71 81.5 0 0 -0.47,0.71 q -0.08,3.41 -0.06,6.82 0,0.11 -0.12,1.73 -0.18,2.46 2.41,1.57 a 0.76,0.66 82.5 0 0 0.45,-0.68 l 0.17,-6.57 a 1.37,1.34 -23.5 0 1 0.36,-0.89 q 1.21,-1.33 2.55,-0.31 a 1.51,1.18 -83.1 0 1 0.49,0.81 q 0.97,4.25 0.39,5.65 -0.96,2.31 1.83,2 a 0.77,0.77 -1.7 0 0 0.69,-0.73 q 0.14,-3.14 -0.02,-5.8 -0.16,-2.71 -1.61,-3.78 -1.95,-1.45 -4.61,0.28 a 0.46,0.43 58.7 0 1 -0.62,-0.17"
       id="path7367" />
    <path
       stroke="#808080"
       vector-effect="non-scaling-stroke"
       d="m 159.94,166.88 a 1.59,1.56 87.2 0 1 -1.71,-1.58 l -0.03,-6.74 a 0.62,0.62 -84.3 0 0 -0.5,-0.61 q -2.46,-0.49 -2.33,1.68 0.1,1.65 0.09,1.76 -0.05,1.89 0.1,3.78 0.18,2.37 1.41,3.22 1.63,1.11 4.19,-0.08 a 0.94,0.94 48.7 0 1 0.89,0.06 q 2.88,1.84 2.8,-1.12 -0.09,-3.36 -0.1,-6.71 0,-0.08 0.08,-1.06 0.16,-1.97 -2.42,-1.41 a 0.62,0.61 82.8 0 0 -0.48,0.63 q 0.12,2.45 0.22,4.79 0.13,3.16 -2.21,3.39"
       id="path7369" />
    <path
       stroke="#808080"
       vector-effect="non-scaling-stroke"
       d="m 171.73,166.91 q -1.43,-0.48 -1.86,-1.8 a 0.92,0.86 -9.4 0 1 0.87,-1.14 l 5.57,-0.1 a 0.68,0.64 -84.3 0 0 0.62,-0.54 q 0.29,-1.45 -0.22,-2.71 -0.53,-1.34 -2.09,-2.08 -3.17,-1.5 -5.75,0.69 -1.17,1 -1.56,2.51 -0.39,1.55 -0.14,3.09 0.38,2.31 2.38,3.46 3.02,1.75 6.46,-0.33 a 1.16,0.97 -14.4 0 0 0.54,-0.75 q 0.26,-1.62 -2.1,-0.47 a 3.62,3.59 41.2 0 1 -2.72,0.17"
       id="path7371" />
    <path
       stroke="#808080"
       vector-effect="non-scaling-stroke"
       d="m 183.9,166.88 a 1.5,1.5 -2.8 0 1 -1.65,-1.49 v -6.64 a 0.72,0.7 -81 0 0 -0.48,-0.68 q -2.54,-0.87 -2.4,1.49 0.1,1.73 0.09,1.91 -0.05,1.88 0.1,3.74 0.18,2.23 1.33,3.15 1.69,1.35 4.08,0 a 0.9,0.89 -45.3 0 1 0.86,-0.01 q 1.68,0.9 2.54,0.46 a 0.99,0.67 81.2 0 0 0.38,-0.81 q 0,-3.73 0,-7.47 0,-0.06 0.08,-1.05 0.16,-1.97 -2.42,-1.41 a 0.62,0.61 82.8 0 0 -0.48,0.63 q 0.12,2.45 0.22,4.79 0.13,3.16 -2.25,3.39"
       id="path7373" />
    <path
       stroke="#808080"
       vector-effect="non-scaling-stroke"
       d="m 195.43,166.79 q -0.96,-0.36 -1.46,-1.31 a 1.08,1.03 -13.7 0 1 0.97,-1.51 l 5.37,-0.1 a 0.66,0.6 -86 0 0 0.59,-0.56 q 0.42,-3.06 -1.68,-4.47 -1.67,-1.12 -4.1,-0.58 -4.25,0.96 -4.09,5.22 0.12,3.2 2.45,4.76 2.69,1.79 6.28,-0.07 a 1.37,1.08 -9 0 0 0.64,-0.69 q 0.53,-1.56 -2.68,-0.61 a 3.56,3.55 -42.9 0 1 -2.29,-0.08"
       id="path7375" />
    <path
       stroke="#808080"
       vector-effect="non-scaling-stroke"
       d="m 261.61,162.23 q -5.67,-1.4 -4.42,5.33 0.77,4.16 3.62,2.25 1.44,-0.96 2.27,-0.27 0.63,0.52 0.65,-0.29 L 263.99,159 a 0.86,0.66 -80.6 0 0 -0.41,-0.76 q -1.25,-0.54 -0.91,3.08 a 0.86,0.86 4.3 0 1 -1.06,0.91"
       id="path7377" />
    <path
       stroke="#808080"
       vector-effect="non-scaling-stroke"
       d="m 271.01,162.45 q -1.53,-0.76 -2.91,-0.22 -1.23,0.49 -1.81,1.92 -0.97,2.37 0.54,4.81 1.07,1.74 2.93,0.88 1.32,-0.62 2.7,-0.3 a 0.35,0.35 5.5 0 0 0.44,-0.36 q -0.48,-5.87 0.1,-9.18 0.32,-1.84 -0.81,-1.87 a 0.58,0.54 -87.4 0 0 -0.56,0.55 l -0.2,3.5 a 0.31,0.29 -76.1 0 1 -0.42,0.27"
       id="path7379" />
    <path
       stroke="#808080"
       vector-effect="non-scaling-stroke"
       d="m 277,158.98 a 0.92,0.92 0 0 0 -0.92,-0.92 0.92,0.92 0 0 0 -0.92,0.92 0.92,0.92 0 0 0 0.92,0.92 0.92,0.92 0 0 0 0.92,-0.92"
       id="path7381" />
    <path
       stroke="#808080"
       vector-effect="non-scaling-stroke"
       d="m 346.0046,158.6406 a 0.57,0.57 0 0 0 -0.562,-0.5779 l -0.2999,-0.004 a 0.57,0.57 0 0 0 -0.5779,0.562 l -0.1494,10.6989 a 0.57,0.57 0 0 0 0.562,0.5779 l 0.2999,0.004 a 0.57,0.57 0 0 0 0.5779,-0.562 l 0.1494,-10.6989"
       id="path7383" />
    <path
       stroke="#808080"
       vector-effect="non-scaling-stroke"
       d="m 253.66,167.5 0.84,1.85 a 1.19,0.62 73.7 0 0 0.64,0.67 q 0.32,0.08 0.56,-0.12 a 0.88,0.61 64.4 0 0 0.14,-0.88 l -3.35,-9.12 a 1.35,1.11 89.4 0 0 -0.6,-0.72 q -1.37,-0.7 -1.98,1 -1.54,4.33 -3.23,8.61 a 1.25,0.75 -57.7 0 0 -0.02,0.93 q 0.22,0.43 0.69,0.3 a 1.2,0.66 -75 0 0 0.64,-0.67 l 0.84,-1.85 a 0.82,0.8 -77.2 0 1 0.73,-0.47 h 3.38 a 0.79,0.79 77.8 0 1 0.72,0.47"
       id="path7385" />
    <path
       stroke="#808080"
       vector-effect="non-scaling-stroke"
       d="m 402.2,161.56 0.03,6.44 a 0.91,0.88 -3.2 0 1 -0.82,0.89 q -1.61,0.15 -1.76,0.59 a 0.63,0.36 6.2 0 0 0.66,0.48 q 2.58,0.08 5.16,0.04 0.32,0 0.52,-0.13 0.43,-0.3 0.17,-0.59 a 1.16,0.56 -13.2 0 0 -0.9,-0.2 q -1.75,0.19 -1.6,-1.51 0.09,-1.04 0.09,-1.13 0,-2.48 0,-4.95 0,-0.09 0.07,-0.98 0.17,-2.07 -2.68,-0.78 a 3.07,3.06 -89.7 0 0 -1.52,1.51 q -0.5,1.07 0.79,0.64 0.23,-0.08 0.61,-0.4 0.3,-0.27 0.66,-0.36 a 0.45,0.41 83 0 1 0.52,0.44"
       id="path7387" />
    <path
       stroke="#808080"
       vector-effect="non-scaling-stroke"
       d="m 411.44,170.2285 a 5.73,3.92 91.3 0 0 4.049,-5.6396 5.73,3.92 91.3 0 0 -3.789,-5.8174 5.73,3.92 91.3 0 0 -4.049,5.6396 5.73,3.92 91.3 0 0 3.789,5.8174"
       id="path7389" />
    <path
       stroke="#808080"
       vector-effect="non-scaling-stroke"
       d="m 391.22,161.44 q -0.6,-3.04 -1.52,-0.11 a 1.17,0.86 -8.1 0 1 -0.63,0.62 q -0.94,0.4 0.34,1.35 a 0.86,0.86 20.5 0 1 0.34,0.74 q -0.14,2.13 0.38,4.22 0.66,2.69 2.94,1.49 0.5,-0.26 0,-0.49 l -1.16,-0.52 a 0.91,0.71 13.9 0 1 -0.53,-0.68 l -0.2,-4.12 a 0.67,0.62 -9.3 0 1 0.49,-0.63 q 3.82,-1.07 0.14,-1.34 a 0.67,0.65 86.4 0 1 -0.59,-0.53"
       id="path7391" />
    <path
       stroke="#808080"
       vector-effect="non-scaling-stroke"
       d="m 276.8579,162.5736 a 0.53,0.53 0 0 0 -0.5272,-0.5328 l -0.28,-10e-4 a 0.53,0.53 0 0 0 -0.5328,0.5272 l -0.0358,6.8399 a 0.53,0.53 0 0 0 0.5272,0.5328 l 0.28,0.001 a 0.53,0.53 0 0 0 0.5328,-0.5272 l 0.0358,-6.8399"
       id="path7393" />
    <path
       stroke="#808080"
       vector-effect="non-scaling-stroke"
       d="m 281.06,163.81 q 3.57,-2.39 3.48,1.94 -0.03,1.63 -0.04,3.25 a 1.27,0.88 -76 0 0 0.33,0.87 q 0.63,0.55 0.92,-0.62 0.29,-1.17 0,-4.25 -0.41,-4.42 -4.25,-2.54 a 1.05,0.77 40.3 0 1 -0.84,-0.06 q -0.36,-0.18 -0.74,-0.13 a 0.69,0.56 85.7 0 0 -0.47,0.68 l 0.1,6.24 a 0.75,0.63 -84.6 0 0 0.48,0.69 q 1,0.27 0.72,-1.38 -0.68,-4.02 0.31,-4.69"
       id="path7395" />
    <path
       stroke="#808080"
       vector-effect="non-scaling-stroke"
       d="m 289.37,167.44 q 0.24,-0.61 1.38,-0.44 2.5,0.38 3.29,-1.83 a 1.59,0.71 62.9 0 0 -0.05,-0.95 q -0.22,-0.74 0.39,-1.13 0.42,-0.27 0.53,-0.43 0.45,-0.7 -0.66,-0.68 -2,0.02 -3.62,0.02 -2.22,0 -2.42,2.49 l -0.52,6.46 a 1.22,0.59 -77.3 0 0 0.2,0.85 q 2.09,2.14 4.92,1.01 3.59,-1.42 1.59,-3.71 -0.76,-0.87 -2.12,-1.03 -1.23,-0.14 -2.47,-0.14 a 0.44,0.36 8.6 0 1 -0.44,-0.49"
       id="path7397" />
    <path
       stroke="#808080"
       vector-effect="non-scaling-stroke"
       d="m 302.45,163.51 q 1.62,-1.15 2.52,-0.04 0.53,0.66 0.53,2.19 0.01,1.55 0.03,3.09 0.02,1.86 1.05,1.03 a 0.97,0.8 69.7 0 0 0.29,-0.83 q -0.23,-1.72 -0.19,-3.45 0.12,-4.62 -3.96,-3.18 a 1.45,1.41 44.1 0 1 -0.93,0 q -1.61,-0.57 -1.44,0.61 0.16,1.08 0.16,1.16 0.02,2.36 -0.06,4.71 a 1.57,1.08 -71.8 0 0 0.27,0.92 q 0.66,0.79 0.94,-0.28 0.09,-0.34 0.06,-0.89 -0.13,-2.14 0.24,-4.24 a 1.35,1.17 80.5 0 1 0.49,-0.8"
       id="path7399" />
    <path
       stroke="#808080"
       vector-effect="non-scaling-stroke"
       d="m 310.65,166.44 q 1.34,-0.89 3.1,-0.44 3.78,0.97 2.5,-1.75 -1.05,-2.23 -3.09,-2.31 -1.73,-0.08 -3.19,1.19 -2.13,1.84 -0.66,4.81 1.87,3.78 5.93,1.37 0.2,-0.12 0.36,-0.3 1.02,-1.16 -0.55,-0.41 -3.41,1.62 -4.63,-1.37 a 0.67,0.64 62.3 0 1 0.23,-0.79"
       id="path7401" />
    <path
       stroke="#808080"
       vector-effect="non-scaling-stroke"
       d="m 323.82,164.54 q 0.32,1.18 0.99,4.4 0.33,1.57 1.69,0.98 a 1.28,1.02 -88.1 0 0 0.6,-0.7 q 1.04,-3.02 2.1,-6.03 0.55,-1.6 -0.68,-1.1 a 1.09,1.01 87.8 0 0 -0.61,0.71 l -1.41,5.22 q -0.37,1.34 -0.75,0 l -1.43,-5.11 q -0.79,-2.79 -1.63,0.02 l -1.31,4.37 q -0.5,1.67 -0.94,0.02 l -1.15,-4.27 a 1.45,0.99 -88.2 0 0 -0.5,-0.78 q -1.21,-0.8 -1.12,0.45 0.03,0.41 0.28,1.01 1.05,2.63 1.85,5.35 a 1.28,1.07 -87.8 0 0 0.57,0.74 q 1.28,0.66 1.55,-0.54 0.35,-1.5 0.35,-1.51 0.29,-0.87 0.42,-1.79 0.03,-0.23 -0.03,-0.95 -0.06,-0.77 0.52,-0.93 a 0.59,0.51 75.2 0 1 0.64,0.44"
       id="path7403" />
    <path
       stroke="#808080"
       vector-effect="non-scaling-stroke"
       d="m 336.82,166.26 4.86,-0.52 a 0.55,0.51 -5.2 0 0 0.49,-0.54 q -0.2,-2.87 -2.61,-3.23 -1.86,-0.28 -3.36,0.96 -1.8,1.5 -1.19,3.92 0.51,2.02 2.11,2.85 1.87,0.97 4.07,-0.36 0.26,-0.15 0.44,-0.38 0.97,-1.21 -0.83,-0.41 -3.73,1.65 -4.41,-1.74 a 0.49,0.46 -8.8 0 1 0.43,-0.55"
       id="path7405" />
    <path
       stroke="#808080"
       vector-effect="non-scaling-stroke"
       d="m 349.71,166.28 q 1.41,-0.59 3.02,-0.2 1.97,0.49 2.41,-0.85 a 1.33,1 46.9 0 0 -0.1,-0.93 q -1.81,-3.55 -4.74,-2 -2.04,1.07 -2.43,3.3 -0.49,2.81 2.32,4.21 2.2,1.1 4.39,-0.79 0.27,-0.23 0.3,-0.51 0.05,-0.63 -0.93,-0.11 -3.56,1.86 -4.57,-1.41 a 0.58,0.58 70.2 0 1 0.33,-0.71"
       id="path7407" />
    <path
       stroke="#808080"
       vector-effect="non-scaling-stroke"
       d="m 359.18,163.98 q 3.26,-2.81 3.27,2.02 0,1.6 0.09,3.2 a 0.82,0.66 -84.9 0 0 0.47,0.71 q 0.55,0.17 0.79,-0.37 0.15,-0.33 0.04,-0.97 -0.31,-1.8 0.01,-3.58 0.19,-1.03 0.89,-1.58 1.16,-0.89 2.08,-0.07 0.68,0.61 0.68,2.06 0,1.9 0,3.8 0,0.36 0.16,0.57 0.27,0.36 0.63,0.21 a 0.98,0.63 85.9 0 0 0.43,-0.79 q 0.09,-1.34 0.17,-2.68 0.36,-6.29 -4.7,-3.74 a 0.84,0.76 48.7 0 1 -0.83,-0.09 q -1.51,-1.07 -3.3,-0.37 -0.66,0.26 -2.26,0.07 a 0.43,0.4 -87.2 0 0 -0.45,0.44 l 0.17,6.18 a 1.09,0.72 -80.2 0 0 0.36,0.82 q 0.64,0.4 0.92,-0.29 0.15,-0.34 0.06,-0.97 -0.24,-1.86 -0.09,-3.75 a 1.25,1.18 73.1 0 1 0.41,-0.83"
       id="path7409" />
    <path
       stroke="#808080"
       vector-effect="non-scaling-stroke"
       d="m 372.63,166.43 q 1.2,-0.87 2.88,-0.49 2.95,0.66 2.72,-1.28 -0.13,-1.14 -1.08,-1.91 -1.09,-0.89 -2.55,-0.87 -1.31,0.02 -2.33,0.96 -1.7,1.58 -1.3,3.82 0.36,2.04 2.03,2.98 1.96,1.11 4.29,-0.39 0.29,-0.19 0.43,-0.46 0.52,-1.03 -0.95,-0.31 -3.19,1.56 -4.35,-1.25 a 0.69,0.65 61.4 0 1 0.21,-0.8"
       id="path7411" />
    <path
       stroke="#808080"
       vector-effect="non-scaling-stroke"
       d="m 380.44,168.69 q -0.16,1.36 0.78,1.16 a 0.68,0.58 84.3 0 0 0.46,-0.66 q 0,-2.03 0.17,-4.05 0.1,-1.15 0.71,-1.66 0.91,-0.76 2.06,-0.27 a 1.12,0.97 -88.5 0 1 0.58,0.71 q 0.56,2.11 0.31,4.33 -0.26,2.36 1.03,1.5 a 0.88,0.77 71 0 0 0.33,-0.81 q -0.24,-1.96 -0.21,-3.94 0.05,-3.75 -3.43,-2.82 -1.19,0.31 -2.43,0.2 a 0.4,0.4 0.6 0 0 -0.44,0.43 q 0.36,3.46 0.08,5.88"
       id="path7413" />
    <path
       stroke="#808080"
       vector-effect="non-scaling-stroke"
       d="m 338.99,215.4 a 0.4,0.4 0 0 0 -0.4,-0.4 H 98.41 a 0.4,0.4 0 0 0 -0.4,0.4 v 40.2 a 0.4,0.4 0 0 0 0.4,0.4 h 240.18 a 0.4,0.4 0 0 0 0.4,-0.4 v -40.2"
       id="path7415" />
    <path
       stroke="#808080"
       vector-effect="non-scaling-stroke"
       d="m 121.0484,29.1199 a 3.1,2.73 90.4 0 0 2.7515,-3.0808 3.1,2.73 90.4 0 0 -2.7083,-3.119 3.1,2.73 90.4 0 0 -2.7515,3.0808 3.1,2.73 90.4 0 0 2.7083,3.119"
       id="path7417" />
    <path
       stroke="#808080"
       vector-effect="non-scaling-stroke"
       d="m 308.57,24.78 q 2.06,0.5 3.99,0.03 1.35,-0.32 -0.12,-1.25 -2.48,-1.56 -4.08,0.68 a 0.35,0.35 24.2 0 0 0.21,0.54"
       id="path7419" />
    <path
       stroke="#808080"
       vector-effect="non-scaling-stroke"
       d="m 321.399,26.775 a 2.11,1.52 -17.8 0 0 -2.4737,-0.8022 2.11,1.52 -17.8 0 0 -1.5443,2.0922 2.11,1.52 -17.8 0 0 2.4737,0.8022 2.11,1.52 -17.8 0 0 1.5443,-2.0922"
       id="path7421" />
    <path
       stroke="#4e86b9"
       vector-effect="non-scaling-stroke"
       d="m 122.21,63.23 1.86,1.77 a 0.64,0.54 -45.3 0 0 0.82,-0.07 l 2.47,-2.38 a 0.83,0.72 -34.4 0 0 0.22,-0.85 q -0.11,-0.28 -0.35,-0.49 a 1.24,0.78 29.5 0 1 -0.42,-0.78 l -0.06,-20.3 a 0.83,0.83 -83.4 0 0 -0.64,-0.81 q -4.18,-0.98 -3.95,1.61 0.09,1.07 0.09,1.15 0,8.46 0,16.92 0,1.66 -0.77,2.31 a 0.87,0.54 -33.6 0 0 -0.35,0.76 q 0.1,0.32 0.36,0.52 0.27,0.21 0.72,0.64"
       id="path7423" />
    <path
       stroke="#4e86b9"
       vector-effect="non-scaling-stroke"
       d="m 315.25,63.81 q 0.8,-0.53 1.28,-1.37 a 0.84,0.61 45.5 0 0 -0.12,-0.81 q -0.66,-0.89 -0.66,-2.63 0,-8.88 0,-18.75 a 0.92,0.92 -83.8 0 0 -0.72,-0.9 q -3.12,-0.71 -3.72,0.52 -0.06,0.12 -0.06,2.79 0.01,8.8 0,17.6 a 1.04,0.89 -20.9 0 1 -0.42,0.77 q -1.4,1.02 0.11,1.78 0.65,0.33 1.6,1.71 a 1.46,0.88 70.2 0 0 0.74,0.6 q 0.88,0.23 1.33,-0.59 0.27,-0.48 0.64,-0.72"
       id="path7425" />
    <path
       stroke="#808080"
       vector-effect="non-scaling-stroke"
       d="M 170,76.71 A 0.71,0.71 0 0 0 169.29,76 H 123.71 A 0.71,0.71 0 0 0 123,76.71 v 37.58 a 0.71,0.71 0 0 0 0.71,0.71 h 45.58 A 0.71,0.71 0 0 0 170,114.29 V 76.71"
       id="path7427" />
    <path
       stroke="#808080"
       vector-effect="non-scaling-stroke"
       d="M 218,76.63 A 0.63,0.63 0 0 0 217.37,76 H 171.63 A 0.63,0.63 0 0 0 171,76.63 v 37.74 a 0.63,0.63 0 0 0 0.63,0.63 h 45.74 A 0.63,0.63 0 0 0 218,114.37 V 76.63"
       id="path7429" />
    <path
       stroke="#808080"
       vector-effect="non-scaling-stroke"
       d="M 266,76.69 A 0.69,0.69 0 0 0 265.31,76 H 219.69 A 0.69,0.69 0 0 0 219,76.69 v 37.62 a 0.69,0.69 0 0 0 0.69,0.69 h 45.62 A 0.69,0.69 0 0 0 266,114.31 V 76.69"
       id="path7431" />
    <path
       stroke="#808080"
       vector-effect="non-scaling-stroke"
       d="M 314.01,76.68 A 0.68,0.68 0 0 0 313.33,76 h -45.64 a 0.68,0.68 0 0 0 -0.68,0.68 v 37.64 a 0.68,0.68 0 0 0 0.68,0.68 h 45.64 a 0.68,0.68 0 0 0 0.68,-0.68 V 76.68"
       id="path7433" />
    <path
       stroke="#808080"
       vector-effect="non-scaling-stroke"
       d="m 146.48,91.05 0.13,9.24 a 1.25,1.15 -2 0 1 -1.19,1.17 q -3.17,0.15 -2,1.14 0.47,0.4 1.28,0.41 2.87,0.02 5.74,-0.06 a 1.18,0.86 12.5 0 0 0.85,-0.37 q 0.41,-0.52 -0.1,-0.87 a 1.42,0.7 -18.8 0 0 -0.92,-0.12 q -2.35,0.36 -2.15,-1.83 0.13,-1.4 0.13,-1.52 0,-4.74 0,-9.45 0,-1.62 -1.18,-0.73 l -3.75,2.82 a 0.64,0.56 54.9 0 0 -0.09,0.82 q 0.65,0.99 1.79,-0.44 0.39,-0.5 0.92,-0.64 a 0.45,0.42 82 0 1 0.54,0.43"
       id="path7435" />
    <path
       stroke="#808080"
       vector-effect="non-scaling-stroke"
       d="m 193.13,101.05 q 1.61,-1.97 3.3,-3.88 1.39,-1.56 1.96,-3.49 0.65,-2.2 -0.2,-3.8 -1.11,-2.11 -4.19,-1.85 -2.23,0.18 -3.31,1.71 -0.72,1.01 0.48,0.7 5.86,-1.48 5.35,2.39 -0.22,1.67 -1.91,3.84 -2.01,2.57 -4.03,4.84 -1.34,1.5 0.65,1.49 l 7.46,-0.05 a 0.91,0.65 7.5 0 0 0.79,-0.42 q 0.12,-0.28 0,-0.56 a 0.93,0.65 -6.8 0 0 -0.79,-0.42 l -5.37,-0.1 q -0.51,-0.01 -0.19,-0.4"
       id="path7437" />
    <path
       stroke="#808080"
       vector-effect="non-scaling-stroke"
       d="m 245.18,95.4 a 0.49,0.48 35.1 0 1 -0.13,-0.73 q 1.97,-2.35 1.3,-4.29 -0.65,-1.87 -2.94,-2.33 -1.67,-0.33 -3.25,0.5 -2.05,1.09 -1.27,1.63 0.57,0.4 3.75,-0.52 a 1.32,1.32 -19.9 0 1 1.6,0.8 q 1.39,3.61 -2.81,3.8 -2.48,0.11 -1.51,1.37 a 1.01,0.82 -17.8 0 0 0.82,0.32 q 1.86,-0.16 2.7,0.36 3.64,2.3 0.25,4.88 -1.33,1.01 -4.13,-0.5 -1.86,-1.01 -1.41,0.53 a 1.44,1.21 12.2 0 0 0.58,0.75 q 2.47,1.56 4.98,0.86 2.19,-0.61 3.24,-2.67 1.47,-2.88 -1.77,-4.76"
       id="path7439" />
    <path
       stroke="#808080"
       vector-effect="non-scaling-stroke"
       d="M 294.05,97.93 294,89 a 0.98,0.85 -76.7 0 0 -0.41,-0.78 q -1.54,-0.96 -2.34,0.28 -3.25,5.06 -5.29,9.66 -0.82,1.85 1.4,1.91 l 4.34,0.13 a 0.48,0.4 -81 0 1 0.35,0.59 q -0.71,2.75 1.49,1.91 a 0.63,0.56 74.6 0 0 0.34,-0.69 q -0.28,-1.45 0.71,-1.91 0.98,-0.44 1.1,-0.55 1.36,-1.19 -1.12,-1.13 a 0.51,0.5 -1.1 0 1 -0.52,-0.49"
       id="path7441" />
    <path
       stroke="#808080"
       vector-effect="non-scaling-stroke"
       d="m 291.45,90.92 -3.68,7.07 a 0.34,0.32 -76.7 0 0 0.29,0.5 l 3.44,-0.14 a 0.64,0.53 -89.8 0 0 0.51,-0.61 l 0.16,-6.61 q 0.04,-1.67 -0.72,-0.21"
       id="path7443" />
    <path
       stroke="#4e86b9"
       vector-effect="non-scaling-stroke"
       d="m 215.58,207.67 a 0.89,0.85 -44 0 0 1.19,-0.01 q 3.63,-3.28 7.51,-7.29 0.1,-0.11 1.15,-1.04 1.81,-1.61 -2.5,-1.24 a 1.32,1.32 -2.4 0 1 -1.43,-1.31 V 139.67 A 0.67,0.66 90 0 0 220.84,139 l -9.64,0.05 a 0.72,0.71 89.6 0 0 -0.7,0.72 v 57.29 a 1.16,1.01 -0.3 0 1 -1.15,1.01 l -3.12,0.06 q -0.65,0.01 -0.15,0.48 l 9.5,9.06"
       id="path7445" />
    <path
       stroke="#808080"
       vector-effect="non-scaling-stroke"
       d="m 145.8405,167.188 a 5.71,3.96 91.5 0 0 4.1081,-5.6043 5.71,3.96 91.5 0 0 -3.8091,-5.8117 5.71,3.96 91.5 0 0 -4.1081,5.6043 5.71,3.96 91.5 0 0 3.8091,5.8117"
       id="path7447" />
    <path
       stroke="#808080"
       vector-effect="non-scaling-stroke"
       d="m 173.31,160.21 q -2.28,-0.78 -3.29,1.03 a 0.41,0.4 21 0 0 0.27,0.58 q 1.86,0.48 3.73,0.05 a 0.49,0.46 -15.6 0 0 0.37,-0.61 q -0.26,-0.76 -1.08,-1.05"
       id="path7449" />
    <path
       stroke="#808080"
       vector-effect="non-scaling-stroke"
       d="m 197.31,160.21 q -2.32,-0.81 -3.29,1.03 a 0.41,0.4 21 0 0 0.27,0.58 q 1.86,0.48 3.73,0.05 a 0.49,0.46 -15.6 0 0 0.37,-0.61 q -0.26,-0.77 -1.08,-1.05"
       id="path7451" />
    <path
       stroke="#808080"
       vector-effect="non-scaling-stroke"
       d="m 260.3713,169.0494 a 3.06,2.17 91.1 0 0 2.2283,-3.0177 3.06,2.17 91.1 0 0 -2.1109,-3.1011 3.06,2.17 91.1 0 0 -2.2283,3.0177 3.06,2.17 91.1 0 0 2.1109,3.1011"
       id="path7453" />
    <path
       stroke="#808080"
       vector-effect="non-scaling-stroke"
       d="m 269.3125,169.0377 a 3.06,2.2 92.2 0 0 2.3159,-2.9732 3.06,2.2 92.2 0 0 -2.0809,-3.1422 3.06,2.2 92.2 0 0 -2.3159,2.9732 3.06,2.2 92.2 0 0 2.0809,3.1422"
       id="path7455" />
    <path
       stroke="#808080"
       vector-effect="non-scaling-stroke"
       d="m 250.18,165.91 2.27,0.09 a 0.46,0.4 84.8 0 0 0.4,-0.55 q -1.79,-9.7 -3.1,-0.13 a 0.52,0.46 -84.5 0 0 0.43,0.59"
       id="path7457" />
    <path
       stroke="#808080"
       vector-effect="non-scaling-stroke"
       d="m 411.4988,169.1898 a 4.72,2.42 90.5 0 0 2.4611,-4.6987 4.72,2.42 90.5 0 0 -2.3787,-4.7409 4.72,2.42 90.5 0 0 -2.4611,4.6987 4.72,2.42 90.5 0 0 2.3787,4.7409"
       id="path7459" />
    <path
       stroke="#808080"
       vector-effect="non-scaling-stroke"
       d="m 292.71,164.5 a 1.67,1.67 0 0 0 -1.67,-1.67 1.67,1.67 0 0 0 -1.67,1.67 1.67,1.67 0 0 0 1.67,1.67 1.67,1.67 0 0 0 1.67,-1.67"
       id="path7461" />
    <path
       stroke="#808080"
       vector-effect="non-scaling-stroke"
       d="m 293.6497,170.4431 a 2.35,1.59 -0.9 0 0 -2.3747,-1.5529 2.35,1.59 -0.9 0 0 -2.3247,1.6267 2.35,1.59 -0.9 0 0 2.3747,1.5529 2.35,1.59 -0.9 0 0 2.3247,-1.6267"
       id="path7463" />
    <path
       stroke="#808080"
       vector-effect="non-scaling-stroke"
       d="m 313.68,163.18 a 1.97,1.96 -45.9 0 0 -2.24,0.04 q -3.21,2.33 1.82,1.94 3.02,-0.24 0.42,-1.98"
       id="path7465" />
    <path
       stroke="#808080"
       vector-effect="non-scaling-stroke"
       d="m 339.65,163.11 a 1.73,1.72 43.3 0 0 -2.2,0.06 q -2.53,2.24 0.89,1.91 0.45,-0.04 1.33,-0.06 2.33,-0.06 -0.02,-1.91"
       id="path7467" />
    <path
       stroke="#808080"
       vector-effect="non-scaling-stroke"
       d="m 351.88,162.92 q -1.77,-0.35 -2.22,0.85 a 0.89,0.89 11.2 0 0 0.81,1.2 q 3.73,0.1 3.02,-1.08 -0.44,-0.73 -1.61,-0.97"
       id="path7469" />
    <path
       stroke="#808080"
       vector-effect="non-scaling-stroke"
       d="m 375.65,163.11 a 1.73,1.72 43.3 0 0 -2.2,0.06 q -2.53,2.24 0.89,1.91 0.45,-0.04 1.33,-0.06 2.33,-0.06 -0.02,-1.91"
       id="path7471" />
    <path
       stroke="#808080"
       vector-effect="non-scaling-stroke"
       d="m 290,216.66 a 0.72,0.72 0 0 0 -0.72,-0.72 h -45.56 a 0.72,0.72 0 0 0 -0.72,0.72 v 37.62 a 0.72,0.72 0 0 0 0.72,0.72 h 45.56 a 0.72,0.72 0 0 0 0.72,-0.72 v -37.62"
       id="path7473" />
    <path
       stroke="#808080"
       vector-effect="non-scaling-stroke"
       d="M 146,216.84 A 0.84,0.84 0 0 0 145.16,216 H 99.84 A 0.84,0.84 0 0 0 99,216.84 v 37.32 a 0.84,0.84 0 0 0 0.84,0.84 h 45.32 a 0.84,0.84 0 0 0 0.84,-0.84 v -37.32"
       id="path7475" />
    <path
       stroke="#808080"
       vector-effect="non-scaling-stroke"
       d="m 194,216.8 a 0.8,0.8 0 0 0 -0.8,-0.8 h -45.4 a 0.8,0.8 0 0 0 -0.8,0.8 v 37.4 a 0.8,0.8 0 0 0 0.8,0.8 h 45.4 a 0.8,0.8 0 0 0 0.8,-0.8 v -37.4"
       id="path7477" />
    <path
       stroke="#808080"
       vector-effect="non-scaling-stroke"
       d="M 242,216.69 A 0.69,0.69 0 0 0 241.31,216 h -45.62 a 0.69,0.69 0 0 0 -0.69,0.69 v 37.62 a 0.69,0.69 0 0 0 0.69,0.69 h 45.62 a 0.69,0.69 0 0 0 0.69,-0.69 v -37.62"
       id="path7479" />
    <path
       stroke="#808080"
       vector-effect="non-scaling-stroke"
       d="M 338,216.71 A 0.71,0.71 0 0 0 337.29,216 h -45.58 a 0.71,0.71 0 0 0 -0.71,0.71 v 37.58 a 0.71,0.71 0 0 0 0.71,0.71 h 45.58 a 0.71,0.71 0 0 0 0.71,-0.71 v -37.58"
       id="path7481" />
    <path
       stroke="#808080"
       vector-effect="non-scaling-stroke"
       d="M 270.05,237.93 270,229 a 0.98,0.85 -76.7 0 0 -0.41,-0.78 q -1.54,-0.96 -2.34,0.28 -3.25,5.06 -5.56,10.28 a 0.87,0.87 11.9 0 0 0.8,1.22 q 1.63,0 3.22,-0.25 3.07,-0.47 2.43,2.03 a 1.11,0.83 -62.8 0 0 0.15,0.88 q 0.75,0.89 1.44,0 a 1.25,0.79 68 0 0 0.16,-0.9 q -0.27,-1.61 1.04,-1.8 a 1.51,0.81 3.7 0 0 0.86,-0.39 q 1.11,-1.3 -1.23,-1.17 a 0.48,0.48 -2.3 0 1 -0.51,-0.47"
       id="path7483" />
    <path
       stroke="#808080"
       vector-effect="non-scaling-stroke"
       d="m 122.49,231.06 0.22,9.19 a 1.34,1.26 0.7 0 1 -1.4,1.28 q -2.61,-0.11 -2.03,1 a 0.88,0.8 -12.9 0 0 0.78,0.44 l 6.76,-0.11 a 0.53,0.42 -6.7 0 0 0.53,-0.54 q -0.22,-0.81 -2.61,-1.19 a 0.51,0.51 4.7 0 1 -0.43,-0.5 l -0.12,-12.07 a 0.43,0.42 84.9 0 0 -0.5,-0.42 q -2.73,0.5 -4.35,2.77 a 0.94,0.82 -41.1 0 0 -0.12,0.88 q 0.44,0.97 1.47,-0.35 0.44,-0.57 1.26,-0.79 a 0.44,0.43 -7.5 0 1 0.54,0.41"
       id="path7485" />
    <path
       stroke="#808080"
       vector-effect="non-scaling-stroke"
       d="m 169.13,241.05 q 1.61,-1.97 3.3,-3.87 1.4,-1.57 1.97,-3.5 0.65,-2.2 -0.21,-3.8 -1.11,-2.11 -4.19,-1.85 -2.23,0.18 -3.22,1.57 -1.27,1.8 0.76,0.97 5.65,-2.29 4.91,2.37 -0.28,1.73 -1.78,3.62 -2.06,2.62 -4.1,4.96 -1.3,1.49 0.67,1.48 l 7.45,-0.05 a 0.91,0.65 7.5 0 0 0.79,-0.42 q 0.12,-0.28 0,-0.56 a 0.93,0.65 -6.8 0 0 -0.79,-0.42 l -5.37,-0.1 q -0.51,-0.01 -0.19,-0.4"
       id="path7487" />
    <path
       stroke="#808080"
       vector-effect="non-scaling-stroke"
       d="m 221.22,235.38 a 0.44,0.44 -58.7 0 1 -0.16,-0.67 q 2.1,-2.71 1.12,-4.7 -0.8,-1.62 -3.06,-2.08 -2.41,-0.49 -3.93,1.26 -1.71,1.95 3.45,0.47 a 1.32,1.32 29.5 0 1 1.6,0.8 q 1.28,3.33 -2.18,3.9 -0.12,0.02 -1.25,0.03 -1.27,0.02 -0.94,1.08 a 0.7,0.6 -9.5 0 0 0.7,0.42 q 2.48,-0.2 3.49,0.8 2.07,2.04 0.64,3.63 -0.99,1.1 -2.74,0.97 -1.64,-0.12 -3.1,-0.97 a 0.5,0.43 26.8 0 0 -0.68,0.17 q -0.37,0.84 0.63,1.45 3.8,2.31 6.61,0.07 1.55,-1.25 1.84,-3.07 0.38,-2.41 -2.04,-3.56"
       id="path7489" />
    <path
       stroke="#808080"
       vector-effect="non-scaling-stroke"
       d="m 308.69,230.73 0.05,9.55 a 1.31,1.29 2.2 0 1 -1.42,1.29 q -2.41,-0.21 -2.18,0.91 a 0.73,0.57 -3.7 0 0 0.68,0.47 q 5.27,0.16 6.43,0.05 2.55,-0.24 0.68,-1.48 a 1.03,0.8 -35.2 0 0 -0.88,-0.04 q -0.99,0.4 -1.44,-0.21 -0.3,-0.41 -0.28,-1.47 0.13,-5.51 -0.02,-11.22 -0.03,-1.07 -0.86,-0.56 l -3.83,2.39 a 1.18,0.87 82.4 0 0 -0.46,0.83 q -0.16,1.66 2.78,-0.85 0.75,-0.65 0.75,0.34"
       id="path7491" />
    <path
       stroke="#808080"
       vector-effect="non-scaling-stroke"
       d="m 320.6944,243.247 a 7.72,5.15 91.6 0 0 5.3636,-7.5732 7.72,5.15 91.6 0 0 -4.9324,-7.8608 7.72,5.15 91.6 0 0 -5.3636,7.5732 7.72,5.15 91.6 0 0 4.9324,7.8608"
       id="path7493" />
    <path
       stroke="#808080"
       vector-effect="non-scaling-stroke"
       d="m 267.45,230.92 -3.68,7.07 a 0.34,0.32 -76.7 0 0 0.29,0.5 l 3.44,-0.14 a 0.63,0.51 89.6 0 0 0.49,-0.61 l 0.16,-6.6 q 0.04,-1.64 -0.7,-0.22"
       id="path7495" />
    <path
       stroke="#808080"
       vector-effect="non-scaling-stroke"
       d="m 320.9194,241.59 a 6.1,3.17 90.1 0 0 3.1806,-6.0945 6.1,3.17 90.1 0 0 -3.1594,-6.1055 6.1,3.17 90.1 0 0 -3.1806,6.0945 6.1,3.17 90.1 0 0 3.1594,6.1055"
       id="path7497" />
  </g>
  <path
     fill="#000000"
     d="m 10.6,2.837894 q -0.84,2.08 1.2,2.38 0.8,0.11 0.46,0.49 -0.33,0.38 -1.67,0.78 a 0.15,0.14 82.1 0 0 -0.1,0.14 v 5.69 a 0.95,0.76 79 0 1 -0.41,0.79 q -0.43,0.24 -0.67,0.01 a 2.41,2.4 27.1 0 1 -0.67,-2.05 q 0.67,-4.39 -0.58,-5.22 -1.04,-0.69 0.21,-0.73 1.13,-0.03 1.01,-1.31 -0.09,-1.05 0.06,-1.45 0.69,-1.82000003 2.83,-1.2 a 0.36,0.34 28.8 0 1 0.18,0.56 q -0.44,0.48 -1.15,0.61 a 1.02,0.76 0.6 0 0 -0.7,0.51 z"
     id="path7503" />
  <path
     fill="#000000"
     d="m 39.6,4.507894 q -0.16,-1.58 1.1,-1.29 a 0.57,0.69 6.3 0 1 0.43,0.66 q 0,1.36 1.36,1.26 a 0.59,1.03 79.1 0 1 0.85,0.29 q 0.38,0.59 -1.27,0.66 a 0.86,0.86 0 0 0 -0.83,0.86 v 4.21 a 0.91,0.9 82.8 0 0 1.13,0.88 q 0.71,-0.19 0.94,0.24 a 0.44,0.54 66.1 0 1 -0.34,0.67 q -1.78,0.65 -2.67,-0.61 -0.49,-0.7 -0.53,-2.28 -0.04,-1.59 -0.08,-3.18 a 0.75,0.69 9.8 0 0 -0.5,-0.65 q -1.76,-0.62 0.01,-1.11 a 0.58,0.55 79.9 0 0 0.4,-0.61 z"
     id="path7505" />
  <path
     fill="#000000"
     d="m 15,5.487894 q 1.81,0.04 2.78,-0.31 0.75,-0.28 1.01,0.1 a 0.34,0.45 69.7 0 1 -0.36,0.56 q -3.32,0.71 -2.51,5.54 a 1.67,1.68 72.1 0 1 -0.91,1.77 q -0.91,0.44 -0.77,-1.35 0.25,-3.11 0.25,-5.81 a 0.49,0.5 1.1 0 1 0.51,-0.5 z"
     id="path7507" />
  <path
     fill="#000000"
     d="m 28.17,9.087894 a 4.11,4.11 0 0 1 -4.11,4.11 4.11,4.11 0 0 1 -4.11,-4.11 4.11,4.11 0 0 1 4.11,-4.11 4.11,4.11 0 0 1 4.11,4.11 z m -4.1316,3.0999 a 2.73,3.1 0.4 0 0 2.7515,-3.0808 2.73,3.1 0.4 0 0 -2.7083,-3.119 2.73,3.1 0.4 0 0 -2.7515,3.0808 2.73,3.1 0.4 0 0 2.7083,3.119 z"
     id="path7509" />
  <path
     fill="#000000"
     d="m 34.18,6.097894 q -1.33,0.01 -2.15,1.05 a 1.6,1.18 71 0 0 -0.29,0.92 q -0.01,2.13 -0.09,4.25 -0.04,0.97 -0.67,0.7 a 0.7,0.89 8.2 0 1 -0.44,-0.76 l -0.1,-6.24 a 0.46,0.61 0.3 0 1 0.48,-0.62 l 0.84,0.04 q 0.74,0.03 0.95,-0.04 4.08,-1.4 4.03,3.42 -0.03,2.46 -0.13,3.57 a 0.51,0.59 4.3 0 1 -0.55,0.54 q -1.04,-0.07 -0.64,-1.88 0.52,-2.4 -0.5,-4.47 a 0.87,0.8 75.7 0 0 -0.74,-0.48 z"
     id="path7511" />
  <path
     fill="#000000"
     d="m 205.8,8.117894 q -0.11,2.11 -0.29,4.18 -0.1,1.18 -0.69,0.65 a 0.81,1.3 12.2 0 1 -0.32,-0.89 l -0.09,-6.37 a 0.45,0.44 2.8 0 1 0.5,-0.45 q 1.64,0.22 2.67,0.1 2.51,-0.3 -0.82,1.34 a 1.69,1.71 78.4 0 0 -0.96,1.44 z"
     id="path7513" />
  <path
     fill="#000000"
     d="m 211.09,6.287894 q 2.79,-3.16 5.79,0.69 a 1.43,1.09 34.3 0 1 0.3,0.9 q -0.13,1.63 -2.2,1.27 -1.63,-0.27 -3.2,0.1 a 0.53,0.53 0 0 0 -0.39,0.63 q 0.8,3.51 4.62,1.68 1.85,-0.88 0.41,0.59 -1.12,1.15 -2.84,1.02 -1.51,-0.11 -2.54,-1.16 -1.19,-1.21 -1.12,-2.99 0.06,-1.48 1.17,-2.73 z m 0.47,1.56 q 2.06,0.5 3.99,0.03 1.35,-0.32 -0.12,-1.25 -2.48,-1.56 -4.08,0.68 a 0.35,0.35 0 0 0 0.21,0.54 z"
     id="path7515" />
  <path
     fill="#000000"
     d="m 224.13,7.497894 q -0.34,-2.36 -3.11,-1.12 -2.45,1.09 -1.29,-0.27 0.24,-0.29 0.61,-0.46 5.4,-2.5 5.29,3.67 -0.03,1.43 0.29,2.8 a 0.35,0.36 82.3 0 1 -0.34,0.44 q -1.3,0.02 -2.26,0.2 -1.79,0.35 -2.2,0.3 -2.14,-0.27 -2.1,-2.68 a 1.34,1.38 65.8 0 1 0.35,-0.88 q 1.68,-1.84 4.31,-1.56 a 0.38,0.41 88.6 0 0 0.45,-0.44 z m 0.259,2.345 a 1.52,2.11 72.2 0 0 -2.4737,-0.8022 1.52,2.11 72.2 0 0 -1.5443,2.0922 1.52,2.11 72.2 0 0 2.4737,0.8022 1.52,2.11 72.2 0 0 1.5443,-2.0922 z"
     id="path7517" />
  <path
     fill="#000000"
     d="m 228.43,12.007894 q 0.15,-2.82 -0.04,-6.22 a 0.52,0.52 0 0 1 0.66,-0.53 q 1.03,0.31 1.96,0.08 1.35,-0.33 1.45,-0.05 0.16,0.43 -2.09,1.7 a 1.08,1.1 75.5 0 0 -0.56,0.93 l -0.12,4.33 a 0.8,0.66 83.1 0 1 -0.46,0.72 q -0.87,0.28 -0.8,-0.96 z"
     id="path7519" />
  <path
     fill="#ffffff"
     d="m 211.56,7.847894 a 0.35,0.35 0 0 1 -0.21,-0.54 q 1.6,-2.24 4.08,-0.68 1.47,0.93 0.12,1.25 -1.93,0.47 -3.99,-0.03 z"
     id="path7523" />
  <path
     fill="#ffffff"
     d="m 224.389,9.842894 a 1.52,2.11 72.2 0 1 -1.5443,2.0922 1.52,2.11 72.2 0 1 -2.4737,-0.8022 1.52,2.11 72.2 0 1 1.5443,-2.0922 1.52,2.11 72.2 0 1 2.4737,0.8022 z"
     id="path7525" />
  <path
     fill="#41719c"
     d="m 23.18,42.017894 0.06,-21.07 a 0.87,0.88 0 0 1 0.87,-0.88 h 6.9 a 0.75,0.74 89.6 0 1 0.74,0.74 l 0.05,21.2 a 0.51,0.51 0 0 0 0.5,0.51 l 3.38,0.1 q 0.51,0.01 0.15,0.38 l -7.92,8.02 a 0.61,0.59 45 0 1 -0.85,-0.01 l -7.89,-7.89 q -0.54,-0.54 0.23,-0.55 l 3.29,-0.04 a 0.49,0.51 0 0 0 0.49,-0.51 z m 2.02,4.28 1.86,1.77 a 0.54,0.64 44.7 0 0 0.82,-0.07 l 2.47,-2.38 a 0.72,0.83 55.6 0 0 0.22,-0.85 q -0.11,-0.28 -0.35,-0.49 a 1.24,0.78 29.5 0 1 -0.42,-0.78 l -0.06,-20.3 a 0.83,0.83 0 0 0 -0.64,-0.81 q -4.18,-0.98 -3.95,1.61 0.09,1.07 0.09,1.15 0,8.46 0,16.92 0,1.66 -0.77,2.31 a 0.54,0.87 56.4 0 0 -0.35,0.76 q 0.1,0.32 0.36,0.52 0.27,0.21 0.72,0.64 z"
     id="path7527" />
  <path
     fill="#41719c"
     d="m 212.18,41.997894 0.24,-21.24 a 0.55,0.51 89.5 0 1 0.5,-0.55 l 7.03,-0.1 a 0.83,0.78 89.7 0 1 0.79,0.83 v 20.77 a 0.89,0.85 0.3 0 0 0.88,0.85 l 3.06,0.05 q 0.53,0 0.15,0.39 l -7.92,8.02 a 0.6,0.6 0 0 1 -0.85,-0.01 l -7.89,-7.89 q -0.54,-0.54 0.23,-0.55 l 3.29,-0.04 a 0.49,0.54 0.6 0 0 0.49,-0.53 z m 6.06,4.88 q 0.8,-0.53 1.28,-1.37 a 0.84,0.61 45.5 0 0 -0.12,-0.81 q -0.66,-0.89 -0.66,-2.63 0,-8.88 0,-18.75 a 0.92,0.92 0 0 0 -0.72,-0.9 q -3.12,-0.71 -3.72,0.52 -0.06,0.12 -0.06,2.79 0.01,8.8 0,17.6 a 0.89,1.04 69.1 0 1 -0.42,0.77 q -1.4,1.02 0.11,1.78 0.65,0.33 1.6,1.71 a 1.46,0.88 70.2 0 0 0.74,0.6 q 0.88,0.23 1.33,-0.59 0.27,-0.48 0.64,-0.72 z"
     id="path7529" />
  <path
     fill="#5b9bd5"
     d="m 24.48,45.657894 q -0.26,-0.2 -0.36,-0.52 a 0.54,0.87 56.4 0 1 0.35,-0.76 q 0.77,-0.65 0.77,-2.31 0,-8.46 0,-16.92 0,-0.08 -0.09,-1.15 -0.23,-2.59 3.95,-1.61 a 0.83,0.83 0 0 1 0.64,0.81 l 0.06,20.3 a 1.24,0.78 29.5 0 0 0.42,0.78 q 0.24,0.21 0.35,0.49 a 0.72,0.83 55.6 0 1 -0.22,0.85 l -2.47,2.38 a 0.54,0.64 44.7 0 1 -0.82,0.07 l -1.86,-1.77 q -0.45,-0.43 -0.72,-0.64 z"
     id="path7531" />
  <path
     fill="#5b9bd5"
     d="m 217.6,47.597894 q -0.45,0.82 -1.33,0.59 a 1.46,0.88 70.2 0 1 -0.74,-0.6 q -0.95,-1.38 -1.6,-1.71 -1.51,-0.76 -0.11,-1.78 a 0.89,1.04 69.1 0 0 0.42,-0.77 q 0.01,-8.8 0,-17.6 0,-2.67 0.06,-2.79 0.6,-1.23 3.72,-0.52 a 0.92,0.92 0 0 1 0.72,0.9 q 0,9.87 0,18.75 0,1.74 0.66,2.63 a 0.84,0.61 45.5 0 1 0.12,0.81 q -0.48,0.84 -1.28,1.37 -0.37,0.24 -0.64,0.72 z"
     id="path7533" />
  <path
     fill="#000000"
     d="m 217.99,98.467894 a 0.58,0.58 0 0 1 -0.58,0.58 H 25.57 a 0.58,0.58 0 0 1 -0.58,-0.58 v -39.82 a 0.58,0.58 0 0 1 0.58,-0.58 h 191.84 a 0.58,0.58 0 0 1 0.58,0.58 z m -145,-38.69 a 0.71,0.71 0 0 0 -0.71,-0.71 H 26.7 a 0.71,0.71 0 0 0 -0.71,0.71 v 37.58 a 0.71,0.71 0 0 0 0.71,0.71 h 45.58 a 0.71,0.71 0 0 0 0.71,-0.71 z m 48,-0.08 a 0.63,0.63 0 0 0 -0.63,-0.63 H 74.62 a 0.63,0.63 0 0 0 -0.63,0.63 v 37.74 a 0.63,0.63 0 0 0 0.63,0.63 h 45.74 a 0.63,0.63 0 0 0 0.63,-0.63 z m 48,0.06 a 0.69,0.69 0 0 0 -0.69,-0.69 h -45.62 a 0.69,0.69 0 0 0 -0.69,0.69 v 37.62 a 0.69,0.69 0 0 0 0.69,0.69 h 45.62 a 0.69,0.69 0 0 0 0.69,-0.69 z m 48.01,-0.01 a 0.68,0.68 0 0 0 -0.68,-0.68 h -45.64 a 0.68,0.68 0 0 0 -0.68,0.68 v 37.64 a 0.68,0.68 0 0 0 0.68,0.68 h 45.64 a 0.68,0.68 0 0 0 0.68,-0.68 z"
     id="path7535" />
  <path
     fill="#ffffff"
     d="m 72.99,97.357894 a 0.71,0.71 0 0 1 -0.71,0.71 H 26.7 a 0.71,0.71 0 0 1 -0.71,-0.71 v -37.58 a 0.71,0.71 0 0 1 0.71,-0.71 h 45.58 a 0.71,0.71 0 0 1 0.71,0.71 z m -23.52,-23.24 0.13,9.24 a 1.15,1.25 88 0 1 -1.19,1.17 q -3.17,0.15 -2,1.14 0.47,0.4 1.28,0.41 2.87,0.02 5.74,-0.06 a 1.18,0.86 12.5 0 0 0.85,-0.37 q 0.41,-0.52 -0.1,-0.87 a 0.7,1.42 71.2 0 0 -0.92,-0.12 q -2.35,0.36 -2.15,-1.83 0.13,-1.4 0.13,-1.52 0,-4.74 0,-9.45 0,-1.62 -1.18,-0.73 l -3.75,2.82 a 0.64,0.56 54.9 0 0 -0.09,0.82 q 0.65,0.99 1.79,-0.44 0.39,-0.5 0.92,-0.64 a 0.45,0.42 82 0 1 0.54,0.43 z"
     id="path7537" />
  <path
     fill="#ffffff"
     d="m 120.99,97.437894 a 0.63,0.63 0 0 1 -0.63,0.63 H 74.62 a 0.63,0.63 0 0 1 -0.63,-0.63 v -37.74 a 0.63,0.63 0 0 1 0.63,-0.63 h 45.74 a 0.63,0.63 0 0 1 0.63,0.63 z m -24.87,-13.32 q 1.61,-1.97 3.3,-3.88 1.39,-1.56 1.96,-3.49 0.65,-2.2 -0.2,-3.8 -1.11,-2.11 -4.19,-1.85 -2.23,0.18 -3.31,1.71 -0.72,1.01 0.48,0.7 5.86,-1.48 5.35,2.39 -0.22,1.67 -1.91,3.84 -2.01,2.57 -4.03,4.84 -1.34,1.5 0.65,1.49 l 7.46,-0.05 a 0.91,0.65 7.5 0 0 0.79,-0.42 q 0.12,-0.28 0,-0.56 a 0.65,0.93 83.2 0 0 -0.79,-0.42 l -5.37,-0.1 q -0.51,-0.01 -0.19,-0.4 z"
     id="path7539" />
  <path
     fill="#ffffff"
     d="m 168.99,97.377894 a 0.69,0.69 0 0 1 -0.69,0.69 h -45.62 a 0.69,0.69 0 0 1 -0.69,-0.69 v -37.62 a 0.69,0.69 0 0 1 0.69,-0.69 h 45.62 a 0.69,0.69 0 0 1 0.69,0.69 z m -20.82,-18.91 a 0.49,0.48 35.1 0 1 -0.13,-0.73 q 1.97,-2.35 1.3,-4.29 -0.65,-1.87 -2.94,-2.33 -1.67,-0.33 -3.25,0.5 -2.05,1.09 -1.27,1.63 0.57,0.4 3.75,-0.52 a 1.32,1.32 0 0 1 1.6,0.8 q 1.39,3.61 -2.81,3.8 -2.48,0.11 -1.51,1.37 a 0.82,1.01 72.2 0 0 0.82,0.32 q 1.86,-0.16 2.7,0.36 3.64,2.3 0.25,4.88 -1.33,1.01 -4.13,-0.5 -1.86,-1.01 -1.41,0.53 a 1.44,1.21 12.2 0 0 0.58,0.75 q 2.47,1.56 4.98,0.86 2.19,-0.61 3.24,-2.67 1.47,-2.88 -1.77,-4.76 z"
     id="path7541" />
  <path
     fill="#ffffff"
     d="m 217,97.387894 a 0.68,0.68 0 0 1 -0.68,0.68 h -45.64 a 0.68,0.68 0 0 1 -0.68,-0.68 v -37.64 a 0.68,0.68 0 0 1 0.68,-0.68 h 45.64 a 0.68,0.68 0 0 1 0.68,0.68 z m -19.96,-16.39 -0.05,-8.93 a 0.85,0.98 13.3 0 0 -0.41,-0.78 q -1.54,-0.96 -2.34,0.28 -3.25,5.06 -5.29,9.66 -0.82,1.85 1.4,1.91 l 4.34,0.13 a 0.4,0.48 9 0 1 0.35,0.59 q -0.71,2.75 1.49,1.91 a 0.63,0.56 74.6 0 0 0.34,-0.69 q -0.28,-1.45 0.71,-1.91 0.98,-0.44 1.1,-0.55 1.36,-1.19 -1.12,-1.13 a 0.5,0.51 88.9 0 1 -0.52,-0.49 z"
     id="path7543" />
  <path
     fill="#000000"
     d="m 48.93,73.687894 q -0.53,0.14 -0.92,0.64 -1.14,1.43 -1.79,0.44 a 0.64,0.56 54.9 0 1 0.09,-0.82 l 3.75,-2.82 q 1.18,-0.89 1.18,0.73 0,4.71 0,9.45 0,0.12 -0.13,1.52 -0.2,2.19 2.15,1.83 a 0.7,1.42 71.2 0 1 0.92,0.12 q 0.51,0.35 0.1,0.87 a 1.18,0.86 12.5 0 1 -0.85,0.37 q -2.87,0.08 -5.74,0.06 -0.81,-0.01 -1.28,-0.41 -1.17,-0.99 2,-1.14 a 1.15,1.25 88 0 0 1.19,-1.17 l -0.13,-9.24 a 0.45,0.42 82 0 0 -0.54,-0.43 z"
     id="path7545" />
  <path
     fill="#000000"
     d="m 96.31,84.517894 5.37,0.1 a 0.65,0.93 83.2 0 1 0.79,0.42 q 0.12,0.28 0,0.56 a 0.91,0.65 7.5 0 1 -0.79,0.42 l -7.46,0.05 q -1.99,0.01 -0.65,-1.49 2.02,-2.27 4.03,-4.84 1.69,-2.17 1.91,-3.84 0.51,-3.87 -5.35,-2.39 -1.2,0.31 -0.48,-0.7 1.08,-1.53 3.31,-1.71 3.08,-0.26 4.19,1.85 0.85,1.6 0.2,3.8 -0.57,1.93 -1.96,3.49 -1.69,1.91 -3.3,3.88 -0.32,0.39 0.19,0.4 z"
     id="path7547" />
  <path
     fill="#000000"
     d="m 148.17,78.467894 q 3.24,1.88 1.77,4.76 -1.05,2.06 -3.24,2.67 -2.51,0.7 -4.98,-0.86 a 1.44,1.21 12.2 0 1 -0.58,-0.75 q -0.45,-1.54 1.41,-0.53 2.8,1.51 4.13,0.5 3.39,-2.58 -0.25,-4.88 -0.84,-0.52 -2.7,-0.36 a 0.82,1.01 72.2 0 1 -0.82,-0.32 q -0.97,-1.26 1.51,-1.37 4.2,-0.19 2.81,-3.8 a 1.32,1.32 0 0 0 -1.6,-0.8 q -3.18,0.92 -3.75,0.52 -0.78,-0.54 1.27,-1.63 1.58,-0.83 3.25,-0.5 2.29,0.46 2.94,2.33 0.67,1.94 -1.3,4.29 a 0.49,0.48 35.1 0 0 0.13,0.73 z"
     id="path7549" />
  <path
     fill="#000000"
     d="m 197.56,81.487894 q 2.48,-0.06 1.12,1.13 -0.12,0.11 -1.1,0.55 -0.99,0.46 -0.71,1.91 a 0.63,0.56 74.6 0 1 -0.34,0.69 q -2.2,0.84 -1.49,-1.91 a 0.4,0.48 9 0 0 -0.35,-0.59 l -4.34,-0.13 q -2.22,-0.06 -1.4,-1.91 2.04,-4.6 5.29,-9.66 0.8,-1.24 2.34,-0.28 a 0.85,0.98 13.3 0 1 0.41,0.78 l 0.05,8.93 a 0.5,0.51 88.9 0 0 0.52,0.49 z m -3.12,-7.5 -3.68,7.07 a 0.32,0.34 13.3 0 0 0.29,0.5 l 3.44,-0.14 a 0.53,0.64 0.2 0 0 0.51,-0.61 l 0.16,-6.61 q 0.04,-1.67 -0.72,-0.21 z"
     id="path7551" />
  <path
     fill="#ffffff"
     d="m 194.44,73.987894 q 0.76,-1.46 0.72,0.21 l -0.16,6.61 a 0.53,0.64 0.2 0 1 -0.51,0.61 l -3.44,0.14 a 0.32,0.34 13.3 0 1 -0.29,-0.5 z"
     id="path7553" />
  <path
     fill="#41719c"
     d="m 111.43,178.49789 0.06,-57.55 a 0.87,0.88 0 0 1 0.87,-0.88 h 13.28 a 0.85,0.85 0 0 1 0.85,0.85 v 57.27 a 0.88,0.88 0 0 0 0.88,0.88 h 5.88 q 1.12,0 0.33,0.78 l -14.16,14.06 a 0.52,0.53 45 0 1 -0.73,0.01 l -14.34,-14.14 q -0.73,-0.72 0.31,-0.72 l 6.28,-0.04 a 0.49,0.52 0 0 0 0.49,-0.52 z m 7.14,12.24 a 0.85,0.89 46 0 0 1.19,-0.01 q 3.63,-3.28 7.51,-7.29 0.1,-0.11 1.15,-1.04 1.81,-1.61 -2.5,-1.24 a 1.32,1.32 0 0 1 -1.43,-1.31 v -57.11 a 0.66,0.67 0 0 0 -0.66,-0.67 l -9.64,0.05 a 0.72,0.71 89.6 0 0 -0.7,0.72 v 57.29 a 1.01,1.16 89.7 0 1 -1.15,1.01 l -3.12,0.06 q -0.65,0.01 -0.15,0.48 z"
     id="path7555" />
  <path
     fill="#5b9bd5"
     d="m 118.57,190.73789 -9.5,-9.06 q -0.5,-0.47 0.15,-0.48 l 3.12,-0.06 a 1.01,1.16 89.7 0 0 1.15,-1.01 v -57.29 a 0.72,0.71 89.6 0 1 0.7,-0.72 l 9.64,-0.05 a 0.66,0.67 0 0 1 0.66,0.67 v 57.11 a 1.32,1.32 0 0 0 1.43,1.31 q 4.31,-0.37 2.5,1.24 -1.05,0.93 -1.15,1.04 -3.88,4.01 -7.51,7.29 a 0.85,0.89 46 0 1 -1.19,0.01 z"
     id="path7557" />
  <path
     fill="#000000"
     d="m 23.06,143.03789 q 1.59,0.09 3.17,0.18 1.88,0.1 1,1.39 a 1.02,0.88 13.6 0 1 -0.8,0.41 l -3.38,0.1 a 0.51,0.56 89.4 0 0 -0.55,0.51 l 0.02,3.28 a 1.5,1.72 85.4 0 0 1.95,1.44 q 4.14,-0.57 3.65,1.19 a 0.73,0.68 7.4 0 1 -0.69,0.5 l -7.01,-0.11 a 0.53,0.56 0 0 1 -0.52,-0.55 l -0.11,-13.76 a 0.49,0.52 89.5 0 1 0.52,-0.5 l 7.11,-0.01 a 0.73,0.79 80.3 0 1 0.72,0.47 q 0.57,1.45 -1.4,1.45 -1.85,-0.01 -3.7,0.08 a 0.52,0.54 88.9 0 0 -0.52,0.52 v 2.88 a 0.57,0.53 1.7 0 0 0.54,0.53 z"
     id="path7559" />
  <path
     fill="#000000"
     d="m 51.2,151.51789 q -8.42,2.32 -8.96,-6.7 -0.26,-4.3 2.43,-6.29 2.38,-1.77 5.8,-1.41 4.83,0.52 5.35,6.44 0.29,3.34 -1.4,6.21 -0.64,1.09 0.63,1.05 3.08,-0.1 2.07,2.72 a 0.62,0.62 0 0 1 -0.69,0.39 q -2.53,-0.43 -4.4,-2.2 a 0.88,0.86 58.7 0 0 -0.83,-0.21 z m -2.3695,-1.262 a 3.96,5.71 1.5 0 0 4.1081,-5.6043 3.96,5.71 1.5 0 0 -3.8091,-5.8117 3.96,5.71 1.5 0 0 -4.1081,5.6043 3.96,5.71 1.5 0 0 3.8091,5.8117 z"
     id="path7561" />
  <path
     fill="#000000"
     d="m 33.46,141.97789 q 2.66,-1.73 4.61,-0.28 1.45,1.07 1.61,3.78 0.16,2.66 0.02,5.8 a 0.77,0.77 0 0 1 -0.69,0.73 q -2.79,0.31 -1.83,-2 0.58,-1.4 -0.39,-5.65 a 1.18,1.51 6.9 0 0 -0.49,-0.81 q -1.34,-1.02 -2.55,0.31 a 1.34,1.37 66.5 0 0 -0.36,0.89 l -0.17,6.57 a 0.76,0.66 82.5 0 1 -0.45,0.68 q -2.59,0.89 -2.41,-1.57 0.12,-1.62 0.12,-1.73 -0.02,-3.41 0.06,-6.82 a 0.79,0.71 81.5 0 1 0.47,-0.71 q 1.19,-0.44 1.83,0.64 a 0.46,0.43 58.7 0 0 0.62,0.17 z"
     id="path7565" />
  <path
     fill="#000000"
     d="m 62.93,149.94789 q 2.34,-0.23 2.21,-3.39 -0.1,-2.34 -0.22,-4.79 a 0.62,0.61 82.8 0 1 0.48,-0.63 q 2.58,-0.56 2.42,1.41 -0.08,0.98 -0.08,1.06 0.01,3.35 0.1,6.71 0.08,2.96 -2.8,1.12 a 0.94,0.94 0 0 0 -0.89,-0.06 q -2.56,1.19 -4.19,0.08 -1.23,-0.85 -1.41,-3.22 -0.15,-1.89 -0.1,-3.78 0.01,-0.11 -0.09,-1.76 -0.13,-2.17 2.33,-1.68 a 0.62,0.62 0 0 1 0.5,0.61 l 0.03,6.74 a 1.59,1.56 87.2 0 0 1.71,1.58 z"
     id="path7567" />
  <path
     fill="#000000"
     d="m 74.72,149.97789 a 3.62,3.59 41.2 0 0 2.72,-0.17 q 2.36,-1.15 2.1,0.47 a 0.97,1.16 75.6 0 1 -0.54,0.75 q -3.44,2.08 -6.46,0.33 -2,-1.15 -2.38,-3.46 -0.25,-1.54 0.14,-3.09 0.39,-1.51 1.56,-2.51 2.58,-2.19 5.75,-0.69 1.56,0.74 2.09,2.08 0.51,1.26 0.22,2.71 a 0.64,0.68 5.7 0 1 -0.62,0.54 l -5.57,0.1 a 0.86,0.92 80.6 0 0 -0.87,1.14 q 0.43,1.32 1.86,1.8 z m 1.58,-6.7 q -2.28,-0.78 -3.29,1.03 a 0.41,0.4 21 0 0 0.27,0.58 q 1.86,0.48 3.73,0.05 a 0.46,0.49 74.4 0 0 0.37,-0.61 q -0.26,-0.76 -1.08,-1.05 z"
     id="path7569" />
  <path
     fill="#000000"
     d="m 86.89,149.94789 q 2.38,-0.23 2.25,-3.39 -0.1,-2.34 -0.22,-4.79 a 0.62,0.61 82.8 0 1 0.48,-0.63 q 2.58,-0.56 2.42,1.41 -0.08,0.99 -0.08,1.05 0,3.74 0,7.47 a 0.99,0.67 81.2 0 1 -0.38,0.81 q -0.86,0.44 -2.54,-0.46 a 0.89,0.9 44.7 0 0 -0.86,0.01 q -2.39,1.35 -4.08,0 -1.15,-0.92 -1.33,-3.15 -0.15,-1.86 -0.1,-3.74 0.01,-0.18 -0.09,-1.91 -0.14,-2.36 2.4,-1.49 a 0.7,0.72 9 0 1 0.48,0.68 v 6.64 a 1.5,1.5 0 0 0 1.65,1.49 z"
     id="path7571" />
  <path
     fill="#000000"
     d="m 98.42,149.85789 a 3.55,3.56 47.1 0 0 2.29,0.08 q 3.21,-0.95 2.68,0.61 a 1.08,1.37 81 0 1 -0.64,0.69 q -3.59,1.86 -6.28,0.07 -2.33,-1.56 -2.45,-4.76 -0.16,-4.26 4.09,-5.22 2.43,-0.54 4.1,0.58 2.1,1.41 1.68,4.47 a 0.6,0.66 4 0 1 -0.59,0.56 l -5.37,0.1 a 1.03,1.08 76.3 0 0 -0.97,1.51 q 0.5,0.95 1.46,1.31 z m 1.88,-6.58 q -2.32,-0.81 -3.29,1.03 a 0.41,0.4 21 0 0 0.27,0.58 q 1.86,0.48 3.73,0.05 a 0.46,0.49 74.4 0 0 0.37,-0.61 q -0.26,-0.77 -1.08,-1.05 z"
     id="path7573" />
  <path
     fill="#000000"
     d="m 164.6,145.29789 a 0.86,0.86 0 0 0 1.06,-0.91 q -0.34,-3.62 0.91,-3.08 a 0.66,0.86 9.4 0 1 0.41,0.76 l -0.26,10.25 q -0.02,0.81 -0.65,0.29 -0.83,-0.69 -2.27,0.27 -2.85,1.91 -3.62,-2.25 -1.25,-6.73 4.42,-5.33 z m -1.2387,6.8194 a 2.17,3.06 1.1 0 0 2.2283,-3.0177 2.17,3.06 1.1 0 0 -2.1109,-3.1011 2.17,3.06 1.1 0 0 -2.2283,3.0177 2.17,3.06 1.1 0 0 2.1109,3.1011 z"
     id="path7575" />
  <path
     fill="#000000"
     d="m 174.42,145.24789 0.2,-3.5 a 0.54,0.58 2.6 0 1 0.56,-0.55 q 1.13,0.03 0.81,1.87 -0.58,3.31 -0.1,9.18 a 0.35,0.35 0 0 1 -0.44,0.36 q -1.38,-0.32 -2.7,0.3 -1.86,0.86 -2.93,-0.88 -1.51,-2.44 -0.54,-4.81 0.58,-1.43 1.81,-1.92 1.38,-0.54 2.91,0.22 a 0.29,0.31 13.9 0 0 0.42,-0.27 z m -2.1175,6.8577 a 2.2,3.06 2.2 0 0 2.3159,-2.9732 2.2,3.06 2.2 0 0 -2.0809,-3.1422 2.2,3.06 2.2 0 0 -2.3159,2.9732 2.2,3.06 2.2 0 0 2.0809,3.1422 z"
     id="path7577" />
  <path
     fill="#000000"
     d="m 179.99,142.04789 a 0.92,0.92 0 0 1 -0.92,0.92 0.92,0.92 0 0 1 -0.92,-0.92 0.92,0.92 0 0 1 0.92,-0.92 0.92,0.92 0 0 1 0.92,0.92 z"
     id="path7579" />
  <path
     fill="#000000"
     d="m 248.8452,152.40739 a 0.57,0.57 0 0 1 -0.5779,0.562 l -0.2999,-0.004 a 0.57,0.57 0 0 1 -0.562,-0.5779 l 0.1494,-10.6989 a 0.57,0.57 0 0 1 0.5779,-0.562 l 0.2999,0.004 a 0.57,0.57 0 0 1 0.562,0.5779 z"
     id="path7581" />
  <path
     fill="#000000"
     d="m 155.93,150.09789 h -3.38 a 0.8,0.82 12.8 0 0 -0.73,0.47 l -0.84,1.85 a 0.66,1.2 15 0 1 -0.64,0.67 q -0.47,0.13 -0.69,-0.3 a 0.75,1.25 32.3 0 1 0.02,-0.93 q 1.69,-4.28 3.23,-8.61 0.61,-1.7 1.98,-1 a 1.35,1.11 89.4 0 1 0.6,0.72 l 3.35,9.12 a 0.88,0.61 64.4 0 1 -0.14,0.88 q -0.24,0.2 -0.56,0.12 a 1.19,0.62 73.7 0 1 -0.64,-0.67 l -0.84,-1.85 a 0.79,0.79 0 0 0 -0.72,-0.47 z m -2.76,-1.12 2.27,0.09 a 0.46,0.4 84.8 0 0 0.4,-0.55 q -1.79,-9.7 -3.1,-0.13 a 0.46,0.52 5.5 0 0 0.43,0.59 z"
     id="path7583" />
  <path
     fill="#000000"
     d="m 304.67,144.18789 q -0.36,0.09 -0.66,0.36 -0.38,0.32 -0.61,0.4 -1.29,0.43 -0.79,-0.64 a 3.06,3.07 0.3 0 1 1.52,-1.51 q 2.85,-1.29 2.68,0.78 -0.07,0.89 -0.07,0.98 0,2.47 0,4.95 0,0.09 -0.09,1.13 -0.15,1.7 1.6,1.51 a 0.56,1.16 76.8 0 1 0.9,0.2 q 0.26,0.29 -0.17,0.59 -0.2,0.13 -0.52,0.13 -2.58,0.04 -5.16,-0.04 a 0.63,0.36 6.2 0 1 -0.66,-0.48 q 0.15,-0.44 1.76,-0.59 a 0.88,0.91 86.8 0 0 0.82,-0.89 l -0.03,-6.44 a 0.45,0.41 83 0 0 -0.52,-0.44 z"
     id="path7585" />
  <path
     fill="#000000"
     d="m 314.43,153.29639 a 3.92,5.73 1.3 0 1 -3.789,-5.8174 3.92,5.73 1.3 0 1 4.049,-5.6396 3.92,5.73 1.3 0 1 3.789,5.8174 3.92,5.73 1.3 0 1 -4.049,5.6396 z m 0.0588,-1.0387 a 2.42,4.72 0.5 0 0 2.4611,-4.6987 2.42,4.72 0.5 0 0 -2.3787,-4.7409 2.42,4.72 0.5 0 0 -2.4611,4.6987 2.42,4.72 0.5 0 0 2.3787,4.7409 z"
     id="path7587" />
  <path
     fill="#000000"
     d="m 294.8,145.03789 q 3.68,0.27 -0.14,1.34 a 0.62,0.67 80.7 0 0 -0.49,0.63 l 0.2,4.12 a 0.91,0.71 13.9 0 0 0.53,0.68 l 1.16,0.52 q 0.5,0.23 0,0.49 -2.28,1.2 -2.94,-1.49 -0.52,-2.09 -0.38,-4.22 a 0.86,0.86 0 0 0 -0.34,-0.74 q -1.28,-0.95 -0.34,-1.35 a 0.86,1.17 81.9 0 0 0.63,-0.62 q 0.92,-2.93 1.52,0.11 a 0.67,0.65 86.4 0 0 0.59,0.53 z"
     id="path7593" />
  <path
     fill="#000000"
     d="m 179.8121,152.48139 a 0.53,0.53 0 0 1 -0.5328,0.5272 l -0.28,-0.001 a 0.53,0.53 0 0 1 -0.5272,-0.5328 l 0.0358,-6.8399 a 0.53,0.53 0 0 1 0.5328,-0.5272 l 0.28,0.001 a 0.53,0.53 0 0 1 0.5272,0.5328 z"
     id="path7599" />
  <path
     fill="#000000"
     d="m 184.05,146.87789 q -0.99,0.67 -0.31,4.69 0.28,1.65 -0.72,1.38 a 0.63,0.75 5.4 0 1 -0.48,-0.69 l -0.1,-6.24 a 0.69,0.56 85.7 0 1 0.47,-0.68 q 0.38,-0.05 0.74,0.13 a 1.05,0.77 40.3 0 0 0.84,0.06 q 3.84,-1.88 4.25,2.54 0.29,3.08 0,4.25 -0.29,1.17 -0.92,0.62 a 0.88,1.27 14 0 1 -0.33,-0.87 q 0.01,-1.62 0.04,-3.25 0.09,-4.33 -3.48,-1.94 z"
     id="path7601" />
  <path
     fill="#000000"
     d="m 192.8,150.99789 q 1.24,0 2.47,0.14 1.36,0.16 2.12,1.03 2,2.29 -1.59,3.71 -2.83,1.13 -4.92,-1.01 a 0.59,1.22 12.7 0 1 -0.2,-0.85 l 0.52,-6.46 q 0.2,-2.49 2.42,-2.49 1.62,0 3.62,-0.02 1.11,-0.02 0.66,0.68 -0.11,0.16 -0.53,0.43 -0.61,0.39 -0.39,1.13 a 1.59,0.71 62.9 0 1 0.05,0.95 q -0.79,2.21 -3.29,1.83 -1.14,-0.17 -1.38,0.44 a 0.44,0.36 8.6 0 0 0.44,0.49 z m 2.9,-3.43 a 1.67,1.67 0 0 0 -1.67,-1.67 1.67,1.67 0 0 0 -1.67,1.67 1.67,1.67 0 0 0 1.67,1.67 1.67,1.67 0 0 0 1.67,-1.67 z m 0.9397,5.9431 a 1.59,2.35 89.1 0 0 -2.3747,-1.5529 1.59,2.35 89.1 0 0 -2.3247,1.6267 1.59,2.35 89.1 0 0 2.3747,1.5529 1.59,2.35 89.1 0 0 2.3247,-1.6267 z"
     id="path7603" />
  <path
     fill="#000000"
     d="m 204.95,147.37789 q -0.37,2.1 -0.24,4.24 0.03,0.55 -0.06,0.89 -0.28,1.07 -0.94,0.28 a 1.08,1.57 18.2 0 1 -0.27,-0.92 q 0.08,-2.35 0.06,-4.71 0,-0.08 -0.16,-1.16 -0.17,-1.18 1.44,-0.61 a 1.45,1.41 44.1 0 0 0.93,0 q 4.08,-1.44 3.96,3.18 -0.04,1.73 0.19,3.45 a 0.97,0.8 69.7 0 1 -0.29,0.83 q -1.03,0.83 -1.05,-1.03 -0.02,-1.54 -0.03,-3.09 0,-1.53 -0.53,-2.19 -0.9,-1.11 -2.52,0.04 a 1.35,1.17 80.5 0 0 -0.49,0.8 z"
     id="path7605" />
  <path
     fill="#000000"
     d="m 213.41,150.29789 q 1.22,2.99 4.63,1.37 1.57,-0.75 0.55,0.41 -0.16,0.18 -0.36,0.3 -4.06,2.41 -5.93,-1.37 -1.47,-2.97 0.66,-4.81 1.46,-1.27 3.19,-1.19 2.04,0.08 3.09,2.31 1.28,2.72 -2.5,1.75 -1.76,-0.45 -3.1,0.44 a 0.67,0.64 62.3 0 0 -0.23,0.79 z m 3.26,-4.05 a 1.96,1.97 44.1 0 0 -2.24,0.04 q -3.21,2.33 1.82,1.94 3.02,-0.24 0.42,-1.98 z"
     id="path7607" />
  <path
     fill="#000000"
     d="m 226.17,147.16789 q -0.58,0.16 -0.52,0.93 0.06,0.72 0.03,0.95 -0.13,0.92 -0.42,1.79 0,0.01 -0.35,1.51 -0.27,1.2 -1.55,0.54 a 1.07,1.28 2.2 0 1 -0.57,-0.74 q -0.8,-2.72 -1.85,-5.35 -0.25,-0.6 -0.28,-1.01 -0.09,-1.25 1.12,-0.45 a 0.99,1.45 1.8 0 1 0.5,0.78 l 1.15,4.27 q 0.44,1.65 0.94,-0.02 l 1.31,-4.37 q 0.84,-2.81 1.63,-0.02 l 1.43,5.11 q 0.38,1.34 0.75,0 l 1.41,-5.22 a 1.09,1.01 87.8 0 1 0.61,-0.71 q 1.23,-0.5 0.68,1.1 -1.06,3.01 -2.1,6.03 a 1.02,1.28 1.9 0 1 -0.6,0.7 q -1.36,0.59 -1.69,-0.98 -0.67,-3.22 -0.99,-4.4 a 0.59,0.51 75.2 0 0 -0.64,-0.44 z"
     id="path7609" />
  <path
     fill="#000000"
     d="m 239.38,149.87789 q 0.68,3.39 4.41,1.74 1.8,-0.8 0.83,0.41 -0.18,0.23 -0.44,0.38 -2.2,1.33 -4.07,0.36 -1.6,-0.83 -2.11,-2.85 -0.61,-2.42 1.19,-3.92 1.5,-1.24 3.36,-0.96 2.41,0.36 2.61,3.23 a 0.51,0.55 84.8 0 1 -0.49,0.54 l -4.86,0.52 a 0.46,0.49 81.2 0 0 -0.43,0.55 z m 3.26,-3.7 a 1.73,1.72 43.3 0 0 -2.2,0.06 q -2.53,2.24 0.89,1.91 0.45,-0.04 1.33,-0.06 2.33,-0.06 -0.02,-1.91 z"
     id="path7611" />
  <path
     fill="#000000"
     d="m 252.37,150.05789 q 1.01,3.27 4.57,1.41 0.98,-0.52 0.93,0.11 -0.03,0.28 -0.3,0.51 -2.19,1.89 -4.39,0.79 -2.81,-1.4 -2.32,-4.21 0.39,-2.23 2.43,-3.3 2.93,-1.55 4.74,2 a 1.33,1 46.9 0 1 0.1,0.93 q -0.44,1.34 -2.41,0.85 -1.61,-0.39 -3.02,0.2 a 0.58,0.58 0 0 0 -0.33,0.71 z m 2.5,-4.07 q -1.77,-0.35 -2.22,0.85 a 0.89,0.89 0 0 0 0.81,1.2 q 3.73,0.1 3.02,-1.08 -0.44,-0.73 -1.61,-0.97 z"
     id="path7613" />
  <path
     fill="#000000"
     d="m 261.76,147.87789 q -0.15,1.89 0.09,3.75 0.09,0.63 -0.06,0.97 -0.28,0.69 -0.92,0.29 a 0.72,1.09 9.8 0 1 -0.36,-0.82 l -0.17,-6.18 a 0.4,0.43 2.8 0 1 0.45,-0.44 q 1.6,0.19 2.26,-0.07 1.79,-0.7 3.3,0.37 a 0.84,0.76 48.7 0 0 0.83,0.09 q 5.06,-2.55 4.7,3.74 -0.08,1.34 -0.17,2.68 a 0.98,0.63 85.9 0 1 -0.43,0.79 q -0.36,0.15 -0.63,-0.21 -0.16,-0.21 -0.16,-0.57 0,-1.9 0,-3.8 0,-1.45 -0.68,-2.06 -0.92,-0.82 -2.08,0.07 -0.7,0.55 -0.89,1.58 -0.32,1.78 -0.01,3.58 0.11,0.64 -0.04,0.97 -0.24,0.54 -0.79,0.37 a 0.66,0.82 5.1 0 1 -0.47,-0.71 q -0.09,-1.6 -0.09,-3.2 -0.01,-4.83 -3.27,-2.02 a 1.25,1.18 73.1 0 0 -0.41,0.83 z"
     id="path7615" />
  <path
     fill="#000000"
     d="m 275.41,150.29789 q 1.16,2.81 4.35,1.25 1.47,-0.72 0.95,0.31 -0.14,0.27 -0.43,0.46 -2.33,1.5 -4.29,0.39 -1.67,-0.94 -2.03,-2.98 -0.4,-2.24 1.3,-3.82 1.02,-0.94 2.33,-0.96 1.46,-0.02 2.55,0.87 0.95,0.77 1.08,1.91 0.23,1.94 -2.72,1.28 -1.68,-0.38 -2.88,0.49 a 0.69,0.65 61.4 0 0 -0.21,0.8 z m 3.23,-4.12 a 1.73,1.72 43.3 0 0 -2.2,0.06 q -2.53,2.24 0.89,1.91 0.45,-0.04 1.33,-0.06 2.33,-0.06 -0.02,-1.91 z"
     id="path7617" />
  <path
     fill="#000000"
     d="m 283.43,151.75789 q 0.28,-2.42 -0.08,-5.88 a 0.4,0.4 0 0 1 0.44,-0.43 q 1.24,0.11 2.43,-0.2 3.48,-0.93 3.43,2.82 -0.03,1.98 0.21,3.94 a 0.88,0.77 71 0 1 -0.33,0.81 q -1.29,0.86 -1.03,-1.5 0.25,-2.22 -0.31,-4.33 a 0.97,1.12 1.5 0 0 -0.58,-0.71 q -1.15,-0.49 -2.06,0.27 -0.61,0.51 -0.71,1.66 -0.17,2.02 -0.17,4.05 a 0.68,0.58 84.3 0 1 -0.46,0.66 q -0.94,0.2 -0.78,-1.16 z"
     id="path7619" />
  <path
     fill="#000000"
     d="m 241.98,238.66789 a 0.4,0.4 0 0 1 -0.4,0.4 H 1.4 a 0.4,0.4 0 0 1 -0.4,-0.4 v -40.2 a 0.4,0.4 0 0 1 0.4,-0.4 h 240.18 a 0.4,0.4 0 0 1 0.4,0.4 z m -48.99,-38.94 a 0.72,0.72 0 0 0 -0.72,-0.72 h -45.56 a 0.72,0.72 0 0 0 -0.72,0.72 v 37.62 a 0.72,0.72 0 0 0 0.72,0.72 h 45.56 a 0.72,0.72 0 0 0 0.72,-0.72 z m -144,0.18 a 0.84,0.84 0 0 0 -0.84,-0.84 H 2.83 a 0.84,0.84 0 0 0 -0.84,0.84 v 37.32 a 0.84,0.84 0 0 0 0.84,0.84 h 45.32 a 0.84,0.84 0 0 0 0.84,-0.84 z m 48,-0.04 a 0.8,0.8 0 0 0 -0.8,-0.8 h -45.4 a 0.8,0.8 0 0 0 -0.8,0.8 v 37.4 a 0.8,0.8 0 0 0 0.8,0.8 h 45.4 a 0.8,0.8 0 0 0 0.8,-0.8 z m 48,-0.11 a 0.69,0.69 0 0 0 -0.69,-0.69 H 98.68 a 0.69,0.69 0 0 0 -0.69,0.69 v 37.62 a 0.69,0.69 0 0 0 0.69,0.69 h 45.62 a 0.69,0.69 0 0 0 0.69,-0.69 z m 96,0.02 a 0.71,0.71 0 0 0 -0.71,-0.71 H 194.7 a 0.71,0.71 0 0 0 -0.71,0.71 v 37.58 a 0.71,0.71 0 0 0 0.71,0.71 h 45.58 a 0.71,0.71 0 0 0 0.71,-0.71 z"
     id="path7637" />
  <path
     fill="#ffffff"
     d="m 192.99,237.34789 a 0.72,0.72 0 0 1 -0.72,0.72 h -45.56 a 0.72,0.72 0 0 1 -0.72,-0.72 v -37.62 a 0.72,0.72 0 0 1 0.72,-0.72 h 45.56 a 0.72,0.72 0 0 1 0.72,0.72 z m -19.95,-16.35 -0.05,-8.93 a 0.85,0.98 13.3 0 0 -0.41,-0.78 q -1.54,-0.96 -2.34,0.28 -3.25,5.06 -5.56,10.28 a 0.87,0.87 0 0 0 0.8,1.22 q 1.63,0 3.22,-0.25 3.07,-0.47 2.43,2.03 a 0.83,1.11 27.2 0 0 0.15,0.88 q 0.75,0.89 1.44,0 a 1.25,0.79 68 0 0 0.16,-0.9 q -0.27,-1.61 1.04,-1.8 a 1.51,0.81 3.7 0 0 0.86,-0.39 q 1.11,-1.3 -1.23,-1.17 a 0.48,0.48 0 0 1 -0.51,-0.47 z"
     id="path7639" />
  <path
     fill="#ffffff"
     d="m 48.99,237.22789 a 0.84,0.84 0 0 1 -0.84,0.84 H 2.83 a 0.84,0.84 0 0 1 -0.84,-0.84 v -37.32 a 0.84,0.84 0 0 1 0.84,-0.84 h 45.32 a 0.84,0.84 0 0 1 0.84,0.84 z m -23.51,-23.1 0.22,9.19 a 1.34,1.26 0.7 0 1 -1.4,1.28 q -2.61,-0.11 -2.03,1 a 0.8,0.88 77.1 0 0 0.78,0.44 l 6.76,-0.11 a 0.42,0.53 83.3 0 0 0.53,-0.54 q -0.22,-0.81 -2.61,-1.19 a 0.51,0.51 0 0 1 -0.43,-0.5 l -0.12,-12.07 a 0.43,0.42 84.9 0 0 -0.5,-0.42 q -2.73,0.5 -4.35,2.77 a 0.82,0.94 48.9 0 0 -0.12,0.88 q 0.44,0.97 1.47,-0.35 0.44,-0.57 1.26,-0.79 a 0.43,0.44 82.5 0 1 0.54,0.41 z"
     id="path7641" />
  <path
     fill="#ffffff"
     d="m 96.99,237.26789 a 0.8,0.8 0 0 1 -0.8,0.8 h -45.4 a 0.8,0.8 0 0 1 -0.8,-0.8 v -37.4 a 0.8,0.8 0 0 1 0.8,-0.8 h 45.4 a 0.8,0.8 0 0 1 0.8,0.8 z m -24.87,-13.15 q 1.61,-1.97 3.3,-3.87 1.4,-1.57 1.97,-3.5 0.65,-2.2 -0.21,-3.8 -1.11,-2.11 -4.19,-1.85 -2.23,0.18 -3.22,1.57 -1.27,1.8 0.76,0.97 5.65,-2.29 4.91,2.37 -0.28,1.73 -1.78,3.62 -2.06,2.62 -4.1,4.96 -1.3,1.49 0.67,1.48 l 7.45,-0.05 a 0.91,0.65 7.5 0 0 0.79,-0.42 q 0.12,-0.28 0,-0.56 a 0.65,0.93 83.2 0 0 -0.79,-0.42 l -5.37,-0.1 q -0.51,-0.01 -0.19,-0.4 z"
     id="path7643" />
  <path
     fill="#ffffff"
     d="m 144.99,237.37789 a 0.69,0.69 0 0 1 -0.69,0.69 H 98.68 a 0.69,0.69 0 0 1 -0.69,-0.69 v -37.62 a 0.69,0.69 0 0 1 0.69,-0.69 h 45.62 a 0.69,0.69 0 0 1 0.69,0.69 z m -20.78,-18.93 a 0.44,0.44 0 0 1 -0.16,-0.67 q 2.1,-2.71 1.12,-4.7 -0.8,-1.62 -3.06,-2.08 -2.41,-0.49 -3.93,1.26 -1.71,1.95 3.45,0.47 a 1.32,1.32 0 0 1 1.6,0.8 q 1.28,3.33 -2.18,3.9 -0.12,0.02 -1.25,0.03 -1.27,0.02 -0.94,1.08 a 0.6,0.7 80.5 0 0 0.7,0.42 q 2.48,-0.2 3.49,0.8 2.07,2.04 0.64,3.63 -0.99,1.1 -2.74,0.97 -1.64,-0.12 -3.1,-0.97 a 0.5,0.43 26.8 0 0 -0.68,0.17 q -0.37,0.84 0.63,1.45 3.8,2.31 6.61,0.07 1.55,-1.25 1.84,-3.07 0.38,-2.41 -2.04,-3.56 z"
     id="path7645" />
  <path
     fill="#ffffff"
     d="m 240.99,237.35789 a 0.71,0.71 0 0 1 -0.71,0.71 H 194.7 a 0.71,0.71 0 0 1 -0.71,-0.71 v -37.58 a 0.71,0.71 0 0 1 0.71,-0.71 h 45.58 a 0.71,0.71 0 0 1 0.71,0.71 z m -29.31,-23.56 0.05,9.55 a 1.31,1.29 2.2 0 1 -1.42,1.29 q -2.41,-0.21 -2.18,0.91 a 0.57,0.73 86.3 0 0 0.68,0.47 q 5.27,0.16 6.43,0.05 2.55,-0.24 0.68,-1.48 a 0.8,1.03 54.8 0 0 -0.88,-0.04 q -0.99,0.4 -1.44,-0.21 -0.3,-0.41 -0.28,-1.47 0.13,-5.51 -0.02,-11.22 -0.03,-1.07 -0.86,-0.56 l -3.83,2.39 a 1.18,0.87 82.4 0 0 -0.46,0.83 q -0.16,1.66 2.78,-0.85 0.75,-0.65 0.75,0.34 z m 12.0044,12.517 a 5.15,7.72 1.6 0 0 5.3636,-7.5732 5.15,7.72 1.6 0 0 -4.9324,-7.8608 5.15,7.72 1.6 0 0 -5.3636,7.5732 5.15,7.72 1.6 0 0 4.9324,7.8608 z"
     id="path7647" />
  <path
     fill="#000000"
     d="m 24.94,213.71789 q -0.82,0.22 -1.26,0.79 -1.03,1.32 -1.47,0.35 a 0.82,0.94 48.9 0 1 0.12,-0.88 q 1.62,-2.27 4.35,-2.77 a 0.43,0.42 84.9 0 1 0.5,0.42 l 0.12,12.07 a 0.51,0.51 0 0 0 0.43,0.5 q 2.39,0.38 2.61,1.19 a 0.42,0.53 83.3 0 1 -0.53,0.54 l -6.76,0.11 a 0.8,0.88 77.1 0 1 -0.78,-0.44 q -0.58,-1.11 2.03,-1 a 1.34,1.26 0.7 0 0 1.4,-1.28 l -0.22,-9.19 a 0.43,0.44 82.5 0 0 -0.54,-0.41 z"
     id="path7649" />
  <path
     fill="#000000"
     d="m 72.31,224.51789 5.37,0.1 a 0.65,0.93 83.2 0 1 0.79,0.42 q 0.12,0.28 0,0.56 a 0.91,0.65 7.5 0 1 -0.79,0.42 l -7.45,0.05 q -1.97,0.01 -0.67,-1.48 2.04,-2.34 4.1,-4.96 1.5,-1.89 1.78,-3.62 0.74,-4.66 -4.91,-2.37 -2.03,0.83 -0.76,-0.97 0.99,-1.39 3.22,-1.57 3.08,-0.26 4.19,1.85 0.86,1.6 0.21,3.8 -0.57,1.93 -1.97,3.5 -1.69,1.9 -3.3,3.87 -0.32,0.39 0.19,0.4 z"
     id="path7651" />
  <path
     fill="#000000"
     d="m 124.21,218.44789 q 2.42,1.15 2.04,3.56 -0.29,1.82 -1.84,3.07 -2.81,2.24 -6.61,-0.07 -1,-0.61 -0.63,-1.45 a 0.5,0.43 26.8 0 1 0.68,-0.17 q 1.46,0.85 3.1,0.97 1.75,0.13 2.74,-0.97 1.43,-1.59 -0.64,-3.63 -1.01,-1 -3.49,-0.8 a 0.6,0.7 80.5 0 1 -0.7,-0.42 q -0.33,-1.06 0.94,-1.08 1.13,-0.01 1.25,-0.03 3.46,-0.57 2.18,-3.9 a 1.32,1.32 0 0 0 -1.6,-0.8 q -5.16,1.48 -3.45,-0.47 1.52,-1.75 3.93,-1.26 2.26,0.46 3.06,2.08 0.98,1.99 -1.12,4.7 a 0.44,0.44 0 0 0 0.16,0.67 z"
     id="path7653" />
  <path
     fill="#000000"
     d="m 173.55,221.46789 q 2.34,-0.13 1.23,1.17 a 1.51,0.81 3.7 0 1 -0.86,0.39 q -1.31,0.19 -1.04,1.8 a 1.25,0.79 68 0 1 -0.16,0.9 q -0.69,0.89 -1.44,0 a 0.83,1.11 27.2 0 1 -0.15,-0.88 q 0.64,-2.5 -2.43,-2.03 -1.59,0.25 -3.22,0.25 a 0.87,0.87 0 0 1 -0.8,-1.22 q 2.31,-5.22 5.56,-10.28 0.8,-1.24 2.34,-0.28 a 0.85,0.98 13.3 0 1 0.41,0.78 l 0.05,8.93 a 0.48,0.48 0 0 0 0.51,0.47 z m -3.11,-7.48 -3.68,7.07 a 0.32,0.34 13.3 0 0 0.29,0.5 l 3.44,-0.14 a 0.63,0.51 89.6 0 0 0.49,-0.61 l 0.16,-6.6 q 0.04,-1.64 -0.7,-0.22 z"
     id="path7655" />
  <path
     fill="#000000"
     d="m 211.68,213.79789 q 0,-0.99 -0.75,-0.34 -2.94,2.51 -2.78,0.85 a 1.18,0.87 82.4 0 1 0.46,-0.83 l 3.83,-2.39 q 0.83,-0.51 0.86,0.56 0.15,5.71 0.02,11.22 -0.02,1.06 0.28,1.47 0.45,0.61 1.44,0.21 a 0.8,1.03 54.8 0 1 0.88,0.04 q 1.87,1.24 -0.68,1.48 -1.16,0.11 -6.43,-0.05 a 0.57,0.73 86.3 0 1 -0.68,-0.47 q -0.23,-1.12 2.18,-0.91 a 1.31,1.29 2.2 0 0 1.42,-1.29 z"
     id="path7657" />
  <path
     fill="#000000"
     d="m 223.6844,226.31489 a 5.15,7.72 1.6 0 1 -4.9324,-7.8608 5.15,7.72 1.6 0 1 5.3636,-7.5732 5.15,7.72 1.6 0 1 4.9324,7.8608 5.15,7.72 1.6 0 1 -5.3636,7.5732 z m 0.225,-1.657 a 3.17,6.1 0.1 0 0 3.1806,-6.0945 3.17,6.1 0.1 0 0 -3.1594,-6.1055 3.17,6.1 0.1 0 0 -3.1806,6.0945 3.17,6.1 0.1 0 0 3.1594,6.1055 z"
     id="path7659" />
  <path
     fill="#ffffff"
     d="m 223.9094,224.65789 a 3.17,6.1 0.1 0 1 -3.1594,-6.1055 3.17,6.1 0.1 0 1 3.1806,-6.0945 3.17,6.1 0.1 0 1 3.1594,6.1055 3.17,6.1 0.1 0 1 -3.1806,6.0945 z"
     id="path7661" />
  <path
     fill="#ffffff"
     d="m 170.44,213.98789 q 0.74,-1.42 0.7,0.22 l -0.16,6.6 a 0.63,0.51 89.6 0 1 -0.49,0.61 l -3.44,0.14 a 0.32,0.34 13.3 0 1 -0.29,-0.5 z"
     id="path7663" />
</svg>
