<?xml version="1.0" encoding="UTF-8" standalone="no"?>
<svg
   version="1.1"
   viewBox="0 0 413.05786 138.11647"
   id="svg16692"
   sodipodi:docname="doubly-linked-list-node.svg"
   width="413.05786"
   height="138.11647"
   inkscape:version="1.1.2 (0a00cf5339, 2022-02-04)"
   xmlns:inkscape="http://www.inkscape.org/namespaces/inkscape"
   xmlns:sodipodi="http://sodipodi.sourceforge.net/DTD/sodipodi-0.dtd"
   xmlns="http://www.w3.org/2000/svg"
   xmlns:svg="http://www.w3.org/2000/svg">
  <defs
     id="defs16696" />
  <sodipodi:namedview
     id="namedview16694"
     pagecolor="#ffffff"
     bordercolor="#666666"
     borderopacity="1.0"
     inkscape:pageshadow="2"
     inkscape:pageopacity="0.0"
     inkscape:pagecheckerboard="0"
     showgrid="false"
     fit-margin-top="0"
     fit-margin-left="0"
     fit-margin-right="0"
     fit-margin-bottom="0"
     inkscape:zoom="0.69564345"
     inkscape:cx="68.282107"
     inkscape:cy="17.250216"
     inkscape:window-width="1362"
     inkscape:window-height="729"
     inkscape:window-x="1920"
     inkscape:window-y="18"
     inkscape:window-maximized="1"
     inkscape:current-layer="svg16692" />
  <g
     stroke-width="2"
     fill="none"
     stroke-linecap="butt"
     id="g16562"
     transform="translate(-80,-38.934958)">
    <path
       stroke="#95b0c9"
       vector-effect="non-scaling-stroke"
       d="m 175.75,175.96 q 21.25,-0.36 42.5,-0.24 83.63,0.44 167.25,-0.01"
       id="path16376" />
    <path
       stroke="#9fb8cd"
       vector-effect="non-scaling-stroke"
       d="m 385.5,175.71 q 1.21,0.29 3.75,0.29 39.13,0 78.25,-0.03 10.17,-0.01 16.99,-6.31 4.21,-3.89 5.93,-9.38 1.55,-4.96 1.58,-11.28 0.18,-41.87 -0.2,-83.74 -0.06,-6.21 -1.39,-9.83 -3.69,-10.08 -13.74,-13.81 -3.67,-1.36 -10.02,-1.44 -44.7,-0.54 -89.4,0.11"
       id="path16378" />
    <path
       stroke="#83a5bf"
       vector-effect="non-scaling-stroke"
       d="M 377.25,40.29 H 329"
       id="path16380" />
    <path
       stroke="#9fb8cd"
       vector-effect="non-scaling-stroke"
       d="m 329,40.29 q -56.63,-0.63 -113.25,0"
       id="path16382" />
    <path
       stroke="#80a1b6"
       vector-effect="non-scaling-stroke"
       d="M 215.75,40.29 176,40.16"
       id="path16384" />
    <path
       stroke="#9fb8cd"
       vector-effect="non-scaling-stroke"
       d="m 176,40.16 q -34.44,-0.43 -68.88,0.02 -6.7,0.08 -10.54,1.45 Q 86,45.41 82.54,55.65 81,60.21 81,71.52 q 0,37.01 0,74.02 0,10.31 1.5,14.74 3.46,10.28 14.02,14.14 3.62,1.32 9.66,1.39 34.78,0.39 69.57,0.15"
       id="path16386" />
    <path
       stroke="#205984"
       vector-effect="non-scaling-stroke"
       d="m 176,40.16 v 1.71"
       id="path16388" />
    <path
       stroke="#8faec9"
       vector-effect="non-scaling-stroke"
       d="M 176,41.87 Q 121.22,42.23 107.75,42 90.23,41.7 84.5,56.17 q -1.24,3.12 -1.29,7.87 -0.4,43.48 -0.38,86.96 0,7.1 3.23,12.44 6.59,10.87 19.94,10.56 15.52,-0.36 70,0.21"
       id="path16390" />
    <path
       stroke="#356997"
       vector-effect="non-scaling-stroke"
       d="m 176,174.21 q -0.97,0.72 -0.25,1.75"
       id="path16392" />
    <path
       stroke="#9fa6ac"
       vector-effect="non-scaling-stroke"
       d="m 216,41.79 q 0,63.98 0,127.96 0,2.64 0.29,3.75"
       id="path16394" />
    <path
       stroke="#deebf7"
       vector-effect="non-scaling-stroke"
       d="m 216.29,173.5 q -0.15,0.44 0.21,0.54"
       id="path16396" />
    <path
       stroke="#85a6c5"
       vector-effect="non-scaling-stroke"
       d="M 216.5,174.04 176,174.21"
       id="path16398" />
    <path
       stroke="#305267"
       vector-effect="non-scaling-stroke"
       d="m 216.5,41.54 q -0.15,0.3 -0.5,0.25"
       id="path16400" />
    <path
       stroke="#7097b2"
       vector-effect="non-scaling-stroke"
       d="m 216,41.79 -40,0.08"
       id="path16402" />
    <path
       stroke="#9fa6ac"
       vector-effect="non-scaling-stroke"
       d="m 217,41.79 q 0.07,100.4 -0.06,131.4 -0.01,0.94 -0.65,0.31"
       id="path16404" />
    <path
       stroke="#9fa6ac"
       vector-effect="non-scaling-stroke"
       d="m 353.25,41.79 q -0.38,88.4 -0.25,131.46 0,0.57 0.71,0.5"
       id="path16406" />
    <path
       stroke="#deebf7"
       vector-effect="non-scaling-stroke"
       d="m 353.71,173.75 q 0.06,0.23 0.29,0.29"
       id="path16408" />
    <path
       stroke="#85a6c5"
       vector-effect="non-scaling-stroke"
       d="m 354,174.04 q -18.63,0.28 -37.26,0.09 -12,-0.12 -19.99,-0.08 -40.13,0.16 -80.25,-0.01"
       id="path16410" />
    <path
       stroke="#356997"
       vector-effect="non-scaling-stroke"
       d="m 385.5,175.71 q 0.4,-0.65 0.25,-1.42"
       id="path16412" />
    <path
       stroke="#8faec9"
       vector-effect="non-scaling-stroke"
       d="m 385.75,174.29 q 58.56,-0.72 80.5,-0.29 13.71,0.27 20.4,-10.1 1.75,-2.71 2.54,-5.66 0.81,-3.04 0.81,-6.24 0,-39.84 0,-79.68 0,-11.92 -1.34,-16 Q 485.8,47.64 476.99,43.85 473.3,42.26 467.63,42.09 463.4,41.96 458,42 423.53,42.26 377.25,41.71"
       id="path16414" />
    <path
       stroke="#235d8d"
       vector-effect="non-scaling-stroke"
       d="m 377.25,41.71 q -0.17,-0.73 0,-1.42"
       id="path16416" />
    <path
       stroke="#85a6c5"
       vector-effect="non-scaling-stroke"
       d="M 385.75,174.29 354,174.04"
       id="path16418" />
    <path
       stroke="#235d8d"
       vector-effect="non-scaling-stroke"
       d="m 329,40.29 q -0.4,0.65 -0.25,1.42"
       id="path16420" />
    <path
       stroke="#8faec9"
       vector-effect="non-scaling-stroke"
       d="M 328.75,41.71 Q 283.38,42.33 238,41.86 227.5,41.75 217,41.79"
       id="path16422" />
    <path
       stroke="#4f697e"
       vector-effect="non-scaling-stroke"
       d="m 217,41.79 q -0.24,-0.21 -0.5,-0.25"
       id="path16424" />
    <path
       stroke="#205984"
       vector-effect="non-scaling-stroke"
       d="m 216.5,41.54 q -1.55,-0.25 -0.75,-1.25"
       id="path16426" />
    <path
       stroke="#729bbb"
       vector-effect="non-scaling-stroke"
       d="M 377.25,41.71 354,41.79"
       id="path16428" />
    <path
       stroke="#335670"
       vector-effect="non-scaling-stroke"
       d="m 354,41.79 q -0.39,0.23 -0.75,0"
       id="path16430" />
    <path
       stroke="#729bbb"
       vector-effect="non-scaling-stroke"
       d="m 353.25,41.79 -24.5,-0.08"
       id="path16432" />
    <path
       stroke="#9fa6ac"
       vector-effect="non-scaling-stroke"
       d="m 354,41.79 q -0.27,10.11 -0.23,20.21 0.23,54.63 0.31,109.25 0,1.28 -0.37,2.5"
       id="path16434" />
    <path
       stroke="#6f767c"
       vector-effect="non-scaling-stroke"
       d="m 130.06,63.19 q -4.32,-2.01 -9.08,-0.94 a 0.65,0.64 -4.4 0 0 -0.49,0.57 q -0.59,7.68 -0.03,15.43 a 0.71,0.68 -86.2 0 0 0.53,0.63 q 4.2,0.97 2.94,-4.18 a 1.35,1.34 -8.2 0 1 1.25,-1.67 q 6.07,-0.24 6.78,-5.29 0.48,-3.45 -1.9,-4.55"
       id="path16436" />
    <path
       stroke="#6f767c"
       vector-effect="non-scaling-stroke"
       d="m 137.53,67.04 q -0.77,-1.37 -2.27,-1.09 a 0.93,0.92 -5.2 0 0 -0.76,0.91 q 0,5 0,9.64 0,0.09 -0.08,0.99 -0.17,2 2.6,1.4 a 0.97,0.97 82 0 0 0.76,-1.01 q -0.17,-3.15 0.08,-5.87 0.14,-1.57 0.92,-2.27 1.04,-0.94 2.67,-0.66 a 0.42,0.39 4.3 0 0 0.49,-0.39 q -0.08,-4.82 -3.81,-1.53 a 0.4,0.39 55.3 0 1 -0.6,-0.12"
       id="path16438" />
    <path
       stroke="#6f767c"
       vector-effect="non-scaling-stroke"
       d="m 148.81,75.94 q -1.45,-0.03 -1.87,-1.15 a 0.47,0.43 -15.8 0 1 0.36,-0.58 q 2.67,-0.54 4.45,-0.21 3.5,0.65 3,-2.75 -0.6,-4.09 -3.74,-5.01 -2.7,-0.79 -5.25,0.99 -3.1,2.15 -2.55,6.22 0.38,2.86 2.31,4.39 2.25,1.77 5.43,1.04 2.11,-0.48 2.24,-0.52 1.68,-0.57 0.94,-2.59 a 0.62,0.58 -15.2 0 0 -0.69,-0.36 q -2.88,0.56 -4.63,0.53"
       id="path16440" />
    <path
       stroke="#6f767c"
       vector-effect="non-scaling-stroke"
       d="m 161.85,74.3 q -0.86,-2.59 -1.54,-5.91 -0.7,-3.35 -3.78,-2.26 a 0.57,0.55 72.9 0 0 -0.34,0.67 q 1.17,4.53 2.75,8.92 0.9,2.5 1.04,2.63 0.93,0.85 3.4,0.39 a 1.77,1.72 -85.6 0 0 1.35,-1.19 l 3.57,-10.68 a 0.49,0.48 -73.5 0 0 -0.33,-0.62 q -2.74,-0.71 -3.2,0.76 -1.12,3.59 -2.02,7.26 -0.39,1.57 -0.9,0.03"
       id="path16442" />
    <path
       stroke="#9aa0a6"
       vector-effect="non-scaling-stroke"
       d="m 101.29,144.75 q -0.7,4.35 -0.06,8.69 a 0.59,0.59 85.4 0 0 0.58,0.5 l 100.51,-0.12 a 0.51,0.5 -90 0 0 0.5,-0.51 L 203,107.87 a 0.88,0.87 89.1 0 0 -0.9,-0.88 l -10.35,0.3"
       id="path16444" />
    <path
       stroke="#888d8d"
       vector-effect="non-scaling-stroke"
       d="m 191.75,107.29 -89.98,-0.04 a 0.52,0.52 0 0 0 -0.52,0.52 l 0.04,36.98"
       id="path16446" />
    <path
       stroke="#44423b"
       vector-effect="non-scaling-stroke"
       d="m 191.75,107.29 q -0.02,1.89 -2.25,1.25"
       id="path16448" />
    <path
       stroke="#47657c"
       vector-effect="non-scaling-stroke"
       d="m 189.5,108.54 q -14,0.2 -28,0.08 -8.5,-0.07 -19.99,0.11 -14.38,0.22 -28.76,-0.18 -4.85,-0.13 -9.69,0.23 a 0.54,0.53 -1.7 0 0 -0.51,0.53 l 0.16,34.69"
       id="path16450" />
    <path
       stroke="#44423b"
       vector-effect="non-scaling-stroke"
       d="m 102.71,144 q -0.57,0.61 -1.42,0.75"
       id="path16452" />
    <path
       stroke="#597895"
       vector-effect="non-scaling-stroke"
       d="m 102.71,144 0.03,6.97 a 1.29,1.27 89.3 0 0 1.29,1.28 q 39.85,-0.5 79.47,-0.24 8,0.06 16.88,-0.02 a 0.63,0.62 90 0 0 0.62,-0.63 v -41.77 a 0.6,0.6 1 0 0 -0.58,-0.6 l -10.92,-0.45"
       id="path16454" />
    <path
       stroke="#6f767c"
       vector-effect="non-scaling-stroke"
       d="m 260.7,63.03 q -0.55,7.66 0.07,15.16 a 0.64,0.64 2.3 0 0 0.54,0.58 q 2.75,0.44 5.5,0.19 3.44,-0.31 5.44,-2.06 2.84,-2.48 2.55,-6.62 -0.16,-2.32 -0.74,-4.03 -0.83,-2.42 -2.87,-3.19 -4.06,-1.53 -9.62,-0.93 a 0.98,0.97 89.3 0 0 -0.87,0.9"
       id="path16456" />
    <path
       stroke="#6f767c"
       vector-effect="non-scaling-stroke"
       d="m 294.39,65.44 q 0.39,-3.46 -2.86,-2.31 a 0.66,0.6 77.5 0 0 -0.39,0.68 q 0.21,2.04 -1.59,2.63 a 0.92,0.73 -7 0 0 -0.6,0.61 q -0.3,1.86 1.5,2 a 0.54,0.52 1.9 0 1 0.5,0.51 q 0.1,2.72 0.13,5.44 0.05,4.74 4.75,3.95 1.99,-0.34 1.33,-2.78 a 0.5,0.49 -16.2 0 0 -0.63,-0.34 q -0.91,0.28 -1.46,0.04 -0.48,-0.22 -0.64,-1.08 -0.47,-2.64 -0.02,-5.29 a 0.52,0.51 8.6 0 1 0.58,-0.42 q 3.19,0.43 2.13,-2.55 a 0.76,0.74 -8.6 0 0 -0.68,-0.49 l -1.63,-0.08 a 0.47,0.44 -85.3 0 1 -0.42,-0.52"
       id="path16458" />
    <path
       stroke="#6f767c"
       vector-effect="non-scaling-stroke"
       d="m 283.78,70.05 q 0.1,1.14 -1.23,1.07 -1.49,-0.08 -1.6,-0.07 -5.53,0.55 -4.03,5.91 a 1.56,1.47 -80.5 0 0 0.53,0.79 q 3.07,2.39 6.39,0.28 a 0.45,0.43 58.6 0 1 0.62,0.17 q 0.76,1.31 2.28,0.7 a 0.8,0.73 80.7 0 0 0.46,-0.71 q 0.09,-3.84 -0.01,-7.69 -0.09,-3.82 -3.76,-4.37 -2.58,-0.37 -5.01,0.49 -1.8,0.64 -1.5,2.23 a 1.22,1.21 70.8 0 0 1.75,0.85 q 2.28,-1.2 4.55,-0.34 a 0.89,0.77 9.9 0 1 0.56,0.69"
       id="path16460" />
    <path
       stroke="#6f767c"
       vector-effect="non-scaling-stroke"
       d="m 306.41,70 q 0.1,0.34 -0.09,0.61 a 1.18,0.65 8.7 0 1 -0.88,0.32 q -3.39,-0.02 -4.63,0.88 -2.35,1.72 -1.79,4.09 0.49,2.03 2.47,2.8 1.97,0.76 4.2,-0.26 A 1.37,1.03 -34.4 0 1 307,78.5 q 1.06,0.88 2.25,0.41 a 0.75,0.73 78.4 0 0 0.46,-0.72 l -0.21,-9.21 a 2.65,2.34 12.9 0 0 -1.55,-2.16 q -3.48,-1.57 -6.9,-0.19 -0.95,0.39 -1.32,1.08 -0.58,1.08 0.32,1.92 a 0.8,0.67 -35 0 0 0.83,0.07 q 2.38,-1.18 4.84,-0.32 a 1.14,0.77 7.9 0 1 0.69,0.62"
       id="path16462" />
    <path
       stroke="#818586"
       vector-effect="non-scaling-stroke"
       d="M 303.25,107.29 H 240.5"
       id="path16464" />
    <path
       stroke="#9aa0a6"
       vector-effect="non-scaling-stroke"
       d="m 240.5,107.29 -6.95,-0.04 a 0.56,0.49 90 0 0 -0.49,0.56 l -0.06,45.7 a 0.5,0.49 -0.6 0 0 0.51,0.49 q 10.74,-0.3 21.49,-0.19 16.59,0.17 19.99,0.16 27.86,-0.07 56.88,0.04 A 1.13,1.13 0 0 0 333,152.88 V 108.24 A 1.24,1.22 89.5 0 0 331.76,107 l -28.51,0.29"
       id="path16466" />
    <path
       stroke="#3d3a35"
       vector-effect="non-scaling-stroke"
       d="m 240.5,107.29 q -0.56,0.67 0,1.25"
       id="path16468" />
    <path
       stroke="#597895"
       vector-effect="non-scaling-stroke"
       d="m 240.5,108.54 -5.01,0.41 a 0.55,0.54 87.8 0 0 -0.5,0.55 l 0.03,41.78 a 0.75,0.73 1.7 0 0 0.71,0.73 q 7.87,0.45 15.85,0.3 12.93,-0.26 15.84,-0.24 24.71,0.19 49.43,-0.04 0.85,0 6.79,0.13 3.41,0.08 6.8,-0.18 a 0.54,0.53 -2.3 0 0 0.5,-0.53 L 331,109.67 a 0.7,0.68 0.9 0 0 -0.68,-0.68 l -27.07,-0.53"
       id="path16470" />
    <path
       stroke="#3d3a35"
       vector-effect="non-scaling-stroke"
       d="m 303.25,108.46 q 0.51,-0.62 0,-1.17"
       id="path16472" />
    <path
       stroke="#405d75"
       vector-effect="non-scaling-stroke"
       d="m 303.25,108.46 -62.75,0.08"
       id="path16474" />
    <path
       stroke="#6f767c"
       vector-effect="non-scaling-stroke"
       d="m 401.92,74.87 q -2.32,-5.27 -4.83,-10.46 -0.84,-1.75 -1.85,-2.26 -1.5,-0.75 -3.24,0.16 a 0.94,0.89 79.3 0 0 -0.48,0.75 q -0.6,7.5 -0.12,15 a 0.89,0.81 -81.2 0 0 0.48,0.72 q 2.81,1.26 2.68,-1.61 -0.05,-1.28 -0.05,-1.35 0.03,-4.75 -0.07,-9.52 -0.04,-1.78 0.63,-0.13 2.34,5.75 5.54,11.25 0.77,1.32 1.79,1.6 1.4,0.39 2.64,-0.51 a 1.03,1 72.4 0 0 0.41,-0.82 V 62.81 a 0.79,0.75 -79.5 0 0 -0.47,-0.72 q -1.36,-0.57 -2.33,0.35 a 1.34,1.02 75.2 0 0 -0.36,0.87 q -0.19,5.6 0.26,11.18 0.01,0.16 0.11,0.38 0.21,0.43 -0.25,0.39 a 0.67,0.55 77.9 0 1 -0.49,-0.39"
       id="path16476" />
    <path
       stroke="#6f767c"
       vector-effect="non-scaling-stroke"
       d="m 438.39,65.44 q 0.39,-3.46 -2.86,-2.31 a 0.66,0.6 77.5 0 0 -0.39,0.68 q 0.21,2.04 -1.59,2.63 a 0.91,0.75 -6.7 0 0 -0.6,0.62 q -0.33,1.9 1.49,2 a 0.55,0.53 0.6 0 1 0.52,0.51 q 0.13,3.29 0.04,4.68 -0.32,5.09 4.72,4.51 1.93,-0.22 1.51,-2.36 a 0.6,0.6 -7.2 0 0 -0.62,-0.48 q -2.09,0.1 -2.38,-1.3 0,-0.02 -0.04,-2.24 -0.02,-1.45 0.22,-2.88 A 0.53,0.51 8.5 0 1 439,69.08 q 3.18,0.42 2.12,-2.55 a 0.76,0.74 -8.6 0 0 -0.68,-0.49 l -1.63,-0.08 a 0.47,0.44 -85.3 0 1 -0.42,-0.52"
       id="path16478" />
    <path
       stroke="#6f767c"
       vector-effect="non-scaling-stroke"
       d="m 409.37,68.57 q -1.77,2.48 -1.12,5.93 0.71,3.75 4.25,4.25 2.47,0.35 4.17,-0.11 1.49,-0.41 1.79,-0.59 0.94,-0.56 0.5,-2.2 a 0.83,0.83 70.1 0 0 -1.14,-0.54 q -2.82,1.28 -5.55,0.1 a 1.19,0.93 8.7 0 1 -0.65,-0.69 q -0.28,-1 1.38,-0.72 1.6,0.27 5.56,-0.13 a 0.8,0.76 5 0 0 0.66,-0.53 q 1.36,-4.57 -2.41,-6.65 -4.36,-2.41 -7.44,1.88"
       id="path16480" />
    <path
       stroke="#6f767c"
       vector-effect="non-scaling-stroke"
       d="m 425.85,75.56 q 0.95,-2.05 1.64,0.1 1.22,3.83 4.17,3.26 a 0.83,0.8 69.3 0 0 0.52,-1.22 l -2.71,-4.75 a 1.03,0.88 46.3 0 1 -0.05,-0.91 l 2.56,-4.92 A 0.78,0.73 -72 0 0 431.46,66 q -2.71,-0.37 -3.46,2.25 -1.22,4.24 -2.25,0 -0.7,-2.89 -3.79,-2.24 a 0.85,0.81 69.5 0 0 -0.52,1.23 l 2.61,4.81 a 1.05,0.74 -50.9 0 1 -0.06,0.87 l -2.73,5.3 a 0.5,0.48 25.1 0 0 0.26,0.68 q 2.17,0.85 3.22,-1.16 0.82,-1.57 1.11,-2.18"
       id="path16482" />
    <path
       stroke="#888d8d"
       vector-effect="non-scaling-stroke"
       d="m 459.75,107.29 h -59"
       id="path16484" />
    <path
       stroke="#6f767c"
       vector-effect="non-scaling-stroke"
       d="m 400.75,107.29 -31,-0.04 a 0.5,0.5 0 0 0 -0.5,0.5 l 0.04,16.25"
       id="path16486" />
    <path
       stroke="#9aa0a6"
       vector-effect="non-scaling-stroke"
       d="m 369.29,124 -0.23,29.45 a 0.49,0.49 -0.6 0 0 0.5,0.49 q 9.99,-0.28 19.97,-0.16 15.59,0.19 19.96,0.17 29.8,-0.12 60.58,0.06 a 0.92,0.91 -0.3 0 0 0.92,-0.92 l -0.17,-45.4 a 0.56,0.55 2.9 0 0 -0.5,-0.55 q -5.29,-0.47 -10.57,0.15"
       id="path16488" />
    <path
       stroke="#2b2b2a"
       vector-effect="non-scaling-stroke"
       d="m 369.29,124 h 1.17"
       id="path16490" />
    <path
       stroke="#597895"
       vector-effect="non-scaling-stroke"
       d="m 370.46,124 0.34,27.69 a 0.51,0.51 89.4 0 0 0.51,0.5 h 97.05 a 0.7,0.69 0 0 0 0.7,-0.69 l -0.07,-41.93 a 0.54,0.53 1.1 0 0 -0.52,-0.53 l -9.22,-0.33"
       id="path16492" />
    <path
       stroke="#44423b"
       vector-effect="non-scaling-stroke"
       d="m 459.25,108.71 q 0.49,-0.63 0.5,-1.42"
       id="path16494" />
    <path
       stroke="#47657c"
       vector-effect="non-scaling-stroke"
       d="m 459.25,108.71 q -26.99,-0.37 -48,0.04 -6.14,0.12 -10.5,-0.29"
       id="path16496" />
    <path
       stroke="#191711"
       vector-effect="non-scaling-stroke"
       d="m 400.75,107.29 q 0.51,0.62 0,1.17"
       id="path16498" />
    <path
       stroke="#2e4e6b"
       vector-effect="non-scaling-stroke"
       d="m 400.75,108.46 -29.81,0.22 a 0.51,0.49 90 0 0 -0.49,0.51 l 0.01,14.81"
       id="path16500" />
    <path
       stroke="#6f767c"
       vector-effect="non-scaling-stroke"
       d="m 127.31,65.44 q -1.29,-0.68 -2.65,-0.39 a 0.84,0.75 -89.3 0 0 -0.58,0.63 q -1.34,6.63 3.98,3.13 2.52,-1.65 -0.75,-3.37"
       id="path16502" />
    <path
       stroke="#6f767c"
       vector-effect="non-scaling-stroke"
       d="m 270.98,72.08 q 1.87,-7.01 -6.17,-7.02 a 0.51,0.5 0 0 0 -0.51,0.5 l -0.05,9.69 a 0.64,0.63 -82.6 0 0 0.48,0.63 q 2.27,0.55 4,-0.45 1.61,-0.93 2.25,-3.35"
       id="path16504" />
    <path
       stroke="#6f767c"
       vector-effect="non-scaling-stroke"
       d="m 150.31,69.19 q -2.96,-0.95 -3.43,1.75 a 0.45,0.44 -84.6 0 0 0.43,0.53 h 3.62 a 0.58,0.56 1.6 0 0 0.58,-0.53 q 0.08,-1.35 -1.2,-1.75"
       id="path16506" />
    <path
       stroke="#6f767c"
       vector-effect="non-scaling-stroke"
       d="m 280.91,75.96 q 1.86,0.52 2.53,-0.77 1.03,-2.02 -0.96,-1.81 -0.97,0.09 -1.46,0.13 -2.06,0.16 -0.88,1.91 a 1.37,1.33 -9 0 0 0.77,0.54"
       id="path16508" />
    <path
       stroke="#6f767c"
       vector-effect="non-scaling-stroke"
       d="m 302.94,75.81 q 2.73,1.08 3.18,-1.51 a 0.59,0.58 13.4 0 0 -0.41,-0.66 q -1.14,-0.36 -2.31,-0.09 -0.73,0.17 -1.09,0.73 -0.68,1.02 0.63,1.53"
       id="path16510" />
    <path
       stroke="#6f767c"
       vector-effect="non-scaling-stroke"
       d="m 411.62,70.58 a 0.55,0.54 -73.6 0 0 0.43,0.79 q 5.31,0.56 3.74,-1.45 -0.86,-1.09 -2.06,-0.96 -1.37,0.14 -2.11,1.62"
       id="path16512" />
    <path
       stroke="#2e4e6b"
       vector-effect="non-scaling-stroke"
       d="m 143.25,123.4 q -0.71,2.01 1.46,1.43 a 0.79,0.77 -3 0 0 0.58,-0.63 q 0.27,-1.77 -1.36,-1.41 a 0.98,0.96 -86.4 0 0 -0.68,0.61"
       id="path16514" />
    <path
       stroke="#2e4e6b"
       vector-effect="non-scaling-stroke"
       d="m 126.46,124.02 q -2.49,-1.38 -6.26,-0.88 a 1.09,1.07 -4.3 0 0 -0.94,1.07 l 0.05,12.98 a 0.88,0.76 -78.9 0 0 0.43,0.76 q 0.93,0.46 1.04,-0.72 Q 121,135 121,133.02 a 1.02,1.02 -89.6 0 1 1.02,-1.02 q 6.44,0.02 5.94,-5.67 a 2.95,2.95 12 0 0 -1.5,-2.31"
       id="path16516" />
    <path
       stroke="#2e4e6b"
       vector-effect="non-scaling-stroke"
       d="m 163.79,128.66 q 2.33,0.42 2.23,-1.11 a 0.51,0.45 -5.7 0 0 -0.57,-0.41 q -2.65,0.35 -2.29,-2.14 a 0.86,0.68 -72.7 0 0 -0.31,-0.8 q -1.29,-0.81 -1.37,1.67 a 1.01,0.99 74.9 0 1 -0.45,0.8 q -2.66,1.68 -0.05,1.84 a 0.56,0.56 2.2 0 1 0.52,0.56 q 0,2.6 0,4.83 0,2.19 0.59,3.09 1.1,1.7 3.66,0.76 0.76,-0.28 0.52,-0.84 a 0.76,0.55 -13.6 0 0 -0.76,-0.31 q -2.05,0.3 -2.26,-1.6 -0.11,-1.03 0.05,-5.94 a 0.42,0.42 5.4 0 1 0.49,-0.4"
       id="path16518" />
    <path
       stroke="#2e4e6b"
       vector-effect="non-scaling-stroke"
       d="m 134.5697,138.0595 a 5.6,5.09 97.7 0 0 5.7944,-4.8675 5.6,5.09 97.7 0 0 -4.2938,-6.2315 5.6,5.09 97.7 0 0 -5.7944,4.8675 5.6,5.09 97.7 0 0 4.2938,6.2315"
       id="path16520" />
    <path
       stroke="#2e4e6b"
       vector-effect="non-scaling-stroke"
       d="m 145,127.29 a 0.3,0.3 0 0 0 -0.3,-0.3 h -1.14 a 0.3,0.3 0 0 0 -0.3,0.3 v 10.4 a 0.3,0.3 0 0 0 0.3,0.3 h 1.14 a 0.3,0.3 0 0 0 0.3,-0.3 v -10.4"
       id="path16522" />
    <path
       stroke="#2e4e6b"
       vector-effect="non-scaling-stroke"
       d="m 151.46,129.26 q 2.33,-1.66 3.46,0.08 0.57,0.89 0.57,2.94 -0.01,2.45 0.06,4.9 a 0.86,0.72 -81.5 0 0 0.46,0.75 q 0.63,0.27 1.14,-0.08 a 1.19,0.78 80.1 0 0 0.37,-0.85 q 0.07,-2.53 -0.09,-5.05 -0.18,-2.83 -1.36,-4.05 -1.86,-1.92 -4.84,0 a 0.45,0.43 58.2 0 1 -0.62,-0.16 q -0.47,-0.85 -1.33,-0.62 a 0.74,0.65 83.5 0 0 -0.48,0.7 l -0.05,9.43 a 0.71,0.66 -81.2 0 0 0.46,0.68 q 1.89,0.63 1.29,-1.93 -0.57,-2.42 0.42,-5.96 a 1.49,1.41 81.1 0 1 0.54,-0.78"
       id="path16524" />
    <path
       stroke="#2e4e6b"
       vector-effect="non-scaling-stroke"
       d="m 170.56,133.05 5.63,-0.05 a 1.09,1.06 3.3 0 0 1.08,-0.94 q 0.3,-2.43 -1.21,-3.83 -1.34,-1.24 -3.39,-1.2 -2.52,0.03 -3.86,2.28 -1.21,2.03 -0.71,4.38 0.48,2.22 2.23,3.47 2.59,1.85 5.93,0.03 a 1.23,1 -12.5 0 0 0.58,-0.73 q 0.28,-1.29 -1.59,-0.46 -4.56,2.02 -5.14,-2.44 a 0.46,0.45 86.6 0 1 0.45,-0.51"
       id="path16526" />
    <path
       stroke="#2e4e6b"
       vector-effect="non-scaling-stroke"
       d="m 182.19,127.69 q -0.33,-0.93 -1.18,-0.61 a 0.84,0.7 82.1 0 0 -0.46,0.74 q -0.09,4.46 -0.05,8.91 0,0.65 0.22,0.97 0.4,0.6 1.1,0.3 a 0.83,0.68 79 0 0 0.41,-0.75 q -0.11,-2.82 0.15,-5.63 0.13,-1.39 0.78,-2.04 0.9,-0.91 2.29,-0.73 a 0.68,0.58 12.4 0 0 0.69,-0.37 q 0.59,-1.53 -1.14,-1.51 -0.32,0 -0.91,0.32 l -1.31,0.71 a 0.48,0.38 66.5 0 1 -0.59,-0.31"
       id="path16528" />
    <path
       stroke="#2e4e6b"
       vector-effect="non-scaling-stroke"
       d="m 275.42,135.84 q 4.05,-4.08 5.08,-6.59 1.78,-4.36 -2.06,-5.94 -2.9,-1.18 -5.33,1.09 a 1.13,1.05 -24.4 0 0 -0.36,0.86 q 0.06,0.99 0.71,0.58 0.59,-0.37 0.77,-0.43 4.96,-1.78 4.4,2.38 -0.22,1.64 -1.63,3.43 -2.13,2.7 -4.34,5.23 -1.3,1.48 0.64,1.49 l 7.4,0.01 a 0.82,0.76 12.2 0 0 0.74,-0.44 q 0.53,-1.11 -0.94,-1.15 -2.46,-0.06 -4.93,-0.15 -0.5,-0.02 -0.15,-0.37"
       id="path16530" />
    <path
       stroke="#2e4e6b"
       vector-effect="non-scaling-stroke"
       d="m 286.53,127.94 -0.02,-2.68 a 0.52,0.5 -0.5 0 1 0.52,-0.51 h 4.46 a 0.88,0.68 8.6 0 0 0.77,-0.43 q 0.12,-0.28 0.1,-0.58 a 0.73,0.59 4.9 0 0 -0.6,-0.58 q -3.11,-0.49 -6.2,0.06 a 0.73,0.59 -4.9 0 0 -0.6,0.58 l -0.15,5.27 a 1.15,0.95 -1 0 0 1.21,0.97 q 5.53,-0.29 5.13,3.36 -0.23,2.12 -2.02,2.78 -1.67,0.61 -3.94,-0.12 -1.24,-0.4 -1.02,0.66 a 1.04,0.89 8 0 0 0.59,0.67 q 3.54,1.49 6.17,-0.24 2.48,-1.63 2.21,-4.78 -0.38,-4.37 -6.08,-3.97 a 0.5,0.47 -2.3 0 1 -0.53,-0.46"
       id="path16532" />
    <path
       stroke="#2e4e6b"
       vector-effect="non-scaling-stroke"
       d="m 411.25,123.4 q -0.71,2.01 1.46,1.43 a 0.79,0.77 -3 0 0 0.58,-0.63 q 0.27,-1.77 -1.36,-1.41 a 0.98,0.96 -86.4 0 0 -0.68,0.61"
       id="path16534" />
    <path
       stroke="#2e4e6b"
       vector-effect="non-scaling-stroke"
       d="m 387.41,123.93 q -0.3,6.41 -0.2,12.82 0.03,1.73 1.34,1.22 a 0.88,0.62 85.5 0 0 0.42,-0.71 l 0.25,-4.71 a 0.57,0.5 2.1 0 1 0.58,-0.47 q 7.74,0.09 5.54,-7.05 a 1.45,1.42 -82 0 0 -0.56,-0.76 q -3.16,-2.12 -6.87,-0.99 a 0.73,0.7 83.8 0 0 -0.5,0.65"
       id="path16536" />
    <path
       stroke="#2e4e6b"
       vector-effect="non-scaling-stroke"
       d="m 429.45,129.06 q 0.09,2.72 0.05,5.44 -0.06,4.43 4.25,3.25 0.82,-0.23 0.53,-0.84 a 0.81,0.57 -13.3 0 0 -0.78,-0.31 q -1.18,0.15 -1.82,-0.59 -0.43,-0.51 -0.43,-1.64 0,-2.45 0,-4.96 a 0.96,0.95 2.2 0 1 1.03,-0.95 q 2.5,0.2 1.76,-1.06 a 0.81,0.66 -17.3 0 0 -0.77,-0.31 q -2.48,0.38 -2.11,-2.1 a 0.87,0.72 -70.9 0 0 -0.3,-0.8 q -1.3,-0.88 -1.36,1.06 a 2.95,0.94 -39 0 1 -1.19,1.81 q -1.68,1.63 0.63,1.54 a 0.49,0.47 -1.8 0 1 0.51,0.46"
       id="path16538" />
    <path
       stroke="#2e4e6b"
       vector-effect="non-scaling-stroke"
       d="m 402.571,138.0496 a 5.59,5.09 97.7 0 0 5.7931,-4.8576 5.59,5.09 97.7 0 0 -4.2951,-6.2216 5.59,5.09 97.7 0 0 -5.7931,4.8576 5.59,5.09 97.7 0 0 4.2951,6.2216"
       id="path16540" />
    <path
       stroke="#2e4e6b"
       vector-effect="non-scaling-stroke"
       d="m 413,127.29 a 0.3,0.3 0 0 0 -0.3,-0.3 h -1.14 a 0.3,0.3 0 0 0 -0.3,0.3 v 10.4 a 0.3,0.3 0 0 0 0.3,0.3 h 1.14 a 0.3,0.3 0 0 0 0.3,-0.3 v -10.4"
       id="path16542" />
    <path
       stroke="#2e4e6b"
       vector-effect="non-scaling-stroke"
       d="m 418.45,127.71 q -0.33,-0.95 -1.19,-0.62 a 0.79,0.7 81.1 0 0 -0.46,0.72 v 9.63 a 0.66,0.64 -84 0 0 0.5,0.64 q 1.46,0.3 1.34,-1.34 -0.14,-1.99 -0.14,-5.38 a 2.44,2.41 72.7 0 1 1.03,-1.99 q 3.51,-2.46 3.78,1.89 0.17,2.87 0.19,5.74 a 0.93,0.82 -76.7 0 0 0.41,0.77 q 1.57,0.93 1.59,-1.27 0.02,-2.71 -0.1,-4.7 -0.18,-2.84 -1.54,-4.04 -1.94,-1.7 -4.87,0.15 a 0.37,0.37 64.9 0 1 -0.54,-0.2"
       id="path16544" />
    <path
       stroke="#2e4e6b"
       vector-effect="non-scaling-stroke"
       d="m 438.56,133.05 5.63,-0.05 a 1.09,1.06 3.3 0 0 1.08,-0.94 q 0.3,-2.43 -1.21,-3.83 -1.34,-1.24 -3.39,-1.2 -2.52,0.03 -3.86,2.28 -1.21,2.03 -0.71,4.38 0.48,2.22 2.23,3.47 2.59,1.85 5.93,0.03 a 1.23,1 -12.5 0 0 0.58,-0.73 q 0.28,-1.29 -1.59,-0.46 -4.56,2.02 -5.14,-2.44 a 0.46,0.45 86.6 0 1 0.45,-0.51"
       id="path16546" />
    <path
       stroke="#2e4e6b"
       vector-effect="non-scaling-stroke"
       d="m 450.19,127.69 q -0.33,-0.93 -1.18,-0.61 a 0.84,0.7 82.1 0 0 -0.46,0.74 q -0.09,3.95 -0.05,7.9 0,0.05 -0.08,1.05 -0.1,1.41 1.27,1.26 a 0.63,0.58 88.5 0 0 0.52,-0.6 q 0.08,-2.47 0.05,-4.93 -0.04,-3.71 3.31,-3.71 a 0.64,0.57 4.8 0 0 0.62,-0.46 q 0.29,-1.5 -1.29,-1.36 -0.45,0.04 -1.06,0.48 -0.49,0.35 -1.05,0.58 a 0.52,0.44 69.8 0 1 -0.6,-0.34"
       id="path16548" />
    <path
       stroke="#2e4e6b"
       vector-effect="non-scaling-stroke"
       d="m 124.87,124.97 q -1.58,-0.75 -3.2,-0.41 a 0.71,0.62 -6.9 0 0 -0.56,0.62 v 4.63 a 0.69,0.59 5.7 0 0 0.57,0.6 q 4.73,0.81 4.27,-3.91 a 1.88,1.87 -80.4 0 0 -1.08,-1.53"
       id="path16550" />
    <path
       stroke="#2e4e6b"
       vector-effect="non-scaling-stroke"
       d="m 393.64,128.52 q 1.16,-4.39 -3.89,-3.98 a 0.81,0.81 -2.3 0 0 -0.75,0.81 v 4.25 a 0.83,0.83 2.2 0 0 0.77,0.83 q 3.3,0.24 3.87,-1.91"
       id="path16552" />
    <path
       stroke="#2e4e6b"
       vector-effect="non-scaling-stroke"
       d="m 135.2018,136.598 a 4.08,3.2 91.8 0 0 3.3266,-3.9775 4.08,3.2 91.8 0 0 -3.0702,-4.1785 4.08,3.2 91.8 0 0 -3.3266,3.9775 4.08,3.2 91.8 0 0 3.0702,4.1785"
       id="path16554" />
    <path
       stroke="#2e4e6b"
       vector-effect="non-scaling-stroke"
       d="m 174.26,129.06 q -3.52,-1.44 -4.13,1.88 a 0.44,0.44 -85 0 0 0.43,0.52 l 4.44,0.02 a 0.53,0.52 87.5 0 0 0.52,-0.58 q -0.15,-1.38 -1.26,-1.84"
       id="path16556" />
    <path
       stroke="#2e4e6b"
       vector-effect="non-scaling-stroke"
       d="m 403.1805,136.5973 a 4.08,3.21 92.1 0 0 3.3573,-3.9597 4.08,3.21 92.1 0 0 -3.0583,-4.1949 4.08,3.21 92.1 0 0 -3.3573,3.9597 4.08,3.21 92.1 0 0 3.0583,4.1949"
       id="path16558" />
    <path
       stroke="#2e4e6b"
       vector-effect="non-scaling-stroke"
       d="m 438.43,129.95 q -1.71,1.7 0.56,1.59 l 4.01,-0.21 a 0.44,0.4 79.1 0 0 0.35,-0.57 q -1.41,-4.33 -4.92,-0.81"
       id="path16560" />
  </g>
  <path
     fill="#3f709a"
     d="m 96,1.2250417 v 1.71 q -54.78,0.36 -68.25,0.13 -17.52,-0.3 -23.25,14.1700003 -1.24,3.12 -1.29,7.87 -0.4,43.48 -0.38,86.959998 0,7.1 3.23,12.44 6.59,10.87 19.94,10.56 15.52,-0.36 70,0.21 -0.97,0.72 -0.25,1.75 -34.79,0.24 -69.57,-0.15 -6.04,-0.07 -9.66,-1.39 -10.56,-3.86 -14.02,-14.14 -1.5,-4.43 -1.5,-14.74 0,-37.009998 0,-74.019998 0,-11.31 1.54,-15.87 Q 6,6.4750417 16.58,2.6950417 q 3.84,-1.37 10.54,-1.45 34.44,-0.44999999 68.88,-0.02 z"
     id="path16566" />
  <path
     fill="#3f709a"
     d="m 249,1.3550417 q -0.4,0.65 -0.25,1.42 -45.37,0.62 -90.75,0.15 -10.5,-0.11 -21,-0.07 -0.24,-0.21 -0.5,-0.25 -1.55,-0.25 -0.75,-1.25 56.62,-0.62999999 113.25,0 z"
     id="path16568" />
  <path
     fill="#3f709a"
     d="m 305.5,136.77504 q 0.4,-0.65 0.25,-1.42 58.56,-0.72 80.5,-0.29 13.71,0.27 20.4,-10.1 1.75,-2.71 2.54,-5.66 0.81,-3.04 0.81,-6.24 0,-39.839998 0,-79.679998 0,-11.92 -1.34,-16 -2.86,-8.6800003 -11.67,-12.4700003 -3.69,-1.59 -9.36,-1.76 -4.23,-0.13 -9.63,-0.09 -34.47,0.26 -80.75,-0.29 -0.17,-0.73 0,-1.42 44.7,-0.64999999 89.4,-0.11 6.35,0.08 10.02,1.44 10.05,3.73 13.74,13.8100003 1.33,3.62 1.39,9.83 0.38,41.87 0.2,83.739998 -0.03,6.32 -1.58,11.28 -1.72,5.49 -5.93,9.38 -6.82,6.3 -16.99,6.31 -39.12,0.03 -78.25,0.03 -2.54,0 -3.75,-0.29 z"
     id="path16570" />
  <path
     fill="#01426d"
     d="m 96,1.2250417 39.75,0.13 q -0.8,1 0.75,1.25 -0.15,0.3 -0.5,0.25 l -40,0.08 z"
     id="path16572" />
  <path
     fill="#064a7f"
     d="m 249,1.3550417 h 48.25 q -0.17,0.69 0,1.42 l -23.25,0.08 q -0.39,0.23 -0.75,0 l -24.5,-0.08 q -0.15,-0.77 0.25,-1.42 z"
     id="path16574" />
  <path
     fill="#deebf7"
     d="m 136,2.8550417 q 0,63.9800003 0,127.9599983 0,2.64 0.29,3.75 -0.15,0.44 0.21,0.54 l -40.5,0.17 q -54.48,-0.57 -70,-0.21 -13.35,0.31 -19.94,-10.56 -3.23,-5.34 -3.23,-12.44 -0.02,-43.479998 0.38,-86.959998 0.05,-4.75 1.29,-7.87 5.73,-14.4700003 23.25,-14.1700003 13.47,0.23 68.25,-0.13 z M 50.06,24.255042 q -4.32,-2.01 -9.08,-0.94 a 0.64,0.65 85.6 0 0 -0.49,0.57 q -0.59,7.68 -0.03,15.43 a 0.68,0.71 3.8 0 0 0.53,0.63 q 4.2,0.97 2.94,-4.18 a 1.34,1.35 81.8 0 1 1.25,-1.67 q 6.07,-0.24 6.78,-5.29 0.48,-3.45 -1.9,-4.55 z m 7.47,3.85 q -0.77,-1.37 -2.27,-1.09 a 0.92,0.93 84.8 0 0 -0.76,0.91 q 0,5 0,9.64 0,0.09 -0.08,0.99 -0.17,2 2.6,1.4 a 0.97,0.97 0 0 0 0.76,-1.01 q -0.17,-3.15 0.08,-5.87 0.14,-1.57 0.92,-2.27 1.04,-0.94 2.67,-0.66 a 0.42,0.39 4.3 0 0 0.49,-0.39 q -0.08,-4.82 -3.81,-1.53 a 0.4,0.39 55.3 0 1 -0.6,-0.12 z m 11.28,8.9 q -1.45,-0.03 -1.87,-1.15 a 0.43,0.47 74.2 0 1 0.36,-0.58 q 2.67,-0.54 4.45,-0.21 3.5,0.65 3,-2.75 -0.6,-4.09 -3.74,-5.01 -2.7,-0.79 -5.25,0.99 -3.1,2.15 -2.55,6.22 0.38,2.86 2.31,4.39 2.25,1.77 5.43,1.04 2.11,-0.48 2.24,-0.52 1.68,-0.57 0.94,-2.59 a 0.58,0.62 74.8 0 0 -0.69,-0.36 q -2.88,0.56 -4.63,0.53 z m 13.04,-1.64 q -0.86,-2.59 -1.54,-5.91 -0.7,-3.35 -3.78,-2.26 a 0.57,0.55 72.9 0 0 -0.34,0.67 q 1.17,4.53 2.75,8.92 0.9,2.5 1.04,2.63 0.93,0.85 3.4,0.39 a 1.72,1.77 4.4 0 0 1.35,-1.19 l 3.57,-10.68 a 0.48,0.49 16.5 0 0 -0.33,-0.62 q -2.74,-0.71 -3.2,0.76 -1.12,3.59 -2.02,7.26 -0.39,1.57 -0.9,0.03 z M 21.29,105.81504 q -0.7,4.35 -0.06,8.69 a 0.59,0.59 0 0 0 0.58,0.5 l 100.51,-0.12 a 0.5,0.51 0 0 0 0.5,-0.51 L 123,68.935042 a 0.88,0.87 89.1 0 0 -0.9,-0.88 l -10.35,0.3 -89.98,-0.04 a 0.52,0.52 0 0 0 -0.52,0.52 z"
     id="path16576" />
  <path
     fill="#5f6161"
     d="m 136.5,2.6050417 q 0.26,0.04 0.5,0.25 0.07,100.3999983 -0.06,131.3999983 -0.01,0.94 -0.65,0.31 -0.29,-1.11 -0.29,-3.75 0,-63.979998 0,-127.9599983 0.35,0.05 0.5,-0.25 z"
     id="path16578" />
  <path
     fill="#deebf7"
     d="m 137,2.8550417 q 10.5,-0.04 21,0.07 45.38,0.47 90.75,-0.15 l 24.5,0.08 Q 272.87,91.255042 273,134.31504 q 0,0.57 0.71,0.5 0.06,0.23 0.29,0.29 -18.63,0.28 -37.26,0.09 -12,-0.12 -19.99,-0.08 -40.13,0.16 -80.25,-0.01 -0.36,-0.1 -0.21,-0.54 0.64,0.63 0.65,-0.31 0.13,-31 0.06,-131.3999983 z m 43.7,21.2400003 q -0.55,7.66 0.07,15.16 a 0.64,0.64 0 0 0 0.54,0.58 q 2.75,0.44 5.5,0.19 3.44,-0.31 5.44,-2.06 2.84,-2.48 2.55,-6.62 -0.16,-2.32 -0.74,-4.03 -0.83,-2.42 -2.87,-3.19 -4.06,-1.53 -9.62,-0.93 a 0.98,0.97 89.3 0 0 -0.87,0.9 z m 33.69,2.41 q 0.39,-3.46 -2.86,-2.31 a 0.66,0.6 77.5 0 0 -0.39,0.68 q 0.21,2.04 -1.59,2.63 a 0.73,0.92 83 0 0 -0.6,0.61 q -0.3,1.86 1.5,2 a 0.54,0.52 1.9 0 1 0.5,0.51 q 0.1,2.72 0.13,5.44 0.05,4.74 4.75,3.95 1.99,-0.34 1.33,-2.78 a 0.49,0.5 73.8 0 0 -0.63,-0.34 q -0.91,0.28 -1.46,0.04 -0.48,-0.22 -0.64,-1.08 -0.47,-2.64 -0.02,-5.29 a 0.52,0.51 8.6 0 1 0.58,-0.42 q 3.19,0.43 2.13,-2.55 a 0.74,0.76 81.4 0 0 -0.68,-0.49 l -1.63,-0.08 a 0.44,0.47 4.7 0 1 -0.42,-0.52 z m -10.61,4.61 q 0.1,1.14 -1.23,1.07 -1.49,-0.08 -1.6,-0.07 -5.53,0.55 -4.03,5.91 a 1.47,1.56 9.5 0 0 0.53,0.79 q 3.07,2.39 6.39,0.28 a 0.45,0.43 58.6 0 1 0.62,0.17 q 0.76,1.31 2.28,0.7 a 0.8,0.73 80.7 0 0 0.46,-0.71 q 0.09,-3.84 -0.01,-7.69 -0.09,-3.82 -3.76,-4.37 -2.58,-0.37 -5.01,0.49 -1.8,0.64 -1.5,2.23 a 1.22,1.21 70.8 0 0 1.75,0.85 q 2.28,-1.2 4.55,-0.34 a 0.89,0.77 9.9 0 1 0.56,0.69 z m 22.63,-0.05 q 0.1,0.34 -0.09,0.61 a 1.18,0.65 8.7 0 1 -0.88,0.32 q -3.39,-0.02 -4.63,0.88 -2.35,1.72 -1.79,4.09 0.49,2.03 2.47,2.8 1.97,0.76 4.2,-0.26 a 1.03,1.37 55.6 0 1 1.31,0.06 q 1.06,0.88 2.25,0.41 a 0.75,0.73 78.4 0 0 0.46,-0.72 l -0.21,-9.21 a 2.65,2.34 12.9 0 0 -1.55,-2.16 q -3.48,-1.57 -6.9,-0.19 -0.95,0.39 -1.32,1.08 -0.58,1.08 0.32,1.92 a 0.67,0.8 55 0 0 0.83,0.07 q 2.38,-1.18 4.84,-0.32 a 1.14,0.77 7.9 0 1 0.69,0.62 z m -3.16,37.29 H 160.5 l -6.95,-0.04 a 0.49,0.56 0 0 0 -0.49,0.56 L 153,114.57504 a 0.49,0.5 89.4 0 0 0.51,0.49 q 10.74,-0.3 21.49,-0.19 16.59,0.17 19.99,0.16 27.86,-0.07 56.88,0.04 a 1.13,1.13 0 0 0 1.13,-1.13 V 69.305042 a 1.24,1.22 89.5 0 0 -1.24,-1.24 z"
     id="path16580" />
  <path
     fill="#5f6161"
     d="m 273.25,2.8550417 q 0.36,0.23 0.75,0 -0.27,10.1100003 -0.23,20.2100003 0.23,54.63 0.31,109.249998 0,1.28 -0.37,2.5 -0.71,0.07 -0.71,-0.5 -0.13,-43.059998 0.25,-131.4599983 z"
     id="path16582" />
  <path
     fill="#deebf7"
     d="m 274,2.8550417 23.25,-0.08 q 46.28,0.55 80.75,0.29 5.4,-0.04 9.63,0.09 5.67,0.17 9.36,1.76 8.81,3.79 11.67,12.4700003 1.34,4.08 1.34,16 0,39.84 0,79.679998 0,3.2 -0.81,6.24 -0.79,2.95 -2.54,5.66 -6.69,10.37 -20.4,10.1 -21.94,-0.43 -80.5,0.29 l -31.75,-0.25 q -0.23,-0.06 -0.29,-0.29 0.37,-1.22 0.37,-2.5 -0.08,-54.619998 -0.31,-109.249998 -0.04,-10.1 0.23,-20.2100003 z m 47.92,33.0800003 q -2.32,-5.27 -4.83,-10.46 -0.84,-1.75 -1.85,-2.26 -1.5,-0.75 -3.24,0.16 a 0.94,0.89 79.3 0 0 -0.48,0.75 q -0.6,7.5 -0.12,15 a 0.81,0.89 8.8 0 0 0.48,0.72 q 2.81,1.26 2.68,-1.61 -0.05,-1.28 -0.05,-1.35 0.03,-4.75 -0.07,-9.52 -0.04,-1.78 0.63,-0.13 2.34,5.75 5.54,11.25 0.77,1.32 1.79,1.6 1.4,0.39 2.64,-0.51 a 1.03,1 72.4 0 0 0.41,-0.82 v -14.88 a 0.75,0.79 10.5 0 0 -0.47,-0.72 q -1.36,-0.57 -2.33,0.35 a 1.34,1.02 75.2 0 0 -0.36,0.87 q -0.19,5.6 0.26,11.18 0.01,0.16 0.11,0.38 0.21,0.43 -0.25,0.39 a 0.67,0.55 77.9 0 1 -0.49,-0.39 z m 36.47,-9.43 q 0.39,-3.46 -2.86,-2.31 a 0.66,0.6 77.5 0 0 -0.39,0.68 q 0.21,2.04 -1.59,2.63 a 0.75,0.91 83.3 0 0 -0.6,0.62 q -0.33,1.9 1.49,2 a 0.55,0.53 0.6 0 1 0.52,0.51 q 0.13,3.29 0.04,4.68 -0.32,5.09 4.72,4.51 1.93,-0.22 1.51,-2.36 a 0.6,0.6 0 0 0 -0.62,-0.48 q -2.09,0.1 -2.38,-1.3 0,-0.02 -0.04,-2.24 -0.02,-1.45 0.22,-2.88 a 0.53,0.51 8.5 0 1 0.59,-0.42 q 3.18,0.42 2.12,-2.55 a 0.74,0.76 81.4 0 0 -0.68,-0.49 l -1.63,-0.08 a 0.44,0.47 4.7 0 1 -0.42,-0.52 z m -29.02,3.13 q -1.77,2.48 -1.12,5.93 0.71,3.75 4.25,4.25 2.47,0.35 4.17,-0.11 1.49,-0.41 1.79,-0.59 0.94,-0.56 0.5,-2.2 a 0.83,0.83 0 0 0 -1.14,-0.54 q -2.82,1.28 -5.55,0.1 a 1.19,0.93 8.7 0 1 -0.65,-0.69 q -0.28,-1 1.38,-0.72 1.6,0.27 5.56,-0.13 a 0.8,0.76 5 0 0 0.66,-0.53 q 1.36,-4.57 -2.41,-6.65 -4.36,-2.41 -7.44,1.88 z m 16.48,6.99 q 0.95,-2.05 1.64,0.1 1.22,3.83 4.17,3.26 a 0.83,0.8 69.3 0 0 0.52,-1.22 l -2.71,-4.75 a 1.03,0.88 46.3 0 1 -0.05,-0.91 l 2.56,-4.92 a 0.73,0.78 18 0 0 -0.52,-1.12 q -2.71,-0.37 -3.46,2.25 -1.22,4.24 -2.25,0 -0.7,-2.89 -3.79,-2.24 a 0.85,0.81 69.5 0 0 -0.52,1.23 l 2.61,4.81 a 0.74,1.05 39.1 0 1 -0.06,0.87 l -2.73,5.3 a 0.5,0.48 25.1 0 0 0.26,0.68 q 2.17,0.85 3.22,-1.16 0.82,-1.57 1.11,-2.18 z m 33.9,31.73 h -59 l -31,-0.04 a 0.5,0.5 0 0 0 -0.5,0.5 l 0.04,16.25 -0.23,29.449998 a 0.49,0.49 0 0 0 0.5,0.49 q 9.99,-0.28 19.97,-0.16 15.59,0.19 19.96,0.17 29.8,-0.12 60.58,0.06 a 0.91,0.92 89.7 0 0 0.92,-0.92 l -0.17,-45.399998 a 0.56,0.55 2.9 0 0 -0.5,-0.55 q -5.29,-0.47 -10.57,0.15 z"
     id="path16584" />
  <path
     fill="#000000"
     d="m 50.06,24.255042 q 2.38,1.1 1.9,4.55 -0.71,5.05 -6.78,5.29 a 1.34,1.35 81.8 0 0 -1.25,1.67 q 1.26,5.15 -2.94,4.18 a 0.68,0.71 3.8 0 1 -0.53,-0.63 q -0.56,-7.75 0.03,-15.43 a 0.64,0.65 85.6 0 1 0.49,-0.57 q 4.76,-1.07 9.08,0.94 z m -2.75,2.25 q -1.29,-0.68 -2.65,-0.39 a 0.75,0.84 0.7 0 0 -0.58,0.63 q -1.34,6.63 3.98,3.13 2.52,-1.65 -0.75,-3.37 z"
     id="path16586" />
  <path
     fill="#000000"
     d="m 180.7,24.095042 a 0.98,0.97 89.3 0 1 0.87,-0.9 q 5.56,-0.6 9.62,0.93 2.04,0.77 2.87,3.19 0.58,1.71 0.74,4.03 0.29,4.14 -2.55,6.62 -2,1.75 -5.44,2.06 -2.75,0.25 -5.5,-0.19 a 0.64,0.64 0 0 1 -0.54,-0.58 q -0.62,-7.5 -0.07,-15.16 z m 10.28,9.05 q 1.87,-7.01 -6.17,-7.02 a 0.51,0.5 0 0 0 -0.51,0.5 l -0.05,9.69 a 0.63,0.64 7.4 0 0 0.48,0.63 q 2.27,0.55 4,-0.45 1.61,-0.93 2.25,-3.35 z"
     id="path16588" />
  <path
     fill="#000000"
     d="m 322.41,36.325042 q 0.46,0.04 0.25,-0.39 -0.1,-0.22 -0.11,-0.38 -0.45,-5.58 -0.26,-11.18 a 1.34,1.02 75.2 0 1 0.36,-0.87 q 0.97,-0.92 2.33,-0.35 a 0.75,0.79 10.5 0 1 0.47,0.72 v 14.88 a 1.03,1 72.4 0 1 -0.41,0.82 q -1.24,0.9 -2.64,0.51 -1.02,-0.28 -1.79,-1.6 -3.2,-5.5 -5.54,-11.25 -0.67,-1.65 -0.63,0.13 0.1,4.77 0.07,9.52 0,0.07 0.05,1.35 0.13,2.87 -2.68,1.61 a 0.81,0.89 8.8 0 1 -0.48,-0.72 q -0.48,-7.5 0.12,-15 a 0.94,0.89 79.3 0 1 0.48,-0.75 q 1.74,-0.91 3.24,-0.16 1.01,0.51 1.85,2.26 2.51,5.19 4.83,10.46 a 0.67,0.55 77.9 0 0 0.49,0.39 z"
     id="path16590" />
  <path
     fill="#000000"
     d="m 214.81,27.025042 1.63,0.08 a 0.74,0.76 81.4 0 1 0.68,0.49 q 1.06,2.98 -2.13,2.55 a 0.52,0.51 8.6 0 0 -0.58,0.42 q -0.45,2.65 0.02,5.29 0.16,0.86 0.64,1.08 0.55,0.24 1.46,-0.04 a 0.49,0.5 73.8 0 1 0.63,0.34 q 0.66,2.44 -1.33,2.78 -4.7,0.79 -4.75,-3.95 -0.03,-2.72 -0.13,-5.44 a 0.54,0.52 1.9 0 0 -0.5,-0.51 q -1.8,-0.14 -1.5,-2 a 0.73,0.92 83 0 1 0.6,-0.61 q 1.8,-0.59 1.59,-2.63 a 0.66,0.6 77.5 0 1 0.39,-0.68 q 3.25,-1.15 2.86,2.31 a 0.44,0.47 4.7 0 0 0.42,0.52 z"
     id="path16592" />
  <path
     fill="#000000"
     d="m 358.81,27.025042 1.63,0.08 a 0.74,0.76 81.4 0 1 0.68,0.49 q 1.06,2.97 -2.12,2.55 a 0.53,0.51 8.5 0 0 -0.59,0.42 q -0.24,1.43 -0.22,2.88 0.04,2.22 0.04,2.24 0.29,1.4 2.38,1.3 a 0.6,0.6 0 0 1 0.62,0.48 q 0.42,2.14 -1.51,2.36 -5.04,0.58 -4.72,-4.51 0.09,-1.39 -0.04,-4.68 a 0.55,0.53 0.6 0 0 -0.52,-0.51 q -1.82,-0.1 -1.49,-2 a 0.75,0.91 83.3 0 1 0.6,-0.62 q 1.8,-0.59 1.59,-2.63 a 0.66,0.6 77.5 0 1 0.39,-0.68 q 3.25,-1.15 2.86,2.31 a 0.44,0.47 4.7 0 0 0.42,0.52 z"
     id="path16594" />
  <path
     fill="#deebf7"
     d="m 47.31,26.505042 q 3.27,1.72 0.75,3.37 -5.32,3.5 -3.98,-3.13 a 0.75,0.84 0.7 0 1 0.58,-0.63 q 1.36,-0.29 2.65,0.39 z"
     id="path16596" />
  <path
     fill="#deebf7"
     d="m 188.73,36.495042 q -1.73,1 -4,0.45 a 0.63,0.64 7.4 0 1 -0.48,-0.63 l 0.05,-9.69 a 0.51,0.5 0 0 1 0.51,-0.5 q 8.04,0.01 6.17,7.02 -0.64,2.42 -2.25,3.35 z"
     id="path16598" />
  <path
     fill="#000000"
     d="m 58.13,28.225042 q 3.73,-3.29 3.81,1.53 a 0.42,0.39 4.3 0 1 -0.49,0.39 q -1.63,-0.28 -2.67,0.66 -0.78,0.7 -0.92,2.27 -0.25,2.72 -0.08,5.87 a 0.97,0.97 0 0 1 -0.76,1.01 q -2.77,0.6 -2.6,-1.4 0.08,-0.9 0.08,-0.99 0,-4.64 0,-9.64 a 0.92,0.93 84.8 0 1 0.76,-0.91 q 1.5,-0.28 2.27,1.09 a 0.4,0.39 55.3 0 0 0.6,0.12 z"
     id="path16600" />
  <path
     fill="#000000"
     d="m 68.81,37.005042 q 1.75,0.03 4.63,-0.53 a 0.58,0.62 74.8 0 1 0.69,0.36 q 0.74,2.02 -0.94,2.59 -0.13,0.04 -2.24,0.52 -3.18,0.73 -5.43,-1.04 -1.93,-1.53 -2.31,-4.39 -0.55,-4.07 2.55,-6.22 2.55,-1.78 5.25,-0.99 3.14,0.92 3.74,5.01 0.5,3.4 -3,2.75 -1.78,-0.33 -4.45,0.21 a 0.43,0.47 74.2 0 0 -0.36,0.58 q 0.42,1.12 1.87,1.15 z m 1.5,-6.75 q -2.96,-0.95 -3.43,1.75 a 0.44,0.45 5.4 0 0 0.43,0.53 h 3.62 a 0.58,0.56 1.6 0 0 0.58,-0.53 q 0.08,-1.35 -1.2,-1.75 z"
     id="path16602" />
  <path
     fill="#000000"
     d="m 81.85,35.365042 q 0.51,1.54 0.9,-0.03 0.9,-3.67 2.02,-7.26 0.46,-1.47 3.2,-0.76 a 0.48,0.49 16.5 0 1 0.33,0.62 l -3.57,10.68 a 1.72,1.77 4.4 0 1 -1.35,1.19 q -2.47,0.46 -3.4,-0.39 -0.14,-0.13 -1.04,-2.63 -1.58,-4.39 -2.75,-8.92 a 0.57,0.55 72.9 0 1 0.34,-0.67 q 3.08,-1.09 3.78,2.26 0.68,3.32 1.54,5.91 z"
     id="path16604" />
  <path
     fill="#000000"
     d="m 203.22,30.425042 q -2.27,-0.86 -4.55,0.34 a 1.22,1.21 70.8 0 1 -1.75,-0.85 q -0.3,-1.59 1.5,-2.23 2.43,-0.86 5.01,-0.49 3.67,0.55 3.76,4.37 0.1,3.85 0.01,7.69 a 0.8,0.73 80.7 0 1 -0.46,0.71 q -1.52,0.61 -2.28,-0.7 a 0.45,0.43 58.6 0 0 -0.62,-0.17 q -3.32,2.11 -6.39,-0.28 a 1.47,1.56 9.5 0 1 -0.53,-0.79 q -1.5,-5.36 4.03,-5.91 0.11,-0.01 1.6,0.07 1.33,0.07 1.23,-1.07 a 0.89,0.77 9.9 0 0 -0.56,-0.69 z m -2.31,6.6 q 1.86,0.52 2.53,-0.77 1.03,-2.02 -0.96,-1.81 -0.97,0.09 -1.46,0.13 -2.06,0.16 -0.88,1.91 a 1.33,1.37 81 0 0 0.77,0.54 z"
     id="path16606" />
  <path
     fill="#000000"
     d="m 225.72,30.445042 q -2.46,-0.86 -4.84,0.32 a 0.67,0.8 55 0 1 -0.83,-0.07 q -0.9,-0.84 -0.32,-1.92 0.37,-0.69 1.32,-1.08 3.42,-1.38 6.9,0.19 a 2.65,2.34 12.9 0 1 1.55,2.16 l 0.21,9.21 a 0.75,0.73 78.4 0 1 -0.46,0.72 q -1.19,0.47 -2.25,-0.41 a 1.03,1.37 55.6 0 0 -1.31,-0.06 q -2.23,1.02 -4.2,0.26 -1.98,-0.77 -2.47,-2.8 -0.56,-2.37 1.79,-4.09 1.24,-0.9 4.63,-0.88 a 1.18,0.65 8.7 0 0 0.88,-0.32 q 0.19,-0.27 0.09,-0.61 a 1.14,0.77 7.9 0 0 -0.69,-0.62 z m -2.78,6.43 q 2.73,1.08 3.18,-1.51 a 0.59,0.58 13.4 0 0 -0.41,-0.66 q -1.14,-0.36 -2.31,-0.09 -0.73,0.17 -1.09,0.73 -0.68,1.02 0.63,1.53 z"
     id="path16608" />
  <path
     fill="#000000"
     d="m 329.37,29.635042 q 3.08,-4.29 7.44,-1.88 3.77,2.08 2.41,6.65 a 0.8,0.76 5 0 1 -0.66,0.53 q -3.96,0.4 -5.56,0.13 -1.66,-0.28 -1.38,0.72 a 1.19,0.93 8.7 0 0 0.65,0.69 q 2.73,1.18 5.55,-0.1 a 0.83,0.83 0 0 1 1.14,0.54 q 0.44,1.64 -0.5,2.2 -0.3,0.18 -1.79,0.59 -1.7,0.46 -4.17,0.11 -3.54,-0.5 -4.25,-4.25 -0.65,-3.45 1.12,-5.93 z m 2.25,2.01 a 0.54,0.55 16.4 0 0 0.43,0.79 q 5.31,0.56 3.74,-1.45 -0.86,-1.09 -2.06,-0.96 -1.37,0.14 -2.11,1.62 z"
     id="path16610" />
  <path
     fill="#000000"
     d="m 345.85,36.625042 q -0.29,0.61 -1.11,2.18 -1.05,2.01 -3.22,1.16 a 0.5,0.48 25.1 0 1 -0.26,-0.68 l 2.73,-5.3 a 0.74,1.05 39.1 0 0 0.06,-0.87 l -2.61,-4.81 a 0.85,0.81 69.5 0 1 0.52,-1.23 q 3.09,-0.65 3.79,2.24 1.03,4.24 2.25,0 0.75,-2.62 3.46,-2.25 a 0.73,0.78 18 0 1 0.52,1.12 l -2.56,4.92 a 1.03,0.88 46.3 0 0 0.05,0.91 l 2.71,4.75 a 0.83,0.8 69.3 0 1 -0.52,1.22 q -2.95,0.57 -4.17,-3.26 -0.69,-2.15 -1.64,-0.1 z"
     id="path16612" />
  <path
     fill="#deebf7"
     d="m 70.31,30.255042 q 1.28,0.4 1.2,1.75 a 0.58,0.56 1.6 0 1 -0.58,0.53 h -3.62 a 0.44,0.45 5.4 0 1 -0.43,-0.53 q 0.47,-2.7 3.43,-1.75 z"
     id="path16614" />
  <path
     fill="#deebf7"
     d="m 331.62,31.645042 q 0.74,-1.48 2.11,-1.62 1.2,-0.13 2.06,0.96 1.57,2.01 -3.74,1.45 a 0.54,0.55 16.4 0 1 -0.43,-0.79 z"
     id="path16616" />
  <path
     fill="#deebf7"
     d="m 200.14,36.485042 q -1.18,-1.75 0.88,-1.91 0.49,-0.04 1.46,-0.13 1.99,-0.21 0.96,1.81 -0.67,1.29 -2.53,0.77 a 1.33,1.37 81 0 1 -0.77,-0.54 z"
     id="path16618" />
  <path
     fill="#deebf7"
     d="m 222.94,36.875042 q -1.31,-0.51 -0.63,-1.53 0.36,-0.56 1.09,-0.73 1.17,-0.27 2.31,0.09 a 0.59,0.58 13.4 0 1 0.41,0.66 q -0.45,2.59 -3.18,1.51 z"
     id="path16620" />
  <path
     fill="#322e22"
     d="m 111.75,68.355042 q -0.02,1.89 -2.25,1.25 -14,0.2 -28,0.08 -8.5,-0.07 -19.99,0.11 -14.38,0.22 -28.76,-0.18 -4.85,-0.13 -9.69,0.23 a 0.53,0.54 88.3 0 0 -0.51,0.53 l 0.16,34.689998 q -0.57,0.61 -1.42,0.75 L 21.25,68.835042 a 0.52,0.52 0 0 1 0.52,-0.52 z"
     id="path16622" />
  <path
     fill="#565554"
     d="m 21.29,105.81504 q 0.85,-0.14 1.42,-0.75 l 0.03,6.97 a 1.29,1.27 89.3 0 0 1.29,1.28 q 39.85,-0.5 79.47,-0.24 8,0.06 16.88,-0.02 a 0.62,0.63 0 0 0 0.62,-0.63 V 70.655042 a 0.6,0.6 0 0 0 -0.58,-0.6 l -10.92,-0.45 q 2.23,0.64 2.25,-1.25 l 10.35,-0.3 a 0.88,0.87 89.1 0 1 0.9,0.88 l -0.18,45.439998 a 0.5,0.51 0 0 1 -0.5,0.51 l -100.51,0.12 a 0.59,0.59 0 0 1 -0.58,-0.5 q -0.64,-4.34 0.06,-8.69 z"
     id="path16624" />
  <path
     fill="#565554"
     d="m 160.5,68.355042 q -0.56,0.67 0,1.25 l -5.01,0.41 a 0.55,0.54 87.8 0 0 -0.5,0.55 l 0.03,41.779998 a 0.75,0.73 1.7 0 0 0.71,0.73 q 7.87,0.45 15.85,0.3 12.93,-0.26 15.84,-0.24 24.71,0.19 49.43,-0.04 0.85,0 6.79,0.13 3.41,0.08 6.8,-0.18 a 0.53,0.54 87.7 0 0 0.5,-0.53 L 251,70.735042 a 0.7,0.68 0.9 0 0 -0.68,-0.68 l -27.07,-0.53 q 0.51,-0.62 0,-1.17 l 28.51,-0.29 a 1.24,1.22 89.5 0 1 1.24,1.24 v 44.639998 a 1.13,1.13 0 0 1 -1.13,1.13 q -29.02,-0.11 -56.88,-0.04 -3.4,0.01 -19.99,-0.16 -10.75,-0.11 -21.49,0.19 a 0.49,0.5 89.4 0 1 -0.51,-0.49 l 0.06,-45.699998 a 0.49,0.56 0 0 1 0.49,-0.56 z"
     id="path16626" />
  <path
     fill="#565554"
     d="m 289.29,85.065042 h 1.17 l 0.34,27.689998 a 0.51,0.51 0 0 0 0.51,0.5 h 97.05 a 0.7,0.69 0 0 0 0.7,-0.69 l -0.07,-41.929998 a 0.54,0.53 1.1 0 0 -0.52,-0.53 l -9.22,-0.33 q 0.49,-0.63 0.5,-1.42 5.28,-0.62 10.57,-0.15 a 0.56,0.55 2.9 0 1 0.5,0.55 l 0.17,45.399998 a 0.91,0.92 89.7 0 1 -0.92,0.92 q -30.78,-0.18 -60.58,-0.06 -4.37,0.02 -19.96,-0.17 -9.98,-0.12 -19.97,0.16 a 0.49,0.49 0 0 1 -0.5,-0.49 z"
     id="path16628" />
  <path
     fill="#241e15"
     d="m 160.5,68.355042 h 62.75 q 0.51,0.55 0,1.17 l -62.75,0.08 q -0.56,-0.58 0,-1.25 z"
     id="path16630" />
  <path
     fill="#000000"
     d="m 320.75,68.355042 q 0.51,0.62 0,1.17 l -29.81,0.22 a 0.49,0.51 0 0 0 -0.49,0.51 l 0.01,14.81 h -1.17 l -0.04,-16.25 a 0.5,0.5 0 0 1 0.5,-0.5 z"
     id="path16632" />
  <path
     fill="#322e22"
     d="m 320.75,68.355042 h 59 q -0.01,0.79 -0.5,1.42 -26.99,-0.37 -48,0.04 -6.14,0.12 -10.5,-0.29 0.51,-0.55 0,-1.17 z"
     id="path16634" />
  <path
     fill="#5b9bd5"
     d="m 109.5,69.605042 10.92,0.45 a 0.6,0.6 0 0 1 0.58,0.6 v 41.769998 a 0.62,0.63 0 0 1 -0.62,0.63 q -8.88,0.08 -16.88,0.02 -39.62,-0.26 -79.47,0.24 a 1.29,1.27 89.3 0 1 -1.29,-1.28 l -0.03,-6.97 -0.16,-34.689998 a 0.53,0.54 88.3 0 1 0.51,-0.53 q 4.84,-0.36 9.69,-0.23 14.38,0.4 28.76,0.18 11.49,-0.18 19.99,-0.11 14,0.12 28,-0.08 z m -46.25,14.86 q -0.71,2.01 1.46,1.43 a 0.77,0.79 87 0 0 0.58,-0.63 q 0.27,-1.77 -1.36,-1.41 a 0.96,0.98 3.6 0 0 -0.68,0.61 z m -16.79,0.62 q -2.49,-1.38 -6.26,-0.88 a 1.07,1.09 85.7 0 0 -0.94,1.07 l 0.05,12.98 a 0.76,0.88 11.1 0 0 0.43,0.76 q 0.93,0.46 1.04,-0.72 0.22,-2.23 0.22,-4.21 a 1.02,1.02 0 0 1 1.02,-1.02 q 6.44,0.02 5.94,-5.67 a 2.95,2.95 0 0 0 -1.5,-2.31 z m 37.33,4.64 q 2.33,0.42 2.23,-1.11 a 0.45,0.51 84.3 0 0 -0.57,-0.41 q -2.65,0.35 -2.29,-2.14 a 0.68,0.86 17.3 0 0 -0.31,-0.8 q -1.29,-0.81 -1.37,1.67 a 1.01,0.99 74.9 0 1 -0.45,0.8 q -2.66,1.68 -0.05,1.84 a 0.56,0.56 0 0 1 0.52,0.56 q 0,2.6 0,4.83 0,2.19 0.59,3.09 1.1,1.7 3.66,0.76 0.76,-0.28 0.52,-0.84 a 0.55,0.76 76.4 0 0 -0.76,-0.31 q -2.05,0.3 -2.26,-1.6 -0.11,-1.03 0.05,-5.94 a 0.42,0.42 0 0 1 0.49,-0.4 z m -29.2203,9.3995 a 5.09,5.6 7.7 0 0 5.7944,-4.8675 5.09,5.6 7.7 0 0 -4.2938,-6.2315 5.09,5.6 7.7 0 0 -5.7944,4.8675 5.09,5.6 7.7 0 0 4.2938,6.2315 z M 65,88.355042 a 0.3,0.3 0 0 0 -0.3,-0.3 h -1.14 a 0.3,0.3 0 0 0 -0.3,0.3 v 10.4 a 0.3,0.3 0 0 0 0.3,0.3 h 1.14 a 0.3,0.3 0 0 0 0.3,-0.3 z m 6.46,1.97 q 2.33,-1.66 3.46,0.08 0.57,0.89 0.57,2.94 -0.01,2.45 0.06,4.9 a 0.72,0.86 8.5 0 0 0.46,0.75 q 0.63,0.27 1.14,-0.08 a 1.19,0.78 80.1 0 0 0.37,-0.85 q 0.07,-2.53 -0.09,-5.05 -0.18,-2.83 -1.36,-4.05 -1.86,-1.92 -4.84,0 a 0.45,0.43 58.2 0 1 -0.62,-0.16 q -0.47,-0.85 -1.33,-0.62 a 0.74,0.65 83.5 0 0 -0.48,0.7 l -0.05,9.43 a 0.66,0.71 8.8 0 0 0.46,0.68 q 1.89,0.63 1.29,-1.93 -0.57,-2.42 0.42,-5.96 a 1.49,1.41 81.1 0 1 0.54,-0.78 z m 19.1,3.79 5.63,-0.05 a 1.09,1.06 3.3 0 0 1.08,-0.94 q 0.3,-2.43 -1.21,-3.83 -1.34,-1.24 -3.39,-1.2 -2.52,0.03 -3.86,2.28 -1.21,2.03 -0.71,4.38 0.48,2.22 2.23,3.47 2.59,1.849998 5.93,0.03 a 1,1.23 77.5 0 0 0.58,-0.73 q 0.28,-1.29 -1.59,-0.46 -4.56,2.02 -5.14,-2.44 a 0.46,0.45 86.6 0 1 0.45,-0.51 z m 11.63,-5.36 q -0.33,-0.93 -1.18,-0.61 a 0.84,0.7 82.1 0 0 -0.46,0.74 q -0.09,4.46 -0.05,8.91 0,0.65 0.22,0.97 0.4,0.6 1.1,0.3 a 0.83,0.68 79 0 0 0.41,-0.75 q -0.11,-2.82 0.15,-5.63 0.13,-1.39 0.78,-2.04 0.9,-0.91 2.29,-0.73 a 0.68,0.58 12.4 0 0 0.69,-0.37 q 0.59,-1.53 -1.14,-1.51 -0.32,0 -0.91,0.32 l -1.31,0.71 a 0.48,0.38 66.5 0 1 -0.59,-0.31 z"
     id="path16636" />
  <path
     fill="#5b9bd5"
     d="m 160.5,69.605042 62.75,-0.08 27.07,0.53 a 0.7,0.68 0.9 0 1 0.68,0.68 l -0.06,41.779998 a 0.53,0.54 87.7 0 1 -0.5,0.53 q -3.39,0.26 -6.8,0.18 -5.94,-0.13 -6.79,-0.13 -24.72,0.23 -49.43,0.04 -2.91,-0.02 -15.84,0.24 -7.98,0.15 -15.85,-0.3 a 0.75,0.73 1.7 0 1 -0.71,-0.73 l -0.03,-41.779998 a 0.55,0.54 87.8 0 1 0.5,-0.55 z m 34.92,27.3 q 4.05,-4.08 5.08,-6.59 1.78,-4.36 -2.06,-5.94 -2.9,-1.18 -5.33,1.09 a 1.05,1.13 65.6 0 0 -0.36,0.86 q 0.06,0.99 0.71,0.58 0.59,-0.37 0.77,-0.43 4.96,-1.78 4.4,2.38 -0.22,1.64 -1.63,3.43 -2.13,2.7 -4.34,5.23 -1.3,1.48 0.64,1.49 l 7.4,0.01 a 0.82,0.76 12.2 0 0 0.74,-0.44 q 0.53,-1.11 -0.94,-1.15 -2.46,-0.06 -4.93,-0.15 -0.5,-0.02 -0.15,-0.37 z m 11.11,-7.9 -0.02,-2.68 a 0.5,0.52 89.5 0 1 0.52,-0.51 h 4.46 a 0.88,0.68 8.6 0 0 0.77,-0.43 q 0.12,-0.28 0.1,-0.58 a 0.73,0.59 4.9 0 0 -0.6,-0.58 q -3.11,-0.49 -6.2,0.06 a 0.59,0.73 85.1 0 0 -0.6,0.58 l -0.15,5.27 a 0.95,1.15 89 0 0 1.21,0.97 q 5.53,-0.29 5.13,3.36 -0.23,2.12 -2.02,2.78 -1.67,0.61 -3.94,-0.12 -1.24,-0.4 -1.02,0.66 a 1.04,0.89 8 0 0 0.59,0.67 q 3.54,1.49 6.17,-0.24 2.48,-1.63 2.21,-4.78 -0.38,-4.37 -6.08,-3.97 a 0.47,0.5 87.7 0 1 -0.53,-0.46 z"
     id="path16638" />
  <path
     fill="#5b9bd5"
     d="m 320.75,69.525042 q 4.36,0.41 10.5,0.29 21.01,-0.41 48,-0.04 l 9.22,0.33 a 0.54,0.53 1.1 0 1 0.52,0.53 l 0.07,41.929998 a 0.7,0.69 0 0 1 -0.7,0.69 h -97.05 a 0.51,0.51 0 0 1 -0.51,-0.5 l -0.34,-27.689998 -0.01,-14.81 a 0.49,0.51 0 0 1 0.49,-0.51 z m 10.5,14.94 q -0.71,2.01 1.46,1.43 a 0.77,0.79 87 0 0 0.58,-0.63 q 0.27,-1.77 -1.36,-1.41 a 0.96,0.98 3.6 0 0 -0.68,0.61 z m -23.84,0.53 q -0.3,6.41 -0.2,12.82 0.03,1.73 1.34,1.22 a 0.88,0.62 85.5 0 0 0.42,-0.71 l 0.25,-4.71 a 0.57,0.5 2.1 0 1 0.58,-0.47 q 7.74,0.09 5.54,-7.05 a 1.42,1.45 8 0 0 -0.56,-0.76 q -3.16,-2.12 -6.87,-0.99 a 0.73,0.7 83.8 0 0 -0.5,0.65 z m 42.04,5.13 q 0.09,2.72 0.05,5.44 -0.06,4.43 4.25,3.25 0.82,-0.23 0.53,-0.84 a 0.57,0.81 76.7 0 0 -0.78,-0.31 q -1.18,0.15 -1.82,-0.59 -0.43,-0.51 -0.43,-1.64 0,-2.45 0,-4.96 a 0.96,0.95 2.2 0 1 1.03,-0.95 q 2.5,0.2 1.76,-1.06 a 0.66,0.81 72.7 0 0 -0.77,-0.31 q -2.48,0.38 -2.11,-2.1 a 0.72,0.87 19.1 0 0 -0.3,-0.8 q -1.3,-0.88 -1.36,1.06 a 0.94,2.95 51 0 1 -1.19,1.81 q -1.68,1.63 0.63,1.54 a 0.47,0.49 88.2 0 1 0.51,0.46 z m -26.879,8.9896 a 5.09,5.59 7.7 0 0 5.7931,-4.8576 5.09,5.59 7.7 0 0 -4.2951,-6.2216 5.09,5.59 7.7 0 0 -5.7931,4.8576 5.09,5.59 7.7 0 0 4.2951,6.2216 z M 333,88.355042 a 0.3,0.3 0 0 0 -0.3,-0.3 h -1.14 a 0.3,0.3 0 0 0 -0.3,0.3 v 10.4 a 0.3,0.3 0 0 0 0.3,0.3 h 1.14 a 0.3,0.3 0 0 0 0.3,-0.3 z m 5.45,0.42 q -0.33,-0.95 -1.19,-0.62 a 0.79,0.7 81.1 0 0 -0.46,0.72 v 9.63 a 0.64,0.66 6 0 0 0.5,0.64 q 1.46,0.3 1.34,-1.34 -0.14,-1.99 -0.14,-5.38 a 2.44,2.41 72.7 0 1 1.03,-1.99 q 3.51,-2.46 3.78,1.89 0.17,2.87 0.19,5.74 a 0.82,0.93 13.3 0 0 0.41,0.77 q 1.57,0.93 1.59,-1.27 0.02,-2.71 -0.1,-4.7 -0.18,-2.84 -1.54,-4.04 -1.94,-1.7 -4.87,0.15 a 0.37,0.37 0 0 1 -0.54,-0.2 z m 20.11,5.34 5.63,-0.05 a 1.09,1.06 3.3 0 0 1.08,-0.94 q 0.3,-2.43 -1.21,-3.83 -1.34,-1.24 -3.39,-1.2 -2.52,0.03 -3.86,2.28 -1.21,2.03 -0.71,4.38 0.48,2.22 2.23,3.47 2.59,1.849998 5.93,0.03 a 1,1.23 77.5 0 0 0.58,-0.73 q 0.28,-1.29 -1.59,-0.46 -4.56,2.02 -5.14,-2.44 a 0.46,0.45 86.6 0 1 0.45,-0.51 z m 11.63,-5.36 q -0.33,-0.93 -1.18,-0.61 a 0.84,0.7 82.1 0 0 -0.46,0.74 q -0.09,3.95 -0.05,7.9 0,0.05 -0.08,1.05 -0.1,1.41 1.27,1.26 a 0.63,0.58 88.5 0 0 0.52,-0.6 q 0.08,-2.47 0.05,-4.93 -0.04,-3.71 3.31,-3.71 a 0.64,0.57 4.8 0 0 0.62,-0.46 q 0.29,-1.5 -1.29,-1.36 -0.45,0.04 -1.06,0.48 -0.49,0.35 -1.05,0.58 a 0.52,0.44 69.8 0 1 -0.6,-0.34 z"
     id="path16640" />
  <path
     fill="#000000"
     d="m 63.93,83.855042 q 1.63,-0.36 1.36,1.41 a 0.77,0.79 87 0 1 -0.58,0.63 q -2.17,0.58 -1.46,-1.43 a 0.96,0.98 3.6 0 1 0.68,-0.61 z"
     id="path16642" />
  <path
     fill="#000000"
     d="m 331.93,83.855042 q 1.63,-0.36 1.36,1.41 a 0.77,0.79 87 0 1 -0.58,0.63 q -2.17,0.58 -1.46,-1.43 a 0.96,0.98 3.6 0 1 0.68,-0.61 z"
     id="path16644" />
  <path
     fill="#000000"
     d="m 46.46,85.085042 a 2.95,2.95 0 0 1 1.5,2.31 q 0.5,5.69 -5.94,5.67 a 1.02,1.02 0 0 0 -1.02,1.02 q 0,1.98 -0.22,4.21 -0.11,1.18 -1.04,0.72 a 0.76,0.88 11.1 0 1 -0.43,-0.76 l -0.05,-12.98 a 1.07,1.09 85.7 0 1 0.94,-1.07 q 3.77,-0.5 6.26,0.88 z m -1.59,0.95 q -1.58,-0.75 -3.2,-0.41 a 0.62,0.71 83.1 0 0 -0.56,0.62 v 4.63 a 0.69,0.59 5.7 0 0 0.57,0.6 q 4.73,0.81 4.27,-3.91 a 1.87,1.88 9.6 0 0 -1.08,-1.53 z"
     id="path16646" />
  <path
     fill="#000000"
     d="m 195.57,97.275042 q 2.47,0.09 4.93,0.15 1.47,0.04 0.94,1.15 a 0.82,0.76 12.2 0 1 -0.74,0.44 l -7.4,-0.01 q -1.94,-0.01 -0.64,-1.49 2.21,-2.53 4.34,-5.23 1.41,-1.79 1.63,-3.43 0.56,-4.16 -4.4,-2.38 -0.18,0.06 -0.77,0.43 -0.65,0.41 -0.71,-0.58 a 1.05,1.13 65.6 0 1 0.36,-0.86 q 2.43,-2.27 5.33,-1.09 3.84,1.58 2.06,5.94 -1.03,2.51 -5.08,6.59 -0.35,0.35 0.15,0.37 z"
     id="path16648" />
  <path
     fill="#000000"
     d="m 207.06,89.465042 q 5.7,-0.4 6.08,3.97 0.27,3.15 -2.21,4.78 -2.63,1.73 -6.17,0.24 a 1.04,0.89 8 0 1 -0.59,-0.67 q -0.22,-1.06 1.02,-0.66 2.27,0.73 3.94,0.12 1.79,-0.66 2.02,-2.78 0.4,-3.65 -5.13,-3.36 a 0.95,1.15 89 0 1 -1.21,-0.97 l 0.15,-5.27 a 0.59,0.73 85.1 0 1 0.6,-0.58 q 3.09,-0.55 6.2,-0.06 a 0.73,0.59 4.9 0 1 0.6,0.58 q 0.02,0.3 -0.1,0.58 a 0.88,0.68 8.6 0 1 -0.77,0.43 h -4.46 a 0.5,0.52 89.5 0 0 -0.52,0.51 l 0.02,2.68 a 0.47,0.5 87.7 0 0 0.53,0.46 z"
     id="path16650" />
  <path
     fill="#000000"
     d="m 307.91,84.345042 q 3.71,-1.13 6.87,0.99 a 1.42,1.45 8 0 1 0.56,0.76 q 2.2,7.14 -5.54,7.05 a 0.57,0.5 2.1 0 0 -0.58,0.47 l -0.25,4.71 a 0.88,0.62 85.5 0 1 -0.42,0.71 q -1.31,0.51 -1.34,-1.22 -0.1,-6.41 0.2,-12.82 a 0.73,0.7 83.8 0 1 0.5,-0.65 z m 5.73,5.24 q 1.16,-4.39 -3.89,-3.98 a 0.81,0.81 0 0 0 -0.75,0.81 v 4.25 a 0.83,0.83 0 0 0 0.77,0.83 q 3.3,0.24 3.87,-1.91 z"
     id="path16652" />
  <path
     fill="#000000"
     d="m 83.3,90.125042 q -0.16,4.91 -0.05,5.94 0.21,1.9 2.26,1.6 a 0.55,0.76 76.4 0 1 0.76,0.31 q 0.24,0.56 -0.52,0.84 -2.56,0.94 -3.66,-0.76 -0.59,-0.9 -0.59,-3.09 0,-2.23 0,-4.83 a 0.56,0.56 0 0 0 -0.52,-0.56 q -2.61,-0.16 0.05,-1.84 a 1.01,0.99 74.9 0 0 0.45,-0.8 q 0.08,-2.48 1.37,-1.67 a 0.68,0.86 17.3 0 1 0.31,0.8 q -0.36,2.49 2.29,2.14 a 0.45,0.51 84.3 0 1 0.57,0.41 q 0.1,1.53 -2.23,1.11 a 0.42,0.42 0 0 0 -0.49,0.4 z"
     id="path16654" />
  <path
     fill="#000000"
     d="m 348.94,89.665042 q -2.31,0.09 -0.63,-1.54 a 0.94,2.95 51 0 0 1.19,-1.81 q 0.06,-1.94 1.36,-1.06 a 0.72,0.87 19.1 0 1 0.3,0.8 q -0.37,2.48 2.11,2.1 a 0.66,0.81 72.7 0 1 0.77,0.31 q 0.74,1.26 -1.76,1.06 a 0.96,0.95 2.2 0 0 -1.03,0.95 q 0,2.51 0,4.96 0,1.13 0.43,1.64 0.64,0.74 1.82,0.59 a 0.57,0.81 76.7 0 1 0.78,0.31 q 0.29,0.61 -0.53,0.84 -4.31,1.18 -4.25,-3.25 0.04,-2.72 -0.05,-5.44 a 0.47,0.49 88.2 0 0 -0.51,-0.46 z"
     id="path16656" />
  <path
     fill="#5b9bd5"
     d="m 44.87,86.035042 a 1.87,1.88 9.6 0 1 1.08,1.53 q 0.46,4.72 -4.27,3.91 a 0.69,0.59 5.7 0 1 -0.57,-0.6 v -4.63 a 0.62,0.71 83.1 0 1 0.56,-0.62 q 1.62,-0.34 3.2,0.41 z"
     id="path16658" />
  <path
     fill="#5b9bd5"
     d="m 313.64,89.585042 q -0.57,2.15 -3.87,1.91 a 0.83,0.83 0 0 1 -0.77,-0.83 v -4.25 a 0.81,0.81 0 0 1 0.75,-0.81 q 5.05,-0.41 3.89,3.98 z"
     id="path16660" />
  <path
     fill="#000000"
     d="m 54.5697,99.124542 a 5.09,5.6 7.7 0 1 -4.2938,-6.2315 5.09,5.6 7.7 0 1 5.7944,-4.8675 5.09,5.6 7.7 0 1 4.2938,6.2315 5.09,5.6 7.7 0 1 -5.7944,4.8675 z m 0.6321,-1.4615 a 3.2,4.08 1.8 0 0 3.3266,-3.9775 3.2,4.08 1.8 0 0 -3.0702,-4.1785 3.2,4.08 1.8 0 0 -3.3266,3.9775 3.2,4.08 1.8 0 0 3.0702,4.1785 z"
     id="path16662" />
  <path
     fill="#000000"
     d="m 65,98.755042 a 0.3,0.3 0 0 1 -0.3,0.3 h -1.14 a 0.3,0.3 0 0 1 -0.3,-0.3 v -10.4 a 0.3,0.3 0 0 1 0.3,-0.3 h 1.14 a 0.3,0.3 0 0 1 0.3,0.3 z"
     id="path16664" />
  <path
     fill="#000000"
     d="m 70.92,91.105042 q -0.99,3.54 -0.42,5.96 0.6,2.56 -1.29,1.93 a 0.66,0.71 8.8 0 1 -0.46,-0.68 l 0.05,-9.43 a 0.74,0.65 83.5 0 1 0.48,-0.7 q 0.86,-0.23 1.33,0.62 a 0.45,0.43 58.2 0 0 0.62,0.16 q 2.98,-1.92 4.84,0 1.18,1.22 1.36,4.05 0.16,2.52 0.09,5.05 a 1.19,0.78 80.1 0 1 -0.37,0.85 q -0.51,0.35 -1.14,0.08 a 0.72,0.86 8.5 0 1 -0.46,-0.75 q -0.07,-2.45 -0.06,-4.9 0,-2.05 -0.57,-2.94 -1.13,-1.74 -3.46,-0.08 a 1.49,1.41 81.1 0 0 -0.54,0.78 z"
     id="path16666" />
  <path
     fill="#000000"
     d="m 90.11,94.625042 q 0.58,4.46 5.14,2.44 1.87,-0.83 1.59,0.46 a 1,1.23 77.5 0 1 -0.58,0.73 q -3.34,1.819998 -5.93,-0.03 -1.75,-1.25 -2.23,-3.47 -0.5,-2.35 0.71,-4.38 1.34,-2.25 3.86,-2.28 2.05,-0.04 3.39,1.2 1.51,1.4 1.21,3.83 a 1.09,1.06 3.3 0 1 -1.08,0.94 l -5.63,0.05 a 0.46,0.45 86.6 0 0 -0.45,0.51 z m 4.15,-4.5 q -3.52,-1.44 -4.13,1.88 a 0.44,0.44 0 0 0 0.43,0.52 l 4.44,0.02 a 0.53,0.52 87.5 0 0 0.52,-0.58 q -0.15,-1.38 -1.26,-1.84 z"
     id="path16668" />
  <path
     fill="#000000"
     d="m 102.78,89.065042 1.31,-0.71 q 0.59,-0.32 0.91,-0.32 1.73,-0.02 1.14,1.51 a 0.68,0.58 12.4 0 1 -0.69,0.37 q -1.39,-0.18 -2.29,0.73 -0.65,0.65 -0.78,2.04 -0.26,2.81 -0.15,5.63 a 0.83,0.68 79 0 1 -0.41,0.75 q -0.7,0.3 -1.1,-0.3 -0.22,-0.32 -0.22,-0.97 -0.04,-4.45 0.05,-8.91 a 0.84,0.7 82.1 0 1 0.46,-0.74 q 0.85,-0.32 1.18,0.61 a 0.48,0.38 66.5 0 0 0.59,0.31 z"
     id="path16670" />
  <path
     fill="#000000"
     d="m 322.571,99.114642 a 5.09,5.59 7.7 0 1 -4.2951,-6.2216 5.09,5.59 7.7 0 1 5.7931,-4.8576 5.09,5.59 7.7 0 1 4.2951,6.2216 5.09,5.59 7.7 0 1 -5.7931,4.8576 z m 0.6095,-1.4523 a 3.21,4.08 2.1 0 0 3.3573,-3.9597 3.21,4.08 2.1 0 0 -3.0583,-4.1949 3.21,4.08 2.1 0 0 -3.3573,3.9597 3.21,4.08 2.1 0 0 3.0583,4.1949 z"
     id="path16672" />
  <path
     fill="#000000"
     d="m 333,98.755042 a 0.3,0.3 0 0 1 -0.3,0.3 h -1.14 a 0.3,0.3 0 0 1 -0.3,-0.3 v -10.4 a 0.3,0.3 0 0 1 0.3,-0.3 h 1.14 a 0.3,0.3 0 0 1 0.3,0.3 z"
     id="path16674" />
  <path
     fill="#000000"
     d="m 338.99,88.975042 q 2.93,-1.85 4.87,-0.15 1.36,1.2 1.54,4.04 0.12,1.99 0.1,4.7 -0.02,2.2 -1.59,1.27 a 0.82,0.93 13.3 0 1 -0.41,-0.77 q -0.02,-2.87 -0.19,-5.74 -0.27,-4.35 -3.78,-1.89 a 2.44,2.41 72.7 0 0 -1.03,1.99 q 0,3.39 0.14,5.38 0.12,1.64 -1.34,1.34 a 0.64,0.66 6 0 1 -0.5,-0.64 v -9.63 a 0.79,0.7 81.1 0 1 0.46,-0.72 q 0.86,-0.33 1.19,0.62 a 0.37,0.37 0 0 0 0.54,0.2 z"
     id="path16676" />
  <path
     fill="#000000"
     d="m 358.11,94.625042 q 0.58,4.46 5.14,2.44 1.87,-0.83 1.59,0.46 a 1,1.23 77.5 0 1 -0.58,0.73 q -3.34,1.819998 -5.93,-0.03 -1.75,-1.25 -2.23,-3.47 -0.5,-2.35 0.71,-4.38 1.34,-2.25 3.86,-2.28 2.05,-0.04 3.39,1.2 1.51,1.4 1.21,3.83 a 1.09,1.06 3.3 0 1 -1.08,0.94 l -5.63,0.05 a 0.46,0.45 86.6 0 0 -0.45,0.51 z m 0.32,-3.61 q -1.71,1.7 0.56,1.59 l 4.01,-0.21 a 0.44,0.4 79.1 0 0 0.35,-0.57 q -1.41,-4.33 -4.92,-0.81 z"
     id="path16678" />
  <path
     fill="#000000"
     d="m 370.79,89.095042 q 0.56,-0.23 1.05,-0.58 0.61,-0.44 1.06,-0.48 1.58,-0.14 1.29,1.36 a 0.64,0.57 4.8 0 1 -0.62,0.46 q -3.35,0 -3.31,3.71 0.03,2.46 -0.05,4.93 a 0.63,0.58 88.5 0 1 -0.52,0.6 q -1.37,0.15 -1.27,-1.26 0.08,-1 0.08,-1.05 -0.04,-3.95 0.05,-7.9 a 0.84,0.7 82.1 0 1 0.46,-0.74 q 0.85,-0.32 1.18,0.61 a 0.52,0.44 69.8 0 0 0.6,0.34 z"
     id="path16680" />
  <path
     fill="#5b9bd5"
     d="m 55.2018,97.663042 a 3.2,4.08 1.8 0 1 -3.0702,-4.1785 3.2,4.08 1.8 0 1 3.3266,-3.9775 3.2,4.08 1.8 0 1 3.0702,4.1785 3.2,4.08 1.8 0 1 -3.3266,3.9775 z"
     id="path16682" />
  <path
     fill="#5b9bd5"
     d="m 94.26,90.125042 q 1.11,0.46 1.26,1.84 a 0.53,0.52 87.5 0 1 -0.52,0.58 l -4.44,-0.02 a 0.44,0.44 0 0 1 -0.43,-0.52 q 0.61,-3.32 4.13,-1.88 z"
     id="path16684" />
  <path
     fill="#5b9bd5"
     d="m 323.1805,97.662342 a 3.21,4.08 2.1 0 1 -3.0583,-4.1949 3.21,4.08 2.1 0 1 3.3573,-3.9597 3.21,4.08 2.1 0 1 3.0583,4.1949 3.21,4.08 2.1 0 1 -3.3573,3.9597 z"
     id="path16686" />
  <path
     fill="#5b9bd5"
     d="m 358.43,91.015042 q 3.51,-3.52 4.92,0.81 a 0.44,0.4 79.1 0 1 -0.35,0.57 l -4.01,0.21 q -2.27,0.11 -0.56,-1.59 z"
     id="path16688" />
  <path
     fill="#2b6193"
     d="m 136.5,135.10504 q 40.12,0.17 80.25,0.01 7.99,-0.04 19.99,0.08 18.63,0.19 37.26,-0.09 l 31.75,0.25 q 0.15,0.77 -0.25,1.42 -83.62,0.45 -167.25,0.01 -21.25,-0.12 -42.5,0.24 -0.72,-1.03 0.25,-1.75 z"
     id="path16690" />
</svg>
