<?xml version="1.0" encoding="UTF-8" standalone="no"?>
<svg
   version="1.1"
   viewBox="0 0 295.49979 239.91928"
   id="svg11370"
   sodipodi:docname="queue-dequeue.svg"
   width="295.49979"
   height="239.91928"
   inkscape:version="1.1.2 (0a00cf5339, 2022-02-04)"
   xmlns:inkscape="http://www.inkscape.org/namespaces/inkscape"
   xmlns:sodipodi="http://sodipodi.sourceforge.net/DTD/sodipodi-0.dtd"
   xmlns="http://www.w3.org/2000/svg"
   xmlns:svg="http://www.w3.org/2000/svg">
  <defs
     id="defs11374" />
  <sodipodi:namedview
     id="namedview11372"
     pagecolor="#ffffff"
     bordercolor="#666666"
     borderopacity="1.0"
     inkscape:pageshadow="2"
     inkscape:pageopacity="0.0"
     inkscape:pagecheckerboard="0"
     showgrid="false"
     fit-margin-top="0"
     fit-margin-left="0"
     fit-margin-right="0"
     fit-margin-bottom="0"
     inkscape:zoom="1.2875332"
     inkscape:cx="187.56798"
     inkscape:cy="200.38318"
     inkscape:window-width="1362"
     inkscape:window-height="729"
     inkscape:window-x="1920"
     inkscape:window-y="18"
     inkscape:window-maximized="1"
     inkscape:current-layer="svg11370" />
  <g
     stroke-width="2"
     fill="none"
     stroke-linecap="butt"
     id="g11218"
     transform="translate(-100.90445,-28.060713)">
    <path
       stroke="#808080"
       vector-effect="non-scaling-stroke"
       d="m 105.27,30.12 q 0.45,-0.15 0.93,-0.18 0.28,-0.01 0.46,-0.1 0.77,-0.37 -0.26,-0.62 -3.33,-0.81 -3.12,2.53 0.06,0.91 -1.12,1.38 -0.48,0.2 -0.06,0.51 1.59,1.19 1.15,3.11 -0.68,2.96 -0.25,3.75 0.33,0.61 0.95,0.56 a 0.64,0.55 88.6 0 0 0.51,-0.62 l 0.04,-5.62 a 0.71,0.69 84.5 0 1 0.56,-0.69 q 0.99,-0.19 1.25,-0.49 0.32,-0.37 -0.49,-0.5 -2.01,-0.33 -1.21,-2.37 a 1.13,1.05 -87.4 0 1 0.66,-0.65"
       id="path11070" />
    <path
       stroke="#808080"
       vector-effect="non-scaling-stroke"
       d="m 137.08,40.19 q -2.47,-0.45 -1.95,-2.95 0.1,-0.5 0.01,-0.98 -0.46,-2.34 1.56,-2.35 a 0.71,0.53 3.7 0 0 0.68,-0.44 q 0.13,-0.67 -1.14,-0.56 -1.14,0.09 -1.08,-0.92 a 1.04,0.67 -76.3 0 0 -0.29,-0.83 q -0.95,-0.69 -1.14,1.06 a 0.9,0.9 -5.8 0 1 -0.61,0.74 q -1.26,0.42 0.19,1.27 a 0.88,0.88 -74.5 0 1 0.44,0.78 q -0.03,1.47 0.01,2.94 0.05,1.64 0.56,2.36 0.91,1.27 2.82,0.57 1.23,-0.45 -0.06,-0.69"
       id="path11072" />
    <path
       stroke="#808080"
       vector-effect="non-scaling-stroke"
       d="m 109.07,33.33 a 0.67,0.64 -87.1 0 0 -0.72,0.69 l 0.17,5.98 a 1.16,0.77 -79.2 0 0 0.35,0.84 q 0.83,0.6 0.85,-0.84 0.03,-2 0.03,-3.9 a 1.61,1.6 -13.1 0 1 0.9,-1.44 q 2.94,-1.44 1.53,-1.59 -0.24,-0.02 -1.18,0.23 -0.75,0.2 -1.93,0.03"
       id="path11074" />
    <path
       stroke="#808080"
       vector-effect="non-scaling-stroke"
       d="m 122.18,37.01 a 4.12,4.12 0 0 0 -4.12,-4.12 4.12,4.12 0 0 0 -4.12,4.12 4.12,4.12 0 0 0 4.12,4.12 4.12,4.12 0 0 0 4.12,-4.12"
       id="path11076" />
    <path
       stroke="#808080"
       vector-effect="non-scaling-stroke"
       d="m 125.86,33.43 q -0.55,-0.34 -1.11,-0.12 a 0.86,0.57 83.3 0 0 -0.38,0.75 v 5.88 a 0.91,0.54 -84 0 0 0.36,0.78 q 1.16,0.49 0.82,-3.72 a 2.79,2.79 66.1 0 1 0.87,-2.26 q 3.07,-2.89 3.18,2.26 0.03,1.36 -0.19,2.7 a 1.26,0.83 -67.3 0 0 0.17,0.91 q 0.45,0.56 1.03,0.2 A 0.9,0.68 75 0 0 130.94,40 q -0.12,-1.24 -0.19,-3.75 -0.12,-4.64 -4.05,-2.73 a 0.95,0.78 45.6 0 1 -0.84,-0.09"
       id="path11078" />
    <path
       stroke="#808080"
       vector-effect="non-scaling-stroke"
       d="m 300.77,34.6 q 4.67,-2.18 -1.96,-1.35 a 0.58,0.48 87.3 0 0 -0.43,0.57 l -0.06,5.94 a 1.45,0.69 -79.5 0 0 0.24,0.89 q 0.88,1.01 1.13,-0.37 0.06,-0.37 0,-1.05 -0.18,-2.04 0.45,-3.95 a 1.27,1.08 -6.7 0 1 0.63,-0.68"
       id="path11080" />
    <path
       stroke="#808080"
       vector-effect="non-scaling-stroke"
       d="m 304.19,35.42 q -1.04,3.61 2,5.39 2.08,1.23 4.12,-0.74 0.28,-0.27 0.34,-0.6 0.16,-0.98 -1.04,-0.17 -2.74,1.85 -3.96,-0.68 A 1.16,1.13 -12.8 0 1 306.7,37 l 3.56,-0.04 a 1.04,1.01 80 0 0 0.93,-1.38 q -1.26,-3.72 -5.01,-2.31 -1.53,0.57 -1.99,2.15"
       id="path11082" />
    <path
       stroke="#808080"
       vector-effect="non-scaling-stroke"
       d="m 317.96,34.66 a 0.8,0.8 -18.1 0 1 -0.62,1.22 q -3.14,0.28 -4.01,1.91 -0.78,1.48 0.56,2.67 1.28,1.12 3.36,0.29 0.76,-0.3 1.95,-0.14 a 0.46,0.45 4.7 0 0 0.51,-0.43 q 0.08,-1.59 0.03,-3.18 -0.2,-5.96 -5.73,-3.17 -1.02,0.52 -0.49,0.75 a 0.97,0.62 -41.4 0 0 0.78,-0.12 q 2.6,-1.53 3.66,0.2"
       id="path11084" />
    <path
       stroke="#808080"
       vector-effect="non-scaling-stroke"
       d="m 323.79,33.32 -0.98,-0.1 a 0.53,0.42 88.9 0 0 -0.45,0.59 q 0.21,2.51 0.15,5.04 -0.01,0.42 0.08,0.8 0.68,2.99 1.11,-0.23 0.05,-0.37 -0.03,-0.84 -0.64,-3.93 2.85,-4.96 0.52,-0.15 0.06,-0.37 -0.92,-0.45 -1.9,0.01 a 1.51,0.42 11.7 0 1 -0.89,0.06"
       id="path11086" />
    <path
       stroke="#a0b8ce"
       vector-effect="non-scaling-stroke"
       d="m 116.7,70.46 -3.29,0.04 q -0.77,0.01 -0.23,0.55 l 7.89,7.89 a 0.61,0.59 45 0 0 0.85,0.01 l 7.74,-7.84 q 0.53,-0.54 -0.14,-0.52 l -2.34,0.06 a 1.41,1.24 -1.1 0 1 -1.45,-1.22 l -0.15,-20.75 a 0.54,0.52 -89.5 0 0 -0.51,-0.54 l -6.99,-0.1 a 0.87,0.82 -89.7 0 0 -0.83,0.87 l -0.06,21.02 a 0.53,0.49 -90 0 1 -0.49,0.53"
       id="path11088" />
    <path
       stroke="#a0b8ce"
       vector-effect="non-scaling-stroke"
       d="m 305.7,70.46 -3.29,0.04 q -0.77,0.01 -0.23,0.55 l 7.89,7.89 a 0.61,0.59 45 0 0 0.85,0.01 l 7.74,-7.84 q 0.53,-0.54 -0.14,-0.52 l -2.34,0.06 a 1.41,1.24 -1.1 0 1 -1.45,-1.22 l -0.15,-20.75 a 0.54,0.52 -89.5 0 0 -0.51,-0.54 l -6.99,-0.1 a 0.87,0.82 -89.7 0 0 -0.83,0.87 l -0.06,21.02 a 0.53,0.49 -90 0 1 -0.49,0.53"
       id="path11090" />
    <path
       stroke="#808080"
       vector-effect="non-scaling-stroke"
       d="M 311.99,86.44 A 0.44,0.44 0 0 0 311.55,86 h -192.1 a 0.44,0.44 0 0 0 -0.44,0.44 v 40.12 a 0.44,0.44 0 0 0 0.44,0.44 h 192.1 a 0.44,0.44 0 0 0 0.44,-0.44 V 86.44"
       id="path11092" />
    <path
       stroke="#a0b8ce"
       vector-effect="non-scaling-stroke"
       d="m 204.95,206.95 -6.38,0.04 q -0.96,0 -0.28,0.67 l 14.18,14.18 a 0.75,0.75 90 0 0 1.06,0 l 13.98,-13.98 q 0.85,-0.84 -0.41,-0.89 l -6.04,-0.2 a 0.59,0.52 -89 0 1 -0.5,-0.59 L 220.5,148.82 A 0.82,0.82 0 0 0 219.68,148 h -13.33 a 0.85,0.85 0 0 0 -0.85,0.85 l -0.06,57.59 a 0.51,0.49 -90 0 1 -0.49,0.51"
       id="path11094" />
    <path
       stroke="#808080"
       vector-effect="non-scaling-stroke"
       d="m 121.06,166.19 q -3.31,-1.66 -8.4,-1.02 a 1.01,0.98 -3.6 0 0 -0.89,0.98 l 0.14,13.17 a 0.62,0.58 4.1 0 0 0.52,0.57 q 3.94,0.57 7.07,-0.39 3.33,-1.02 4.19,-4.06 0.65,-2.28 0.34,-4.9 -0.37,-3.05 -2.97,-4.35"
       id="path11096" />
    <path
       stroke="#808080"
       vector-effect="non-scaling-stroke"
       d="m 150.5,177.58 q 1.43,-2.55 1.25,-6.08 -0.21,-4.27 -3.17,-5.75 -2.54,-1.28 -5.75,-0.43 -4.67,1.24 -4.66,7.18 0.01,8.69 9.31,7.13 a 0.9,0.9 -29.1 0 1 0.74,0.21 q 1.84,1.61 4.22,2.02 a 0.63,0.59 14.8 0 0 0.7,-0.38 q 0.37,-0.98 0,-1.97 a 0.86,0.65 -4.8 0 0 -0.71,-0.45 q -1.06,-0.06 -1.83,-0.71 a 0.64,0.58 -55.5 0 1 -0.1,-0.77"
       id="path11098" />
    <path
       stroke="#808080"
       vector-effect="non-scaling-stroke"
       d="m 130.48,177.83 q -1.16,-0.38 -1.64,-1.81 a 0.78,0.77 -9.4 0 1 0.74,-1.02 l 5.61,-0.05 a 0.72,0.7 9 0 0 0.68,-0.48 q 0.7,-2.15 -0.81,-3.78 -1.83,-1.99 -4.22,-1.72 -2.12,0.24 -3.59,2.02 -1.65,1.99 -1.15,4.58 0.44,2.34 2.36,3.62 2.75,1.85 6.17,0.02 0.84,-0.45 0.97,-1.13 0.24,-1.23 -2.44,-0.28 a 4.19,4.14 44 0 1 -2.68,0.03"
       id="path11100" />
    <path
       stroke="#808080"
       vector-effect="non-scaling-stroke"
       d="m 158.9,177.91 a 1.56,1.56 -1.6 0 1 -1.65,-1.56 q 0,-3.35 0.24,-5.32 0.32,-2.59 -2.21,-2.04 a 0.96,0.95 85.2 0 0 -0.74,0.88 q -0.17,3.42 0.04,6.31 0.16,2.29 1.33,3.21 1.69,1.34 4.14,-0.07 a 0.86,0.83 -44.7 0 1 0.83,-0.01 q 2.82,1.56 2.84,-0.56 0.03,-3.61 0.03,-7.22 0,-0.06 0.08,-1.05 0.16,-1.97 -2.42,-1.41 a 0.64,0.62 -7.9 0 0 -0.49,0.63 q 0.11,2.64 0.09,5.04 -0.01,1.27 -0.35,1.95 -0.6,1.15 -1.76,1.22"
       id="path11102" />
    <path
       stroke="#808080"
       vector-effect="non-scaling-stroke"
       d="m 168.92,176.02 a 0.87,0.82 -9.1 0 1 0.83,-1.08 l 5.56,-0.07 a 0.66,0.61 -84.4 0 0 0.61,-0.54 q 0.67,-3.35 -2.23,-4.77 -2.5,-1.22 -4.71,-0.15 -1.98,0.95 -2.7,3.26 -0.78,2.52 0.47,4.77 1.12,2.02 3.38,2.47 2.29,0.45 4.53,-0.68 0.56,-0.29 0.82,-0.83 0.84,-1.74 -1.62,-0.73 -3.86,1.6 -4.94,-1.65"
       id="path11104" />
    <path
       stroke="#808080"
       vector-effect="non-scaling-stroke"
       d="m 182.92,177.9 a 1.58,1.58 88.3 0 1 -1.67,-1.58 v -6.58 a 0.71,0.7 -80.9 0 0 -0.48,-0.67 q -2.54,-0.87 -2.4,1.49 0.1,1.77 0.09,1.89 -0.05,2.01 0.11,4.02 0.17,2.19 1.48,3.03 1.75,1.12 4,-0.18 a 0.87,0.85 43.4 0 1 0.84,-0.01 q 2.81,1.56 2.83,-0.56 0.03,-3.61 0.03,-7.22 0,-0.06 0.08,-1.05 0.16,-1.97 -2.42,-1.41 a 0.64,0.62 -7.9 0 0 -0.49,0.63 q 0.11,2.65 0.09,5.06 -0.01,1.25 -0.35,1.93 -0.59,1.15 -1.74,1.21"
       id="path11106" />
    <path
       stroke="#808080"
       vector-effect="non-scaling-stroke"
       d="m 194.84,177.83 q -1.52,-0.38 -2,-1.81 a 0.78,0.77 -9.4 0 1 0.74,-1.02 l 5.61,-0.05 a 0.72,0.7 9 0 0 0.68,-0.48 q 0.67,-2.02 -0.56,-3.53 -2.06,-2.54 -4.87,-1.96 -2.36,0.49 -3.72,2.49 -1.5,2.2 -0.41,4.97 2.21,5.6 7.98,2.88 0.57,-0.27 0.96,-0.63 1.31,-1.24 -0.44,-1.36 -0.41,-0.03 -0.93,0.22 -1.43,0.69 -3.04,0.28"
       id="path11108" />
    <path
       stroke="#808080"
       vector-effect="non-scaling-stroke"
       d="m 265.9906,169.6287 a 0.58,0.58 0 0 0 -0.581,-0.579 l -0.36,6e-4 a 0.58,0.58 0 0 0 -0.579,0.581 l 0.0188,10.76 a 0.58,0.58 0 0 0 0.581,0.579 l 0.36,-6e-4 a 0.58,0.58 0 0 0 0.579,-0.581 l -0.0188,-10.76"
       id="path11110" />
    <path
       stroke="#808080"
       vector-effect="non-scaling-stroke"
       d="m 299.06,174 q 2.88,-0.44 0.12,-1.08 a 0.92,0.74 2.6 0 1 -0.66,-0.58 q -0.37,-1.64 1.98,-2.86 0.86,-0.45 -0.1,-0.48 -3.73,-0.1 -3.29,3.2 a 0.58,0.56 -12.1 0 1 -0.41,0.61 q -1.77,0.55 -0.1,1.41 a 0.93,0.74 16.7 0 1 0.5,0.72 v 5.25 a 0.92,0.55 -84 0 0 0.37,0.79 q 0.28,0.12 0.56,0 a 0.93,0.65 83.2 0 0 0.42,-0.79 l 0.1,-5.62 a 0.59,0.59 -3.5 0 1 0.51,-0.57"
       id="path11112" />
    <path
       stroke="#808080"
       vector-effect="non-scaling-stroke"
       d="m 347.9227,169.665 a 0.59,0.59 0 0 0 -0.5941,-0.5859 l -0.3,0.002 a 0.59,0.59 0 0 0 -0.5859,0.5941 l 0.0746,10.6797 a 0.59,0.59 0 0 0 0.5941,0.5859 l 0.3,-0.002 a 0.59,0.59 0 0 0 0.5859,-0.5941 l -0.0746,-10.6797"
       id="path11114" />
    <path
       stroke="#808080"
       vector-effect="non-scaling-stroke"
       d="m 244.9,180.48 a 0.58,0.53 -1 0 0 0.58,0.51 q 8.31,0.08 7.6,-6.02 -0.37,-3.07 -2.4,-4.2 -2.05,-1.15 -5.45,-0.54 a 0.82,0.75 -6.1 0 0 -0.68,0.77 l 0.35,9.48"
       id="path11116" />
    <path
       stroke="#808080"
       vector-effect="non-scaling-stroke"
       d="m 277.22,172.87 q -1.37,0.63 -0.13,1.15 a 0.88,0.67 13.6 0 1 0.54,0.67 l 0.12,3.81 q 0.09,3.05 2.75,2.5 2.06,-0.43 -0.46,-1.13 a 1.08,1.08 7.8 0 1 -0.79,-1.04 q 0,-2.08 0,-4.08 0,-1.1 1.29,-0.86 a 1.26,0.79 22.9 0 0 0.88,-0.14 q 0.58,-0.41 -0.1,-0.66 -0.24,-0.09 -0.64,-0.04 -1.54,0.2 -1.54,-1.24 a 0.74,0.58 -82.9 0 0 -0.41,-0.69 q -1.13,-0.35 -1.08,1.07 a 0.73,0.71 78 0 1 -0.43,0.68"
       id="path11118" />
    <path
       stroke="#808080"
       vector-effect="non-scaling-stroke"
       d="m 329.81,174.13 q 1.73,0.17 1.43,-0.7 a 0.79,0.56 -9.5 0 0 -0.74,-0.36 q -1.36,0.1 -1.36,-1.26 a 0.84,0.63 -81 0 0 -0.39,-0.74 q -1,-0.42 -1,1.02 a 0.92,0.92 -9.3 0 1 -0.63,0.87 q -1.26,0.42 0.19,1.27 a 0.88,0.88 -74.5 0 1 0.44,0.78 q -0.03,1.43 0.01,2.87 0.05,1.74 0.62,2.48 0.88,1.15 2.59,0.52 a 0.54,0.45 -23 0 0 0.35,-0.67 q -0.23,-0.43 -0.92,-0.25 a 0.92,0.9 -7.2 0 1 -1.15,-0.87 l 0.04,-4.52 a 0.47,0.45 3.5 0 1 0.52,-0.44"
       id="path11120" />
    <path
       stroke="#808080"
       vector-effect="non-scaling-stroke"
       d="m 391.21,172.84 q -1.67,0.61 -0.11,1.19 a 0.86,0.82 6.9 0 1 0.54,0.66 q 0.24,1.64 0.16,3.31 -0.16,3.61 3.03,2.94 0.83,-0.18 0.47,-0.57 -0.26,-0.28 -1.21,-0.51 a 0.8,0.69 7 0 1 -0.62,-0.68 l -0.04,-4.63 a 0.58,0.44 3.5 0 1 0.63,-0.42 q 1.24,0.12 1.24,-0.58 a 0.59,0.44 -1.8 0 0 -0.62,-0.43 q -1.52,0.09 -1.53,-1.31 a 0.76,0.59 -83.5 0 0 -0.42,-0.69 q -1.13,-0.35 -1.08,1.07 a 0.68,0.66 79.9 0 1 -0.44,0.65"
       id="path11122" />
    <path
       stroke="#808080"
       vector-effect="non-scaling-stroke"
       d="m 256.68,177.51 q 1.6,-0.82 3.44,-0.65 1.21,0.12 1.72,-0.15 1.3,-0.69 -0.03,-2.27 -1.94,-2.32 -4.24,-1.33 -1.86,0.8 -2.48,2.83 -0.64,2.1 0.8,3.79 1.05,1.22 2.57,1.32 1.64,0.11 2.99,-0.94 a 0.93,0.55 -30.5 0 0 0.42,-0.76 q -0.09,-0.38 -0.92,0.06 -3.32,1.8 -4.53,-1.18 a 0.57,0.55 65.7 0 1 0.26,-0.72"
       id="path11124" />
    <path
       stroke="#808080"
       vector-effect="non-scaling-stroke"
       d="m 269.6,177.39 q 0.96,-0.79 2.41,-0.44 1.6,0.38 2.83,-0.4 a 0.81,0.76 69.8 0 0 0.34,-0.8 q -0.62,-3.61 -4.18,-2.75 -3.41,0.82 -3.15,3.93 0.19,2.32 1.86,3.54 2.03,1.48 4.74,-0.36 0.26,-0.18 0.35,-0.44 0.28,-0.83 -0.85,-0.22 -3.3,1.79 -4.53,-1.23 a 0.76,0.71 59.3 0 1 0.18,-0.83"
       id="path11126" />
    <path
       stroke="#808080"
       vector-effect="non-scaling-stroke"
       d="m 284.81,177.22 4.12,-0.3 a 1.36,0.77 7.9 0 0 0.86,-0.34 q 1.36,-1.55 -0.6,-2.77 -3.33,-2.06 -5.17,0.26 -1.34,1.69 -0.81,4.11 0.91,4.19 5.76,2.21 a 1.68,1.41 0 0 0 0.75,-0.63 q 0.66,-1.13 -0.98,-0.34 -3.69,1.78 -4.35,-1.61 a 0.5,0.47 82 0 1 0.42,-0.59"
       id="path11128" />
    <path
       stroke="#808080"
       vector-effect="non-scaling-stroke"
       d="m 303.82,175.53 a 1.37,1.37 -5 0 1 1.07,-1.27 q 1.73,-0.4 1.84,-0.85 a 0.62,0.3 -2 0 0 -0.72,-0.32 l -3.06,0.33 a 0.57,0.52 -4.2 0 0 -0.5,0.53 l 0.1,6.24 a 0.94,0.64 -83.3 0 0 0.41,0.79 q 0.33,0.14 0.58,-0.15 0.21,-0.23 0.2,-0.74 -0.03,-2.16 0.08,-4.56"
       id="path11130" />
    <path
       stroke="#808080"
       vector-effect="non-scaling-stroke"
       d="m 316.18,177.01 a 4.12,4.12 0 0 0 -4.12,-4.12 4.12,4.12 0 0 0 -4.12,4.12 4.12,4.12 0 0 0 4.12,4.12 4.12,4.12 0 0 0 4.12,-4.12"
       id="path11132" />
    <path
       stroke="#808080"
       vector-effect="non-scaling-stroke"
       d="m 320.06,174.81 q 1.87,-1.51 2.88,-0.33 0.55,0.64 0.55,2.2 -0.01,1.75 0.05,3.51 a 0.82,0.63 -86.3 0 0 0.48,0.72 q 0.33,0.09 0.61,-0.07 a 0.9,0.61 75.8 0 0 0.3,-0.83 q -0.21,-1.58 -0.22,-3.17 -0.01,-2.18 -0.62,-3.02 -1.14,-1.6 -3.41,-0.33 a 0.89,0.73 43.5 0 1 -0.82,-0.06 q -0.55,-0.34 -1.11,-0.12 a 0.83,0.63 80.5 0 0 -0.4,0.75 l 0.21,6.14 a 0.76,0.62 -85.2 0 0 0.47,0.68 q 1,0.27 0.72,-1.38 -0.66,-3.9 0.31,-4.69"
       id="path11134" />
    <path
       stroke="#808080"
       vector-effect="non-scaling-stroke"
       d="m 338.69,177.49 q 1.45,-0.77 3.13,-0.63 1.33,0.11 1.84,-0.1 1.6,-0.66 0.03,-2.45 -2.01,-2.29 -4.3,-1.15 -1.84,0.91 -2.35,2.94 -0.47,1.88 0.69,3.46 0.99,1.35 2.6,1.5 1.7,0.16 3.12,-0.94 a 0.96,0.54 -32.1 0 0 0.42,-0.77 q -0.09,-0.38 -0.92,0.06 -3.32,1.8 -4.53,-1.18 a 0.59,0.59 -25.1 0 1 0.27,-0.74"
       id="path11136" />
    <path
       stroke="#808080"
       vector-effect="non-scaling-stroke"
       d="m 351.49,178.5 a 1.3,1.29 -4.3 0 1 1.44,-1.67 q 2.4,0.38 3.8,-0.17 a 0.66,0.65 75 0 0 0.4,-0.71 q -0.41,-2.87 -2.89,-2.98 -1.88,-0.08 -3.31,1.2 -2.07,1.83 -0.62,4.77 1.86,3.75 5.93,1.36 0.2,-0.11 0.35,-0.28 1.05,-1.14 -0.55,-0.38 -3.63,1.73 -4.55,-1.14"
       id="path11138" />
    <path
       stroke="#808080"
       vector-effect="non-scaling-stroke"
       d="m 365.44,173.85 q -1.69,-1.38 -3.74,-0.56 -0.29,0.12 -0.92,0.06 l -0.98,-0.1 a 0.55,0.4 -88.2 0 0 -0.43,0.56 v 5.88 a 1.15,0.74 -78.5 0 0 0.32,0.83 q 1.08,0.85 1.23,-0.38 0.04,-0.39 -0.15,-1.14 -0.74,-2.81 1.16,-4.61 a 1.32,1.24 -65.3 0 1 0.88,-0.36 q 1.78,0.02 1.72,1.97 -0.07,2.1 0.01,4.19 a 0.7,0.64 -85.3 0 0 0.5,0.65 q 1.52,0.32 0.77,-2.03 -1.04,-3.29 1.3,-4.59 2.39,-1.34 2.39,1.4 V 180 a 1.14,0.93 -74.4 0 0 0.37,0.84 q 0.91,0.73 0.82,-0.77 -0.08,-1.52 -0.06,-3.07 0.1,-5.96 -4.4,-3.09 a 0.69,0.65 47.7 0 1 -0.79,-0.06"
       id="path11140" />
    <path
       stroke="#808080"
       vector-effect="non-scaling-stroke"
       d="m 374.63,177.43 q 1.2,-0.86 2.86,-0.41 1.9,0.51 2.5,-0.52 0.47,-0.82 -0.19,-1.95 -1.45,-2.49 -4.36,-1.36 -2.78,1.07 -2.58,3.77 0.16,2.28 1.8,3.49 1.9,1.41 4.58,-0.15 0.2,-0.11 0.36,-0.29 1.02,-1.16 -0.55,-0.41 -3.41,1.62 -4.63,-1.37 a 0.69,0.65 61.4 0 1 0.21,-0.8"
       id="path11142" />
    <path
       stroke="#808080"
       vector-effect="non-scaling-stroke"
       d="m 384.18,174.72 q 1.59,-1.38 2.92,-0.04 a 1.37,1.08 -73.2 0 1 0.35,0.89 l 0.1,4.62 a 0.71,0.64 -84.2 0 0 0.49,0.66 q 1.1,0.27 0.87,-0.81 -0.16,-0.78 -0.16,-1.1 -0.02,-1.72 -0.16,-3.43 -0.25,-3.26 -3.34,-2.26 -0.8,0.26 -2.44,0.12 a 0.43,0.42 2.4 0 0 -0.47,0.43 l 0.22,6.39 a 0.88,0.66 -83.7 0 0 0.44,0.75 q 0.76,0.3 0.74,-0.94 -0.03,-2.22 0.05,-4.44 a 1.21,1.06 73.5 0 1 0.39,-0.84"
       id="path11144" />
    <path
       stroke="#808080"
       vector-effect="non-scaling-stroke"
       d="M 288,227.07 A 1.07,1.07 0 0 0 286.93,226 H 144.07 a 1.07,1.07 0 0 0 -1.07,1.07 v 38.84 a 1.07,1.07 0 0 0 1.07,1.07 h 142.86 a 1.07,1.07 0 0 0 1.07,-1.07 v -38.84"
       id="path11146" />
    <path
       stroke="#808080"
       vector-effect="non-scaling-stroke"
       d="m 117.994,40.0688 a 3.08,2.72 91.6 0 0 2.8049,-3.0029 3.08,2.72 91.6 0 0 -2.6329,-3.1547 3.08,2.72 91.6 0 0 -2.8049,3.0029 3.08,2.72 91.6 0 0 2.6329,3.1547"
       id="path11148" />
    <path
       stroke="#808080"
       vector-effect="non-scaling-stroke"
       d="m 305.76,34.84 a 0.63,0.63 19 0 0 0.45,0.92 q 2.97,0.55 3.31,-0.23 0.39,-0.91 -1.26,-1.51 -1.73,-0.62 -2.5,0.82"
       id="path11150" />
    <path
       stroke="#808080"
       vector-effect="non-scaling-stroke"
       d="m 318.3237,37.7427 a 2.09,1.49 -19.2 0 0 -2.4637,-0.7198 2.09,1.49 -19.2 0 0 -1.4837,2.0944 2.09,1.49 -19.2 0 0 2.4637,0.7198 2.09,1.49 -19.2 0 0 1.4837,-2.0944"
       id="path11152" />
    <path
       stroke="#4e86b9"
       vector-effect="non-scaling-stroke"
       d="m 124.45,72.53 q -0.88,-0.6 -0.86,-1.53 0.16,-9.88 0.16,-20.04 a 0.78,0.67 90 0 0 -0.67,-0.78 l -3.29,-0.03 a 0.66,0.48 90 0 0 -0.48,0.66 l -0.12,20.37 a 1.52,1.22 -30.3 0 1 -0.33,0.87 q -1.27,1.59 0.83,2.76 2.38,1.34 3,0.63 l 1.91,-2.19 a 0.53,0.45 37.7 0 0 -0.15,-0.72"
       id="path11154" />
    <path
       stroke="#4e86b9"
       vector-effect="non-scaling-stroke"
       d="m 312.81,71.7 -0.12,-20.89 a 0.65,0.45 89.2 0 0 -0.47,-0.66 l -3.27,0.08 a 0.84,0.72 89.3 0 0 -0.7,0.84 q 0,10.43 -0.03,20.18 -0.01,0.85 -0.85,1.21 a 0.54,0.53 -34.7 0 0 -0.16,0.87 q 1.23,1.23 2.22,2.24 1.34,1.37 2.2,-0.12 0.59,-1.02 1.5,-1.76 1.33,-1.1 0.17,-1.41 a 0.68,0.58 9.2 0 1 -0.49,-0.58"
       id="path11156" />
    <path
       stroke="#808080"
       vector-effect="non-scaling-stroke"
       d="M 167,87.69 A 0.69,0.69 0 0 0 166.31,87 H 120.69 A 0.69,0.69 0 0 0 120,87.69 v 37.62 a 0.69,0.69 0 0 0 0.69,0.69 h 45.62 A 0.69,0.69 0 0 0 167,125.31 V 87.69"
       id="path11158" />
    <path
       stroke="#808080"
       vector-effect="non-scaling-stroke"
       d="M 215,87.69 A 0.69,0.69 0 0 0 214.31,87 H 168.69 A 0.69,0.69 0 0 0 168,87.69 v 37.62 a 0.69,0.69 0 0 0 0.69,0.69 h 45.62 A 0.69,0.69 0 0 0 215,125.31 V 87.69"
       id="path11160" />
    <path
       stroke="#808080"
       vector-effect="non-scaling-stroke"
       d="M 263,87.71 A 0.71,0.71 0 0 0 262.29,87 H 216.71 A 0.71,0.71 0 0 0 216,87.71 v 37.58 a 0.71,0.71 0 0 0 0.71,0.71 h 45.58 A 0.71,0.71 0 0 0 263,125.29 V 87.71"
       id="path11162" />
    <path
       stroke="#808080"
       vector-effect="non-scaling-stroke"
       d="M 311,87.63 A 0.63,0.63 0 0 0 310.37,87 H 264.63 A 0.63,0.63 0 0 0 264,87.63 v 37.74 a 0.63,0.63 0 0 0 0.63,0.63 h 45.74 A 0.63,0.63 0 0 0 311,125.37 V 87.63"
       id="path11164" />
    <path
       stroke="#808080"
       vector-effect="non-scaling-stroke"
       d="m 143.67,101.82 0.06,9.53 a 1.24,1.2 -87 0 1 -1.34,1.25 q -2.63,-0.3 -2.29,0.88 a 0.76,0.65 -7 0 0 0.71,0.47 l 6.68,0.06 a 0.89,0.71 9.1 0 0 0.78,-0.44 q 0.45,-1.05 -1.87,-1.08 a 1.12,1.09 0.3 0 1 -1.11,-1.09 l 0.04,-11.62 a 0.75,0.75 79.8 0 0 -1.01,-0.71 q -2.33,0.88 -4.13,2.87 -0.59,0.65 0.05,1.04 a 0.92,0.53 -38.1 0 0 0.83,-0.12 l 2.15,-1.35 q 0.45,-0.27 0.45,0.31"
       id="path11166" />
    <path
       stroke="#808080"
       vector-effect="non-scaling-stroke"
       d="m 190.13,112.05 q 1.61,-1.97 3.32,-3.85 1.43,-1.56 1.98,-3.5 0.62,-2.21 -0.24,-3.83 -1.11,-2.11 -4.19,-1.87 -3.64,0.28 -3.5,2 0.09,1.13 1.07,0.58 4.32,-2.43 4.83,1.18 0.25,1.73 -0.9,3.61 -1.78,2.94 -4.33,5.33 -2.44,2.3 0.92,2.3 h 6.41 a 1.1,0.74 10.9 0 0 0.84,-0.36 q 0.25,-0.39 0,-0.78 a 1.1,0.67 -9.1 0 0 -0.85,-0.35 l -5.18,-0.06 q -0.51,0 -0.18,-0.4"
       id="path11168" />
    <path
       stroke="#808080"
       vector-effect="non-scaling-stroke"
       d="m 241.88,105.7 q 0.13,-0.39 0.49,-0.65 0.55,-0.39 0.69,-0.66 1.74,-3.13 -1.12,-4.83 -2.8,-1.67 -5.55,0.48 -0.34,0.27 -0.55,0.64 -0.92,1.6 1.16,0.51 3.85,-2.03 4.75,2.06 0.5,2.3 -3.75,2.25 -1.93,-0.02 -1.08,1.12 a 0.92,0.77 -20.3 0 0 0.82,0.29 q 2.91,-0.41 4.28,1.91 a 1.37,1.25 -56.8 0 1 0.15,0.93 q -0.76,3.71 -4.52,2.41 -0.41,-0.14 -1.08,-0.59 -1.39,-0.93 -1.36,0.43 a 1.04,0.93 19.5 0 0 0.44,0.8 q 2.58,1.83 5.25,0.97 2.18,-0.71 3.1,-2.72 1.24,-2.7 -1.76,-4.61 a 0.75,0.57 26.7 0 1 -0.36,-0.74"
       id="path11170" />
    <path
       stroke="#808080"
       vector-effect="non-scaling-stroke"
       d="m 291.05,108.94 q -0.16,-6.03 -0.05,-7.44 0.25,-3.12 -2.22,-2.35 a 1.25,1.16 4 0 0 -0.73,0.59 l -5.36,10.03 a 0.88,0.84 13.3 0 0 0.8,1.23 q 1.89,0 3.73,-0.23 2.39,-0.29 1.93,1.51 a 1.8,0.77 -64.5 0 0 -0.04,0.95 q 0.41,1.3 1.49,0.58 a 1.16,0.47 -89.1 0 0 0.34,-0.81 l 0.18,-1.47 a 1.03,0.62 -11.4 0 1 0.68,-0.62 q 3.17,-1.04 -0.24,-1.42 a 0.58,0.56 2.9 0 1 -0.51,-0.55"
       id="path11172" />
    <path
       stroke="#808080"
       vector-effect="non-scaling-stroke"
       d="m 288.56,101.72 -3.83,7.08 a 0.39,0.38 -69.3 0 0 0.25,0.57 q 1.88,0.43 3.74,-0.05 a 0.67,0.62 83.3 0 0 0.47,-0.64 v -6.8 q 0,-1.33 -0.63,-0.16"
       id="path11174" />
    <path
       stroke="#4e86b9"
       vector-effect="non-scaling-stroke"
       d="m 218.56,208.18 -0.06,-57.24 a 0.97,0.95 0.3 0 0 -0.96,-0.95 l -9.1,-0.09 a 0.93,0.91 0.3 0 0 -0.94,0.91 v 57.17 a 1.26,1.09 -0.5 0 1 -1.24,1.09 l -2.78,0.05 q -0.66,0.01 -0.16,0.51 l 9.22,9.18 a 0.95,0.9 -45.2 0 0 1.31,-0.04 l 9.06,-9.16 q 0.34,-0.35 -0.15,-0.41 l -3.7,-0.44 a 0.59,0.57 -86.7 0 1 -0.5,-0.58"
       id="path11176" />
    <path
       stroke="#808080"
       vector-effect="non-scaling-stroke"
       d="m 119.31,167.94 q -1.35,-1.42 -4.01,-0.97 a 0.61,0.59 85.6 0 0 -0.5,0.6 v 9.86 a 0.61,0.59 -85.6 0 0 0.5,0.6 q 3.74,0.59 5.26,-2.47 2.06,-4.14 -1.25,-7.62"
       id="path11178" />
    <path
       stroke="#808080"
       vector-effect="non-scaling-stroke"
       d="m 144.8411,178.1681 a 5.69,3.96 91.5 0 0 4.1075,-5.5844 5.69,3.96 91.5 0 0 -3.8097,-5.7918 5.69,3.96 91.5 0 0 -4.1075,5.5844 5.69,3.96 91.5 0 0 3.8097,5.7918"
       id="path11180" />
    <path
       stroke="#808080"
       vector-effect="non-scaling-stroke"
       d="m 132.32,171.17 q -2.29,-0.75 -3.3,1.07 a 0.41,0.4 21 0 0 0.27,0.58 q 1.86,0.48 3.73,0.05 a 0.53,0.49 -13.6 0 0 0.41,-0.61 q -0.22,-0.8 -1.11,-1.09"
       id="path11182" />
    <path
       stroke="#808080"
       vector-effect="non-scaling-stroke"
       d="m 172.32,171.17 q -2.29,-0.75 -3.3,1.07 a 0.41,0.4 21 0 0 0.27,0.58 q 1.86,0.48 3.73,0.05 a 0.53,0.49 -13.6 0 0 0.41,-0.61 q -0.22,-0.8 -1.11,-1.09"
       id="path11184" />
    <path
       stroke="#808080"
       vector-effect="non-scaling-stroke"
       d="m 196.32,171.17 q -2.29,-0.75 -3.3,1.07 a 0.41,0.4 21 0 0 0.27,0.58 q 1.86,0.48 3.73,0.05 a 0.53,0.49 -13.6 0 0 0.41,-0.61 q -0.22,-0.8 -1.11,-1.09"
       id="path11186" />
    <path
       stroke="#808080"
       vector-effect="non-scaling-stroke"
       d="m 249.31,171.19 q -1.02,-0.7 -2.79,-0.06 a 0.72,0.71 -9.9 0 0 -0.48,0.67 l 0.01,7.4 a 0.7,0.69 9.3 0 0 0.48,0.66 q 3.02,1 4.47,-1.61 2.38,-4.29 -1.69,-7.06"
       id="path11188" />
    <path
       stroke="#808080"
       vector-effect="non-scaling-stroke"
       d="m 260.06,174.44 q -1.47,-1.76 -3,0.12 -1.43,1.77 0.77,1.54 0.7,-0.07 1.33,-0.02 2.46,0.21 0.9,-1.64"
       id="path11190" />
    <path
       stroke="#808080"
       vector-effect="non-scaling-stroke"
       d="m 269.76,174.84 a 0.63,0.63 19 0 0 0.45,0.92 q 2.97,0.55 3.31,-0.23 0.39,-0.91 -1.26,-1.51 -1.73,-0.62 -2.5,0.82"
       id="path11192" />
    <path
       stroke="#808080"
       vector-effect="non-scaling-stroke"
       d="m 287.7,174.14 a 1.71,1.7 -44.8 0 0 -2.13,0 q -3.02,2.44 1.69,2 2.61,-0.24 0.44,-2"
       id="path11194" />
    <path
       stroke="#808080"
       vector-effect="non-scaling-stroke"
       d="m 312.0431,180.0799 a 3.08,2.72 90.5 0 0 2.7468,-3.0562 3.08,2.72 90.5 0 0 -2.693,-3.1036 3.08,2.72 90.5 0 0 -2.7468,3.0562 3.08,2.72 90.5 0 0 2.693,3.1036"
       id="path11196" />
    <path
       stroke="#808080"
       vector-effect="non-scaling-stroke"
       d="m 338.74,174.83 a 0.65,0.65 18.2 0 0 0.47,0.93 q 2.97,0.55 3.31,-0.23 0.38,-0.9 -1.25,-1.52 -1.78,-0.68 -2.53,0.82"
       id="path11198" />
    <path
       stroke="#808080"
       vector-effect="non-scaling-stroke"
       d="m 351.76,174.84 a 0.63,0.63 19 0 0 0.45,0.92 q 2.97,0.55 3.31,-0.23 0.39,-0.91 -1.26,-1.51 -1.73,-0.62 -2.5,0.82"
       id="path11200" />
    <path
       stroke="#808080"
       vector-effect="non-scaling-stroke"
       d="m 377.71,174.14 a 1.67,1.67 45.4 0 0 -2.11,-0.02 q -3.05,2.46 1.67,2.07 2.63,-0.21 0.44,-2.05"
       id="path11202" />
    <path
       stroke="#808080"
       vector-effect="non-scaling-stroke"
       d="M 191,227.69 A 0.69,0.69 0 0 0 190.31,227 h -45.62 a 0.69,0.69 0 0 0 -0.69,0.69 v 37.64 a 0.69,0.69 0 0 0 0.69,0.69 h 45.62 a 0.69,0.69 0 0 0 0.69,-0.69 v -37.64"
       id="path11204" />
    <path
       stroke="#808080"
       vector-effect="non-scaling-stroke"
       d="m 239,227.8 a 0.8,0.8 0 0 0 -0.8,-0.8 h -45.4 a 0.8,0.8 0 0 0 -0.8,0.8 v 37.4 a 0.8,0.8 0 0 0 0.8,0.8 h 45.4 a 0.8,0.8 0 0 0 0.8,-0.8 v -37.4"
       id="path11206" />
    <path
       stroke="#808080"
       vector-effect="non-scaling-stroke"
       d="M 287,227.63 A 0.63,0.63 0 0 0 286.37,227 h -45.74 a 0.63,0.63 0 0 0 -0.63,0.63 v 37.74 a 0.63,0.63 0 0 0 0.63,0.63 h 45.74 a 0.63,0.63 0 0 0 0.63,-0.63 v -37.74"
       id="path11208" />
    <path
       stroke="#808080"
       vector-effect="non-scaling-stroke"
       d="m 166.35,252.03 q 1.9,-2.66 4.09,-5.09 1.57,-1.75 1.27,-4.15 -0.28,-2.25 -2.1,-3.3 -2.07,-1.19 -4.44,0.08 -2.04,1.08 -1.28,1.61 0.57,0.39 3.76,-0.52 a 1.22,1.22 72.7 0 1 1.5,0.79 q 1.04,3.11 -0.96,5.5 -2.45,2.92 -4.73,5.68 -1.07,1.3 0.58,1.31 l 7.64,0.01 a 0.75,0.66 8.3 0 0 0.71,-0.46 q 0.28,-0.87 -0.89,-0.89 -2.46,-0.05 -4.93,-0.14 -0.51,-0.02 -0.22,-0.43"
       id="path11210" />
    <path
       stroke="#808080"
       vector-effect="non-scaling-stroke"
       d="m 217.88,245.7 q 0.13,-0.39 0.49,-0.65 0.54,-0.39 0.69,-0.68 1.28,-2.4 -0.21,-4.01 -1.15,-1.24 -3.13,-1.45 -2.21,-0.24 -3.53,1.28 -1.53,1.75 0.28,1.37 0.35,-0.08 0.87,-0.4 1.68,-1.04 3.42,-0.11 a 1.08,1.04 -81.4 0 1 0.53,0.75 q 0.77,4.03 -3.79,3.74 a 0.61,0.53 6 0 0 -0.62,0.44 q -0.22,1.31 1.3,1.17 1.2,-0.11 1.65,-0.01 2.59,0.58 2.3,2.8 -0.23,1.76 -1.83,2.19 -1.74,0.47 -3.99,-0.69 -1.53,-0.8 -1.2,0.59 a 1.45,1.22 14.9 0 0 0.54,0.77 q 2.58,1.83 5.25,0.97 2.17,-0.7 3.1,-2.71 1.26,-2.72 -1.76,-4.62 a 0.75,0.57 26.7 0 1 -0.36,-0.74"
       id="path11212" />
    <path
       stroke="#808080"
       vector-effect="non-scaling-stroke"
       d="m 267.06,248.94 -0.12,-8.88 a 0.96,0.81 -77.3 0 0 -0.41,-0.79 q -0.66,-0.4 -1.39,-0.27 -0.72,0.14 -1.3,1.06 -2.97,4.8 -5.15,9.72 a 0.87,0.87 11.9 0 0 0.8,1.22 q 1.88,0 3.73,-0.23 2.39,-0.29 1.93,1.51 a 1.8,0.77 -64.5 0 0 -0.04,0.95 q 0.41,1.3 1.49,0.58 a 1.16,0.47 -89.1 0 0 0.34,-0.81 l 0.18,-1.47 a 1.03,0.62 -11.4 0 1 0.68,-0.62 q 3.17,-1.04 -0.24,-1.42 a 0.57,0.55 3.5 0 1 -0.5,-0.55"
       id="path11214" />
    <path
       stroke="#808080"
       vector-effect="non-scaling-stroke"
       d="m 264.56,241.72 -3.83,7.08 a 0.39,0.38 -69.3 0 0 0.25,0.57 q 1.88,0.43 3.74,-0.05 a 0.67,0.61 83.4 0 0 0.46,-0.64 v -6.79 q 0,-1.31 -0.62,-0.17"
       id="path11216" />
  </g>
  <path
     fill="#000000"
     d="m 3.7055466,2.709287 q -0.8,2.04 1.21,2.37 0.81,0.13 0.49,0.5 -0.26,0.3 -1.25,0.49 a 0.71,0.69 84.5 0 0 -0.56,0.69 l -0.04,5.62 a 0.64,0.55 88.6 0 1 -0.51,0.62 q -0.62,0.05 -0.95,-0.56 -0.43,-0.79 0.25,-3.75 0.44,-1.92 -1.15,-3.11 -0.41999998,-0.31 0.06,-0.51 1.18,-0.47 1.12,-1.38 -0.21,-3.33999999 3.12,-2.53 1.03,0.25 0.26,0.62 -0.18,0.09 -0.46,0.1 -0.48,0.03 -0.93,0.18 a 1.05,1.13 2.6 0 0 -0.66,0.65 z"
     id="path11222" />
  <path
     fill="#000000"
     d="m 36.175547,12.129287 q 1.29,0.24 0.06,0.69 -1.91,0.7 -2.82,-0.57 -0.51,-0.72 -0.56,-2.36 -0.04,-1.47 -0.01,-2.94 a 0.88,0.88 0 0 0 -0.44,-0.78 q -1.45,-0.85 -0.19,-1.27 a 0.9,0.9 0 0 0 0.61,-0.74 q 0.19,-1.75 1.14,-1.06 a 0.67,1.04 13.7 0 1 0.29,0.83 q -0.06,1.01 1.08,0.92 1.27,-0.11 1.14,0.56 a 0.71,0.53 3.7 0 1 -0.68,0.44 q -2.02,0.01 -1.56,2.35 0.09,0.48 -0.01,0.98 -0.52,2.5 1.95,2.95 z"
     id="path11224" />
  <path
     fill="#000000"
     d="m 8.1655466,5.269287 q 1.18,0.17 1.9300004,-0.03 0.94,-0.25 1.18,-0.23 1.41,0.15 -1.5300004,1.59 a 1.6,1.61 76.9 0 0 -0.9,1.44 q 0,1.9 -0.03,3.9 -0.02,1.44 -0.85,0.84 a 0.77,1.16 10.8 0 1 -0.35,-0.84 l -0.17,-5.98 a 0.64,0.67 2.9 0 1 0.72,-0.69 z"
     id="path11226" />
  <path
     fill="#000000"
     d="m 21.275547,8.949287 a 4.12,4.12 0 0 1 -4.12,4.12 4.12,4.12 0 0 1 -4.12,-4.12 4.12,4.12 0 0 1 4.12,-4.12 4.12,4.12 0 0 1 4.12,4.12 z m -4.186,3.0588 a 2.72,3.08 1.6 0 0 2.8049,-3.0029 2.72,3.08 1.6 0 0 -2.6329,-3.1547 2.72,3.08 1.6 0 0 -2.8049,3.0029 2.72,3.08 1.6 0 0 2.6329,3.1547 z"
     id="path11228" />
  <path
     fill="#000000"
     d="m 25.795547,5.459287 q 3.93,-1.91 4.05,2.73 0.07,2.51 0.19,3.75 a 0.9,0.68 75 0 1 -0.33,0.81 q -0.58,0.36 -1.03,-0.2 a 0.83,1.26 22.7 0 1 -0.17,-0.91 q 0.22,-1.34 0.19,-2.7 -0.11,-5.15 -3.18,-2.26 a 2.79,2.79 0 0 0 -0.87,2.26 q 0.34,4.21 -0.82,3.72 a 0.54,0.91 6 0 1 -0.36,-0.78 v -5.88 a 0.86,0.57 83.3 0 1 0.38,-0.75 q 0.56,-0.22 1.11,0.12 a 0.95,0.78 45.6 0 0 0.84,0.09 z"
     id="path11230" />
  <path
     fill="#000000"
     d="m 199.23555,7.219287 q -0.63,1.91 -0.45,3.95 0.06,0.68 0,1.05 -0.25,1.38 -1.13,0.37 a 0.69,1.45 10.5 0 1 -0.24,-0.89 l 0.06,-5.94 a 0.58,0.48 87.3 0 1 0.43,-0.57 q 6.63,-0.83 1.96,1.35 a 1.08,1.27 83.3 0 0 -0.63,0.68 z"
     id="path11232" />
  <path
     fill="#000000"
     d="m 203.28555,7.359287 q 0.46,-1.58 1.99,-2.15 3.75,-1.41 5.01,2.31 a 1.04,1.01 80 0 1 -0.93,1.38 l -3.56,0.04 a 1.13,1.16 77.2 0 0 -1.05,1.62 q 1.22,2.53 3.96,0.68 1.2,-0.81 1.04,0.17 -0.06,0.33 -0.34,0.6 -2.04,1.97 -4.12,0.74 -3.04,-1.78 -2,-5.39 z m 1.57,-0.58 a 0.63,0.63 0 0 0 0.45,0.92 q 2.97,0.55 3.31,-0.23 0.39,-0.91 -1.26,-1.51 -1.73,-0.62 -2.5,0.82 z"
     id="path11234" />
  <path
     fill="#000000"
     d="m 217.05555,6.599287 q -1.06,-1.73 -3.66,-0.2 a 0.62,0.97 48.6 0 1 -0.78,0.12 q -0.53,-0.23 0.49,-0.75 5.53,-2.79 5.73,3.17 0.05,1.59 -0.03,3.18 a 0.46,0.45 4.7 0 1 -0.51,0.43 q -1.19,-0.16 -1.95,0.14 -2.08,0.83 -3.36,-0.29 -1.34,-1.19 -0.56,-2.67 0.87,-1.63 4.01,-1.91 a 0.8,0.8 0 0 0 0.62,-1.22 z m 0.3637,3.0827 a 1.49,2.09 70.8 0 0 -2.4637,-0.7198 1.49,2.09 70.8 0 0 -1.4837,2.0944 1.49,2.09 70.8 0 0 2.4637,0.7198 1.49,2.09 70.8 0 0 1.4837,-2.0944 z"
     id="path11236" />
  <path
     fill="#000000"
     d="m 223.77555,5.199287 q 0.98,-0.46 1.9,-0.01 0.46,0.22 -0.06,0.37 -3.49,1.03 -2.85,4.96 0.08,0.47 0.03,0.84 -0.43,3.22 -1.11,0.23 -0.09,-0.38 -0.08,-0.8 0.06,-2.53 -0.15,-5.04 a 0.53,0.42 88.9 0 1 0.45,-0.59 l 0.98,0.1 a 1.51,0.42 11.7 0 0 0.89,-0.06 z"
     id="path11238" />
  <path
     fill="#41719c"
     d="m 16.285547,41.869287 0.06,-21.02 a 0.82,0.87 0.3 0 1 0.83,-0.87 l 6.99,0.1 a 0.52,0.54 0.5 0 1 0.51,0.54 l 0.15,20.75 a 1.24,1.41 88.9 0 0 1.45,1.22 l 2.34,-0.06 q 0.67,-0.02 0.14,0.52 l -7.74,7.84 a 0.61,0.59 45 0 1 -0.85,-0.01 l -7.89,-7.89 q -0.54,-0.54 0.23,-0.55 l 3.29,-0.04 a 0.49,0.53 0 0 0 0.49,-0.53 z m 7.26,2.6 q -0.88,-0.6 -0.86,-1.53 0.16,-9.88 0.16,-20.04 a 0.67,0.78 0 0 0 -0.67,-0.78 l -3.29,-0.03 a 0.48,0.66 0 0 0 -0.48,0.66 l -0.12,20.37 a 1.22,1.52 59.7 0 1 -0.33,0.87 q -1.27,1.59 0.83,2.76 2.38,1.34 3,0.63 l 1.91,-2.19 a 0.53,0.45 37.7 0 0 -0.15,-0.72 z"
     id="path11246" />
  <path
     fill="#41719c"
     d="m 205.28555,41.869287 0.06,-21.02 a 0.82,0.87 0.3 0 1 0.83,-0.87 l 6.99,0.1 a 0.52,0.54 0.5 0 1 0.51,0.54 l 0.15,20.75 a 1.24,1.41 88.9 0 0 1.45,1.22 l 2.34,-0.06 q 0.67,-0.02 0.14,0.52 l -7.74,7.84 a 0.6,0.6 0 0 1 -0.85,-0.01 l -7.89,-7.89 q -0.54,-0.54 0.23,-0.55 l 3.29,-0.04 a 0.49,0.53 0 0 0 0.49,-0.53 z m 6.62,1.77 -0.12,-20.89 a 0.65,0.45 89.2 0 0 -0.47,-0.66 l -3.27,0.08 a 0.84,0.72 89.3 0 0 -0.7,0.84 q 0,10.43 -0.03,20.18 -0.01,0.85 -0.85,1.21 a 0.53,0.54 55.3 0 0 -0.16,0.87 q 1.23,1.23 2.22,2.24 1.34,1.37 2.2,-0.12 0.59,-1.02 1.5,-1.76 1.33,-1.1 0.17,-1.41 a 0.68,0.58 9.2 0 1 -0.49,-0.58 z"
     id="path11248" />
  <path
     fill="#5b9bd5"
     d="m 23.545547,44.469287 a 0.53,0.45 37.7 0 1 0.15,0.72 l -1.91,2.19 q -0.62,0.71 -3,-0.63 -2.1,-1.17 -0.83,-2.76 a 1.22,1.52 59.7 0 0 0.33,-0.87 l 0.12,-20.37 a 0.48,0.66 0 0 1 0.48,-0.66 l 3.29,0.03 a 0.67,0.78 0 0 1 0.67,0.78 q 0,10.16 -0.16,20.04 -0.02,0.93 0.86,1.53 z"
     id="path11250" />
  <path
     fill="#5b9bd5"
     d="m 212.39555,44.219287 q 1.16,0.31 -0.17,1.41 -0.91,0.74 -1.5,1.76 -0.86,1.49 -2.2,0.12 -0.99,-1.01 -2.22,-2.24 a 0.53,0.54 55.3 0 1 0.16,-0.87 q 0.84,-0.36 0.85,-1.21 0.03,-9.75 0.03,-20.18 a 0.84,0.72 89.3 0 1 0.7,-0.84 l 3.27,-0.08 a 0.65,0.45 89.2 0 1 0.47,0.66 l 0.12,20.89 a 0.68,0.58 9.2 0 0 0.49,0.58 z"
     id="path11252" />
  <path
     fill="#000000"
     d="m 211.08555,98.499287 a 0.44,0.44 0 0 1 -0.44,0.44 H 18.545547 a 0.44,0.44 0 0 1 -0.44,-0.44 v -40.12 a 0.44,0.44 0 0 1 0.44,-0.44 H 210.64555 a 0.44,0.44 0 0 1 0.44,0.44 z m -144.990003,-38.87 a 0.69,0.69 0 0 0 -0.69,-0.69 h -45.62 a 0.69,0.69 0 0 0 -0.69,0.69 v 37.62 a 0.69,0.69 0 0 0 0.69,0.69 h 45.62 a 0.69,0.69 0 0 0 0.69,-0.69 z m 48.000003,0 a 0.69,0.69 0 0 0 -0.69,-0.69 H 67.785547 a 0.69,0.69 0 0 0 -0.69,0.69 v 37.62 a 0.69,0.69 0 0 0 0.69,0.69 h 45.620003 a 0.69,0.69 0 0 0 0.69,-0.69 z m 48,0.02 a 0.71,0.71 0 0 0 -0.71,-0.71 h -45.58 a 0.71,0.71 0 0 0 -0.71,0.71 v 37.58 a 0.71,0.71 0 0 0 0.71,0.71 h 45.58 a 0.71,0.71 0 0 0 0.71,-0.71 z m 48,-0.08 a 0.63,0.63 0 0 0 -0.63,-0.63 h -45.74 a 0.63,0.63 0 0 0 -0.63,0.63 v 37.74 a 0.63,0.63 0 0 0 0.63,0.63 h 45.74 a 0.63,0.63 0 0 0 0.63,-0.63 z"
     id="path11254" />
  <path
     fill="#ffffff"
     d="m 66.095547,97.249287 a 0.69,0.69 0 0 1 -0.69,0.69 h -45.62 a 0.69,0.69 0 0 1 -0.69,-0.69 v -37.62 a 0.69,0.69 0 0 1 0.69,-0.69 h 45.62 a 0.69,0.69 0 0 1 0.69,0.69 z m -23.33,-23.49 0.06,9.53 a 1.2,1.24 3 0 1 -1.34,1.25 q -2.63,-0.3 -2.29,0.88 a 0.65,0.76 83 0 0 0.71,0.47 l 6.68,0.06 a 0.89,0.71 9.1 0 0 0.78,-0.44 q 0.45,-1.05 -1.87,-1.08 a 1.12,1.09 0.3 0 1 -1.11,-1.09 l 0.04,-11.62 a 0.75,0.75 0 0 0 -1.01,-0.71 q -2.33,0.88 -4.13,2.87 -0.59,0.65 0.05,1.04 a 0.53,0.92 51.9 0 0 0.83,-0.12 l 2.15,-1.35 q 0.45,-0.27 0.45,0.31 z"
     id="path11256" />
  <path
     fill="#ffffff"
     d="m 114.09555,97.249287 a 0.69,0.69 0 0 1 -0.69,0.69 H 67.785547 a 0.69,0.69 0 0 1 -0.69,-0.69 v -37.62 a 0.69,0.69 0 0 1 0.69,-0.69 h 45.620003 a 0.69,0.69 0 0 1 0.69,0.69 z m -24.870003,-13.26 q 1.61,-1.97 3.32,-3.85 1.43,-1.56 1.98,-3.5 0.62,-2.21 -0.24,-3.83 -1.11,-2.11 -4.19,-1.87 -3.64,0.28 -3.5,2 0.09,1.13 1.07,0.58 4.32,-2.43 4.83,1.18 0.25,1.73 -0.9,3.61 -1.78,2.94 -4.33,5.33 -2.44,2.3 0.92,2.3 h 6.41 a 1.1,0.74 10.9 0 0 0.84,-0.36 q 0.25,-0.39 0,-0.78 a 0.67,1.1 80.9 0 0 -0.85,-0.35 l -5.18,-0.06 q -0.51,0 -0.18,-0.4 z"
     id="path11258" />
  <path
     fill="#ffffff"
     d="m 162.09555,97.229287 a 0.71,0.71 0 0 1 -0.71,0.71 h -45.58 a 0.71,0.71 0 0 1 -0.71,-0.71 v -37.58 a 0.71,0.71 0 0 1 0.71,-0.71 h 45.58 a 0.71,0.71 0 0 1 0.71,0.71 z m -21.12,-19.59 q 0.13,-0.39 0.49,-0.65 0.55,-0.39 0.69,-0.66 1.74,-3.13 -1.12,-4.83 -2.8,-1.67 -5.55,0.48 -0.34,0.27 -0.55,0.64 -0.92,1.6 1.16,0.51 3.85,-2.03 4.75,2.06 0.5,2.3 -3.75,2.25 -1.93,-0.02 -1.08,1.12 a 0.77,0.92 69.7 0 0 0.82,0.29 q 2.91,-0.41 4.28,1.91 a 1.25,1.37 33.2 0 1 0.15,0.93 q -0.76,3.71 -4.52,2.41 -0.41,-0.14 -1.08,-0.59 -1.39,-0.93 -1.36,0.43 a 1.04,0.93 19.5 0 0 0.44,0.8 q 2.58,1.83 5.25,0.97 2.18,-0.71 3.1,-2.72 1.24,-2.7 -1.76,-4.61 a 0.75,0.57 26.7 0 1 -0.36,-0.74 z"
     id="path11260" />
  <path
     fill="#ffffff"
     d="m 210.09555,97.309287 a 0.63,0.63 0 0 1 -0.63,0.63 h -45.74 a 0.63,0.63 0 0 1 -0.63,-0.63 v -37.74 a 0.63,0.63 0 0 1 0.63,-0.63 h 45.74 a 0.63,0.63 0 0 1 0.63,0.63 z m -19.95,-16.43 q -0.16,-6.03 -0.05,-7.44 0.25,-3.12 -2.22,-2.35 a 1.25,1.16 4 0 0 -0.73,0.59 l -5.36,10.03 a 0.88,0.84 13.3 0 0 0.8,1.23 q 1.89,0 3.73,-0.23 2.39,-0.29 1.93,1.51 a 0.77,1.8 25.5 0 0 -0.04,0.95 q 0.41,1.3 1.49,0.58 a 0.47,1.16 0.9 0 0 0.34,-0.81 l 0.18,-1.47 a 0.62,1.03 78.6 0 1 0.68,-0.62 q 3.17,-1.04 -0.24,-1.42 a 0.58,0.56 2.9 0 1 -0.51,-0.55 z"
     id="path11262" />
  <path
     fill="#000000"
     d="m 42.315547,73.449287 -2.15,1.35 a 0.53,0.92 51.9 0 1 -0.83,0.12 q -0.64,-0.39 -0.05,-1.04 1.8,-1.99 4.13,-2.87 a 0.75,0.75 0 0 1 1.01,0.71 l -0.04,11.62 a 1.12,1.09 0.3 0 0 1.11,1.09 q 2.32,0.03 1.87,1.08 a 0.89,0.71 9.1 0 1 -0.78,0.44 l -6.68,-0.06 a 0.65,0.76 83 0 1 -0.71,-0.47 q -0.34,-1.18 2.29,-0.88 a 1.2,1.24 3 0 0 1.34,-1.25 l -0.06,-9.53 q 0,-0.58 -0.45,-0.31 z"
     id="path11264" />
  <path
     fill="#000000"
     d="m 89.405547,84.389287 5.18,0.06 a 0.67,1.1 80.9 0 1 0.85,0.35 q 0.25,0.39 0,0.78 a 1.1,0.74 10.9 0 1 -0.84,0.36 h -6.41 q -3.36,0 -0.92,-2.3 2.55,-2.39 4.33,-5.33 1.15,-1.88 0.9,-3.61 -0.51,-3.61 -4.83,-1.18 -0.98,0.55 -1.07,-0.58 -0.14,-1.72 3.5,-2 3.08,-0.24 4.19,1.87 0.86,1.62 0.24,3.83 -0.55,1.94 -1.98,3.5 -1.71,1.88 -3.32,3.85 -0.33,0.4 0.18,0.4 z"
     id="path11266" />
  <path
     fill="#000000"
     d="m 141.33555,78.379287 q 3,1.91 1.76,4.61 -0.92,2.01 -3.1,2.72 -2.67,0.86 -5.25,-0.97 a 1.04,0.93 19.5 0 1 -0.44,-0.8 q -0.03,-1.36 1.36,-0.43 0.67,0.45 1.08,0.59 3.76,1.3 4.52,-2.41 a 1.25,1.37 33.2 0 0 -0.15,-0.93 q -1.37,-2.32 -4.28,-1.91 a 0.77,0.92 69.7 0 1 -0.82,-0.29 q -0.85,-1.14 1.08,-1.12 4.25,0.05 3.75,-2.25 -0.9,-4.09 -4.75,-2.06 -2.08,1.09 -1.16,-0.51 0.21,-0.37 0.55,-0.64 2.75,-2.15 5.55,-0.48 2.86,1.7 1.12,4.83 -0.14,0.27 -0.69,0.66 -0.36,0.26 -0.49,0.65 a 0.75,0.57 26.7 0 0 0.36,0.74 z"
     id="path11268" />
  <path
     fill="#000000"
     d="m 190.65555,81.429287 q 3.41,0.38 0.24,1.42 a 0.62,1.03 78.6 0 0 -0.68,0.62 l -0.18,1.47 a 0.47,1.16 0.9 0 1 -0.34,0.81 q -1.08,0.72 -1.49,-0.58 a 0.77,1.8 25.5 0 1 0.04,-0.95 q 0.46,-1.8 -1.93,-1.51 -1.84,0.23 -3.73,0.23 a 0.88,0.84 13.3 0 1 -0.8,-1.23 l 5.36,-10.03 a 1.25,1.16 4 0 1 0.73,-0.59 q 2.47,-0.77 2.22,2.35 -0.11,1.41 0.05,7.44 a 0.58,0.56 2.9 0 0 0.51,0.55 z m -3,-7.77 -3.83,7.08 a 0.38,0.39 20.7 0 0 0.25,0.57 q 1.88,0.43 3.74,-0.05 a 0.67,0.62 83.3 0 0 0.47,-0.64 v -6.8 q 0,-1.33 -0.63,-0.16 z"
     id="path11270" />
  <path
     fill="#ffffff"
     d="m 187.65555,73.659287 q 0.63,-1.17 0.63,0.16 v 6.8 a 0.67,0.62 83.3 0 1 -0.47,0.64 q -1.86,0.48 -3.74,0.05 a 0.38,0.39 20.7 0 1 -0.25,-0.57 z"
     id="path11272" />
  <path
     fill="#41719c"
     d="m 104.53555,178.37929 0.06,-57.59 a 0.85,0.85 0 0 1 0.85,-0.85 h 13.33 a 0.82,0.82 0 0 1 0.82,0.82 l 0.06,57.36 a 0.52,0.59 1 0 0 0.5,0.59 l 6.04,0.2 q 1.26,0.05 0.41,0.89 l -13.98,13.98 a 0.75,0.75 0 0 1 -1.06,0 l -14.180003,-14.18 q -0.68,-0.67 0.28,-0.67 l 6.380003,-0.04 a 0.49,0.51 0 0 0 0.49,-0.51 z m 13.12,1.74 -0.06,-57.24 a 0.97,0.95 0.3 0 0 -0.96,-0.95 l -9.1,-0.09 a 0.93,0.91 0.3 0 0 -0.94,0.91 v 57.17 a 1.09,1.26 89.5 0 1 -1.24,1.09 l -2.78,0.05 q -0.66,0.01 -0.16,0.51 l 9.22,9.18 a 0.9,0.95 44.8 0 0 1.31,-0.04 l 9.06,-9.16 q 0.34,-0.35 -0.15,-0.41 l -3.7,-0.44 a 0.57,0.59 3.3 0 1 -0.5,-0.58 z"
     id="path11274" />
  <path
     fill="#5b9bd5"
     d="m 118.15555,180.69929 3.7,0.44 q 0.49,0.06 0.15,0.41 l -9.06,9.16 a 0.9,0.95 44.8 0 1 -1.31,0.04 l -9.22,-9.18 q -0.5,-0.5 0.16,-0.51 l 2.78,-0.05 a 1.09,1.26 89.5 0 0 1.24,-1.09 v -57.17 a 0.93,0.91 0.3 0 1 0.94,-0.91 l 9.1,0.09 a 0.97,0.95 0.3 0 1 0.96,0.95 l 0.06,57.24 a 0.57,0.59 3.3 0 0 0.5,0.58 z"
     id="path11276" />
  <path
     fill="#000000"
     d="m 20.155547,138.12929 q 2.6,1.3 2.97,4.35 0.31,2.62 -0.34,4.9 -0.86,3.04 -4.19,4.06 -3.13,0.96 -7.07,0.39 a 0.62,0.58 4.1 0 1 -0.52,-0.57 l -0.14,-13.17 a 0.98,1.01 86.4 0 1 0.89,-0.98 q 5.09,-0.64 8.4,1.02 z m -1.75,1.75 q -1.35,-1.42 -4.01,-0.97 a 0.61,0.59 85.6 0 0 -0.5,0.6 v 9.86 a 0.59,0.61 4.4 0 0 0.5,0.6 q 3.74,0.59 5.26,-2.47 2.06,-4.14 -1.25,-7.62 z"
     id="path11278" />
  <path
     fill="#000000"
     d="m 49.695547,150.28929 q 0.77,0.65 1.83,0.71 a 0.65,0.86 85.2 0 1 0.71,0.45 q 0.37,0.99 0,1.97 a 0.63,0.59 14.8 0 1 -0.7,0.38 q -2.38,-0.41 -4.22,-2.02 a 0.9,0.9 0 0 0 -0.74,-0.21 q -9.3,1.56 -9.31,-7.13 -0.01,-5.94 4.66,-7.18 3.21,-0.85 5.75,0.43 2.96,1.48 3.17,5.75 0.18,3.53 -1.25,6.08 a 0.58,0.64 34.5 0 0 0.1,0.77 z m -5.7589,-0.1819 a 3.96,5.69 1.5 0 0 4.1075,-5.5844 3.96,5.69 1.5 0 0 -3.8097,-5.7918 3.96,5.69 1.5 0 0 -4.1075,5.5844 3.96,5.69 1.5 0 0 3.8097,5.7918 z"
     id="path11280" />
  <path
     fill="#000000"
     d="m 29.575547,149.76929 a 4.19,4.14 44 0 0 2.68,-0.03 q 2.68,-0.95 2.44,0.28 -0.13,0.68 -0.97,1.13 -3.42,1.83 -6.17,-0.02 -1.92,-1.28 -2.36,-3.62 -0.5,-2.59 1.15,-4.58 1.47,-1.78 3.59,-2.02 2.39,-0.27 4.22,1.72 1.51,1.63 0.81,3.78 a 0.72,0.7 9 0 1 -0.68,0.48 l -5.61,0.05 a 0.77,0.78 80.6 0 0 -0.74,1.02 q 0.48,1.43 1.64,1.81 z m 1.84,-6.66 q -2.29,-0.75 -3.3,1.07 a 0.41,0.4 21 0 0 0.27,0.58 q 1.86,0.48 3.73,0.05 a 0.49,0.53 76.4 0 0 0.41,-0.61 q -0.22,-0.8 -1.11,-1.09 z"
     id="path11286" />
  <path
     fill="#000000"
     d="m 57.995547,149.84929 q 1.16,-0.07 1.76,-1.22 0.34,-0.68 0.35,-1.95 0.02,-2.4 -0.09,-5.04 a 0.62,0.64 82.1 0 1 0.49,-0.63 q 2.58,-0.56 2.42,1.41 -0.08,0.99 -0.08,1.05 0,3.61 -0.03,7.22 -0.02,2.12 -2.84,0.56 a 0.83,0.86 45.3 0 0 -0.83,0.01 q -2.45,1.41 -4.14,0.07 -1.17,-0.92 -1.33,-3.21 -0.21,-2.89 -0.04,-6.31 a 0.96,0.95 85.2 0 1 0.74,-0.88 q 2.53,-0.55 2.21,2.04 -0.24,1.97 -0.24,5.32 a 1.56,1.56 0 0 0 1.65,1.56 z"
     id="path11288" />
  <path
     fill="#000000"
     d="m 68.015547,147.95929 q 1.08,3.25 4.94,1.65 2.46,-1.01 1.62,0.73 -0.26,0.54 -0.82,0.83 -2.24,1.13 -4.53,0.68 -2.26,-0.45 -3.38,-2.47 -1.25,-2.25 -0.47,-4.77 0.72,-2.31 2.7,-3.26 2.21,-1.07 4.71,0.15 2.9,1.42 2.23,4.77 a 0.61,0.66 5.6 0 1 -0.61,0.54 l -5.56,0.07 a 0.82,0.87 80.9 0 0 -0.83,1.08 z m 3.4,-4.85 q -2.29,-0.75 -3.3,1.07 a 0.41,0.4 21 0 0 0.27,0.58 q 1.86,0.48 3.73,0.05 a 0.49,0.53 76.4 0 0 0.41,-0.61 q -0.22,-0.8 -1.11,-1.09 z"
     id="path11290" />
  <path
     fill="#000000"
     d="m 82.015547,149.83929 q 1.15,-0.06 1.74,-1.21 0.34,-0.68 0.35,-1.93 0.02,-2.41 -0.09,-5.06 a 0.62,0.64 82.1 0 1 0.49,-0.63 q 2.58,-0.56 2.42,1.41 -0.08,0.99 -0.08,1.05 0,3.61 -0.03,7.22 -0.02,2.12 -2.83,0.56 a 0.87,0.85 43.4 0 0 -0.84,0.01 q -2.25,1.3 -4,0.18 -1.31,-0.84 -1.48,-3.03 -0.16,-2.01 -0.11,-4.02 0.01,-0.12 -0.09,-1.89 -0.14,-2.36 2.4,-1.49 a 0.7,0.71 9.1 0 1 0.48,0.67 v 6.58 a 1.58,1.58 0 0 0 1.67,1.58 z"
     id="path11292" />
  <path
     fill="#000000"
     d="m 93.935547,149.76929 q 1.61,0.41 3.04,-0.28 0.52,-0.25 0.93,-0.22 1.75,0.12 0.44,1.36 -0.39,0.36 -0.96,0.63 -5.77,2.72 -7.98,-2.88 -1.09,-2.77 0.41,-4.97 1.36,-2 3.72,-2.49 2.81,-0.58 4.87,1.96 1.23,1.51 0.56,3.53 a 0.72,0.7 9 0 1 -0.68,0.48 l -5.61,0.05 a 0.77,0.78 80.6 0 0 -0.74,1.02 q 0.48,1.43 2,1.81 z m 1.48,-6.66 q -2.29,-0.75 -3.3,1.07 a 0.41,0.4 21 0 0 0.27,0.58 q 1.86,0.48 3.73,0.05 a 0.49,0.53 76.4 0 0 0.41,-0.61 q -0.22,-0.8 -1.11,-1.09 z"
     id="path11294" />
  <path
     fill="#000000"
     d="m 165.10495,152.32799 a 0.58,0.58 0 0 1 -0.579,0.581 l -0.36,6e-4 a 0.58,0.58 0 0 1 -0.581,-0.579 l -0.0188,-10.76 a 0.58,0.58 0 0 1 0.579,-0.581 l 0.36,-6e-4 a 0.58,0.58 0 0 1 0.581,0.579 z"
     id="path11296" />
  <path
     fill="#000000"
     d="m 197.64555,146.50929 -0.1,5.62 a 0.93,0.65 83.2 0 1 -0.42,0.79 q -0.28,0.12 -0.56,0 a 0.55,0.92 6 0 1 -0.37,-0.79 v -5.25 a 0.93,0.74 16.7 0 0 -0.5,-0.72 q -1.67,-0.86 0.1,-1.41 a 0.56,0.58 77.9 0 0 0.41,-0.61 q -0.44,-3.3 3.29,-3.2 0.96,0.03 0.1,0.48 -2.35,1.22 -1.98,2.86 a 0.92,0.74 2.6 0 0 0.66,0.58 q 2.76,0.64 -0.12,1.08 a 0.59,0.59 0 0 0 -0.51,0.57 z"
     id="path11298" />
  <path
     fill="#000000"
     d="m 247.09285,152.28399 a 0.59,0.59 0 0 1 -0.5859,0.5941 l -0.3,0.002 a 0.59,0.59 0 0 1 -0.5941,-0.5859 l -0.0746,-10.6797 a 0.59,0.59 0 0 1 0.5859,-0.5941 l 0.3,-0.002 a 0.59,0.59 0 0 1 0.5941,0.5859 z"
     id="path11300" />
  <path
     fill="#000000"
     d="m 143.99555,152.41929 -0.35,-9.48 a 0.75,0.82 83.9 0 1 0.68,-0.77 q 3.4,-0.61 5.45,0.54 2.03,1.13 2.4,4.2 0.71,6.1 -7.6,6.02 a 0.53,0.58 89 0 1 -0.58,-0.51 z m 4.41,-9.29 q -1.02,-0.7 -2.79,-0.06 a 0.71,0.72 80.1 0 0 -0.48,0.67 l 0.01,7.4 a 0.7,0.69 9.3 0 0 0.48,0.66 q 3.02,1 4.47,-1.61 2.38,-4.29 -1.69,-7.06 z"
     id="path11302" />
  <path
     fill="#000000"
     d="m 176.74555,144.12929 q -0.05,-1.42 1.08,-1.07 a 0.58,0.74 7.1 0 1 0.41,0.69 q 0,1.44 1.54,1.24 0.4,-0.05 0.64,0.04 0.68,0.25 0.1,0.66 a 1.26,0.79 22.9 0 1 -0.88,0.14 q -1.29,-0.24 -1.29,0.86 0,2 0,4.08 a 1.08,1.08 0 0 0 0.79,1.04 q 2.52,0.7 0.46,1.13 -2.66,0.55 -2.75,-2.5 l -0.12,-3.81 a 0.88,0.67 13.6 0 0 -0.54,-0.67 q -1.24,-0.52 0.13,-1.15 a 0.73,0.71 78 0 0 0.43,-0.68 z"
     id="path11312" />
  <path
     fill="#000000"
     d="m 228.38555,146.50929 -0.04,4.52 a 0.9,0.92 82.8 0 0 1.15,0.87 q 0.69,-0.18 0.92,0.25 a 0.45,0.54 67 0 1 -0.35,0.67 q -1.71,0.63 -2.59,-0.52 -0.57,-0.74 -0.62,-2.48 -0.04,-1.44 -0.01,-2.87 a 0.88,0.88 0 0 0 -0.44,-0.78 q -1.45,-0.85 -0.19,-1.27 a 0.92,0.92 0 0 0 0.63,-0.87 q 0,-1.44 1,-1.02 a 0.63,0.84 9 0 1 0.39,0.74 q 0,1.36 1.36,1.26 a 0.56,0.79 80.5 0 1 0.74,0.36 q 0.3,0.87 -1.43,0.7 a 0.47,0.45 3.5 0 0 -0.52,0.44 z"
     id="path11314" />
  <path
     fill="#000000"
     d="m 290.74555,144.12929 q -0.05,-1.42 1.08,-1.07 a 0.59,0.76 6.5 0 1 0.42,0.69 q 0.01,1.4 1.53,1.31 a 0.44,0.59 88.2 0 1 0.62,0.43 q 0,0.7 -1.24,0.58 a 0.58,0.44 3.5 0 0 -0.63,0.42 l 0.04,4.63 a 0.8,0.69 7 0 0 0.62,0.68 q 0.95,0.23 1.21,0.51 0.36,0.39 -0.47,0.57 -3.19,0.67 -3.03,-2.94 0.08,-1.67 -0.16,-3.31 a 0.86,0.82 6.9 0 0 -0.54,-0.66 q -1.56,-0.58 0.11,-1.19 a 0.68,0.66 79.9 0 0 0.44,-0.65 z"
     id="path11316" />
  <path
     fill="#000000"
     d="m 155.51555,150.16929 q 1.21,2.98 4.53,1.18 0.83,-0.44 0.92,-0.06 a 0.55,0.93 59.5 0 1 -0.42,0.76 q -1.35,1.05 -2.99,0.94 -1.52,-0.1 -2.57,-1.32 -1.44,-1.69 -0.8,-3.79 0.62,-2.03 2.48,-2.83 2.3,-0.99 4.24,1.33 1.33,1.58 0.03,2.27 -0.51,0.27 -1.72,0.15 -1.84,-0.17 -3.44,0.65 a 0.57,0.55 65.7 0 0 -0.26,0.72 z m 3.64,-3.79 q -1.47,-1.76 -3,0.12 -1.43,1.77 0.77,1.54 0.7,-0.07 1.33,-0.02 2.46,0.21 0.9,-1.64 z"
     id="path11318" />
  <path
     fill="#000000"
     d="m 168.51555,150.15929 q 1.23,3.02 4.53,1.23 1.13,-0.61 0.85,0.22 -0.09,0.26 -0.35,0.44 -2.71,1.84 -4.74,0.36 -1.67,-1.22 -1.86,-3.54 -0.26,-3.11 3.15,-3.93 3.56,-0.86 4.18,2.75 a 0.81,0.76 69.8 0 1 -0.34,0.8 q -1.23,0.78 -2.83,0.4 -1.45,-0.35 -2.41,0.44 a 0.76,0.71 59.3 0 0 -0.18,0.83 z m 0.34,-3.38 a 0.63,0.63 0 0 0 0.45,0.92 q 2.97,0.55 3.31,-0.23 0.39,-0.91 -1.26,-1.51 -1.73,-0.62 -2.5,0.82 z"
     id="path11320" />
  <path
     fill="#000000"
     d="m 183.48555,149.74929 q 0.66,3.39 4.35,1.61 1.64,-0.79 0.98,0.34 a 1.68,1.41 0 0 1 -0.75,0.63 q -4.85,1.98 -5.76,-2.21 -0.53,-2.42 0.81,-4.11 1.84,-2.32 5.17,-0.26 1.96,1.22 0.6,2.77 a 1.36,0.77 7.9 0 1 -0.86,0.34 l -4.12,0.3 a 0.5,0.47 82 0 0 -0.42,0.59 z m 3.31,-3.67 a 1.7,1.71 45.2 0 0 -2.13,0 q -3.02,2.44 1.69,2 2.61,-0.24 0.44,-2 z"
     id="path11322" />
  <path
     fill="#000000"
     d="m 202.91555,147.46929 q -0.11,2.4 -0.08,4.56 0.01,0.51 -0.2,0.74 -0.25,0.29 -0.58,0.15 a 0.64,0.94 6.7 0 1 -0.41,-0.79 l -0.1,-6.24 a 0.52,0.57 85.8 0 1 0.5,-0.53 l 3.06,-0.33 a 0.3,0.62 88 0 1 0.72,0.32 q -0.11,0.45 -1.84,0.85 a 1.37,1.37 0 0 0 -1.07,1.27 z"
     id="path11324" />
  <path
     fill="#000000"
     d="m 215.27555,148.94929 a 4.12,4.12 0 0 1 -4.12,4.12 4.12,4.12 0 0 1 -4.12,-4.12 4.12,4.12 0 0 1 4.12,-4.12 4.12,4.12 0 0 1 4.12,4.12 z m -4.1369,3.0699 a 2.72,3.08 0.5 0 0 2.7468,-3.0562 2.72,3.08 0.5 0 0 -2.693,-3.1036 2.72,3.08 0.5 0 0 -2.7468,3.0562 2.72,3.08 0.5 0 0 2.693,3.1036 z"
     id="path11326" />
  <path
     fill="#000000"
     d="m 219.15555,146.74929 q -0.97,0.79 -0.31,4.69 0.28,1.65 -0.72,1.38 a 0.62,0.76 4.8 0 1 -0.47,-0.68 l -0.21,-6.14 a 0.83,0.63 80.5 0 1 0.4,-0.75 q 0.56,-0.22 1.11,0.12 a 0.89,0.73 43.5 0 0 0.82,0.06 q 2.27,-1.27 3.41,0.33 0.61,0.84 0.62,3.02 0.01,1.59 0.22,3.17 a 0.9,0.61 75.8 0 1 -0.3,0.83 q -0.28,0.16 -0.61,0.07 a 0.63,0.82 3.7 0 1 -0.48,-0.72 q -0.06,-1.76 -0.05,-3.51 0,-1.56 -0.55,-2.2 -1.01,-1.18 -2.88,0.33 z"
     id="path11328" />
  <path
     fill="#000000"
     d="m 237.51555,150.16929 q 1.21,2.98 4.53,1.18 0.83,-0.44 0.92,-0.06 a 0.54,0.96 57.9 0 1 -0.42,0.77 q -1.42,1.1 -3.12,0.94 -1.61,-0.15 -2.6,-1.5 -1.16,-1.58 -0.69,-3.46 0.51,-2.03 2.35,-2.94 2.29,-1.14 4.3,1.15 1.57,1.79 -0.03,2.45 -0.51,0.21 -1.84,0.1 -1.68,-0.14 -3.13,0.63 a 0.59,0.59 0 0 0 -0.27,0.74 z m 0.32,-3.4 a 0.65,0.65 0 0 0 0.47,0.93 q 2.97,0.55 3.31,-0.23 0.38,-0.9 -1.25,-1.52 -1.78,-0.68 -2.53,0.82 z"
     id="path11330" />
  <path
     fill="#000000"
     d="m 250.58555,150.43929 q 0.92,2.87 4.55,1.14 1.6,-0.76 0.55,0.38 -0.15,0.17 -0.35,0.28 -4.07,2.39 -5.93,-1.36 -1.45,-2.94 0.62,-4.77 1.43,-1.28 3.31,-1.2 2.48,0.11 2.89,2.98 a 0.66,0.65 75 0 1 -0.4,0.71 q -1.4,0.55 -3.8,0.17 a 1.29,1.3 85.7 0 0 -1.44,1.67 z m 0.27,-3.66 a 0.63,0.63 0 0 0 0.45,0.92 q 2.97,0.55 3.31,-0.23 0.39,-0.91 -1.26,-1.51 -1.73,-0.62 -2.5,0.82 z"
     id="path11332" />
  <path
     fill="#000000"
     d="m 265.32555,145.84929 q 4.5,-2.87 4.4,3.09 -0.02,1.55 0.06,3.07 0.09,1.5 -0.82,0.77 a 0.93,1.14 15.6 0 1 -0.37,-0.84 v -4.38 q 0,-2.74 -2.39,-1.4 -2.34,1.3 -1.3,4.59 0.75,2.35 -0.77,2.03 a 0.64,0.7 4.7 0 1 -0.5,-0.65 q -0.08,-2.09 -0.01,-4.19 0.06,-1.95 -1.72,-1.97 a 1.24,1.32 24.7 0 0 -0.88,0.36 q -1.9,1.8 -1.16,4.61 0.19,0.75 0.15,1.14 -0.15,1.23 -1.23,0.38 a 0.74,1.15 11.5 0 1 -0.32,-0.83 v -5.88 a 0.4,0.55 1.8 0 1 0.43,-0.56 l 0.98,0.1 q 0.63,0.06 0.92,-0.06 2.05,-0.82 3.74,0.56 a 0.69,0.65 47.7 0 0 0.79,0.06 z"
     id="path11334" />
  <path
     fill="#000000"
     d="m 273.51555,150.16929 q 1.22,2.99 4.63,1.37 1.57,-0.75 0.55,0.41 -0.16,0.18 -0.36,0.29 -2.68,1.56 -4.58,0.15 -1.64,-1.21 -1.8,-3.49 -0.2,-2.7 2.58,-3.77 2.91,-1.13 4.36,1.36 0.66,1.13 0.19,1.95 -0.6,1.03 -2.5,0.52 -1.66,-0.45 -2.86,0.41 a 0.69,0.65 61.4 0 0 -0.21,0.8 z m 3.29,-4.09 a 1.67,1.67 0 0 0 -2.11,-0.02 q -3.05,2.46 1.67,2.07 2.63,-0.21 0.44,-2.05 z"
     id="path11336" />
  <path
     fill="#000000"
     d="m 282.88555,147.49929 q -0.08,2.22 -0.05,4.44 0.02,1.24 -0.74,0.94 a 0.66,0.88 6.3 0 1 -0.44,-0.75 l -0.22,-6.39 a 0.43,0.42 2.4 0 1 0.47,-0.43 q 1.64,0.14 2.44,-0.12 3.09,-1 3.34,2.26 0.14,1.71 0.16,3.43 0,0.32 0.16,1.1 0.23,1.08 -0.87,0.81 a 0.64,0.71 5.8 0 1 -0.49,-0.66 l -0.1,-4.62 a 1.08,1.37 16.8 0 0 -0.35,-0.89 q -1.33,-1.34 -2.92,0.04 a 1.21,1.06 73.5 0 0 -0.39,0.84 z"
     id="path11338" />
  <path
     fill="#000000"
     d="m 187.09555,237.84929 a 1.07,1.07 0 0 1 -1.07,1.07 H 43.165547 a 1.07,1.07 0 0 1 -1.07,-1.07 v -38.84 a 1.07,1.07 0 0 1 1.07,-1.07 H 186.02555 a 1.07,1.07 0 0 1 1.07,1.07 z m -97.000003,-38.22 a 0.69,0.69 0 0 0 -0.69,-0.69 h -45.62 a 0.69,0.69 0 0 0 -0.69,0.69 v 37.64 a 0.69,0.69 0 0 0 0.69,0.69 h 45.62 a 0.69,0.69 0 0 0 0.69,-0.69 z m 48.000003,0.11 a 0.8,0.8 0 0 0 -0.8,-0.8 H 91.895547 a 0.8,0.8 0 0 0 -0.8,0.8 v 37.4 a 0.8,0.8 0 0 0 0.8,0.8 h 45.400003 a 0.8,0.8 0 0 0 0.8,-0.8 z m 48,-0.17 a 0.63,0.63 0 0 0 -0.63,-0.63 h -45.74 a 0.63,0.63 0 0 0 -0.63,0.63 v 37.74 a 0.63,0.63 0 0 0 0.63,0.63 h 45.74 a 0.63,0.63 0 0 0 0.63,-0.63 z"
     id="path11354" />
  <path
     fill="#ffffff"
     d="m 90.095547,237.26929 a 0.69,0.69 0 0 1 -0.69,0.69 h -45.62 a 0.69,0.69 0 0 1 -0.69,-0.69 v -37.64 a 0.69,0.69 0 0 1 0.69,-0.69 h 45.62 a 0.69,0.69 0 0 1 0.69,0.69 z m -24.65,-13.3 q 1.9,-2.66 4.09,-5.09 1.57,-1.75 1.27,-4.15 -0.28,-2.25 -2.1,-3.3 -2.07,-1.19 -4.44,0.08 -2.04,1.08 -1.28,1.61 0.57,0.39 3.76,-0.52 a 1.22,1.22 0 0 1 1.5,0.79 q 1.04,3.11 -0.96,5.5 -2.45,2.92 -4.73,5.68 -1.07,1.3 0.58,1.31 l 7.64,0.01 a 0.75,0.66 8.3 0 0 0.71,-0.46 q 0.28,-0.87 -0.89,-0.89 -2.46,-0.05 -4.93,-0.14 -0.51,-0.02 -0.22,-0.43 z"
     id="path11356" />
  <path
     fill="#ffffff"
     d="m 138.09555,237.13929 a 0.8,0.8 0 0 1 -0.8,0.8 H 91.895547 a 0.8,0.8 0 0 1 -0.8,-0.8 v -37.4 a 0.8,0.8 0 0 1 0.8,-0.8 h 45.400003 a 0.8,0.8 0 0 1 0.8,0.8 z m -21.12,-19.5 q 0.13,-0.39 0.49,-0.65 0.54,-0.39 0.69,-0.68 1.28,-2.4 -0.21,-4.01 -1.15,-1.24 -3.13,-1.45 -2.21,-0.24 -3.53,1.28 -1.53,1.75 0.28,1.37 0.35,-0.08 0.87,-0.4 1.68,-1.04 3.42,-0.11 a 1.04,1.08 8.6 0 1 0.53,0.75 q 0.77,4.03 -3.79,3.74 a 0.61,0.53 6 0 0 -0.62,0.44 q -0.22,1.31 1.3,1.17 1.2,-0.11 1.65,-0.01 2.59,0.58 2.3,2.8 -0.23,1.76 -1.83,2.19 -1.74,0.47 -3.99,-0.69 -1.53,-0.8 -1.2,0.59 a 1.45,1.22 14.9 0 0 0.54,0.77 q 2.58,1.83 5.25,0.97 2.17,-0.7 3.1,-2.71 1.26,-2.72 -1.76,-4.62 a 0.75,0.57 26.7 0 1 -0.36,-0.74 z"
     id="path11358" />
  <path
     fill="#ffffff"
     d="m 186.09555,237.30929 a 0.63,0.63 0 0 1 -0.63,0.63 h -45.74 a 0.63,0.63 0 0 1 -0.63,-0.63 v -37.74 a 0.63,0.63 0 0 1 0.63,-0.63 h 45.74 a 0.63,0.63 0 0 1 0.63,0.63 z m -19.94,-16.43 -0.12,-8.88 a 0.81,0.96 12.7 0 0 -0.41,-0.79 q -0.66,-0.4 -1.39,-0.27 -0.72,0.14 -1.3,1.06 -2.97,4.8 -5.15,9.72 a 0.87,0.87 0 0 0 0.8,1.22 q 1.88,0 3.73,-0.23 2.39,-0.29 1.93,1.51 a 0.77,1.8 25.5 0 0 -0.04,0.95 q 0.41,1.3 1.49,0.58 a 0.47,1.16 0.9 0 0 0.34,-0.81 l 0.18,-1.47 a 0.62,1.03 78.6 0 1 0.68,-0.62 q 3.17,-1.04 -0.24,-1.42 a 0.57,0.55 3.5 0 1 -0.5,-0.55 z"
     id="path11360" />
  <path
     fill="#000000"
     d="m 65.665547,224.39929 q 2.47,0.09 4.93,0.14 1.17,0.02 0.89,0.89 a 0.75,0.66 8.3 0 1 -0.71,0.46 l -7.64,-0.01 q -1.65,-0.01 -0.58,-1.31 2.28,-2.76 4.73,-5.68 2,-2.39 0.96,-5.5 a 1.22,1.22 0 0 0 -1.5,-0.79 q -3.19,0.91 -3.76,0.52 -0.76,-0.53 1.28,-1.61 2.37,-1.27 4.44,-0.08 1.82,1.05 2.1,3.3 0.3,2.4 -1.27,4.15 -2.19,2.43 -4.09,5.09 -0.29,0.41 0.22,0.43 z"
     id="path11362" />
  <path
     fill="#000000"
     d="m 117.33555,218.37929 q 3.02,1.9 1.76,4.62 -0.93,2.01 -3.1,2.71 -2.67,0.86 -5.25,-0.97 a 1.45,1.22 14.9 0 1 -0.54,-0.77 q -0.33,-1.39 1.2,-0.59 2.25,1.16 3.99,0.69 1.6,-0.43 1.83,-2.19 0.29,-2.22 -2.3,-2.8 -0.45,-0.1 -1.65,0.01 -1.52,0.14 -1.3,-1.17 a 0.61,0.53 6 0 1 0.62,-0.44 q 4.56,0.29 3.79,-3.74 a 1.04,1.08 8.6 0 0 -0.53,-0.75 q -1.74,-0.93 -3.42,0.11 -0.52,0.32 -0.87,0.4 -1.81,0.38 -0.28,-1.37 1.32,-1.52 3.53,-1.28 1.98,0.21 3.13,1.45 1.49,1.61 0.21,4.01 -0.15,0.29 -0.69,0.68 -0.36,0.26 -0.49,0.65 a 0.75,0.57 26.7 0 0 0.36,0.74 z"
     id="path11364" />
  <path
     fill="#000000"
     d="m 166.65555,221.42929 q 3.41,0.38 0.24,1.42 a 0.62,1.03 78.6 0 0 -0.68,0.62 l -0.18,1.47 a 0.47,1.16 0.9 0 1 -0.34,0.81 q -1.08,0.72 -1.49,-0.58 a 0.77,1.8 25.5 0 1 0.04,-0.95 q 0.46,-1.8 -1.93,-1.51 -1.85,0.23 -3.73,0.23 a 0.87,0.87 0 0 1 -0.8,-1.22 q 2.18,-4.92 5.15,-9.72 0.58,-0.92 1.3,-1.06 0.73,-0.13 1.39,0.27 a 0.81,0.96 12.7 0 1 0.41,0.79 l 0.12,8.88 a 0.57,0.55 3.5 0 0 0.5,0.55 z m -3,-7.77 -3.83,7.08 a 0.38,0.39 20.7 0 0 0.25,0.57 q 1.88,0.43 3.74,-0.05 a 0.67,0.61 83.4 0 0 0.46,-0.64 v -6.79 q 0,-1.31 -0.62,-0.17 z"
     id="path11366" />
  <path
     fill="#ffffff"
     d="m 163.65555,213.65929 q 0.62,-1.14 0.62,0.17 v 6.79 a 0.67,0.61 83.4 0 1 -0.46,0.64 q -1.86,0.48 -3.74,0.05 a 0.38,0.39 20.7 0 1 -0.25,-0.57 z"
     id="path11368" />
</svg>
