<?xml version="1.0" encoding="UTF-8" standalone="no"?>
<svg
   version="1.1"
   viewBox="0 0 301.89819 262.20825"
   id="svg2700"
   sodipodi:docname="stack-push.svg"
   width="301.89819"
   height="262.20825"
   inkscape:version="1.1.2 (0a00cf5339, 2022-02-04)"
   xmlns:inkscape="http://www.inkscape.org/namespaces/inkscape"
   xmlns:sodipodi="http://sodipodi.sourceforge.net/DTD/sodipodi-0.dtd"
   xmlns="http://www.w3.org/2000/svg"
   xmlns:svg="http://www.w3.org/2000/svg">
  <defs
     id="defs2704" />
  <sodipodi:namedview
     id="namedview2702"
     pagecolor="#ffffff"
     bordercolor="#666666"
     borderopacity="1.0"
     inkscape:pageshadow="2"
     inkscape:pageopacity="0.0"
     inkscape:pagecheckerboard="0"
     showgrid="false"
     fit-margin-top="0"
     fit-margin-left="0"
     fit-margin-right="0"
     fit-margin-bottom="0"
     inkscape:zoom="16"
     inkscape:cx="136.53125"
     inkscape:cy="68.5625"
     inkscape:window-width="1362"
     inkscape:window-height="729"
     inkscape:window-x="1920"
     inkscape:window-y="18"
     inkscape:window-maximized="1"
     inkscape:current-layer="svg2700" />
  <path
     fill="#000000"
     d="m 20.625631,10.970077 q 0.43,0.14 0.89,0.14 0.46,-0.01 0.66,0.06 0.71,0.25 0.17,0.73 -0.21,0.18 -0.54,0.23 -3.23,0.53 -3.14,-2.8000003 0.04,-1.21 -0.12,-2.4 -0.02,-0.15 0.03,-1.56 0.03,-1.02 -1.01,-1.58 -0.37,-0.2 0,-0.42 0.7,-0.42 0.82,-1.23 a 0.44,1.47 3.3 0 1 0.33,-0.9 q 0.48,-0.49 1.01,0.02 a 0.58,1.48 1.1 0 1 0.33,0.89 q 0.15,1.24 1.56,1.03 a 0.58,0.93 75.8 0 1 0.83,0.27 q 0.39,0.66 -1.64,0.62 a 0.66,0.65 0.4 0 0 -0.68,0.66 l 0.02,5.5400003 a 0.7,0.77 8 0 0 0.48,0.7 z"
     id="path2542" />
  <path
     fill="#000000"
     d="m 33.525631,7.5800767 a 4.59,4.59 0 0 1 -4.59,4.5900003 4.59,4.59 0 0 1 -4.59,-4.5900003 4.59,4.59 0 0 1 4.59,-4.59 4.59,4.59 0 0 1 4.59,4.59 z m -4.8595,3.6107003 a 2.97,3.63 4.1 0 0 3.2219,-3.4084003 2.97,3.63 4.1 0 0 -2.7029,-3.833 2.97,3.63 4.1 0 0 -3.2219,3.4084 2.97,3.63 4.1 0 0 2.7029,3.8330003 z"
     id="path2544" />
  <path
     fill="#000000"
     d="m 37.655631,11.890077 -0.1,3.38 a 0.97,0.84 77.8 0 1 -0.43,0.79 q -0.96,0.56 -1.02,-0.73 -0.11,-2.34 0.05,-11.6900003 a 0.35,0.41 11.4 0 1 0.5,-0.4 l 0.89,0.45 a 0.96,0.59 36.2 0 0 0.79,0.06 q 1.49,-0.87 3.06,-0.58 1.42,0.26 2.32,1.62 1.77,2.68 0.08,5.4800003 -1.88,3.1 -5.68,1.34 a 0.33,0.32 12.9 0 0 -0.46,0.28 z m 2.4076,-0.7842 a 2.72,3.53 2.8 0 0 2.8892,-3.3929003 2.72,3.53 2.8 0 0 -2.5444,-3.6587 2.72,3.53 2.8 0 0 -2.8892,3.3929 2.72,3.53 2.8 0 0 2.5444,3.6587003 z"
     id="path2546" />
  <path
     fill="#000000"
     d="m 295.35563,216.98008 a 1.1,1.1 0 0 1 -1.1,1.1 h -46.8 a 1.1,1.1 0 0 1 -1.1,-1.1 V 18.180077 a 1.1,1.1 0 0 1 1.1,-1.1 h 46.8 a 1.1,1.1 0 0 1 1.1,1.1 z m -0.9672,-198.189003 a 0.71,0.71 0 0 0 -0.7088,-0.7112 l -45.5799,-0.0795 a 0.71,0.71 0 0 0 -0.7112,0.7087 l -0.0657,37.62 a 0.71,0.71 0 0 0 0.7088,0.7112 l 45.5799,0.0795 a 0.71,0.71 0 0 0 0.7112,-0.7087 z m -0.0328,39.919 a 0.63,0.63 0 0 0 -0.63,-0.63 h -45.74 a 0.63,0.63 0 0 0 -0.63,0.63 v 37.74 a 0.63,0.63 0 0 0 0.63,0.63 h 45.74 a 0.63,0.63 0 0 0 0.63,-0.63 z m 0,39.88 a 0.53,0.53 0 0 0 -0.53,-0.53 h -45.94 a 0.53,0.53 0 0 0 -0.53,0.53 v 37.960003 a 0.53,0.53 0 0 0 0.53,0.53 h 45.94 a 0.53,0.53 0 0 0 0.53,-0.53 z m 0,40.070003 a 0.58,0.58 0 0 0 -0.58,-0.58 h -45.84 a 0.58,0.58 0 0 0 -0.58,0.58 v 37.84 a 0.58,0.58 0 0 0 0.58,0.58 h 45.84 a 0.58,0.58 0 0 0 0.58,-0.58 z m 0,40.21 a 0.81,0.81 0 0 0 -0.81,-0.81 h -45.38 a 0.81,0.81 0 0 0 -0.81,0.81 v 37.4 a 0.81,0.81 0 0 0 0.81,0.81 h 45.38 a 0.81,0.81 0 0 0 0.81,-0.81 z"
     id="path2552" />
  <path
     fill="#ffffff"
     d="m 294.32273,56.411077 a 0.71,0.71 0 0 1 -0.7112,0.7087 l -45.5799,-0.0795 a 0.71,0.71 0 0 1 -0.7088,-0.7112 l 0.0657,-37.62 a 0.71,0.71 0 0 1 0.7112,-0.7087 l 45.5799,0.0795 a 0.71,0.71 0 0 1 0.7088,0.7112 z m -29.2971,-23.521 -0.01,9.53 a 1.2,1.24 1.9 0 1 -1.28,1.24 q -2.57,-0.18 -2.28,0.91 a 0.63,0.77 83.8 0 0 0.72,0.47 h 6.62 a 0.71,0.68 7.5 0 0 0.68,-0.5 q 0.44,-1.52 -2.07,-1.11 a 0.41,0.46 85.2 0 1 -0.53,-0.4 l -0.06,-11.78 a 1.07,1.01 80.7 0 0 -1.35,-1.03 q -2.23,0.77 -3.93,2.88 -0.21,0.26 -0.21,0.52 0,0.4 0.24,0.56 a 0.34,0.99 55.5 0 0 0.86,-0.24 l 2.15,-1.35 q 0.45,-0.27 0.45,0.3 z m 12.001,12.4366 a 5.14,7.72 1.7 0 0 5.3667,-7.5641 5.14,7.72 1.7 0 0 -4.9087,-7.8691 5.14,7.72 1.7 0 0 -5.3667,7.5641 5.14,7.72 1.7 0 0 4.9087,7.8691 z"
     id="path2554" />
  <path
     fill="#3d6c95"
     d="m 35.665631,44.530077 3.38,0.1 q 0.52,0.01 0.15,0.38 l -7.97,7.98 a 0.54,0.52 44.6 0 1 -0.74,-0.01 l -7.84,-7.74 q -0.68,-0.67 0.29,-0.67 l 3.1,-0.02 a 0.54,0.52 89.5 0 0 0.51,-0.54 l 0.06,-21.02 a 0.82,0.87 0.3 0 1 0.83,-0.87 l 6.99,0.1 a 0.57,0.52 89.9 0 1 0.51,0.56 l 0.23,21.24 a 0.51,0.52 0 0 0 0.5,0.51 z m -2,1.99 a 1.14,1.12 15.5 0 1 -0.56,-0.97 v -20.51 a 0.67,0.78 0 0 0 -0.67,-0.78 l -3.29,-0.03 a 0.48,0.66 0 0 0 -0.48,0.66 q -0.1,9.1 -0.06,18.2 0,0.11 0.16,1.45 0.17,1.39 -0.99,2.27 a 0.4,0.4 0 0 0 -0.04,0.61 l 2.57,2.48 a 0.93,0.91 39.5 0 0 1.4,-0.12 q 0.7,-1.02 1.92,-1.94 1.02,-0.76 0.04,-1.32 z"
     id="path2556" />
  <path
     fill="#5b9bd5"
     d="m 33.665631,46.520077 q 0.98,0.56 -0.04,1.32 -1.22,0.92 -1.92,1.94 a 0.93,0.91 39.5 0 1 -1.4,0.12 l -2.57,-2.48 a 0.4,0.4 0 0 1 0.04,-0.61 q 1.16,-0.88 0.99,-2.27 -0.16,-1.34 -0.16,-1.45 -0.04,-9.1 0.06,-18.2 a 0.48,0.66 0 0 1 0.48,-0.66 l 3.29,0.03 a 0.67,0.78 0 0 1 0.67,0.78 v 20.51 a 1.14,1.12 15.5 0 0 0.56,0.97 z"
     id="path2558" />
  <path
     fill="#000000"
     d="m 264.57563,32.590077 -2.15,1.35 a 0.34,0.99 55.5 0 1 -0.86,0.24 q -0.24,-0.16 -0.24,-0.56 0,-0.26 0.21,-0.52 1.7,-2.11 3.93,-2.88 a 1.07,1.01 80.7 0 1 1.35,1.03 l 0.06,11.78 a 0.41,0.46 85.2 0 0 0.53,0.4 q 2.51,-0.41 2.07,1.11 a 0.71,0.68 7.5 0 1 -0.68,0.5 h -6.62 a 0.63,0.77 83.8 0 1 -0.72,-0.47 q -0.29,-1.09 2.28,-0.91 a 1.2,1.24 1.9 0 0 1.28,-1.24 l 0.01,-9.53 q 0,-0.57 -0.45,-0.3 z"
     id="path2560" />
  <path
     fill="#000000"
     d="m 277.02663,45.326677 a 5.14,7.72 1.7 0 1 -4.9087,-7.8691 5.14,7.72 1.7 0 1 5.3667,-7.5641 5.14,7.72 1.7 0 1 4.9087,7.8691 5.14,7.72 1.7 0 1 -5.3667,7.5641 z m 0.2496,-1.6866 a 6.06,3.2 89.9 0 0 3.1894,-6.0656 6.06,3.2 89.9 0 0 -3.2106,-6.0544 6.06,3.2 89.9 0 0 -3.1894,6.0656 6.06,3.2 89.9 0 0 3.2106,6.0544 z"
     id="path2562" />
  <path
     fill="#ffffff"
     d="m 277.27623,43.640077 a 6.06,3.2 89.9 0 1 -3.2106,-6.0544 6.06,3.2 89.9 0 1 3.1894,-6.0656 6.06,3.2 89.9 0 1 3.2106,6.0544 6.06,3.2 89.9 0 1 -3.1894,6.0656 z"
     id="path2564" />
  <path
     fill="#000000"
     d="m 55.355631,217.25008 a 0.83,0.83 0 0 1 -0.83,0.83 H 7.1856314 a 0.83,0.83 0 0 1 -0.83,-0.83 V 57.910077 a 0.83,0.83 0 0 1 0.83,-0.83 H 54.525631 a 0.83,0.83 0 0 1 0.83,0.83 z m -1,-158.590003 a 0.58,0.58 0 0 0 -0.58,-0.58 H 7.9356314 a 0.58,0.58 0 0 0 -0.58,0.58 v 37.84 a 0.58,0.58 0 0 0 0.58,0.58 H 53.775631 a 0.58,0.58 0 0 0 0.58,-0.58 z m 0,39.93 a 0.53,0.53 0 0 0 -0.53,-0.53 H 7.8856314 a 0.53,0.53 0 0 0 -0.53,0.53 v 37.960003 a 0.53,0.53 0 0 0 0.53,0.53 H 53.825631 a 0.53,0.53 0 0 0 0.53,-0.53 z m 0,40.070003 a 0.58,0.58 0 0 0 -0.58,-0.58 H 7.9356314 a 0.58,0.58 0 0 0 -0.58,0.58 v 37.84 a 0.58,0.58 0 0 0 0.58,0.58 H 53.775631 a 0.58,0.58 0 0 0 0.58,-0.58 z m 0,40.21 a 0.81,0.81 0 0 0 -0.81,-0.81 H 8.1656314 a 0.81,0.81 0 0 0 -0.81,0.81 v 37.4 a 0.81,0.81 0 0 0 0.81,0.81 H 53.545631 a 0.81,0.81 0 0 0 0.81,-0.81 z"
     id="path2566" />
  <path
     fill="#ffffff"
     d="m 54.355631,96.500077 a 0.58,0.58 0 0 1 -0.58,0.58 H 7.9356314 a 0.58,0.58 0 0 1 -0.58,-0.58 v -37.84 a 0.58,0.58 0 0 1 0.58,-0.58 H 53.775631 a 0.58,0.58 0 0 1 0.58,0.58 z m -20.15,-16.85 0.11,-8.75 a 0.75,0.76 11 0 0 -0.48,-0.72 q -1.61,-0.61 -2.53,0.85 -3.07,4.86 -5.32,9.95 a 0.79,0.79 0 0 0 0.72,1.1 q 2.15,0 3.88,-0.18 2.56,-0.28 1.95,1.7 a 0.79,1.42 29.3 0 0 0,0.94 q 0.5,1 1.44,0.36 a 0.9,0.7 70.6 0 0 0.27,-0.81 q -0.3,-1.92 1.61,-2.26 1.28,-0.23 0.63,-0.92 a 0.69,1.2 75.1 0 0 -0.88,-0.24 q -0.58,0.04 -1.04,-0.22 a 0.67,0.98 10.4 0 1 -0.36,-0.8 z"
     id="path2568" />
  <path
     fill="#ffffff"
     d="m 294.35563,96.450077 a 0.63,0.63 0 0 1 -0.63,0.63 h -45.74 a 0.63,0.63 0 0 1 -0.63,-0.63 v -37.74 a 0.63,0.63 0 0 1 0.63,-0.63 h 45.74 a 0.63,0.63 0 0 1 0.63,0.63 z m -19.45,-14.43 q 3.61,-0.93 -0.12,-1.55 a 0.57,0.58 5.2 0 1 -0.48,-0.58 q 0.08,-3.36 0.06,-6.72 -0.01,-0.1 0.04,-1.17 0.12,-2.49 -2.27,-1.77 a 1.26,1.15 3.7 0 0 -0.74,0.59 l -5.37,10.07 a 0.85,0.81 13.3 0 0 0.78,1.19 q 1.8,0 3.01,-0.21 3.35,-0.6 2.74,2.16 a 0.56,0.65 17.8 0 0 0.3,0.71 q 2.1,0.92 1.65,-2.1 a 0.55,0.55 0 0 1 0.4,-0.62 z"
     id="path2570" />
  <path
     fill="#000000"
     d="m 82.995631,64.270077 -0.28,-3.13 a 0.94,0.79 72.1 0 1 0.33,-0.81 q 1.14,-0.83 1.11,1 -0.09,5.03 0,10.07 a 0.36,0.33 8.4 0 1 -0.46,0.31 l -0.85,-0.27 a 0.88,1.2 42.9 0 0 -0.89,0.17 q -2.34,1.49 -3.85,-0.78 -1.73,-2.6 -0.21,-5.14 0.74,-1.23 2.01,-1.48 1.33,-0.25 2.69,0.34 a 0.29,0.28 8.9 0 0 0.4,-0.28 z m -2.2332,6.8295 a 2.16,3.05 1 0 0 2.2129,-3.0118 2.16,3.05 1 0 0 -2.1065,-3.0872 2.16,3.05 1 0 0 -2.2129,3.0118 2.16,3.05 1 0 0 2.1065,3.0872 z"
     id="path2572" />
  <path
     fill="#000000"
     d="m 91.995631,64.270077 -0.28,-3.13 a 0.87,0.81 71.5 0 1 0.36,-0.79 q 1.32,-0.85 1.13,0.7 -0.1,0.76 -0.1,1.07 -0.01,4.63 0.05,9.27 a 0.33,0.31 10.7 0 1 -0.45,0.29 q -1.07,-0.45 -1.85,-0.1 -2.56,1.14 -3.77,-0.59 -0.79,-1.12 -0.75,-3.1 0.1,-4.92 5.24,-3.28 a 0.32,0.32 0 0 0 0.42,-0.34 z m -2.3057,6.8488 a 2.2,3.07 1.6 0 0 2.2848,-3.0074 2.2,3.07 1.6 0 0 -2.1134,-3.1302 2.2,3.07 1.6 0 0 -2.2848,3.0074 2.2,3.07 1.6 0 0 2.1134,3.1302 z"
     id="path2574" />
  <path
     fill="#000000"
     d="m 97.405631,61.030077 a 0.94,0.94 0 0 1 -0.94,0.94 0.94,0.94 0 0 1 -0.94,-0.94 0.94,0.94 0 0 1 0.94,-0.94 0.94,0.94 0 0 1 0.94,0.94 z"
     id="path2576" />
  <path
     fill="#000000"
     d="m 166.19663,71.673677 a 0.26,0.26 0 0 1 -0.2613,0.2586 l -0.88,-0.0046 a 0.26,0.26 0 0 1 -0.2586,-0.2613 l 0.0579,-11.0599 a 0.26,0.26 0 0 1 0.2613,-0.2586 l 0.88,0.0046 a 0.26,0.26 0 0 1 0.2586,0.2613 z"
     id="path2578" />
  <path
     fill="#000000"
     d="m 73.295631,69.090077 q -0.84,-0.09 -1.66,-0.2 -2.83,-0.4 -3.07,2.13 a 1.1,0.87 80.6 0 1 -0.43,0.78 q -1.41,0.88 -1.14,-0.7 0.06,-0.41 0.32,-1.01 1.65,-3.76 2.88,-7.69 0.51,-1.64 1.88,-1.21 a 1.14,0.98 86.3 0 1 0.66,0.67 l 3.46,9.25 a 0.72,0.64 62.4 0 1 -0.2,0.81 q -0.62,0.46 -1.12,-0.16 -0.21,-0.26 -0.3,-0.92 -0.09,-0.72 -0.48,-1.31 a 0.91,1.18 81 0 0 -0.8,-0.44 z m -3.45,-1.27 q 1.83,0.69 3.27,-0.04 a 0.64,0.55 67.4 0 0 0.24,-0.73 l -1.25,-3.74 q -0.5,-1.48 -1.03,0.04 l -1.4,4.03 a 0.31,0.36 20.3 0 0 0.17,0.44 z"
     id="path2580" />
  <path
     fill="#000000"
     d="m 222.13563,63.420077 q -0.83,0.5 -1.73,0.43 a 0.34,0.35 17.3 0 1 -0.26,-0.52 q 1.1,-1.88 3.27,-2.05 a 0.5,0.5 0 0 1 0.54,0.49 l 0.13,8.2 a 1.02,1.07 2.1 0 0 0.93,1.05 q 1.24,0.12 1.25,0.56 a 0.72,0.46 0 0 1 -0.72,0.46 h -4.87 a 0.51,0.44 4.7 0 1 -0.51,-0.52 q 0.16,-0.85 1.7,-0.55 a 0.47,0.41 6.5 0 0 0.55,-0.38 l 0.16,-6.95 q 0.01,-0.49 -0.44,-0.22 z"
     id="path2582" />
  <path
     fill="#000000"
     d="m 231.76563,72.318377 a 3.94,5.73 1.4 0 1 -3.7988,-5.8246 3.94,5.73 1.4 0 1 4.0788,-5.632 3.94,5.73 1.4 0 1 3.7988,5.8246 3.94,5.73 1.4 0 1 -4.0788,5.632 z m 0.1292,-1.0885 a 2.47,4.68 0.5 0 0 2.5107,-4.6582 2.47,4.68 0.5 0 0 -2.4291,-4.7014 2.47,4.68 0.5 0 0 -2.5107,4.6582 2.47,4.68 0.5 0 0 2.4291,4.7014 z"
     id="path2584" />
  <path
     fill="#000000"
     d="m 209.97563,63.270077 q -0.13,-1.59 1.12,-1.1 a 0.62,0.8 8.7 0 1 0.4,0.72 q 0,1.44 1.54,1.24 0.4,-0.05 0.64,0.04 0.68,0.25 0.1,0.66 a 1.26,0.79 22.9 0 1 -0.88,0.14 q -1.29,-0.24 -1.29,0.86 0,2 0,4.27 a 0.78,0.79 8.5 0 0 0.55,0.75 q 3.53,1.07 -0.3,1.23 -1.67,0.07 -1.75,-2.5 l -0.12,-3.81 a 0.88,0.67 13.6 0 0 -0.54,-0.67 q -1.24,-0.52 0.13,-1.15 a 0.68,0.69 75.4 0 0 0.4,-0.68 z"
     id="path2586" />
  <path
     fill="#000000"
     d="m 97.183531,71.522377 a 0.51,0.51 0 0 1 -0.5118,0.5082 l -0.32,-0.0011 a 0.51,0.51 0 0 1 -0.5082,-0.5118 l 0.0242,-6.9199 a 0.51,0.51 0 0 1 0.5118,-0.5082 l 0.32,0.0011 a 0.51,0.51 0 0 1 0.5082,0.5118 z"
     id="path2592" />
  <path
     fill="#000000"
     d="m 102.04563,64.580077 q 3.41,-1.79 3.85,2.27 0.21,1.98 0.44,3.95 0.15,1.22 -0.8,1.18 a 0.69,0.59 86.3 0 1 -0.57,-0.59 q -0.24,-1.64 -0.21,-3.31 0.11,-4.9 -3.22,-2.02 a 1.15,1.09 71.2 0 0 -0.38,0.83 l -0.1,4.37 a 0.74,0.61 85.2 0 1 -0.48,0.69 q -1.069999,0.26 -0.719999,-1.62 0.249999,-1.35 -0.11,-4.41 -0.1,-0.86 0.09,-1.29 0.379999,-0.89 1.399999,-0.12 a 0.74,0.74 0 0 0 0.81,0.07 z"
     id="path2594" />
  <path
     fill="#000000"
     d="m 114.66563,65.590077 q -0.13,3.79 -4.06,3.54 a 1.2,0.89 18.3 0 0 -0.88,0.29 q -0.89,0.92 1.62,0.57 3.23,-0.45 3.91,2.34 a 1.13,1.18 54.4 0 1 -0.17,0.92 q -2.28,3.31 -6.17,1.27 -1.66,-0.87 -0.77,-2.46 0.29,-0.5 0.3,-0.91 l 0.21,-5.01 a 1.2,1.02 74.3 0 1 0.38,-0.83 q 2.31,-1.96 5.58,-1.34 a 0.94,0.63 3.8 0 1 0.72,0.55 q 0.06,0.29 -0.25,0.47 a 0.61,0.85 70.8 0 0 -0.42,0.6 z m -1.58,1 a 1.64,1.64 0 0 0 -1.64,-1.64 1.64,1.64 0 0 0 -1.64,1.64 1.64,1.64 0 0 0 1.64,1.64 1.64,1.64 0 0 0 1.64,-1.64 z m 0.8998,5.927 a 1.59,2.36 89.2 0 0 -2.382,-1.5568 1.59,2.36 89.2 0 0 -2.3376,1.6228 1.59,2.36 89.2 0 0 2.382,1.5568 1.59,2.36 89.2 0 0 2.3376,-1.6228 z"
     id="path2596" />
  <path
     fill="#000000"
     d="m 122.41563,65.890077 q -0.96,0.8 -0.31,4.69 0.28,1.65 -0.72,1.38 a 0.62,0.77 4.7 0 1 -0.47,-0.69 l -0.22,-6.39 a 0.44,0.5 0.9 0 1 0.47,-0.52 l 1.2,0.1 a 1.93,0.95 18.9 0 0 0.94,-0.12 q 1.72,-0.82 2.83,0.24 0.7,0.66 0.84,2.24 0.2,2.21 0.3,4.44 a 0.92,0.65 80.2 0 1 -0.38,0.8 q -0.39,0.18 -0.72,-0.1 a 0.73,1.26 10.5 0 1 -0.32,-0.89 q 0,-1.66 0,-3.32 0,-1.53 -0.56,-2.19 -1.02,-1.2 -2.88,0.33 z"
     id="path2598" />
  <path
     fill="#000000"
     d="m 130.77563,69.300077 q 1.22,3.01 4.53,1.23 1.13,-0.61 0.85,0.22 -0.09,0.26 -0.36,0.44 -2.72,1.85 -4.76,0.33 -1.66,-1.23 -1.84,-3.48 -0.22,-2.73 2.6,-3.77 3.91,-1.45 4.73,2.58 a 0.83,0.77 67.5 0 1 -0.3,0.81 q -1.07,0.78 -2.61,0.39 -1.55,-0.39 -2.64,0.45 a 0.7,0.67 60.4 0 0 -0.2,0.8 z m 3.39,-4.01 q -2.48,-0.82 -3.23,1.13 a 0.38,0.42 11.5 0 0 0.34,0.57 h 3.16 a 0.59,0.62 2.1 0 0 0.59,-0.58 q 0.07,-0.81 -0.86,-1.12 z"
     id="path2600" />
  <path
     fill="#000000"
     d="m 146.05563,69.820077 q 0.42,1.38 0.79,0.05 l 1.39,-5.06 a 0.66,1.14 6.5 0 1 0.55,-0.74 q 0.3,-0.1 0.6,0.03 a 0.53,0.65 21.2 0 1 0.25,0.77 l -2.17,6.42 a 0.75,1.05 8.8 0 1 -0.64,0.66 q -1.3,0.26 -2.17,-2.6 -0.33,-1.1 -0.3,-2.24 0.02,-0.77 -0.45,-0.93 a 0.42,0.54 14.5 0 0 -0.58,0.45 l -0.88,4.46 a 1.21,1 83.5 0 1 -0.5,0.77 q -1.53,0.92 -1.9,-1.22 -0.19,-1.07 -1.94,-5.4 a 1.16,0.74 57.3 0 1 0,-0.93 q 0.34,-0.53 0.97,-0.08 0.33,0.23 0.47,0.72 0.72,2.42 1.31,4.88 0.39,1.63 0.81,0.06 l 1.38,-5.14 q 0.69,-2.55 1.44,-0.07 z"
     id="path2602" />
  <path
     fill="#000000"
     d="m 156.78563,69.290077 q 1.35,3.06 4.51,1.23 a 0.55,0.91 48.5 0 1 0.66,-0.12 q 0.42,0.16 -0.15,0.61 -2.47,1.94 -4.58,0.65 -1.49,-0.91 -1.88,-2.77 -0.42,-2.07 0.9,-3.57 1.3,-1.49 3.26,-1.35 2.39,0.17 3,2.86 a 0.85,0.75 66.1 0 1 -0.27,0.84 q -1.05,0.82 -2.63,0.4 -1.54,-0.41 -2.63,0.43 a 0.67,0.65 59.5 0 0 -0.19,0.79 z m 0.28,-3.28 a 0.59,0.59 0 0 0 0.41,0.86 q 4.12,0.78 3.31,-1.04 a 1.31,1.14 1.1 0 0 -0.7,-0.63 q -2.14,-0.79 -3.02,0.81 z"
     id="path2604" />
  <path
     fill="#000000"
     d="m 169.77563,69.310077 q 1.22,2.99 4.63,1.37 1.57,-0.75 0.55,0.41 -0.16,0.18 -0.36,0.3 -4.09,2.41 -5.93,-1.37 -1.43,-2.94 0.69,-4.8 1.44,-1.28 3.15,-1.18 2.04,0.11 3.04,2.35 1.16,2.61 -2.44,1.69 -1.76,-0.45 -3.1,0.44 a 0.67,0.64 62.3 0 0 -0.23,0.79 z m 3.64,-3.79 q -1.47,-1.76 -3,0.12 -1.43,1.77 0.77,1.54 0.7,-0.07 1.33,-0.02 2.46,0.21 0.9,-1.64 z"
     id="path2606" />
  <path
     fill="#000000"
     d="m 179.77563,65.580077 a 2.65,2.65 0 0 0 -0.85,2.46 q 0.75,3.99 -0.53,3.88 a 0.54,0.69 1.1 0 1 -0.49,-0.65 q -0.08,-2.41 -0.06,-4.81 0,-0.11 -0.12,-1.23 -0.14,-1.4 1.66,-0.82 a 1.31,1.4 44.6 0 0 0.93,-0.04 q 1.8,-0.7 3.4,0.41 a 0.75,0.73 46.6 0 0 0.81,0.03 q 3.27,-2 4.27,0.91 0.27,0.8 0.3,2.75 0.01,1.41 0.15,2.8 a 0.67,0.59 79.6 0 1 -0.41,0.68 q -1.36,0.43 -0.98,-1.62 0.73,-3.89 -0.31,-4.69 -1.28,-0.98 -2.38,-0.23 -0.82,0.56 -0.92,1.77 -0.11,1.4 0.11,3.9 0.12,1.34 -0.99,0.91 a 0.73,0.82 8.9 0 1 -0.47,-0.73 l -0.05,-4.68 a 1,1.35 16.6 0 0 -0.32,-0.88 q -1.33,-1.38 -2.75,-0.12 z"
     id="path2608" />
  <path
     fill="#000000"
     d="m 192.84563,69.580077 q 0.91,2.86 4.54,1.14 1.61,-0.76 0.56,0.38 -0.15,0.17 -0.35,0.28 -4.07,2.39 -5.93,-1.36 -1.45,-2.94 0.62,-4.77 1.43,-1.28 3.31,-1.2 2.48,0.11 2.89,2.98 a 0.66,0.65 75 0 1 -0.4,0.71 q -1.4,0.55 -3.8,0.17 a 1.29,1.3 85.7 0 0 -1.44,1.67 z m 3.31,-4.27 q -2.27,-0.8 -3.28,1.01 a 0.42,0.41 20.6 0 0 0.28,0.59 q 1.72,0.46 3.47,0.05 a 0.54,0.6 78.1 0 0 0.46,-0.63 q -0.13,-0.74 -0.93,-1.02 z"
     id="path2610" />
  <path
     fill="#000000"
     d="m 204.82563,65.230077 q -1.31,-0.34 -2.15,0.53 -0.56,0.58 -0.57,1.83 -0.02,1.62 -0.08,3.24 -0.06,1.68 -1.02,0.8 a 0.7,1.28 10.7 0 1 -0.28,-0.86 v -5.88 a 0.4,0.52 1.9 0 1 0.44,-0.53 l 1.2,0.1 a 1.93,0.95 18.9 0 0 0.94,-0.12 q 1.69,-0.8 2.81,0.23 0.72,0.67 0.86,2.26 0.19,2.09 0.3,4.19 a 0.88,0.77 76.3 0 1 -0.4,0.77 q -1.5,0.82 -1.05,-1.97 0.33,-2.06 -0.35,-3.96 a 1.03,0.93 86.1 0 0 -0.65,-0.63 z"
     id="path2612" />
  <path
     fill="#000000"
     d="m 34.565631,80.450077 q 0.46,0.26 1.04,0.22 a 0.69,1.2 75.1 0 1 0.88,0.24 q 0.65,0.69 -0.63,0.92 -1.91,0.34 -1.61,2.26 a 0.9,0.7 70.6 0 1 -0.27,0.81 q -0.94,0.64 -1.44,-0.36 a 0.79,1.42 29.3 0 1 0,-0.94 q 0.61,-1.98 -1.95,-1.7 -1.73,0.18 -3.88,0.18 a 0.79,0.79 0 0 1 -0.72,-1.1 q 2.25,-5.09 5.32,-9.95 0.92,-1.46 2.53,-0.85 a 0.75,0.76 11 0 1 0.48,0.72 l -0.11,8.75 a 0.67,0.98 10.4 0 0 0.36,0.8 z m -2.76,-7.45 -3.72,6.88 a 0.38,0.39 20.7 0 0 0.25,0.57 q 1.88,0.43 3.74,-0.05 a 0.69,0.54 85.4 0 0 0.42,-0.63 l 0.03,-6.53 q 0,-1.58 -0.72,-0.24 z"
     id="path2628" />
  <path
     fill="#000000"
     d="m 274.50563,82.640077 q 0.45,3.02 -1.65,2.1 a 0.56,0.65 17.8 0 1 -0.3,-0.71 q 0.61,-2.76 -2.74,-2.16 -1.21,0.21 -3.01,0.21 a 0.85,0.81 13.3 0 1 -0.78,-1.19 l 5.37,-10.07 a 1.26,1.15 3.7 0 1 0.74,-0.59 q 2.39,-0.72 2.27,1.77 -0.05,1.07 -0.04,1.17 0.02,3.36 -0.06,6.72 a 0.57,0.58 5.2 0 0 0.48,0.58 q 3.73,0.62 0.12,1.55 a 0.55,0.55 0 0 0 -0.4,0.62 z m -2.62,-9.79 -3.8,7.03 a 0.38,0.39 20.7 0 0 0.25,0.57 q 1.88,0.43 3.74,-0.05 a 0.65,0.59 83.8 0 0 0.45,-0.62 l -0.01,-6.75 q 0,-1.34 -0.63,-0.18 z"
     id="path2630" />
  <path
     fill="#ffffff"
     d="m 31.805631,73.000077 q 0.72,-1.34 0.72,0.24 l -0.03,6.53 a 0.69,0.54 85.4 0 1 -0.42,0.63 q -1.86,0.48 -3.74,0.05 a 0.38,0.39 20.7 0 1 -0.25,-0.57 z"
     id="path2634" />
  <path
     fill="#ffffff"
     d="m 271.88563,72.850077 q 0.63,-1.16 0.63,0.18 l 0.01,6.75 a 0.65,0.59 83.8 0 1 -0.45,0.62 q -1.86,0.48 -3.74,0.05 a 0.38,0.39 20.7 0 1 -0.25,-0.57 z"
     id="path2636" />
  <path
     fill="#000000"
     d="m 165.30563,101.21008 q 2.78,-2.100003 4.87,-0.42 1.38,1.1 1.58,3.71 0.24,2.99 0.07,6.01 a 0.68,0.6 88.2 0 1 -0.52,0.63 q -0.61,0.1 -1.08,-0.22 a 0.7,0.94 16.9 0 1 -0.3,-0.84 q 0.4,-3 0.04,-6 -0.18,-1.49 -1,-2.05 -1.18,-0.8 -2.72,0.27 -1.38,0.95 -1.39,2.7 l -0.04,5.52 a 0.62,0.55 88.5 0 1 -0.51,0.6 q -0.37,0.04 -0.7,-0.09 a 0.7,0.86 8.8 0 1 -0.44,-0.76 q -0.11,-6.84 -0.06,-13.690003 0.01,-1.81 1.23,-1.4 a 0.69,0.79 7.8 0 1 0.47,0.71 l 0.1,5.120003 q 0.01,0.49 0.4,0.2 z"
     id="path2638" />
  <path
     fill="#ffffff"
     d="m 54.355631,136.55008 a 0.53,0.53 0 0 1 -0.53,0.53 H 7.8856314 a 0.53,0.53 0 0 1 -0.53,-0.53 V 98.590077 a 0.53,0.53 0 0 1 0.53,-0.53 H 53.825631 a 0.53,0.53 0 0 1 0.53,0.53 z m -21.12,-19.77 q 0.13,-0.39 0.49,-0.65 0.54,-0.39 0.69,-0.68 1.28,-2.4 -0.21,-4.01 -1.15,-1.24 -3.13,-1.45 -2.21,-0.24 -3.53,1.28 -1.53,1.75 0.28,1.37 0.35,-0.08 0.87,-0.4 1.68,-1.04 3.42,-0.11 a 1.06,1.11 7.9 0 1 0.54,0.75 q 0.78,4.03 -3.8,3.74 a 0.61,0.53 6 0 0 -0.62,0.44 q -0.22,1.31 1.3,1.17 1.2,-0.11 1.65,-0.01 3.15,0.71 2.04,3.84 a 1.38,1.27 86.6 0 1 -0.6,0.73 q -2.06,1.2 -4.96,-0.27 -1.53,-0.78 -1.2,0.59 a 1.45,1.22 14.9 0 0 0.54,0.77 q 2.58,1.83 5.25,0.97 2.18,-0.71 3.1,-2.72 1.24,-2.7 -1.76,-4.61 a 0.75,0.57 26.7 0 1 -0.36,-0.74 z"
     id="path2640" />
  <path
     fill="#ffffff"
     d="m 294.35563,136.55008 a 0.53,0.53 0 0 1 -0.53,0.53 h -45.94 a 0.53,0.53 0 0 1 -0.53,-0.53 V 98.590077 a 0.53,0.53 0 0 1 0.53,-0.53 h 45.94 a 0.53,0.53 0 0 1 0.53,0.53 z m -21.12,-19.77 q 0.13,-0.39 0.49,-0.65 0.54,-0.39 0.69,-0.68 1.28,-2.4 -0.21,-4.01 -1.15,-1.24 -3.13,-1.45 -2.21,-0.24 -3.53,1.28 -1.53,1.75 0.28,1.37 0.35,-0.08 0.87,-0.41 1.67,-1.04 3.42,-0.1 a 1.06,1.11 7.9 0 1 0.54,0.75 q 0.78,4.03 -3.8,3.74 a 0.61,0.53 6 0 0 -0.62,0.44 q -0.22,1.31 1.3,1.17 1.2,-0.11 1.65,-0.01 3.15,0.71 2.04,3.84 a 1.38,1.27 86.6 0 1 -0.6,0.73 q -2.06,1.2 -4.96,-0.27 -1.53,-0.78 -1.2,0.59 a 1.45,1.22 14.9 0 0 0.54,0.77 q 2.58,1.83 5.25,0.97 2.18,-0.71 3.1,-2.72 1.24,-2.7 -1.76,-4.61 a 0.75,0.57 26.7 0 1 -0.36,-0.74 z"
     id="path2642" />
  <path
     fill="#000000"
     d="m 132.30563,101.20008 q 1.66,-1.260003 3.56,-1.03 1.7,0.2 2.71,1.89 2.02,3.36 0.09,6.83 -2.31,4.17 -6.18,1.02 -0.43,-0.36 -0.46,0.17 l -0.2,4.25 a 0.88,0.56 86.4 0 1 -0.41,0.74 q -0.42,0.15 -0.84,-0.04 a 0.7,0.88 9.5 0 1 -0.42,-0.76 v -13.37 a 0.75,0.66 82.8 0 1 0.48,-0.7 q 1.03,-0.320003 1.23,0.82 a 0.29,0.27 66.1 0 0 0.44,0.18 z m 2.274,8.3083 a 2.92,3.91 1.7 0 0 3.0347,-3.8217 2.92,3.91 1.7 0 0 -2.8027,-3.9949 2.92,3.91 1.7 0 0 -3.0347,3.8217 2.92,3.91 1.7 0 0 2.8027,3.9949 z"
     id="path2644" />
  <path
     fill="#000000"
     d="m 148.62563,110.17008 q -2.62,1.68 -4.68,0.35 -1.55,-1 -1.77,-3.64 -0.19,-2.15 -0.1,-4.32 0,-0.2 -0.08,-1.46 -0.11,-1.490003 1.35,-0.91 a 0.71,0.78 8.7 0 1 0.46,0.7 q 0.07,2.17 0.06,4.34 0,2.06 0.6,3.09 1.34,2.33 3.96,0.04 a 1.15,1.13 69.9 0 0 0.38,-0.83 q 0.16,-4.89 0.05,-5.95 -0.22,-2.090003 1.49,-1.4 a 0.65,0.79 9.2 0 1 0.41,0.7 v 9.14 a 1.11,0.73 79.1 0 1 -0.34,0.83 q -0.87,0.64 -1.25,-0.48 a 0.37,0.36 64.6 0 0 -0.54,-0.2 z"
     id="path2646" />
  <path
     fill="#000000"
     d="m 158.64563,108.28008 q 0.17,-1.58 -1.73,-2.01 -2.7,-0.62 -3.09,-2.66 -0.37,-1.91 1.32,-3.01 1.72,-1.130003 3.98,-0.15 0.47,0.2 0.73,0.52 0.64,0.79 -0.56,0.86 -0.33,0.02 -0.82,-0.21 -1.3,-0.59 -2.56,0.27 -1.9,1.31 0.25,2.38 0.85,0.42 1.73,0.78 1.09,0.44 1.64,0.94 2.57,2.39 -0.74,4.53 -2.66,1.71 -5.08,-0.69 -0.32,-0.32 -0.4,-0.73 -0.27,-1.43 1.04,-0.52 1.98,1.37 3.75,0.45 a 0.94,1.03 78.3 0 0 0.54,-0.75 z"
     id="path2648" />
  <path
     fill="#000000"
     d="m 33.595631,117.52008 q 3,1.91 1.76,4.61 -0.92,2.01 -3.1,2.72 -2.67,0.86 -5.25,-0.97 a 1.45,1.22 14.9 0 1 -0.54,-0.77 q -0.33,-1.37 1.2,-0.59 2.9,1.47 4.96,0.27 a 1.38,1.27 86.6 0 0 0.6,-0.73 q 1.11,-3.13 -2.04,-3.84 -0.45,-0.1 -1.65,0.01 -1.52,0.14 -1.3,-1.17 a 0.61,0.53 6 0 1 0.62,-0.44 q 4.58,0.29 3.8,-3.74 a 1.06,1.11 7.9 0 0 -0.54,-0.75 q -1.74,-0.93 -3.42,0.11 -0.52,0.32 -0.87,0.4 -1.81,0.38 -0.28,-1.37 1.32,-1.52 3.53,-1.28 1.98,0.21 3.13,1.45 1.49,1.61 0.21,4.01 -0.15,0.29 -0.69,0.68 -0.36,0.26 -0.49,0.65 a 0.75,0.57 26.7 0 0 0.36,0.74 z"
     id="path2652" />
  <path
     fill="#000000"
     d="m 273.59563,117.52008 q 3,1.91 1.76,4.61 -0.92,2.01 -3.1,2.72 -2.67,0.86 -5.25,-0.97 a 1.45,1.22 14.9 0 1 -0.54,-0.77 q -0.33,-1.37 1.2,-0.59 2.9,1.47 4.96,0.27 a 1.38,1.27 86.6 0 0 0.6,-0.73 q 1.11,-3.13 -2.04,-3.84 -0.45,-0.1 -1.65,0.01 -1.52,0.14 -1.3,-1.17 a 0.61,0.53 6 0 1 0.62,-0.44 q 4.58,0.29 3.8,-3.74 a 1.06,1.11 7.9 0 0 -0.54,-0.75 q -1.75,-0.94 -3.42,0.1 -0.52,0.33 -0.87,0.41 -1.81,0.38 -0.28,-1.37 1.32,-1.52 3.53,-1.28 1.98,0.21 3.13,1.45 1.49,1.61 0.21,4.01 -0.15,0.29 -0.69,0.68 -0.36,0.26 -0.49,0.65 a 0.75,0.57 26.7 0 0 0.36,0.74 z"
     id="path2654" />
  <path
     fill="#3d6c95"
     d="m 209.78563,144.14008 q -57.21,-0.11 -114.429999,0.04 -6.38,0.01 -13.24,-0.38 a 0.54,0.54 0 0 1 -0.51,-0.54 v -14.29 a 0.63,0.63 0 0 1 0.62,-0.63 q 25.129999,-0.33 49.379999,-0.14 39.09,0.3 78.19,-0.18 a 0.51,0.51 0 0 0 0.51,-0.51 l 0.05,-6.67 q 0.01,-1.13 0.8,-0.34 l 15.2,15.21 a 0.52,0.51 45.4 0 1 0,0.73 l -15.33,15.23 q -0.39,0.39 -0.42,-0.14 l -0.33,-6.9 a 0.51,0.49 88.8 0 0 -0.49,-0.49 z m 2.33,-1.25 0.45,3.94 q 0.05,0.5 0.4,0.16 l 10.35,-10.26 a 0.84,0.83 45 0 0 -0.01,-1.19 l -10.35,-10.35 q -0.41,-0.41 -0.46,0.14 l -0.39,3.85 a 0.88,0.99 3.2 0 1 -0.89,0.89 q -16.49,0.16 -32.36,-0.33 -16.13,-0.5 -32.25,0.09 -15.33,0.56 -63.189999,-0.18 a 0.5,0.5 0 0 0 -0.51,0.5 l -0.04,11.49 a 0.76,0.76 0 0 0 0.77,0.76 q 14.93,-0.1 28.939999,-0.08 0.07,0 10.56,-0.16 6.23,-0.1 15.22,0.17 13.26,0.39 61.5,-0.25 3.86,-0.05 11.68,0.29 a 0.59,0.61 87.8 0 1 0.58,0.52 z"
     id="path2656" />
  <path
     fill="#5b9bd5"
     d="m 211.53563,142.37008 q -7.82,-0.34 -11.68,-0.29 -48.24,0.64 -61.5,0.25 -8.99,-0.27 -15.22,-0.17 -10.49,0.16 -10.56,0.16 -14.009999,-0.02 -28.939999,0.08 a 0.76,0.76 0 0 1 -0.77,-0.76 l 0.04,-11.49 a 0.5,0.5 0 0 1 0.51,-0.5 q 47.859999,0.74 63.189999,0.18 16.12,-0.59 32.25,-0.09 15.87,0.49 32.36,0.33 a 0.88,0.99 3.2 0 0 0.89,-0.89 l 0.39,-3.85 q 0.05,-0.55 0.46,-0.14 l 10.35,10.35 a 0.84,0.83 45 0 1 0.01,1.19 l -10.35,10.26 q -0.35,0.34 -0.4,-0.16 l -0.45,-3.94 a 0.59,0.61 87.8 0 0 -0.58,-0.52 z"
     id="path2658" />
  <path
     fill="#ffffff"
     d="m 54.355631,176.50008 a 0.58,0.58 0 0 1 -0.58,0.58 H 7.9356314 a 0.58,0.58 0 0 1 -0.58,-0.58 v -37.84 a 0.58,0.58 0 0 1 0.58,-0.58 H 53.775631 a 0.58,0.58 0 0 1 0.58,0.58 z m -24.86,-13.37 q 3.41,-4.01 4.17,-4.99 1.53,-1.95 1.35,-4.21 -0.17,-2.21 -2.12,-3.33 -2.88,-1.64 -5.69,1.12 a 0.62,0.84 52.1 0 0 -0.24,0.84 q 0.24,0.5 0.96,0.1 4.32,-2.43 4.83,1.18 0.25,1.73 -0.9,3.61 -1.78,2.94 -4.33,5.33 -2.44,2.3 0.92,2.3 h 6.41 a 1.1,0.74 10.9 0 0 0.84,-0.36 q 0.25,-0.39 0,-0.78 a 0.67,1.1 80.9 0 0 -0.85,-0.35 l -5.18,-0.06 q -0.51,0 -0.17,-0.4 z"
     id="path2660" />
  <path
     fill="#ffffff"
     d="m 294.35563,176.50008 a 0.58,0.58 0 0 1 -0.58,0.58 h -45.84 a 0.58,0.58 0 0 1 -0.58,-0.58 v -37.84 a 0.58,0.58 0 0 1 0.58,-0.58 h 45.84 a 0.58,0.58 0 0 1 0.58,0.58 z m -24.86,-13.37 q 3.41,-4.01 4.17,-4.99 1.53,-1.95 1.35,-4.21 -0.17,-2.21 -2.12,-3.33 -2.88,-1.64 -5.69,1.12 a 0.62,0.84 52.1 0 0 -0.24,0.84 q 0.24,0.5 0.96,0.1 4.32,-2.43 4.83,1.18 0.25,1.73 -0.9,3.61 -1.78,2.94 -4.33,5.33 -2.45,2.3 0.91,2.3 h 6.42 a 1.1,0.74 10.9 0 0 0.84,-0.36 q 0.25,-0.39 0,-0.78 a 0.67,1.1 80.9 0 0 -0.85,-0.35 l -5.18,-0.06 q -0.51,0 -0.17,-0.4 z"
     id="path2662" />
  <path
     fill="#000000"
     d="m 29.665631,163.53008 5.18,0.06 a 0.67,1.1 80.9 0 1 0.85,0.35 q 0.25,0.39 0,0.78 a 1.1,0.74 10.9 0 1 -0.84,0.36 h -6.41 q -3.36,0 -0.92,-2.3 2.55,-2.39 4.33,-5.33 1.15,-1.88 0.9,-3.61 -0.51,-3.61 -4.83,-1.18 -0.72,0.4 -0.96,-0.1 a 0.62,0.84 52.1 0 1 0.24,-0.84 q 2.81,-2.76 5.69,-1.12 1.95,1.12 2.12,3.33 0.18,2.26 -1.35,4.21 -0.76,0.98 -4.17,4.99 -0.34,0.4 0.17,0.4 z"
     id="path2664" />
  <path
     fill="#000000"
     d="m 269.66563,163.53008 5.18,0.06 a 0.67,1.1 80.9 0 1 0.85,0.35 q 0.25,0.39 0,0.78 a 1.1,0.74 10.9 0 1 -0.84,0.36 h -6.42 q -3.36,0 -0.91,-2.3 2.55,-2.39 4.33,-5.33 1.15,-1.88 0.9,-3.61 -0.51,-3.61 -4.83,-1.18 -0.72,0.4 -0.96,-0.1 a 0.62,0.84 52.1 0 1 0.24,-0.84 q 2.81,-2.76 5.69,-1.12 1.95,1.12 2.12,3.33 0.18,2.26 -1.35,4.21 -0.76,0.98 -4.17,4.99 -0.34,0.4 0.17,0.4 z"
     id="path2666" />
  <path
     fill="#ffffff"
     d="m 54.355631,216.27008 a 0.81,0.81 0 0 1 -0.81,0.81 H 8.1656314 a 0.81,0.81 0 0 1 -0.81,-0.81 v -37.4 a 0.81,0.81 0 0 1 0.81,-0.81 H 53.545631 a 0.81,0.81 0 0 1 0.81,0.81 z m -23.32,-23.38 0.07,9.57 a 1.21,1.24 4.8 0 1 -1.43,1.23 q -2.54,-0.48 -2.18,0.87 a 0.62,0.74 84.5 0 0 0.68,0.47 q 2.96,0.1 5.93,0.11 2.48,0 1.4,-1.37 a 0.69,0.8 64.5 0 0 -0.81,-0.22 q -2.33,0.69 -2.17,-1.59 0.08,-1.17 0.08,-1.26 0,-4.5 0,-9.78 0,-1.62 -1.22,-0.74 l -3.62,2.61 a 0.87,0.74 67.7 0 0 -0.28,0.86 q 0.26,1.15 1.3,0.11 0.79,-0.8 1.78,-1.2 a 0.36,0.34 78.7 0 1 0.47,0.33 z"
     id="path2668" />
  <path
     fill="#ffffff"
     d="m 294.35563,216.27008 a 0.81,0.81 0 0 1 -0.81,0.81 h -45.38 a 0.81,0.81 0 0 1 -0.81,-0.81 v -37.4 a 0.81,0.81 0 0 1 0.81,-0.81 h 45.38 a 0.81,0.81 0 0 1 0.81,0.81 z m -23.32,-23.38 0.07,9.57 a 1.21,1.24 4.8 0 1 -1.43,1.23 q -2.54,-0.48 -2.18,0.87 a 0.62,0.74 84.5 0 0 0.68,0.47 q 2.96,0.1 5.93,0.11 2.48,0 1.4,-1.37 a 0.69,0.8 64.5 0 0 -0.81,-0.22 q -2.33,0.69 -2.17,-1.59 0.08,-1.17 0.08,-1.26 0,-4.5 0,-9.78 a 0.83,0.83 0 0 0 -1.22,-0.74 q -2.28,1.21 -3.84,2.84 -0.62,0.64 0.03,1.04 a 0.58,0.96 51 0 0 0.85,-0.12 l 2.15,-1.35 q 0.45,-0.28 0.46,0.3 z"
     id="path2670" />
  <path
     fill="#000000"
     d="m 30.565631,192.56008 q -0.99,0.4 -1.78,1.2 -1.04,1.04 -1.3,-0.11 a 0.87,0.74 67.7 0 1 0.28,-0.86 l 3.62,-2.61 q 1.22,-0.88 1.22,0.74 0,5.28 0,9.78 0,0.09 -0.08,1.26 -0.16,2.28 2.17,1.59 a 0.69,0.8 64.5 0 1 0.81,0.22 q 1.08,1.37 -1.4,1.37 -2.97,-0.01 -5.93,-0.11 a 0.62,0.74 84.5 0 1 -0.68,-0.47 q -0.36,-1.35 2.18,-0.87 a 1.21,1.24 4.8 0 0 1.43,-1.23 l -0.07,-9.57 a 0.36,0.34 78.7 0 0 -0.47,-0.33 z"
     id="path2672" />
  <path
     fill="#000000"
     d="m 270.57563,192.59008 -2.15,1.35 a 0.58,0.96 51 0 1 -0.85,0.12 q -0.65,-0.4 -0.03,-1.04 1.56,-1.63 3.84,-2.84 a 0.83,0.83 0 0 1 1.22,0.74 q 0,5.28 0,9.78 0,0.09 -0.08,1.26 -0.16,2.28 2.17,1.59 a 0.69,0.8 64.5 0 1 0.81,0.22 q 1.08,1.37 -1.4,1.37 -2.97,-0.01 -5.93,-0.11 a 0.62,0.74 84.5 0 1 -0.68,-0.47 q -0.36,-1.35 2.18,-0.87 a 1.21,1.24 4.8 0 0 1.43,-1.23 l -0.07,-9.57 q -0.01,-0.58 -0.46,-0.3 z"
     id="path2674" />
  <path
     fill="#000000"
     d="m 4.3056314,249.28008 a 1.72,1.72 0 0 0 1.07,2.22 q 1.92,0.65 3.47,1.83 1.7599996,1.35 1.8399996,3.22 0.1,2.39 -2.1399996,3.72 -3.29,1.95 -6.72,-0.04 -0.62,-0.36 -0.77,-0.92 -0.23,-0.85 0.5,-1.09 a 1.28,0.74 41.9 0 1 0.9,0.19 q 1.42,0.83 2.99,0.67 1.5,-0.16 2.18,-1.42 1.05,-1.98 -1.96,-2.89 -2.59,-0.79 -3.65,-2.68 -1.07,-1.9 0.21,-3.94 2.08,-3.35 6.6,-1.46 a 1.34,1.48 89.5 0 1 0.71,0.63 q 1.3399996,2.53 -1.73,1.11 -2.71,-1.27 -3.5,0.85 z"
     id="path2676" />
  <path
     fill="#000000"
     d="m 22.355631,246.59008 q 0.35,1.8 -2.41,1.34 a 1.32,1.3 4.9 0 0 -1.54,1.28 l -0.05,11.17 a 0.6,0.59 85.5 0 1 -0.5,0.59 q -2.52,0.38 -2.43,-1.33 0.25,-4.65 0.17,-10.09 a 1.56,1.56 0 0 0 -1.68,-1.53 q -2.87,0.22 -2.43,-1.41 a 0.75,0.65 6.1 0 1 0.69,-0.48 l 9.57,-0.05 a 0.62,0.62 0 0 1 0.61,0.51 z"
     id="path2678" />
  <path
     fill="#000000"
     d="m 23.055631,260.90008 a 0.46,0.47 18.1 0 1 -0.29,-0.59 l 4.51,-13.43 a 0.9,1.14 4.1 0 1 0.61,-0.67 q 1.55,-0.51 3.02,0.14 a 1.26,1.04 88.5 0 1 0.61,0.7 l 4.5,13.03 a 0.61,0.62 74.1 0 1 -0.45,0.8 q -3.09,0.65 -2.81,-1.21 a 1.14,1.27 4.3 0 0 -1.12,-1.45 l -4.99,0.06 a 0.49,0.66 2 0 0 -0.49,0.61 q -0.18,2.89 -3.1,2.01 z m 5.74,-11.14 -1.72,5.54 a 0.38,0.49 10.6 0 0 0.32,0.62 l 3.68,-0.03 a 0.45,0.39 80.6 0 0 0.35,-0.57 l -1.69,-5.57 q -0.46,-1.53 -0.94,0.01 z"
     id="path2680" />
  <path
     fill="#000000"
     d="m 39.685631,259.66008 a 3.9,3.93 6.1 0 1 -1.49,-1.86 q -1.85,-4.83 0.29,-8.52 1.41,-2.42 3.85,-3.1 2.83,-0.79 5.34,1.37 a 0.92,0.82 28.7 0 1 0.3,0.84 q -0.24,0.96 -1.13,0.43 -0.67,-0.39 -0.92,-0.47 -4.37,-1.36 -5.32,3.23 -0.37,1.81 -0.08,3.84 0.32,2.23 1.78,3.15 1.77,1.12 4.17,0.24 2.51,-0.9 1.16,1.01 -0.33,0.46 -0.84,0.68 -3.51,1.54 -7.11,-0.84 z"
     id="path2682" />
  <path
     fill="#000000"
     d="m 53.145631,254.64008 -0.04,5.49 a 0.93,0.91 84.1 0 1 -0.71,0.89 q -2.54,0.55 -2.37,-1.42 0.08,-0.97 0.08,-1.05 0,-5.75 0,-11.76 a 0.69,0.7 85 0 1 0.58,-0.68 q 3.02,-0.52 2.42,2.47 -0.26,1.31 0.14,3.26 0.12,0.56 0.44,0.1 l 3.72,-5.12 a 0.71,1.66 26.1 0 1 0.72,-0.62 q 1.19,-0.43 2.3,0.12 a 0.45,0.45 0 0 1 0.15,0.68 l -4.23,5.47 a 0.68,0.73 46.7 0 0 -0.05,0.82 l 4.51,6.76 a 0.63,0.63 0 0 1 -0.41,0.97 q -2.27,0.46 -3.2,-1.27 -1.54,-2.85 -3.69,-5.24 -0.35,-0.39 -0.36,0.13 z"
     id="path2684" />
  <path
     fill="#000000"
     d="m 244.30563,249.28008 a 1.72,1.72 0 0 0 1.07,2.22 q 1.92,0.65 3.47,1.83 1.76,1.35 1.84,3.22 0.1,2.39 -2.14,3.72 -3.29,1.95 -6.72,-0.04 -0.62,-0.36 -0.77,-0.92 -0.23,-0.85 0.5,-1.09 a 1.28,0.74 41.9 0 1 0.9,0.19 q 1.42,0.83 2.99,0.67 1.5,-0.16 2.18,-1.42 1.05,-1.98 -1.96,-2.89 -2.59,-0.79 -3.65,-2.68 -1.07,-1.9 0.21,-3.94 2.08,-3.35 6.6,-1.46 a 1.34,1.48 89.5 0 1 0.71,0.63 q 1.34,2.53 -1.73,1.11 -2.71,-1.27 -3.5,0.85 z"
     id="path2686" />
  <path
     fill="#000000"
     d="m 262.35563,246.59008 q 0.35,1.8 -2.41,1.34 a 1.32,1.3 4.9 0 0 -1.54,1.28 l -0.05,11.17 a 0.6,0.59 85.5 0 1 -0.5,0.59 q -2.52,0.38 -2.43,-1.33 0.25,-4.65 0.17,-10.09 a 1.56,1.56 0 0 0 -1.68,-1.53 q -2.87,0.22 -2.43,-1.41 a 0.75,0.65 6.1 0 1 0.69,-0.48 l 9.57,-0.05 a 0.62,0.62 0 0 1 0.61,0.51 z"
     id="path2688" />
  <path
     fill="#000000"
     d="m 263.05563,260.90008 a 0.46,0.47 18.1 0 1 -0.29,-0.59 l 4.51,-13.43 a 0.9,1.14 4.1 0 1 0.61,-0.67 q 1.55,-0.51 3.02,0.14 a 1.26,1.04 88.5 0 1 0.61,0.7 l 4.5,13.03 a 0.61,0.62 74.1 0 1 -0.45,0.8 q -3.09,0.65 -2.81,-1.21 a 1.14,1.27 4.3 0 0 -1.12,-1.45 l -4.99,0.06 a 0.49,0.66 2 0 0 -0.49,0.61 q -0.18,2.89 -3.1,2.01 z m 5.74,-11.14 -1.72,5.54 a 0.38,0.49 10.6 0 0 0.32,0.62 l 3.68,-0.03 a 0.45,0.39 80.6 0 0 0.35,-0.57 l -1.69,-5.57 q -0.46,-1.53 -0.94,0.01 z"
     id="path2690" />
  <path
     fill="#000000"
     d="m 279.68563,259.66008 a 3.9,3.93 6.1 0 1 -1.49,-1.86 q -1.85,-4.83 0.29,-8.52 1.41,-2.42 3.85,-3.1 2.83,-0.79 5.34,1.37 a 0.92,0.82 28.7 0 1 0.3,0.84 q -0.24,0.96 -1.13,0.43 -0.67,-0.39 -0.92,-0.47 -4.37,-1.36 -5.32,3.23 -0.37,1.81 -0.08,3.84 0.32,2.23 1.78,3.15 1.77,1.12 4.17,0.24 2.51,-0.9 1.16,1.01 -0.33,0.46 -0.84,0.68 -3.51,1.54 -7.11,-0.84 z"
     id="path2692" />
  <path
     fill="#000000"
     d="m 293.14563,254.64008 -0.04,5.49 a 0.93,0.91 84.1 0 1 -0.71,0.89 q -2.54,0.55 -2.37,-1.42 0.08,-0.97 0.08,-1.05 0,-5.75 0,-11.76 a 0.69,0.7 85 0 1 0.58,-0.68 q 3.02,-0.52 2.42,2.47 -0.26,1.31 0.14,3.26 0.12,0.56 0.44,0.1 l 3.72,-5.12 a 0.71,1.66 26.1 0 1 0.72,-0.62 q 1.19,-0.43 2.3,0.12 a 0.45,0.45 0 0 1 0.15,0.68 l -4.23,5.47 a 0.68,0.73 46.7 0 0 -0.05,0.82 l 4.51,6.76 a 0.63,0.63 0 0 1 -0.41,0.97 q -2.27,0.46 -3.2,-1.27 -1.54,-2.85 -3.69,-5.24 -0.35,-0.39 -0.36,0.13 z"
     id="path2694" />
</svg>
