<?xml version="1.0" encoding="UTF-8" standalone="no"?>
<svg
   version="1.1"
   viewBox="0 0 301.72366 262.04984"
   id="svg5291"
   sodipodi:docname="stack-pop.svg"
   inkscape:version="1.1.2 (0a00cf5339, 2022-02-04)"
   width="301.72366"
   height="262.04984"
   xmlns:inkscape="http://www.inkscape.org/namespaces/inkscape"
   xmlns:sodipodi="http://sodipodi.sourceforge.net/DTD/sodipodi-0.dtd"
   xmlns="http://www.w3.org/2000/svg"
   xmlns:svg="http://www.w3.org/2000/svg">
  <defs
     id="defs5295" />
  <sodipodi:namedview
     id="namedview5293"
     pagecolor="#ffffff"
     bordercolor="#666666"
     borderopacity="1.0"
     inkscape:pageshadow="2"
     inkscape:pageopacity="0.0"
     inkscape:pagecheckerboard="0"
     showgrid="false"
     inkscape:zoom="0.15938415"
     inkscape:cx="-1389.7241"
     inkscape:cy="-458.01292"
     inkscape:window-width="1362"
     inkscape:window-height="729"
     inkscape:window-x="1920"
     inkscape:window-y="18"
     inkscape:window-maximized="1"
     inkscape:current-layer="svg5291"
     fit-margin-top="0"
     fit-margin-left="0"
     fit-margin-right="0"
     fit-margin-bottom="0" />
  <g
     stroke-width="2"
     fill="none"
     stroke-linecap="butt"
     id="g5149"
     transform="translate(-145.80121,-17.083535)">
    <path
       stroke="#808080"
       vector-effect="non-scaling-stroke"
       d="m 165.8,27.18 -0.12,-5.28 a 0.64,0.63 -7.8 0 1 0.49,-0.64 q 2.67,-0.64 1.6,-1.1 -0.33,-0.14 -1.06,-0.07 -1.22,0.1 -1.08,-0.87 a 1.17,0.6 -73.9 0 0 -0.17,-0.87 q -0.84,-0.9 -1.85,1.22 a 0.94,0.9 4.6 0 1 -0.6,0.49 q -1.2,0.31 0.57,1.12 a 1.14,1.13 -78 0 1 0.67,1.04 v 4.03 q 0,2.69 1.31,2.69 5.04,-0.02 0.74,-1.13 a 0.67,0.66 7 0 1 -0.5,-0.63"
       id="path5011" />
    <path
       stroke="#808080"
       vector-effect="non-scaling-stroke"
       d="m 179.16,24.5 a 4.58,4.58 0 0 0 -4.58,-4.58 4.58,4.58 0 0 0 -4.58,4.58 4.58,4.58 0 0 0 4.58,4.58 4.58,4.58 0 0 0 4.58,-4.58"
       id="path5013" />
    <path
       stroke="#808080"
       vector-effect="non-scaling-stroke"
       d="m 183.51,28.26 q 5.4,2.19 6.31,-2.56 0.47,-2.47 -0.65,-4.24 -1.62,-2.57 -5.16,-0.76 a 1.06,0.61 36.3 0 1 -0.82,-0.09 l -0.89,-0.45 a 0.41,0.35 -78.6 0 0 -0.5,0.4 l -0.05,11.69 a 0.81,0.65 -81.6 0 0 0.43,0.74 q 0.44,0.17 0.76,-0.09 0.31,-0.25 0.32,-0.9 0.02,-1.73 -0.15,-3.45 a 0.29,0.29 -80.8 0 1 0.4,-0.29"
       id="path5015" />
    <path
       stroke="#9fb7cd"
       vector-effect="non-scaling-stroke"
       d="m 171.7,61.46 -3.29,0.04 q -0.77,0.01 -0.23,0.55 l 7.89,7.89 a 0.6,0.6 90 0 0 0.86,0 l 7.89,-7.89 q 0.54,-0.54 -0.23,-0.55 l -3.27,-0.04 a 0.53,0.51 89.4 0 1 -0.51,-0.52 L 180.58,39.7 a 0.57,0.52 89.9 0 0 -0.51,-0.56 l -6.99,-0.1 a 0.87,0.82 -89.7 0 0 -0.83,0.87 l -0.06,21.02 a 0.53,0.49 -90 0 1 -0.49,0.53"
       id="path5017" />
    <path
       stroke="#808080"
       vector-effect="non-scaling-stroke"
       d="M 201.01,74.87 A 0.87,0.87 0 0 0 200.14,74 h -47.26 a 0.87,0.87 0 0 0 -0.87,0.87 v 159.26 a 0.87,0.87 0 0 0 0.87,0.87 h 47.26 a 0.87,0.87 0 0 0 0.87,-0.87 V 74.87"
       id="path5019" />
    <path
       stroke="#808080"
       vector-effect="non-scaling-stroke"
       d="m 233.22,81.54 q -6.28,-1.84 -4.97,5.21 0.69,3.68 3,2.25 1.58,-0.98 3.11,-0.39 a 0.33,0.31 10.2 0 0 0.44,-0.29 q -0.07,-5.04 0,-10.07 0.03,-1.83 -1.11,-1 a 0.94,0.79 72.1 0 0 -0.33,0.81 l 0.28,3.13 a 0.33,0.33 -84.7 0 1 -0.42,0.35"
       id="path5021" />
    <path
       stroke="#808080"
       vector-effect="non-scaling-stroke"
       d="m 247.87,77.53 a 0.47,0.47 0 0 0 -0.47,-0.47 h -0.42 a 0.47,0.47 0 0 0 -0.47,0.47 v 10.98 a 0.47,0.47 0 0 0 0.47,0.47 h 0.42 a 0.47,0.47 0 0 0 0.47,-0.47 V 77.53"
       id="path5023" />
    <path
       stroke="#808080"
       vector-effect="non-scaling-stroke"
       d="m 317.9712,77.6174 a 0.56,0.56 0 0 0 -0.562,-0.5581 l -0.4,0.0014 a 0.56,0.56 0 0 0 -0.558,0.562 l 0.0376,10.7799 a 0.56,0.56 0 0 0 0.562,0.5581 l 0.4,-0.0014 a 0.56,0.56 0 0 0 0.558,-0.562 l -0.0376,-10.7799"
       id="path5025" />
    <path
       stroke="#808080"
       vector-effect="non-scaling-stroke"
       d="m 261.14,80.06 q 0.5,-1.63 -0.89,-0.98 a 0.82,0.63 79.5 0 0 -0.37,0.73 q 0.02,0.74 -0.55,1.06 -0.47,0.26 -0.58,0.4 -0.43,0.57 0.32,0.81 a 0.84,0.6 10.8 0 1 0.58,0.61 l 0.1,3.06 q 0.11,3.18 1.31,3.19 4.38,0.05 0.97,-1.1 a 0.85,0.62 11.5 0 1 -0.58,-0.64 l -0.1,-4.52 a 0.7,0.55 -7.1 0 1 0.57,-0.58 q 3.38,-0.68 -0.19,-1.13 a 0.71,0.7 12.4 0 1 -0.59,-0.91"
       id="path5027" />
    <path
       stroke="#808080"
       vector-effect="non-scaling-stroke"
       d="m 280.29,87.19 -0.04,-4.39 a 0.67,0.63 -10.7 0 1 0.45,-0.62 q 3.22,-1.08 0.23,-1.33 a 0.57,0.53 -88.9 0 1 -0.49,-0.54 q -0.05,-1.5 -1.17,-1.18 a 0.73,0.55 83.4 0 0 -0.4,0.68 q 0.02,1.14 -1.16,1.37 -1.24,0.25 -0.03,0.63 1.64,0.51 1.14,2.46 -0.65,2.57 0.9,4.32 a 1.18,1.02 -19 0 0 0.85,0.34 q 3.8,-0.07 0.23,-1.11 a 0.7,0.66 7.7 0 1 -0.51,-0.63"
       id="path5029" />
    <path
       stroke="#808080"
       vector-effect="non-scaling-stroke"
       d="m 361.2,80.84 q -1.69,0.6 0.02,1.3 a 0.74,0.69 12.2 0 1 0.46,0.67 q -0.02,3.62 0.26,4.5 0.83,2.64 3.13,1.44 0.47,-0.24 -0.02,-0.46 l -1.15,-0.53 a 0.93,0.64 17.2 0 1 -0.55,-0.7 l 0.1,-4.51 a 0.57,0.44 3.4 0 1 0.61,-0.42 q 1.24,0.12 1.24,-0.58 a 0.59,0.44 -1.8 0 0 -0.62,-0.43 q -1.52,0.09 -1.53,-1.31 a 0.76,0.59 -83.5 0 0 -0.42,-0.69 q -1.13,-0.35 -1.08,1.07 a 0.67,0.67 79.9 0 1 -0.45,0.65"
       id="path5031" />
    <path
       stroke="#808080"
       vector-effect="non-scaling-stroke"
       d="m 238.68,85.51 q 1.6,-0.82 3.44,-0.65 1.21,0.12 1.72,-0.15 1.3,-0.69 -0.03,-2.27 -1.94,-2.32 -4.24,-1.33 -1.87,0.81 -2.47,2.84 -0.61,2.07 0.78,3.75 1.06,1.27 2.63,1.36 1.69,0.1 3.06,-1.03 0.28,-0.24 0.31,-0.52 0.05,-0.62 -0.93,-0.1 -3.32,1.8 -4.53,-1.18 a 0.57,0.55 65.7 0 1 0.26,-0.72"
       id="path5033" />
    <path
       stroke="#808080"
       vector-effect="non-scaling-stroke"
       d="m 251.49,86.5 a 1.3,1.29 -4.3 0 1 1.44,-1.67 q 2.4,0.38 3.8,-0.17 a 0.67,0.66 75.5 0 0 0.41,-0.71 q -0.55,-4.25 -4.7,-2.76 -2.84,1.01 -2.6,3.77 0.19,2.25 1.84,3.48 2.05,1.53 4.79,-0.35 0.24,-0.16 0.35,-0.42 0.33,-0.81 -0.85,-0.18 -3.56,1.88 -4.48,-0.99"
       id="path5035" />
    <path
       stroke="#808080"
       vector-effect="non-scaling-stroke"
       d="m 266.81,85.25 4.7,-0.46 a 0.7,0.62 0.7 0 0 0.6,-0.52 q 0.22,-1.35 -0.61,-2.26 -0.74,-0.83 -2.25,-0.94 -3.51,-0.26 -4.13,2.77 -0.49,2.34 0.93,4.04 1.83,2.17 5.12,0.45 0.28,-0.14 0.44,-0.38 0.86,-1.26 -0.8,-0.39 -3.74,1.97 -4.43,-1.76 a 0.48,0.47 -7.8 0 1 0.43,-0.55"
       id="path5037" />
    <path
       stroke="#808080"
       vector-effect="non-scaling-stroke"
       d="m 292.17,85.01 a 4.11,4.11 0 0 0 -4.11,-4.11 4.11,4.11 0 0 0 -4.11,4.11 4.11,4.11 0 0 0 4.11,4.11 4.11,4.11 0 0 0 4.11,-4.11"
       id="path5039" />
    <path
       stroke="#808080"
       vector-effect="non-scaling-stroke"
       d="m 296.22,88.37 q 1.11,0.74 2.36,0.6 1.09,-0.12 1.88,-1.17 1.96,-2.63 0.23,-5.49 -1.47,-2.41 -4.02,-0.84 a 0.91,0.89 -47.9 0 1 -0.86,0.05 q -1.75,-0.86 -1.49,0.58 0.17,0.93 0.16,1.32 -0.09,3.96 0.17,7.9 a 0.59,0.5 86.7 0 0 0.53,0.55 q 0.98,-0.02 0.59,-1.62 -0.22,-0.88 -0.08,-1.69 a 0.35,0.32 23.2 0 1 0.53,-0.19"
       id="path5041" />
    <path
       stroke="#808080"
       vector-effect="non-scaling-stroke"
       d="M 308.8,85.21 313,85 q 2.59,-0.13 1,-2.25 -1.84,-2.47 -4.25,-1.65 -1.77,0.6 -2.58,2.29 -0.91,1.9 0.33,3.86 2.06,3.26 5.69,1.09 0.26,-0.15 0.44,-0.37 1,-1.18 -0.81,-0.39 -3.75,1.62 -4.43,-1.77 a 0.51,0.45 83 0 1 0.41,-0.6"
       id="path5043" />
    <path
       stroke="#808080"
       vector-effect="non-scaling-stroke"
       d="m 321.49,86.5 a 1.3,1.29 -4.3 0 1 1.44,-1.67 q 2.4,0.38 3.8,-0.17 a 0.69,0.66 75.7 0 0 0.41,-0.72 q -0.41,-2.89 -2.9,-2.98 -1.88,-0.07 -3.31,1.21 -2.07,1.83 -0.62,4.77 1.86,3.75 5.93,1.36 0.2,-0.11 0.35,-0.28 1.05,-1.14 -0.55,-0.38 -3.63,1.73 -4.55,-1.14"
       id="path5045" />
    <path
       stroke="#808080"
       vector-effect="non-scaling-stroke"
       d="m 335.44,81.85 q -1.69,-1.38 -3.74,-0.56 a 1.49,1.09 34.9 0 1 -0.91,0.02 q -0.53,-0.15 -1.03,0.03 a 0.71,0.6 78.3 0 0 -0.39,0.72 q 0.43,4.07 0.13,5.19 -0.57,2.11 0.63,1.71 a 1.44,1.43 -13.9 0 0 0.96,-1.58 q -0.68,-4.25 1.09,-5.19 2.32,-1.23 2.33,1.44 l 0.03,4.57 a 0.83,0.81 -77.5 0 0 0.46,0.74 q 1.22,0.6 1,-0.94 -0.34,-2.41 -0.09,-3.99 0.19,-1.14 1.17,-1.73 2.02,-1.22 2.25,1.73 0.15,2 0.17,4 a 1,0.72 -79.4 0 0 0.38,0.8 q 0.95,0.56 1.16,-2.01 0.1,-1.24 -0.16,-2.45 -1.1,-5.09 -4.68,-2.46 a 0.64,0.61 46.5 0 1 -0.76,-0.04"
       id="path5047" />
    <path
       stroke="#808080"
       vector-effect="non-scaling-stroke"
       d="m 344.8,85.23 4.38,-0.31 a 1.1,0.7 6.6 0 0 0.8,-0.39 q 0.87,-1.41 -0.54,-2.47 -3.06,-2.29 -5.13,-0.27 -1.52,1.48 -1.19,3.95 0.63,4.73 6.06,2.55 0.27,-0.1 0.45,-0.32 1,-1.18 -0.81,-0.39 -3.77,1.63 -4.43,-1.77 a 0.49,0.45 82.4 0 1 0.41,-0.58"
       id="path5049" />
    <path
       stroke="#808080"
       vector-effect="non-scaling-stroke"
       d="m 353.86,81.46 q -0.48,-0.28 -1.06,-0.24 a 0.56,0.5 85.6 0 0 -0.45,0.59 q 0.26,3.09 0.32,6.19 0.02,1.47 0.73,0.87 a 1.26,0.88 76.3 0 0 0.34,-0.88 l 0.05,-4.43 a 1,0.99 -17.2 0 1 0.42,-0.79 q 3.51,-2.4 3.32,2.23 -0.07,1.6 0.01,3.2 a 0.67,0.59 -87 0 0 0.5,0.63 q 1.07,0.19 0.77,-1.39 -0.11,-0.6 -0.08,-2.8 0.01,-1.8 -0.54,-2.67 -1.14,-1.8 -3.51,-0.48 a 0.87,0.77 43.6 0 1 -0.82,-0.03"
       id="path5051" />
    <path
       stroke="#808080"
       vector-effect="non-scaling-stroke"
       d="m 441,115 a 1,1 0 0 0 -1,-1 h -47 a 1,1 0 0 0 -1,1 v 119 a 1,1 0 0 0 1,1 h 47 a 1,1 0 0 0 1,-1 V 115"
       id="path5053" />
    <path
       stroke="#808080"
       vector-effect="non-scaling-stroke"
       d="m 282.55,118.18 q -0.12,-1.39 -1.28,-1.05 a 0.74,0.65 82.7 0 0 -0.47,0.69 v 13.37 a 0.82,0.75 -79 0 0 0.45,0.73 q 1.49,0.66 1.37,-1.18 -0.12,-1.74 -0.12,-3.79 0,-0.63 0.5,-0.25 3.42,2.61 5.94,-0.26 1.4,-1.61 1.2,-4.15 -0.19,-2.23 -1.37,-3.86 -2.19,-3.04 -5.83,-0.06 -0.35,0.28 -0.39,-0.19"
       id="path5055" />
    <path
       stroke="#808080"
       vector-effect="non-scaling-stroke"
       d="m 296.4636,128.0992 a 5.63,5.05 96.9 0 0 5.6898,-4.9825 5.63,5.05 96.9 0 0 -4.337,-6.1959 5.63,5.05 96.9 0 0 -5.6898,4.9825 5.63,5.05 96.9 0 0 4.337,6.1959"
       id="path5057" />
    <path
       stroke="#808080"
       vector-effect="non-scaling-stroke"
       d="m 306.55,118.18 q -0.12,-1.39 -1.28,-1.05 a 0.74,0.65 82.7 0 0 -0.47,0.69 v 13.37 a 0.82,0.75 -79 0 0 0.45,0.73 q 1.49,0.66 1.37,-1.18 -0.12,-1.74 -0.12,-3.79 0,-0.64 0.51,-0.25 3.41,2.62 5.93,-0.26 1.4,-1.61 1.2,-4.15 -0.19,-2.24 -1.38,-3.87 -2.2,-3 -5.82,-0.05 -0.35,0.28 -0.39,-0.19"
       id="path5059" />
    <path
       stroke="#9fb7cd"
       vector-effect="non-scaling-stroke"
       d="m 355.94,161.55 0.12,6.9 q 0.02,0.97 0.71,0.28 l 15.24,-15.36 a 0.52,0.51 -45.4 0 0 0,-0.73 l -15.22,-15.22 q -0.79,-0.8 -0.79,0.32 v 6.74 A 0.52,0.52 -90 0 1 355.48,145 L 228,145.25 a 0.53,0.51 0.6 0 0 -0.53,0.5 l -0.17,14.7 a 0.52,0.48 0.5 0 0 0.52,0.49 l 127.62,0.12 a 0.5,0.49 0 0 1 0.5,0.49"
       id="path5061" />
    <path
       stroke="#808080"
       vector-effect="non-scaling-stroke"
       d="m 148.69,270.31 q 0.65,0.59 1.95,1.12 1.42,0.58 1.98,1 2.36,1.79 -0.03,3.1 a 3.5,3.48 38.6 0 1 -2.69,0.29 q -3.55,-1.06 -3.03,0.66 a 1.41,1.09 11.2 0 0 0.62,0.71 q 3.34,1.82 6.51,0.06 2.74,-1.52 2.27,-4.21 -0.3,-1.67 -1.97,-2.92 -1.48,-1.11 -3.26,-1.76 a 1.35,1.1 1.8 0 1 -0.7,-0.61 q -1.39,-2.96 2.13,-2.76 0.61,0.04 1.32,0.45 2.25,1.33 1.45,-1.03 a 1.24,1.24 -85.7 0 0 -0.61,-0.71 q -2.8,-1.48 -5.2,-0.15 -1.8,1 -2.2,2.87 -0.47,2.17 1.46,3.89"
       id="path5063" />
    <path
       stroke="#808080"
       vector-effect="non-scaling-stroke"
       d="M 168.05,263.69 A 0.73,0.72 88.3 0 0 167.33,263 l -9.51,0.05 a 0.73,0.63 5.5 0 0 -0.68,0.48 q -0.44,1.63 2.49,1.4 a 1.47,1.47 87.2 0 1 1.58,1.44 q 0.08,4.11 0.04,9.19 0,0.09 -0.06,0.88 -0.17,1.98 2.31,1.51 a 0.61,0.61 84.9 0 0 0.5,-0.6 v -11.27 a 1.27,1.27 6.5 0 1 1.56,-1.24 q 2.61,0.6 2.49,-1.15"
       id="path5065" />
    <path
       stroke="#808080"
       vector-effect="non-scaling-stroke"
       d="m 168.69,277.7 q 2.33,1.06 2.96,-1.58 a 1.46,1.46 -83.2 0 1 1.42,-1.12 h 4.49 a 0.9,0.89 -85.1 0 1 0.88,1.05 q -0.42,2.5 2.86,1.77 a 0.57,0.55 74.6 0 0 0.4,-0.73 l -4.37,-12.81 a 1.71,1.1 88.5 0 0 -0.53,-0.78 q -1.38,-0.99 -3.13,-0.48 a 1.06,0.89 -85.4 0 0 -0.63,0.64 l -4.63,13.35 a 0.56,0.55 -67.8 0 0 0.28,0.69"
       id="path5067" />
    <path
       stroke="#808080"
       vector-effect="non-scaling-stroke"
       d="m 185.69,276.81 q 3.19,2.48 7.12,0.43 a 1.48,1.4 -3.2 0 0 0.66,-0.7 q 0.8,-1.87 -1.4,-0.95 -2.43,1.03 -4.12,-0.16 -1.32,-0.94 -1.78,-3.16 -0.55,-2.7 0.39,-4.96 1.47,-3.49 5.1,-1.99 0.67,0.28 1.1,0.31 1.65,0.09 0.58,-1.33 -0.36,-0.49 -0.99,-0.71 -6.42,-2.31 -8.76,4.15 -2.1,5.82 2.1,9.07"
       id="path5069" />
    <path
       stroke="#808080"
       vector-effect="non-scaling-stroke"
       d="m 199.15,271.43 q 2.29,2.5 3.98,5.47 0.85,1.5 2.9,1.04 a 0.67,0.66 66.9 0 0 0.4,-1.01 l -4.3,-6.61 a 0.97,0.96 -41.2 0 1 0.08,-1.13 q 1.92,-2.32 3.71,-4.54 1.53,-1.89 -1.61,-1.61 a 1.57,1.51 -74 0 0 -1.12,0.65 l -3.82,5.26 q -0.76,1.04 -0.68,-0.25 0.11,-1.86 0.26,-3.68 0.19,-2.41 -2.69,-1.94 a 0.61,0.6 85.6 0 0 -0.51,0.6 q 0,6.04 0,11.79 0,0.08 -0.08,1.05 -0.17,1.97 2.37,1.42 a 0.93,0.91 84.1 0 0 0.71,-0.89 l 0.04,-5.49 q 0.01,-0.52 0.36,-0.13"
       id="path5071" />
    <path
       stroke="#808080"
       vector-effect="non-scaling-stroke"
       d="m 388.69,270.31 q 0.65,0.59 1.95,1.12 1.42,0.58 1.98,1 2.36,1.79 -0.03,3.1 a 3.5,3.48 38.6 0 1 -2.69,0.29 q -3.55,-1.06 -3.03,0.66 a 1.41,1.09 11.2 0 0 0.62,0.71 q 3.34,1.82 6.51,0.06 2.74,-1.52 2.27,-4.21 -0.3,-1.67 -1.97,-2.92 -1.48,-1.11 -3.26,-1.76 a 1.35,1.1 1.8 0 1 -0.7,-0.61 q -1.39,-2.96 2.13,-2.76 0.61,0.04 1.32,0.45 2.25,1.33 1.45,-1.03 a 1.24,1.24 -85.7 0 0 -0.61,-0.71 q -2.8,-1.48 -5.2,-0.15 -1.8,1 -2.2,2.87 -0.47,2.17 1.46,3.89"
       id="path5073" />
    <path
       stroke="#808080"
       vector-effect="non-scaling-stroke"
       d="M 408.05,263.69 A 0.73,0.72 88.3 0 0 407.33,263 l -9.51,0.05 a 0.73,0.63 5.5 0 0 -0.68,0.48 q -0.44,1.63 2.49,1.4 a 1.47,1.47 87.2 0 1 1.58,1.44 q 0.08,4.11 0.04,9.19 0,0.09 -0.06,0.88 -0.17,1.98 2.31,1.51 a 0.61,0.61 84.9 0 0 0.5,-0.6 v -11.27 a 1.27,1.27 6.5 0 1 1.56,-1.24 q 2.61,0.6 2.49,-1.15"
       id="path5075" />
    <path
       stroke="#808080"
       vector-effect="non-scaling-stroke"
       d="m 408.69,277.7 q 2.33,1.06 2.96,-1.58 a 1.46,1.46 -83.2 0 1 1.42,-1.12 h 4.49 a 0.9,0.89 -85.1 0 1 0.88,1.05 q -0.42,2.5 2.86,1.77 a 0.57,0.55 74.6 0 0 0.4,-0.73 l -4.37,-12.81 a 1.71,1.1 88.5 0 0 -0.53,-0.78 q -1.38,-0.99 -3.13,-0.48 a 1.06,0.89 -85.4 0 0 -0.63,0.64 l -4.63,13.35 a 0.56,0.55 -67.8 0 0 0.28,0.69"
       id="path5077" />
    <path
       stroke="#808080"
       vector-effect="non-scaling-stroke"
       d="m 425.69,276.81 q 3.19,2.48 7.12,0.43 a 1.48,1.4 -3.2 0 0 0.66,-0.7 q 0.8,-1.87 -1.4,-0.95 -2.43,1.03 -4.12,-0.16 -1.32,-0.94 -1.78,-3.16 -0.55,-2.7 0.39,-4.96 1.47,-3.49 5.1,-1.99 0.67,0.28 1.1,0.31 1.65,0.09 0.58,-1.33 -0.36,-0.49 -0.99,-0.71 -6.42,-2.31 -8.76,4.15 -2.1,5.82 2.1,9.07"
       id="path5079" />
    <path
       stroke="#808080"
       vector-effect="non-scaling-stroke"
       d="m 439.15,271.43 q 2.29,2.5 3.98,5.47 0.85,1.5 2.9,1.04 a 0.67,0.66 66.9 0 0 0.4,-1.01 l -4.3,-6.61 a 0.97,0.96 -41.2 0 1 0.08,-1.13 q 1.92,-2.32 3.71,-4.54 1.53,-1.89 -1.61,-1.61 a 1.57,1.51 -74 0 0 -1.12,0.65 l -3.82,5.26 q -0.76,1.04 -0.68,-0.25 0.11,-1.86 0.26,-3.68 0.19,-2.41 -2.69,-1.94 a 0.61,0.6 85.6 0 0 -0.51,0.6 q 0,6.04 0,11.79 0,0.08 -0.08,1.05 -0.17,1.97 2.37,1.42 a 0.93,0.91 84.1 0 0 0.71,-0.89 l 0.04,-5.49 q 0.01,-0.52 0.36,-0.13"
       id="path5081" />
    <path
       stroke="#808080"
       vector-effect="non-scaling-stroke"
       d="m 174.5201,28.1293 a 3.64,2.98 91.1 0 0 3.0494,-3.5821 3.64,2.98 91.1 0 0 -2.9096,-3.6965 3.64,2.98 91.1 0 0 -3.0494,3.5821 3.64,2.98 91.1 0 0 2.9096,3.6965"
       id="path5083" />
    <path
       stroke="#808080"
       vector-effect="non-scaling-stroke"
       d="m 185.7109,28.0355 a 3.54,2.72 92.9 0 0 2.8956,-3.3979 3.54,2.72 92.9 0 0 -2.5374,-3.6731 3.54,2.72 92.9 0 0 -2.8956,3.3979 3.54,2.72 92.9 0 0 2.5374,3.6731"
       id="path5085" />
    <path
       stroke="#4d85b8"
       vector-effect="non-scaling-stroke"
       d="m 174.06,62.5 q -1.75,1.58 0.19,2.81 0.43,0.28 0.69,0.68 1.5,2.35 3.1,0 0.28,-0.4 0.69,-0.69 1.54,-1.06 0.39,-2.23 a 1.28,1.03 26.8 0 1 -0.37,-0.82 V 42.12 a 0.82,0.81 -83.9 0 0 -0.64,-0.8 q -4.16,-0.97 -3.96,1.57 0.09,1.15 0.09,1.23 -0.12,8.79 0.18,17.57 a 1.09,0.98 -24 0 1 -0.36,0.81"
       id="path5087" />
    <path
       stroke="#808080"
       vector-effect="non-scaling-stroke"
       d="M 200,75.61 A 0.61,0.61 0 0 0 199.39,75 H 153.61 A 0.61,0.61 0 0 0 153,75.61 v 37.78 a 0.61,0.61 0 0 0 0.61,0.61 h 45.78 A 0.61,0.61 0 0 0 200,113.39 V 75.61"
       id="path5089" />
    <path
       stroke="#808080"
       vector-effect="non-scaling-stroke"
       d="M 200,115.77 A 0.77,0.77 0 0 0 199.23,115 h -45.46 a 0.77,0.77 0 0 0 -0.77,0.77 v 37.46 a 0.77,0.77 0 0 0 0.77,0.77 h 45.46 a 0.77,0.77 0 0 0 0.77,-0.77 v -37.46"
       id="path5091" />
    <path
       stroke="#808080"
       vector-effect="non-scaling-stroke"
       d="M 200,155.74 A 0.74,0.74 0 0 0 199.26,155 h -45.52 a 0.74,0.74 0 0 0 -0.74,0.74 v 37.52 a 0.74,0.74 0 0 0 0.74,0.74 h 45.52 a 0.74,0.74 0 0 0 0.74,-0.74 v -37.52"
       id="path5093" />
    <path
       stroke="#808080"
       vector-effect="non-scaling-stroke"
       d="M 200,195.74 A 0.74,0.74 0 0 0 199.26,195 h -45.52 a 0.74,0.74 0 0 0 -0.74,0.74 v 37.52 a 0.74,0.74 0 0 0 0.74,0.74 h 45.52 a 0.74,0.74 0 0 0 0.74,-0.74 v -37.52"
       id="path5095" />
    <path
       stroke="#808080"
       vector-effect="non-scaling-stroke"
       d="m 178.1,100.22 q -0.65,2.25 1.37,1.63 a 0.82,0.62 88 0 0 0.47,-0.67 l 0.15,-1.49 a 0.82,0.7 -7.6 0 1 0.58,-0.64 q 3.12,-0.97 0.01,-1.64 a 0.67,0.62 5.9 0 1 -0.53,-0.6 l -0.16,-8.82 a 0.93,0.77 -78.9 0 0 -0.41,-0.76 q -1.56,-0.84 -2.58,0.75 -3.03,4.7 -5.3,9.81 a 0.66,0.61 -60.4 0 0 0.18,0.78 q 1.2,0.87 2.87,0.44 1.8,-0.46 3.11,0.43 a 0.76,0.66 -65.9 0 1 0.24,0.78"
       id="path5097" />
    <path
       stroke="#808080"
       vector-effect="non-scaling-stroke"
       d="m 231.3443,88.0388 a 3.07,2.18 91.6 0 0 2.2649,-3.0079 3.07,2.18 91.6 0 0 -2.0935,-3.1297 3.07,2.18 91.6 0 0 -2.2649,3.0079 3.07,2.18 91.6 0 0 2.0935,3.1297"
       id="path5099" />
    <path
       stroke="#808080"
       vector-effect="non-scaling-stroke"
       d="m 242.06,82.44 q -1.47,-1.76 -3,0.12 -1.43,1.77 0.77,1.54 0.7,-0.07 1.33,-0.02 2.46,0.21 0.9,-1.64"
       id="path5101" />
    <path
       stroke="#808080"
       vector-effect="non-scaling-stroke"
       d="m 255.08,82.45 q -2.38,-1.25 -3.54,0.78 a 0.42,0.41 22.1 0 0 0.26,0.6 q 1.79,0.5 3.1,0.16 2.08,-0.55 0.18,-1.54"
       id="path5103" />
    <path
       stroke="#808080"
       vector-effect="non-scaling-stroke"
       d="m 269.7,82.14 a 1.71,1.7 -44.8 0 0 -2.13,0 q -3.02,2.44 1.69,2 2.61,-0.24 0.44,-2"
       id="path5105" />
    <path
       stroke="#808080"
       vector-effect="non-scaling-stroke"
       d="m 287.9034,88.0755 a 3.08,2.74 93.1 0 0 2.9026,-2.9273 3.08,2.74 93.1 0 0 -2.5694,-3.2237 3.08,2.74 93.1 0 0 -2.9026,2.9273 3.08,2.74 93.1 0 0 2.5694,3.2237"
       id="path5107" />
    <path
       stroke="#808080"
       vector-effect="non-scaling-stroke"
       d="m 297.7799,88.039 a 3.06,2.18 91.5 0 0 2.2594,-3.0019 3.06,2.18 91.5 0 0 -2.0992,-3.1161 3.06,2.18 91.5 0 0 -2.2594,3.0019 3.06,2.18 91.5 0 0 2.0992,3.1161"
       id="path5109" />
    <path
       stroke="#808080"
       vector-effect="non-scaling-stroke"
       d="m 312.06,82.44 q -1.47,-1.76 -3,0.12 -1.43,1.77 0.77,1.54 0.7,-0.07 1.33,-0.02 2.46,0.21 0.9,-1.64"
       id="path5111" />
    <path
       stroke="#808080"
       vector-effect="non-scaling-stroke"
       d="m 324.81,82.2 q -2.28,-0.77 -3.29,1.04 a 0.42,0.41 21.5 0 0 0.27,0.59 q 1.63,0.42 3.28,0.1 a 0.75,0.64 -4.8 0 0 0.6,-0.61 q 0.07,-0.8 -0.86,-1.12"
       id="path5113" />
    <path
       stroke="#808080"
       vector-effect="non-scaling-stroke"
       d="m 344.74,82.83 a 0.65,0.65 18.2 0 0 0.47,0.93 q 2.97,0.55 3.31,-0.23 0.38,-0.9 -1.25,-1.52 -1.78,-0.68 -2.53,0.82"
       id="path5115" />
    <path
       stroke="#808080"
       vector-effect="non-scaling-stroke"
       d="m 177.63,89.59 -3.9,7.21 a 0.41,0.41 21.4 0 0 0.26,0.59 q 1.84,0.46 3.6,-0.14 a 0.72,0.71 79.9 0 0 0.48,-0.69 l -0.12,-6.89 q -0.01,-0.65 -0.32,-0.08"
       id="path5117" />
    <path
       stroke="#808080"
       vector-effect="non-scaling-stroke"
       d="m 440,115.7 a 0.7,0.7 0 0 0 -0.7,-0.7 h -45.6 a 0.7,0.7 0 0 0 -0.7,0.7 v 37.6 a 0.7,0.7 0 0 0 0.7,0.7 h 45.6 a 0.7,0.7 0 0 0 0.7,-0.7 v -37.6"
       id="path5119" />
    <path
       stroke="#808080"
       vector-effect="non-scaling-stroke"
       d="M 440,155.69 A 0.69,0.69 0 0 0 439.31,155 h -45.62 a 0.69,0.69 0 0 0 -0.69,0.69 v 37.62 a 0.69,0.69 0 0 0 0.69,0.69 h 45.62 a 0.69,0.69 0 0 0 0.69,-0.69 v -37.62"
       id="path5121" />
    <path
       stroke="#808080"
       vector-effect="non-scaling-stroke"
       d="M 440,195.74 A 0.74,0.74 0 0 0 439.26,195 h -45.52 a 0.74,0.74 0 0 0 -0.74,0.74 v 37.52 a 0.74,0.74 0 0 0 0.74,0.74 h 45.52 a 0.74,0.74 0 0 0 0.74,-0.74 v -37.52"
       id="path5123" />
    <path
       stroke="#808080"
       vector-effect="non-scaling-stroke"
       d="m 178.35,129.79 q 1.08,3.49 -2.85,3.46 -1.92,-0.01 -1.61,1.22 a 0.67,0.57 -7.4 0 0 0.67,0.43 q 2.23,-0.15 3.19,0.6 2.66,2.07 0.88,3.88 -1.02,1.04 -2.56,0.98 -1.47,-0.06 -2.8,-0.84 -0.41,-0.24 -0.73,-0.21 -0.74,0.08 -0.49,0.79 0.14,0.37 0.58,0.66 4.71,3.07 7.66,-0.69 1.17,-1.5 0.98,-3.03 -0.24,-1.94 -2.29,-2.78 a 0.32,0.31 34.6 0 1 -0.1,-0.52 q 2.09,-2.02 1.57,-4.09 -0.49,-1.9 -2.67,-2.47 -2.35,-0.6 -4.59,0.87 -0.42,0.28 -0.59,0.67 -0.34,0.81 0.34,0.94 a 1.32,0.7 -45.5 0 0 0.89,-0.28 q 1.89,-1.33 3.92,-0.32 a 1.23,1.18 -85.7 0 1 0.6,0.73"
       id="path5125" />
    <path
       stroke="#808080"
       vector-effect="non-scaling-stroke"
       d="m 418.35,129.79 q 1.08,3.49 -2.85,3.46 -1.92,-0.01 -1.61,1.22 a 0.67,0.57 -7.4 0 0 0.67,0.43 q 2.23,-0.15 3.19,0.6 2.66,2.07 0.88,3.88 -1.02,1.04 -2.56,0.98 -1.47,-0.06 -2.8,-0.84 -0.41,-0.24 -0.73,-0.21 -0.74,0.08 -0.49,0.79 0.14,0.37 0.58,0.66 4.71,3.07 7.66,-0.69 1.17,-1.5 0.98,-3.03 -0.24,-1.94 -2.29,-2.78 a 0.32,0.31 34.6 0 1 -0.1,-0.52 q 2.09,-2.02 1.57,-4.09 -0.49,-1.9 -2.67,-2.47 -2.35,-0.6 -4.59,0.87 -0.42,0.28 -0.59,0.67 -0.34,0.81 0.34,0.94 a 1.32,0.7 -45.5 0 0 0.89,-0.28 q 1.89,-1.33 3.92,-0.32 a 1.23,1.18 -85.7 0 1 0.6,0.73"
       id="path5127" />
    <path
       stroke="#808080"
       vector-effect="non-scaling-stroke"
       d="m 285.2072,126.4281 a 3.91,2.93 91.8 0 0 3.0514,-3.8161 3.91,2.93 91.8 0 0 -2.8058,-4.0001 3.91,2.93 91.8 0 0 -3.0514,3.8161 3.91,2.93 91.8 0 0 2.8058,4.0001"
       id="path5129" />
    <path
       stroke="#808080"
       vector-effect="non-scaling-stroke"
       d="m 296.9746,126.4465 a 3.95,3.23 92.4 0 0 3.3926,-3.8112 3.95,3.23 92.4 0 0 -3.0618,-4.0818 3.95,3.23 92.4 0 0 -3.3926,3.8112 3.95,3.23 92.4 0 0 3.0618,4.0818"
       id="path5131" />
    <path
       stroke="#808080"
       vector-effect="non-scaling-stroke"
       d="m 309.2276,126.4187 a 3.91,2.93 91.5 0 0 3.0314,-3.832 3.91,2.93 91.5 0 0 -2.8266,-3.9854 3.91,2.93 91.5 0 0 -3.0314,3.832 3.91,2.93 91.5 0 0 2.8266,3.9854"
       id="path5133" />
    <path
       stroke="#4d85b8"
       vector-effect="non-scaling-stroke"
       d="m 357.93,145.88 a 1.55,1.17 0.8 0 1 -1.55,1.14 q -44.63,-0.32 -86.13,-0.07 -20.47,0.12 -41.21,-0.52 a 0.5,0.49 0.6 0 0 -0.52,0.5 l 0.14,12.12 a 0.52,0.5 -1.7 0 0 0.54,0.49 q 13.36,-0.54 17.55,-0.54 55.09,-0.05 109.92,0.06 a 1.44,1.44 -87.6 0 1 1.43,1.56 q -0.39,4.55 1.39,2.61 0.85,-0.92 0.96,-1.03 4.44,-4.22 8.47,-8.83 a 0.55,0.53 43.8 0 0 -0.03,-0.74 L 359,142.51 q -0.96,-0.99 -1,0.48 l -0.07,2.89"
       id="path5135" />
    <path
       stroke="#808080"
       vector-effect="non-scaling-stroke"
       d="m 175.13,180.05 q 1.62,-1.96 3.32,-3.86 1.34,-1.5 1.92,-3.34 0.63,-2 -0.09,-3.68 -1.27,-2.94 -5.3,-1.99 -1.79,0.42 -2.28,1.58 -0.38,0.92 0.57,0.63 4.57,-1.42 5.17,1.27 0.36,1.59 -1,3.8 -1.73,2.8 -4.14,5.12 -2.52,2.42 0.97,2.42 h 6.24 a 1.18,0.73 10.8 0 0 0.86,-0.33 q 0.3,-0.39 -0.02,-0.82 a 1.17,0.74 -10.9 0 0 -0.86,-0.34 l -5.18,-0.06 q -0.51,0 -0.18,-0.4"
       id="path5137" />
    <path
       stroke="#808080"
       vector-effect="non-scaling-stroke"
       d="m 415.13,180.05 q 1.62,-1.96 3.32,-3.86 1.34,-1.5 1.92,-3.34 0.63,-2 -0.09,-3.68 -1.27,-2.94 -5.3,-1.99 -1.79,0.42 -2.28,1.58 -0.38,0.92 0.57,0.63 4.57,-1.42 5.17,1.27 0.36,1.59 -1,3.8 -1.73,2.8 -4.14,5.12 -2.52,2.42 0.97,2.42 h 6.24 a 1.18,0.73 10.8 0 0 0.86,-0.33 q 0.3,-0.39 -0.02,-0.82 a 1.17,0.74 -10.9 0 0 -0.86,-0.34 l -5.18,-0.06 q -0.51,0 -0.18,-0.4"
       id="path5139" />
    <path
       stroke="#808080"
       vector-effect="non-scaling-stroke"
       d="m 176.49,210.05 0.12,9.52 a 0.82,0.75 -12.4 0 1 -0.5,0.71 q -1,0.4 -2.11,0.29 a 1.04,0.77 16.7 0 0 -0.84,0.3 q -0.72,0.93 0.85,0.99 3.11,0.13 6.24,0.14 a 1.21,1 16.8 0 0 0.86,-0.36 q 1.1,-1.24 -1.67,-1.11 a 1.09,1.07 -1.3 0 1 -1.14,-1.07 l -0.04,-11.9 a 0.59,0.58 79.6 0 0 -0.78,-0.55 q -2.36,0.86 -4.08,2.68 a 0.96,0.85 -33.7 0 0 -0.23,0.87 q 0.38,1.3 1.58,-0.07 0.52,-0.61 1.21,-0.82 a 0.41,0.4 -9 0 1 0.53,0.38"
       id="path5141" />
    <path
       stroke="#808080"
       vector-effect="non-scaling-stroke"
       d="m 416.49,210.05 0.12,9.52 a 0.82,0.75 -12.4 0 1 -0.5,0.71 q -1,0.4 -2.11,0.29 a 1.04,0.77 16.7 0 0 -0.84,0.3 q -0.72,0.93 0.85,0.99 3.11,0.13 6.24,0.14 a 1.21,1 16.8 0 0 0.86,-0.36 q 1.1,-1.24 -1.67,-1.11 a 1.09,1.07 -1.3 0 1 -1.14,-1.07 l -0.04,-11.9 a 0.59,0.58 79.6 0 0 -0.78,-0.55 q -2.36,0.86 -4.08,2.68 a 0.96,0.85 -33.7 0 0 -0.23,0.87 q 0.38,1.3 1.58,-0.07 0.52,-0.61 1.21,-0.82 a 0.41,0.4 -9 0 1 0.53,0.38"
       id="path5143" />
    <path
       stroke="#808080"
       vector-effect="non-scaling-stroke"
       d="m 174.4,266.81 -1.69,5.64 a 0.41,0.38 -81.3 0 0 0.35,0.52 h 3.62 a 0.4,0.39 -8.5 0 0 0.39,-0.51 l -1.73,-5.67 q -0.47,-1.53 -0.94,0.02"
       id="path5145" />
    <path
       stroke="#808080"
       vector-effect="non-scaling-stroke"
       d="m 414.4,266.81 -1.69,5.64 a 0.41,0.38 -81.3 0 0 0.35,0.52 h 3.62 a 0.4,0.39 -8.5 0 0 0.39,-0.51 l -1.73,-5.67 q -0.47,-1.53 -0.94,0.02"
       id="path5147" />
  </g>
  <path
     fill="#000000"
     d="m 20.498786,10.726465 q 4.3,1.11 -0.74,1.13 -1.31,0 -1.31,-2.6899995 v -4.03 a 1.13,1.14 12 0 0 -0.67,-1.04 q -1.77,-0.81 -0.57,-1.12 a 0.94,0.9 4.6 0 0 0.6,-0.49 q 1.01,-2.12 1.85,-1.22 a 0.6,1.17 16.1 0 1 0.17,0.87 q -0.14,0.97 1.08,0.87 0.73,-0.07 1.06,0.07 1.07,0.46 -1.6,1.1 a 0.63,0.64 82.2 0 0 -0.49,0.64 l 0.12,5.2799995 a 0.67,0.66 7 0 0 0.5,0.63 z"
     id="path5153" />
  <path
     fill="#000000"
     d="m 33.358786,7.4164655 a 4.58,4.58 0 0 1 -4.58,4.5799995 4.58,4.58 0 0 1 -4.58,-4.5799995 4.58,4.58 0 0 1 4.58,-4.58 4.58,4.58 0 0 1 4.58,4.58 z m -4.6399,3.6292995 a 2.98,3.64 1.1 0 0 3.0494,-3.5820995 2.98,3.64 1.1 0 0 -2.9096,-3.6965 2.98,3.64 1.1 0 0 -3.0494,3.5821 2.98,3.64 1.1 0 0 2.9096,3.6964995 z"
     id="path5155" />
  <path
     fill="#000000"
     d="m 37.308786,11.466465 q 0.17,1.72 0.15,3.45 -0.01,0.65 -0.32,0.9 -0.32,0.26 -0.76,0.09 a 0.65,0.81 8.4 0 1 -0.43,-0.74 l 0.05,-11.6899995 a 0.35,0.41 11.4 0 1 0.5,-0.4 l 0.89,0.45 a 1.06,0.61 36.3 0 0 0.82,0.09 q 3.54,-1.81 5.16,0.76 1.12,1.77 0.65,4.24 -0.91,4.7499995 -6.31,2.5599995 a 0.29,0.29 0 0 0 -0.4,0.29 z m 2.6009,-0.5145 a 2.72,3.54 2.9 0 0 2.8956,-3.3978995 2.72,3.54 2.9 0 0 -2.5374,-3.6731 2.72,3.54 2.9 0 0 -2.8956,3.3979 2.72,3.54 2.9 0 0 2.5374,3.6730995 z"
     id="path5157" />
  <path
     fill="#3f6f9a"
     d="m 26.388786,43.846465 0.06,-21.02 a 0.82,0.87 0.3 0 1 0.83,-0.87 l 6.99,0.1 a 0.57,0.52 89.9 0 1 0.51,0.56 l 0.23,21.24 a 0.53,0.51 89.4 0 0 0.51,0.52 l 3.27,0.04 q 0.77,0.01 0.23,0.55 l -7.89,7.89 a 0.6,0.6 0 0 1 -0.86,0 l -7.89,-7.89 q -0.54,-0.54 0.23,-0.55 l 3.29,-0.04 a 0.49,0.53 0 0 0 0.49,-0.53 z m 1.87,1.57 q -1.75,1.58 0.19,2.81 0.43,0.28 0.69,0.68 1.5,2.35 3.1,0 0.28,-0.4 0.69,-0.69 1.54,-1.06 0.39,-2.23 a 1.28,1.03 26.8 0 1 -0.37,-0.82 v -20.13 a 0.81,0.82 6.1 0 0 -0.64,-0.8 q -4.16,-0.97 -3.96,1.57 0.09,1.15 0.09,1.23 -0.12,8.79 0.18,17.57 a 0.98,1.09 66 0 1 -0.36,0.81 z"
     id="path5163" />
  <path
     fill="#5b9bd5"
     d="m 28.618786,44.606465 q -0.3,-8.78 -0.18,-17.57 0,-0.08 -0.09,-1.23 -0.2,-2.54 3.96,-1.57 a 0.81,0.82 6.1 0 1 0.64,0.8 v 20.13 a 1.28,1.03 26.8 0 0 0.37,0.82 q 1.15,1.17 -0.39,2.23 -0.41,0.29 -0.69,0.69 -1.6,2.35 -3.1,0 -0.26,-0.4 -0.69,-0.68 -1.94,-1.23 -0.19,-2.81 a 0.98,1.09 66 0 0 0.36,-0.81 z"
     id="path5165" />
  <path
     fill="#000000"
     d="m 55.208786,217.04647 a 0.87,0.87 0 0 1 -0.87,0.87 h -47.26 a 0.87,0.87 0 0 1 -0.87,-0.87 V 57.786465 a 0.87,0.87 0 0 1 0.87,-0.87 h 47.26 a 0.87,0.87 0 0 1 0.87,0.87 z m -1.01,-158.520005 a 0.61,0.61 0 0 0 -0.61,-0.61 h -45.78 a 0.61,0.61 0 0 0 -0.61,0.61 v 37.78 a 0.61,0.61 0 0 0 0.61,0.61 h 45.78 a 0.61,0.61 0 0 0 0.61,-0.61 z m 0,40.16 a 0.77,0.77 0 0 0 -0.77,-0.77 h -45.46 a 0.77,0.77 0 0 0 -0.77,0.77 v 37.460005 a 0.77,0.77 0 0 0 0.77,0.77 h 45.46 a 0.77,0.77 0 0 0 0.77,-0.77 z m 0,39.970005 a 0.74,0.74 0 0 0 -0.74,-0.74 h -45.52 a 0.74,0.74 0 0 0 -0.74,0.74 v 37.52 a 0.74,0.74 0 0 0 0.74,0.74 h 45.52 a 0.74,0.74 0 0 0 0.74,-0.74 z m 0,40 a 0.74,0.74 0 0 0 -0.74,-0.74 h -45.52 a 0.74,0.74 0 0 0 -0.74,0.74 v 37.52 a 0.74,0.74 0 0 0 0.74,0.74 h 45.52 a 0.74,0.74 0 0 0 0.74,-0.74 z"
     id="path5167" />
  <path
     fill="#ffffff"
     d="m 54.198786,96.306465 a 0.61,0.61 0 0 1 -0.61,0.61 h -45.78 a 0.61,0.61 0 0 1 -0.61,-0.61 v -37.78 a 0.61,0.61 0 0 1 0.61,-0.61 h 45.78 a 0.61,0.61 0 0 1 0.61,0.61 z m -21.9,-13.17 q -0.65,2.25 1.37,1.63 a 0.82,0.62 88 0 0 0.47,-0.67 l 0.15,-1.49 a 0.7,0.82 82.4 0 1 0.58,-0.64 q 3.12,-0.97 0.01,-1.64 a 0.67,0.62 5.9 0 1 -0.53,-0.6 l -0.16,-8.82 a 0.77,0.93 11.1 0 0 -0.41,-0.76 q -1.56,-0.84 -2.58,0.75 -3.03,4.7 -5.3,9.81 a 0.61,0.66 29.6 0 0 0.18,0.78 q 1.2,0.87 2.87,0.44 1.8,-0.46 3.11,0.43 a 0.66,0.76 24.1 0 1 0.24,0.78 z"
     id="path5169" />
  <path
     fill="#000000"
     d="m 87.838786,64.106465 -0.28,-3.13 a 0.94,0.79 72.1 0 1 0.33,-0.81 q 1.14,-0.83 1.11,1 -0.07,5.03 0,10.07 a 0.33,0.31 10.2 0 1 -0.44,0.29 q -1.53,-0.59 -3.11,0.39 -2.31,1.43 -3,-2.25 -1.31,-7.05 4.97,-5.21 a 0.33,0.33 0 0 0 0.42,-0.35 z m -2.2957,6.8488 a 2.18,3.07 1.6 0 0 2.2649,-3.0079 2.18,3.07 1.6 0 0 -2.0935,-3.1297 2.18,3.07 1.6 0 0 -2.2649,3.0079 2.18,3.07 1.6 0 0 2.0935,3.1297 z"
     id="path5171" />
  <path
     fill="#000000"
     d="m 102.06879,71.426465 a 0.47,0.47 0 0 1 -0.47,0.47 h -0.42 a 0.47,0.47 0 0 1 -0.47,-0.47 v -10.98 a 0.47,0.47 0 0 1 0.47,-0.47 h 0.42 a 0.47,0.47 0 0 1 0.47,0.47 z"
     id="path5173" />
  <path
     fill="#000000"
     d="m 172.20759,71.313765 a 0.56,0.56 0 0 1 -0.558,0.562 l -0.4,0.0014 a 0.56,0.56 0 0 1 -0.562,-0.5581 l -0.0376,-10.7799 a 0.56,0.56 0 0 1 0.558,-0.562 l 0.4,-0.0014 a 0.56,0.56 0 0 1 0.562,0.5581 z"
     id="path5175" />
  <path
     fill="#000000"
     d="m 115.33879,62.976465 a 0.71,0.7 12.4 0 0 0.59,0.91 q 3.57,0.45 0.19,1.13 a 0.55,0.7 82.9 0 0 -0.57,0.58 l 0.1,4.52 a 0.85,0.62 11.5 0 0 0.58,0.64 q 3.41,1.15 -0.97,1.1 -1.2,-0.01 -1.31,-3.19 l -0.1,-3.06 a 0.84,0.6 10.8 0 0 -0.58,-0.61 q -0.75,-0.24 -0.32,-0.81 0.11,-0.14 0.58,-0.4 0.57,-0.32 0.55,-1.06 a 0.82,0.63 79.5 0 1 0.37,-0.73 q 1.39,-0.65 0.89,0.98 z"
     id="path5177" />
  <path
     fill="#000000"
     d="m 134.99879,70.736465 q 3.57,1.04 -0.23,1.11 a 1.02,1.18 71 0 1 -0.85,-0.34 q -1.55,-1.75 -0.9,-4.32 0.5,-1.95 -1.14,-2.46 -1.21,-0.38 0.03,-0.63 1.18,-0.23 1.16,-1.37 a 0.73,0.55 83.4 0 1 0.4,-0.68 q 1.12,-0.32 1.17,1.18 a 0.53,0.57 1.1 0 0 0.49,0.54 q 2.99,0.25 -0.23,1.33 a 0.63,0.67 79.3 0 0 -0.45,0.62 l 0.04,4.39 a 0.7,0.66 7.7 0 0 0.51,0.63 z"
     id="path5179" />
  <path
     fill="#000000"
     d="m 215.84879,63.106465 q -0.05,-1.42 1.08,-1.07 a 0.59,0.76 6.5 0 1 0.42,0.69 q 0.01,1.4 1.53,1.31 a 0.44,0.59 88.2 0 1 0.62,0.43 q 0,0.7 -1.24,0.58 a 0.57,0.44 3.4 0 0 -0.61,0.42 l -0.1,4.51 a 0.93,0.64 17.2 0 0 0.55,0.7 l 1.15,0.53 q 0.49,0.22 0.02,0.46 -2.3,1.2 -3.13,-1.44 -0.28,-0.88 -0.26,-4.5 a 0.74,0.69 12.2 0 0 -0.46,-0.67 q -1.71,-0.7 -0.02,-1.3 a 0.67,0.67 0 0 0 0.45,-0.65 z"
     id="path5181" />
  <path
     fill="#000000"
     d="m 92.618786,69.146465 q 1.21,2.98 4.53,1.18 0.98,-0.52 0.93,0.1 -0.03,0.28 -0.31,0.52 -1.37,1.13 -3.06,1.03 -1.57,-0.09 -2.63,-1.36 -1.39,-1.68 -0.78,-3.75 0.6,-2.03 2.47,-2.84 2.3,-0.99 4.24,1.33 1.33,1.58 0.03,2.27 -0.51,0.27 -1.72,0.15 -1.84,-0.17 -3.44,0.65 a 0.57,0.55 65.7 0 0 -0.26,0.72 z m 3.64,-3.79 q -1.47,-1.76 -3,0.12 -1.43,1.77 0.77,1.54 0.7,-0.07 1.33,-0.02 2.46,0.21 0.9,-1.64 z"
     id="path5183" />
  <path
     fill="#000000"
     d="m 105.68879,69.416465 q 0.92,2.87 4.48,0.99 1.18,-0.63 0.85,0.18 -0.11,0.26 -0.35,0.42 -2.74,1.88 -4.79,0.35 -1.65,-1.23 -1.84,-3.48 -0.24,-2.76 2.6,-3.77 4.15,-1.49 4.7,2.76 a 0.67,0.66 75.5 0 1 -0.41,0.71 q -1.4,0.55 -3.8,0.17 a 1.29,1.3 85.7 0 0 -1.44,1.67 z m 3.59,-4.05 q -2.38,-1.25 -3.54,0.78 a 0.42,0.41 22.1 0 0 0.26,0.6 q 1.79,0.5 3.1,0.16 2.08,-0.55 0.18,-1.54 z"
     id="path5185" />
  <path
     fill="#000000"
     d="m 120.57879,68.716465 q 0.69,3.73 4.43,1.76 1.66,-0.87 0.8,0.39 -0.16,0.24 -0.44,0.38 -3.29,1.72 -5.12,-0.45 -1.42,-1.7 -0.93,-4.04 0.62,-3.03 4.13,-2.77 1.51,0.11 2.25,0.94 0.83,0.91 0.61,2.26 a 0.7,0.62 0.7 0 1 -0.6,0.52 l -4.7,0.46 a 0.47,0.48 82.2 0 0 -0.43,0.55 z m 3.32,-3.66 a 1.7,1.71 45.2 0 0 -2.13,0 q -3.02,2.44 1.69,2 2.61,-0.24 0.44,-2 z"
     id="path5187" />
  <path
     fill="#000000"
     d="m 146.36879,67.926465 a 4.11,4.11 0 0 1 -4.11,4.11 4.11,4.11 0 0 1 -4.11,-4.11 4.11,4.11 0 0 1 4.11,-4.11 4.11,4.11 0 0 1 4.11,4.11 z m -4.2666,3.0655 a 2.74,3.08 3.1 0 0 2.9026,-2.9273 2.74,3.08 3.1 0 0 -2.5694,-3.2237 2.74,3.08 3.1 0 0 -2.9026,2.9273 2.74,3.08 3.1 0 0 2.5694,3.2237 z"
     id="path5189" />
  <path
     fill="#000000"
     d="m 149.88879,71.476465 q -0.14,0.81 0.08,1.69 0.39,1.6 -0.59,1.62 a 0.59,0.5 86.7 0 1 -0.53,-0.55 q -0.26,-3.94 -0.17,-7.9 0.01,-0.39 -0.16,-1.32 -0.26,-1.44 1.49,-0.58 a 0.89,0.91 42.1 0 0 0.86,-0.05 q 2.55,-1.57 4.02,0.84 1.73,2.86 -0.23,5.49 -0.79,1.05 -1.88,1.17 -1.25,0.14 -2.36,-0.6 a 0.35,0.32 23.2 0 0 -0.53,0.19 z m 2.0899,-0.521 a 2.18,3.06 1.5 0 0 2.2594,-3.0019 2.18,3.06 1.5 0 0 -2.0992,-3.1161 2.18,3.06 1.5 0 0 -2.2594,3.0019 2.18,3.06 1.5 0 0 2.0992,3.1161 z"
     id="path5191" />
  <path
     fill="#000000"
     d="m 162.58879,68.726465 q 0.68,3.39 4.43,1.77 1.81,-0.79 0.81,0.39 -0.18,0.22 -0.44,0.37 -3.63,2.17 -5.69,-1.09 -1.24,-1.96 -0.33,-3.86 0.81,-1.69 2.58,-2.29 2.41,-0.82 4.25,1.65 1.59,2.12 -1,2.25 l -4.2,0.21 a 0.51,0.45 83 0 0 -0.41,0.6 z m 3.67,-3.37 q -1.47,-1.76 -3,0.12 -1.43,1.77 0.77,1.54 0.7,-0.07 1.33,-0.02 2.46,0.21 0.9,-1.64 z"
     id="path5193" />
  <path
     fill="#000000"
     d="m 175.68879,69.416465 q 0.92,2.87 4.55,1.14 1.6,-0.76 0.55,0.38 -0.15,0.17 -0.35,0.28 -4.07,2.39 -5.93,-1.36 -1.45,-2.94 0.62,-4.77 1.43,-1.28 3.31,-1.21 2.49,0.09 2.9,2.98 a 0.69,0.66 75.7 0 1 -0.41,0.72 q -1.4,0.55 -3.8,0.17 a 1.29,1.3 85.7 0 0 -1.44,1.67 z m 3.32,-4.3 q -2.28,-0.77 -3.29,1.04 a 0.42,0.41 21.5 0 0 0.27,0.59 q 1.63,0.42 3.28,0.1 a 0.64,0.75 85.2 0 0 0.6,-0.61 q 0.07,-0.8 -0.86,-1.12 z"
     id="path5195" />
  <path
     fill="#000000"
     d="m 190.39879,64.806465 q 3.58,-2.63 4.68,2.46 0.26,1.21 0.16,2.45 -0.21,2.57 -1.16,2.01 a 0.72,1 10.6 0 1 -0.38,-0.8 q -0.02,-2 -0.17,-4 -0.23,-2.95 -2.25,-1.73 -0.98,0.59 -1.17,1.73 -0.25,1.58 0.09,3.99 0.22,1.54 -1,0.94 a 0.81,0.83 12.5 0 1 -0.46,-0.74 l -0.03,-4.57 q -0.01,-2.67 -2.33,-1.44 -1.77,0.94 -1.09,5.19 a 1.43,1.44 76.1 0 1 -0.96,1.58 q -1.2,0.4 -0.63,-1.71 0.3,-1.12 -0.13,-5.19 a 0.71,0.6 78.3 0 1 0.39,-0.72 q 0.5,-0.18 1.03,-0.03 a 1.49,1.09 34.9 0 0 0.91,-0.02 q 2.05,-0.82 3.74,0.56 a 0.64,0.61 46.5 0 0 0.76,0.04 z"
     id="path5197" />
  <path
     fill="#000000"
     d="m 198.58879,68.726465 q 0.66,3.4 4.43,1.77 1.81,-0.79 0.81,0.39 -0.18,0.22 -0.45,0.32 -5.43,2.18 -6.06,-2.55 -0.33,-2.47 1.19,-3.95 2.07,-2.02 5.13,0.27 1.41,1.06 0.54,2.47 a 1.1,0.7 6.6 0 1 -0.8,0.39 l -4.38,0.31 a 0.49,0.45 82.4 0 0 -0.41,0.58 z m 0.35,-2.98 a 0.65,0.65 0 0 0 0.47,0.93 q 2.97,0.55 3.31,-0.23 0.38,-0.9 -1.25,-1.52 -1.78,-0.68 -2.53,0.82 z"
     id="path5199" />
  <path
     fill="#000000"
     d="m 208.87879,64.406465 q 2.37,-1.32 3.51,0.48 0.55,0.87 0.54,2.67 -0.03,2.2 0.08,2.8 0.3,1.58 -0.77,1.39 a 0.59,0.67 3 0 1 -0.5,-0.63 q -0.08,-1.6 -0.01,-3.2 0.19,-4.63 -3.32,-2.23 a 0.99,1 72.8 0 0 -0.42,0.79 l -0.05,4.43 a 1.26,0.88 76.3 0 1 -0.34,0.88 q -0.71,0.6 -0.73,-0.87 -0.06,-3.1 -0.32,-6.19 a 0.56,0.5 85.6 0 1 0.45,-0.59 q 0.58,-0.04 1.06,0.24 a 0.87,0.77 43.6 0 0 0.82,0.03 z"
     id="path5201" />
  <path
     fill="#000000"
     d="m 32.058786,82.356465 q -1.31,-0.89 -3.11,-0.43 -1.67,0.43 -2.87,-0.44 a 0.61,0.66 29.6 0 1 -0.18,-0.78 q 2.27,-5.11 5.3,-9.81 1.02,-1.59 2.58,-0.75 a 0.77,0.93 11.1 0 1 0.41,0.76 l 0.16,8.82 a 0.67,0.62 5.9 0 0 0.53,0.6 q 3.11,0.67 -0.01,1.64 a 0.7,0.82 82.4 0 0 -0.58,0.64 l -0.15,1.49 a 0.82,0.62 88 0 1 -0.47,0.67 q -2.02,0.62 -1.37,-1.63 a 0.66,0.76 24.1 0 0 -0.24,-0.78 z m -0.23,-9.85 -3.9,7.21 a 0.41,0.41 0 0 0 0.26,0.59 q 1.84,0.46 3.6,-0.14 a 0.72,0.71 79.9 0 0 0.48,-0.69 l -0.12,-6.89 q -0.01,-0.65 -0.32,-0.08 z"
     id="path5221" />
  <path
     fill="#ffffff"
     d="m 31.828786,72.506465 q 0.31,-0.57 0.32,0.08 l 0.12,6.89 a 0.72,0.71 79.9 0 1 -0.48,0.69 q -1.76,0.6 -3.6,0.14 a 0.41,0.41 0 0 1 -0.26,-0.59 z"
     id="path5223" />
  <path
     fill="#000000"
     d="m 295.19879,216.91647 a 1,1 0 0 1 -1,1 h -47 a 1,1 0 0 1 -1,-1 V 97.916465 a 1,1 0 0 1 1,-1 h 47 a 1,1 0 0 1 1,1 z m -1,-118.300005 a 0.7,0.7 0 0 0 -0.7,-0.7 h -45.6 a 0.7,0.7 0 0 0 -0.7,0.7 v 37.600005 a 0.7,0.7 0 0 0 0.7,0.7 h 45.6 a 0.7,0.7 0 0 0 0.7,-0.7 z m 0,39.990005 a 0.69,0.69 0 0 0 -0.69,-0.69 h -45.62 a 0.69,0.69 0 0 0 -0.69,0.69 v 37.62 a 0.69,0.69 0 0 0 0.69,0.69 h 45.62 a 0.69,0.69 0 0 0 0.69,-0.69 z m 0,40.05 a 0.74,0.74 0 0 0 -0.74,-0.74 h -45.52 a 0.74,0.74 0 0 0 -0.74,0.74 v 37.52 a 0.74,0.74 0 0 0 0.74,0.74 h 45.52 a 0.74,0.74 0 0 0 0.74,-0.74 z"
     id="path5225" />
  <path
     fill="#ffffff"
     d="m 54.198786,136.14647 a 0.77,0.77 0 0 1 -0.77,0.77 h -45.46 a 0.77,0.77 0 0 1 -0.77,-0.77 V 98.686465 a 0.77,0.77 0 0 1 0.77,-0.77 h 45.46 a 0.77,0.77 0 0 1 0.77,0.77 z m -21.65,-23.44 q 1.08,3.49 -2.85,3.46 -1.92,-0.01 -1.61,1.22 a 0.57,0.67 82.6 0 0 0.67,0.43 q 2.23,-0.15 3.19,0.6 2.66,2.07 0.88,3.88 -1.02,1.04 -2.56,0.98 -1.47,-0.06 -2.8,-0.84 -0.41,-0.24 -0.73,-0.21 -0.74,0.08 -0.49,0.79 0.14,0.37 0.58,0.66 4.71,3.07 7.66,-0.69 1.17,-1.5 0.98,-3.03 -0.24,-1.94 -2.29,-2.78 a 0.32,0.31 34.6 0 1 -0.1,-0.52 q 2.09,-2.02 1.57,-4.09 -0.49,-1.9 -2.67,-2.47 -2.35,-0.6 -4.59,0.87 -0.42,0.28 -0.59,0.67 -0.34,0.81 0.34,0.94 a 0.7,1.32 44.5 0 0 0.89,-0.28 q 1.89,-1.33 3.92,-0.32 a 1.18,1.23 4.3 0 1 0.6,0.73 z"
     id="path5227" />
  <path
     fill="#ffffff"
     d="m 294.19879,136.21647 a 0.7,0.7 0 0 1 -0.7,0.7 h -45.6 a 0.7,0.7 0 0 1 -0.7,-0.7 V 98.616465 a 0.7,0.7 0 0 1 0.7,-0.7 h 45.6 a 0.7,0.7 0 0 1 0.7,0.7 z m -21.65,-23.51 q 1.08,3.49 -2.85,3.46 -1.92,-0.01 -1.61,1.22 a 0.57,0.67 82.6 0 0 0.67,0.43 q 2.23,-0.15 3.19,0.6 2.66,2.07 0.88,3.88 -1.02,1.04 -2.56,0.98 -1.47,-0.06 -2.8,-0.84 -0.41,-0.24 -0.73,-0.21 -0.74,0.08 -0.49,0.79 0.14,0.37 0.58,0.66 4.71,3.07 7.66,-0.69 1.17,-1.5 0.98,-3.03 -0.24,-1.94 -2.29,-2.78 a 0.32,0.31 34.6 0 1 -0.1,-0.52 q 2.09,-2.02 1.57,-4.09 -0.49,-1.9 -2.67,-2.47 -2.35,-0.6 -4.59,0.87 -0.42,0.28 -0.59,0.67 -0.34,0.81 0.34,0.94 a 0.7,1.32 44.5 0 0 0.89,-0.28 q 1.89,-1.33 3.92,-0.32 a 1.18,1.23 4.3 0 1 0.6,0.73 z"
     id="path5229" />
  <path
     fill="#000000"
     d="m 137.13879,101.28647 q 3.64,-2.980005 5.83,0.06 1.18,1.63 1.37,3.86 0.2,2.54 -1.2,4.15 -2.52,2.87 -5.94,0.26 -0.5,-0.38 -0.5,0.25 0,2.05 0.12,3.79 0.12,1.84 -1.37,1.18 a 0.75,0.82 11 0 1 -0.45,-0.73 v -13.37 a 0.74,0.65 82.7 0 1 0.47,-0.69 q 1.16,-0.340005 1.28,1.05 0.04,0.47 0.39,0.19 z m 2.2672,8.0581 a 2.93,3.91 1.8 0 0 3.0514,-3.8161 2.93,3.91 1.8 0 0 -2.8058,-4.0001 2.93,3.91 1.8 0 0 -3.0514,3.8161 2.93,3.91 1.8 0 0 2.8058,4.0001 z"
     id="path5231" />
  <path
     fill="#000000"
     d="m 150.66239,111.01567 a 5.05,5.63 6.9 0 1 -4.337,-6.1959 5.05,5.63 6.9 0 1 5.6898,-4.982505 5.05,5.63 6.9 0 1 4.337,6.195905 5.05,5.63 6.9 0 1 -5.6898,4.9825 z m 0.511,-1.6527 a 3.23,3.95 2.4 0 0 3.3926,-3.8112 3.23,3.95 2.4 0 0 -3.0618,-4.0818 3.23,3.95 2.4 0 0 -3.3926,3.8112 3.23,3.95 2.4 0 0 3.0618,4.0818 z"
     id="path5233" />
  <path
     fill="#000000"
     d="m 161.13879,101.28647 q 3.62,-2.950005 5.82,0.05 1.19,1.63 1.38,3.87 0.2,2.54 -1.2,4.15 -2.52,2.88 -5.93,0.26 -0.51,-0.39 -0.51,0.25 0,2.05 0.12,3.79 0.12,1.84 -1.37,1.18 a 0.75,0.82 11 0 1 -0.45,-0.73 v -13.37 a 0.74,0.65 82.7 0 1 0.47,-0.69 q 1.16,-0.340005 1.28,1.05 0.04,0.47 0.39,0.19 z m 2.2876,8.0487 a 2.93,3.91 1.5 0 0 3.0314,-3.832 2.93,3.91 1.5 0 0 -2.8266,-3.9854 2.93,3.91 1.5 0 0 -3.0314,3.832 2.93,3.91 1.5 0 0 2.8266,3.9854 z"
     id="path5235" />
  <path
     fill="#000000"
     d="m 31.948786,111.97647 q -2.03,-1.01 -3.92,0.32 a 0.7,1.32 44.5 0 1 -0.89,0.28 q -0.68,-0.13 -0.34,-0.94 0.17,-0.39 0.59,-0.67 2.24,-1.47 4.59,-0.87 2.18,0.57 2.67,2.47 0.52,2.07 -1.57,4.09 a 0.32,0.31 34.6 0 0 0.1,0.52 q 2.05,0.84 2.29,2.78 0.19,1.53 -0.98,3.03 -2.95,3.76 -7.66,0.69 -0.44,-0.29 -0.58,-0.66 -0.25,-0.71 0.49,-0.79 0.32,-0.03 0.73,0.21 1.33,0.78 2.8,0.84 1.54,0.06 2.56,-0.98 1.78,-1.81 -0.88,-3.88 -0.96,-0.75 -3.19,-0.6 a 0.57,0.67 82.6 0 1 -0.67,-0.43 q -0.31,-1.23 1.61,-1.22 3.93,0.03 2.85,-3.46 a 1.18,1.23 4.3 0 0 -0.6,-0.73 z"
     id="path5243" />
  <path
     fill="#000000"
     d="m 271.94879,111.97647 q -2.03,-1.01 -3.92,0.32 a 0.7,1.32 44.5 0 1 -0.89,0.28 q -0.68,-0.13 -0.34,-0.94 0.17,-0.39 0.59,-0.67 2.24,-1.47 4.59,-0.87 2.18,0.57 2.67,2.47 0.52,2.07 -1.57,4.09 a 0.32,0.31 34.6 0 0 0.1,0.52 q 2.05,0.84 2.29,2.78 0.19,1.53 -0.98,3.03 -2.95,3.76 -7.66,0.69 -0.44,-0.29 -0.58,-0.66 -0.25,-0.71 0.49,-0.79 0.32,-0.03 0.73,0.21 1.33,0.78 2.8,0.84 1.54,0.06 2.56,-0.98 1.78,-1.81 -0.88,-3.88 -0.96,-0.75 -3.19,-0.6 a 0.57,0.67 82.6 0 1 -0.67,-0.43 q -0.31,-1.23 1.61,-1.22 3.93,0.03 2.85,-3.46 a 1.18,1.23 4.3 0 0 -0.6,-0.73 z"
     id="path5245" />
  <path
     fill="#3f6f9a"
     d="m 209.63879,143.97647 -127.620004,-0.12 a 0.52,0.48 0.5 0 1 -0.52,-0.49 l 0.17,-14.7 a 0.53,0.51 0.6 0 1 0.53,-0.5 l 127.480004,-0.25 a 0.52,0.52 0 0 0 0.52,-0.52 v -6.74 q 0,-1.12 0.79,-0.32 l 15.22,15.22 a 0.51,0.52 44.6 0 1 0,0.73 l -15.24,15.36 q -0.69,0.69 -0.71,-0.28 l -0.12,-6.9 a 0.5,0.49 0 0 0 -0.5,-0.49 z m 2.49,-15.18 a 1.55,1.17 0.8 0 1 -1.55,1.14 q -44.63,-0.32 -86.13,-0.07 -20.47,0.12 -41.210004,-0.52 a 0.5,0.49 0.6 0 0 -0.52,0.5 l 0.14,12.12 a 0.5,0.52 88.3 0 0 0.54,0.49 q 13.36,-0.54 17.550004,-0.54 55.09,-0.05 109.92,0.06 a 1.44,1.44 0 0 1 1.43,1.56 q -0.39,4.55 1.39,2.61 0.85,-0.92 0.96,-1.03 4.44,-4.22 8.47,-8.83 a 0.55,0.53 43.8 0 0 -0.03,-0.74 l -9.89,-10.12 q -0.96,-0.99 -1,0.48 z"
     id="path5247" />
  <path
     fill="#5b9bd5"
     d="m 212.12879,128.79647 0.07,-2.89 q 0.04,-1.47 1,-0.48 l 9.89,10.12 a 0.55,0.53 43.8 0 1 0.03,0.74 q -4.03,4.61 -8.47,8.83 -0.11,0.11 -0.96,1.03 -1.78,1.94 -1.39,-2.61 a 1.44,1.44 0 0 0 -1.43,-1.56 q -54.83,-0.11 -109.92,-0.06 -4.190004,0 -17.550004,0.54 a 0.5,0.52 88.3 0 1 -0.54,-0.49 l -0.14,-12.12 a 0.5,0.49 0.6 0 1 0.52,-0.5 q 20.740004,0.64 41.210004,0.52 41.5,-0.25 86.13,0.07 a 1.55,1.17 0.8 0 0 1.55,-1.14 z"
     id="path5249" />
  <path
     fill="#ffffff"
     d="m 54.198786,176.17647 a 0.74,0.74 0 0 1 -0.74,0.74 h -45.52 a 0.74,0.74 0 0 1 -0.74,-0.74 v -37.52 a 0.74,0.74 0 0 1 0.74,-0.74 h 45.52 a 0.74,0.74 0 0 1 0.74,0.74 z m -24.87,-13.21 q 1.62,-1.96 3.32,-3.86 1.34,-1.5 1.92,-3.34 0.63,-2 -0.09,-3.68 -1.27,-2.94 -5.3,-1.99 -1.79,0.42 -2.28,1.58 -0.38,0.92 0.57,0.63 4.57,-1.42 5.17,1.27 0.36,1.59 -1,3.8 -1.73,2.8 -4.14,5.12 -2.52,2.42 0.97,2.42 h 6.24 a 1.18,0.73 10.8 0 0 0.86,-0.33 q 0.3,-0.39 -0.02,-0.82 a 0.74,1.17 79.1 0 0 -0.86,-0.34 l -5.18,-0.06 q -0.51,0 -0.18,-0.4 z"
     id="path5251" />
  <path
     fill="#ffffff"
     d="m 294.19879,176.22647 a 0.69,0.69 0 0 1 -0.69,0.69 h -45.62 a 0.69,0.69 0 0 1 -0.69,-0.69 v -37.62 a 0.69,0.69 0 0 1 0.69,-0.69 h 45.62 a 0.69,0.69 0 0 1 0.69,0.69 z m -24.87,-13.26 q 1.62,-1.96 3.32,-3.86 1.34,-1.5 1.92,-3.34 0.63,-2 -0.09,-3.68 -1.27,-2.94 -5.3,-1.99 -1.79,0.42 -2.28,1.58 -0.38,0.92 0.57,0.63 4.57,-1.42 5.17,1.27 0.36,1.59 -1,3.8 -1.73,2.8 -4.14,5.12 -2.52,2.42 0.97,2.42 h 6.24 a 1.18,0.73 10.8 0 0 0.86,-0.33 q 0.3,-0.39 -0.02,-0.82 a 0.74,1.17 79.1 0 0 -0.86,-0.34 l -5.18,-0.06 q -0.51,0 -0.18,-0.4 z"
     id="path5253" />
  <path
     fill="#000000"
     d="m 29.508786,163.36647 5.18,0.06 a 0.74,1.17 79.1 0 1 0.86,0.34 q 0.32,0.43 0.02,0.82 a 1.18,0.73 10.8 0 1 -0.86,0.33 h -6.24 q -3.49,0 -0.97,-2.42 2.41,-2.32 4.14,-5.12 1.36,-2.21 1,-3.8 -0.6,-2.69 -5.17,-1.27 -0.95,0.29 -0.57,-0.63 0.49,-1.16 2.28,-1.58 4.03,-0.95 5.3,1.99 0.72,1.68 0.09,3.68 -0.58,1.84 -1.92,3.34 -1.7,1.9 -3.32,3.86 -0.33,0.4 0.18,0.4 z"
     id="path5255" />
  <path
     fill="#000000"
     d="m 269.50879,163.36647 5.18,0.06 a 0.74,1.17 79.1 0 1 0.86,0.34 q 0.32,0.43 0.02,0.82 a 1.18,0.73 10.8 0 1 -0.86,0.33 h -6.24 q -3.49,0 -0.97,-2.42 2.41,-2.32 4.14,-5.12 1.36,-2.21 1,-3.8 -0.6,-2.69 -5.17,-1.27 -0.95,0.29 -0.57,-0.63 0.49,-1.16 2.28,-1.58 4.03,-0.95 5.3,1.99 0.72,1.68 0.09,3.68 -0.58,1.84 -1.92,3.34 -1.7,1.9 -3.32,3.86 -0.33,0.4 0.18,0.4 z"
     id="path5257" />
  <path
     fill="#ffffff"
     d="m 54.198786,216.17647 a 0.74,0.74 0 0 1 -0.74,0.74 h -45.52 a 0.74,0.74 0 0 1 -0.74,-0.74 v -37.52 a 0.74,0.74 0 0 1 0.74,-0.74 h 45.52 a 0.74,0.74 0 0 1 0.74,0.74 z m -23.51,-23.21 0.12,9.52 a 0.75,0.82 77.6 0 1 -0.5,0.71 q -1,0.4 -2.11,0.29 a 1.04,0.77 16.7 0 0 -0.84,0.3 q -0.72,0.93 0.85,0.99 3.11,0.13 6.24,0.14 a 1.21,1 16.8 0 0 0.86,-0.36 q 1.1,-1.24 -1.67,-1.11 a 1.07,1.09 88.7 0 1 -1.14,-1.07 l -0.04,-11.9 a 0.59,0.58 79.6 0 0 -0.78,-0.55 q -2.36,0.86 -4.08,2.68 a 0.85,0.96 56.3 0 0 -0.23,0.87 q 0.38,1.3 1.58,-0.07 0.52,-0.61 1.21,-0.82 a 0.4,0.41 81 0 1 0.53,0.38 z"
     id="path5259" />
  <path
     fill="#ffffff"
     d="m 294.19879,216.17647 a 0.74,0.74 0 0 1 -0.74,0.74 h -45.52 a 0.74,0.74 0 0 1 -0.74,-0.74 v -37.52 a 0.74,0.74 0 0 1 0.74,-0.74 h 45.52 a 0.74,0.74 0 0 1 0.74,0.74 z m -23.51,-23.21 0.12,9.52 a 0.75,0.82 77.6 0 1 -0.5,0.71 q -1,0.4 -2.11,0.29 a 1.04,0.77 16.7 0 0 -0.84,0.3 q -0.72,0.93 0.85,0.99 3.11,0.13 6.24,0.14 a 1.21,1 16.8 0 0 0.86,-0.36 q 1.1,-1.24 -1.67,-1.11 a 1.07,1.09 88.7 0 1 -1.14,-1.07 l -0.04,-11.9 a 0.59,0.58 79.6 0 0 -0.78,-0.55 q -2.36,0.86 -4.08,2.68 a 0.85,0.96 56.3 0 0 -0.23,0.87 q 0.38,1.3 1.58,-0.07 0.52,-0.61 1.21,-0.82 a 0.4,0.41 81 0 1 0.53,0.38 z"
     id="path5261" />
  <path
     fill="#000000"
     d="m 30.158786,192.58647 q -0.69,0.21 -1.21,0.82 -1.2,1.37 -1.58,0.07 a 0.85,0.96 56.3 0 1 0.23,-0.87 q 1.72,-1.82 4.08,-2.68 a 0.59,0.58 79.6 0 1 0.78,0.55 l 0.04,11.9 a 1.07,1.09 88.7 0 0 1.14,1.07 q 2.77,-0.13 1.67,1.11 a 1.21,1 16.8 0 1 -0.86,0.36 q -3.13,-0.01 -6.24,-0.14 -1.57,-0.06 -0.85,-0.99 a 1.04,0.77 16.7 0 1 0.84,-0.3 q 1.11,0.11 2.11,-0.29 a 0.75,0.82 77.6 0 0 0.5,-0.71 l -0.12,-9.52 a 0.4,0.41 81 0 0 -0.53,-0.38 z"
     id="path5263" />
  <path
     fill="#000000"
     d="m 270.15879,192.58647 q -0.69,0.21 -1.21,0.82 -1.2,1.37 -1.58,0.07 a 0.85,0.96 56.3 0 1 0.23,-0.87 q 1.72,-1.82 4.08,-2.68 a 0.59,0.58 79.6 0 1 0.78,0.55 l 0.04,11.9 a 1.07,1.09 88.7 0 0 1.14,1.07 q 2.77,-0.13 1.67,1.11 a 1.21,1 16.8 0 1 -0.86,0.36 q -3.13,-0.01 -6.24,-0.14 -1.57,-0.06 -0.85,-0.99 a 1.04,0.77 16.7 0 1 0.84,-0.3 q 1.11,0.11 2.11,-0.29 a 0.75,0.82 77.6 0 0 0.5,-0.71 l -0.12,-9.52 a 0.4,0.41 81 0 0 -0.53,-0.38 z"
     id="path5265" />
  <path
     fill="#000000"
     d="m 2.888786,253.22647 q -1.92999998,-1.72 -1.46,-3.89 0.4,-1.87 2.2,-2.87 2.4,-1.33 5.2,0.15 a 1.24,1.24 0 0 1 0.61,0.71 q 0.8,2.36 -1.45,1.03 -0.71,-0.41 -1.32,-0.45 -3.52,-0.2 -2.13,2.76 a 1.35,1.1 1.8 0 0 0.7,0.61 q 1.78,0.65 3.26,1.76 1.67,1.25 1.97,2.92 0.47,2.69 -2.27,4.21 -3.17,1.76 -6.51,-0.06 a 1.41,1.09 11.2 0 1 -0.62,-0.71 q -0.51999998,-1.72 3.03,-0.66 a 3.5,3.48 38.6 0 0 2.69,-0.29 q 2.39,-1.31 0.03,-3.1 -0.56,-0.42 -1.98,-1 -1.3,-0.53 -1.95,-1.12 z"
     id="path5267" />
  <path
     fill="#000000"
     d="m 22.248786,246.60647 q 0.12,1.75 -2.49,1.15 a 1.27,1.27 0 0 0 -1.56,1.24 v 11.27 a 0.61,0.61 0 0 1 -0.5,0.6 q -2.48,0.47 -2.31,-1.51 0.06,-0.79 0.06,-0.88 0.04,-5.08 -0.04,-9.19 a 1.47,1.47 0 0 0 -1.58,-1.44 q -2.93,0.23 -2.49,-1.4 a 0.73,0.63 5.5 0 1 0.68,-0.48 l 9.51,-0.05 a 0.73,0.72 88.3 0 1 0.72,0.69 z"
     id="path5269" />
  <path
     fill="#000000"
     d="m 22.888786,260.61647 a 0.55,0.56 22.2 0 1 -0.28,-0.69 l 4.63,-13.35 a 0.89,1.06 4.6 0 1 0.63,-0.64 q 1.75,-0.51 3.13,0.48 a 1.71,1.1 88.5 0 1 0.53,0.78 l 4.37,12.81 a 0.57,0.55 74.6 0 1 -0.4,0.73 q -3.28,0.73 -2.86,-1.77 a 0.89,0.9 4.9 0 0 -0.88,-1.05 h -4.49 a 1.46,1.46 0 0 0 -1.42,1.12 q -0.63,2.64 -2.96,1.58 z m 5.71,-10.89 -1.69,5.64 a 0.38,0.41 8.7 0 0 0.35,0.52 h 3.62 a 0.39,0.4 81.5 0 0 0.39,-0.51 l -1.73,-5.67 q -0.47,-1.53 -0.94,0.02 z"
     id="path5271" />
  <path
     fill="#000000"
     d="m 39.888786,259.72647 q -4.2,-3.25 -2.1,-9.07 2.34,-6.46 8.76,-4.15 0.63,0.22 0.99,0.71 1.07,1.42 -0.58,1.33 -0.43,-0.03 -1.1,-0.31 -3.63,-1.5 -5.1,1.99 -0.94,2.26 -0.39,4.96 0.46,2.22 1.78,3.16 1.69,1.19 4.12,0.16 2.2,-0.92 1.4,0.95 a 1.4,1.48 86.8 0 1 -0.66,0.7 q -3.93,2.05 -7.12,-0.43 z"
     id="path5273" />
  <path
     fill="#000000"
     d="m 52.988786,254.47647 -0.04,5.49 a 0.93,0.91 84.1 0 1 -0.71,0.89 q -2.54,0.55 -2.37,-1.42 0.08,-0.97 0.08,-1.05 0,-5.75 0,-11.79 a 0.61,0.6 85.6 0 1 0.51,-0.6 q 2.88,-0.47 2.69,1.94 -0.15,1.82 -0.26,3.68 -0.08,1.29 0.68,0.25 l 3.82,-5.26 a 1.51,1.57 16 0 1 1.12,-0.65 q 3.14,-0.28 1.61,1.61 -1.79,2.22 -3.71,4.54 a 0.96,0.97 48.8 0 0 -0.08,1.13 l 4.3,6.61 a 0.67,0.66 66.9 0 1 -0.4,1.01 q -2.05,0.46 -2.9,-1.04 -1.69,-2.97 -3.98,-5.47 -0.35,-0.39 -0.36,0.13 z"
     id="path5275" />
  <path
     fill="#000000"
     d="m 242.88879,253.22647 q -1.93,-1.72 -1.46,-3.89 0.4,-1.87 2.2,-2.87 2.4,-1.33 5.2,0.15 a 1.24,1.24 0 0 1 0.61,0.71 q 0.8,2.36 -1.45,1.03 -0.71,-0.41 -1.32,-0.45 -3.52,-0.2 -2.13,2.76 a 1.35,1.1 1.8 0 0 0.7,0.61 q 1.78,0.65 3.26,1.76 1.67,1.25 1.97,2.92 0.47,2.69 -2.27,4.21 -3.17,1.76 -6.51,-0.06 a 1.41,1.09 11.2 0 1 -0.62,-0.71 q -0.52,-1.72 3.03,-0.66 a 3.5,3.48 38.6 0 0 2.69,-0.29 q 2.39,-1.31 0.03,-3.1 -0.56,-0.42 -1.98,-1 -1.3,-0.53 -1.95,-1.12 z"
     id="path5277" />
  <path
     fill="#000000"
     d="m 262.24879,246.60647 q 0.12,1.75 -2.49,1.15 a 1.27,1.27 0 0 0 -1.56,1.24 v 11.27 a 0.61,0.61 0 0 1 -0.5,0.6 q -2.48,0.47 -2.31,-1.51 0.06,-0.79 0.06,-0.88 0.04,-5.08 -0.04,-9.19 a 1.47,1.47 0 0 0 -1.58,-1.44 q -2.93,0.23 -2.49,-1.4 a 0.73,0.63 5.5 0 1 0.68,-0.48 l 9.51,-0.05 a 0.73,0.72 88.3 0 1 0.72,0.69 z"
     id="path5279" />
  <path
     fill="#000000"
     d="m 262.88879,260.61647 a 0.55,0.56 22.2 0 1 -0.28,-0.69 l 4.63,-13.35 a 0.89,1.06 4.6 0 1 0.63,-0.64 q 1.75,-0.51 3.13,0.48 a 1.71,1.1 88.5 0 1 0.53,0.78 l 4.37,12.81 a 0.57,0.55 74.6 0 1 -0.4,0.73 q -3.28,0.73 -2.86,-1.77 a 0.89,0.9 4.9 0 0 -0.88,-1.05 h -4.49 a 1.46,1.46 0 0 0 -1.42,1.12 q -0.63,2.64 -2.96,1.58 z m 5.71,-10.89 -1.69,5.64 a 0.38,0.41 8.7 0 0 0.35,0.52 h 3.62 a 0.39,0.4 81.5 0 0 0.39,-0.51 l -1.73,-5.67 q -0.47,-1.53 -0.94,0.02 z"
     id="path5281" />
  <path
     fill="#000000"
     d="m 279.88879,259.72647 q -4.2,-3.25 -2.1,-9.07 2.34,-6.46 8.76,-4.15 0.63,0.22 0.99,0.71 1.07,1.42 -0.58,1.33 -0.43,-0.03 -1.1,-0.31 -3.63,-1.5 -5.1,1.99 -0.94,2.26 -0.39,4.96 0.46,2.22 1.78,3.16 1.69,1.19 4.12,0.16 2.2,-0.92 1.4,0.95 a 1.4,1.48 86.8 0 1 -0.66,0.7 q -3.93,2.05 -7.12,-0.43 z"
     id="path5283" />
  <path
     fill="#000000"
     d="m 292.98879,254.47647 -0.04,5.49 a 0.93,0.91 84.1 0 1 -0.71,0.89 q -2.54,0.55 -2.37,-1.42 0.08,-0.97 0.08,-1.05 0,-5.75 0,-11.79 a 0.61,0.6 85.6 0 1 0.51,-0.6 q 2.88,-0.47 2.69,1.94 -0.15,1.82 -0.26,3.68 -0.08,1.29 0.68,0.25 l 3.82,-5.26 a 1.51,1.57 16 0 1 1.12,-0.65 q 3.14,-0.28 1.61,1.61 -1.79,2.22 -3.71,4.54 a 0.96,0.97 48.8 0 0 -0.08,1.13 l 4.3,6.61 a 0.67,0.66 66.9 0 1 -0.4,1.01 q -2.05,0.46 -2.9,-1.04 -1.69,-2.97 -3.98,-5.47 -0.35,-0.39 -0.36,0.13 z"
     id="path5285" />
</svg>
